# Blender 5.1.1
# www.blender.org
o tank.003
v 0.939487 0.776123 -0.351629
v 0.621490 0.776123 -0.605227
v 0.621490 1.159319 -0.605227
v 0.939487 1.159319 -0.351629
v 0.349328 0.776123 -0.263953
v 0.667325 0.776123 -0.010354
v 0.667326 1.159320 -0.010354
v 0.349328 1.159320 -0.263953
v 0.667325 0.776123 -0.010354
v 0.939487 0.776123 -0.351629
v 0.939487 1.159319 -0.351629
v 0.667326 1.159320 -0.010354
v 0.621490 0.776123 -0.605227
v 0.349328 0.776123 -0.263953
v 0.349328 1.159320 -0.263953
v 0.621490 1.159319 -0.605227
v 0.621490 0.776123 -0.605227
v 0.939487 0.776123 -0.351629
v 0.667325 0.776123 -0.010354
v 0.349328 0.776123 -0.263953
v 0.932673 0.780548 -0.350616
v 0.931141 1.159319 -0.350389
v 0.622138 1.159319 -0.596815
v 0.622019 0.780548 -0.598358
v 0.356143 0.780548 -0.264965
v 0.357674 1.159320 -0.265193
v 0.666677 1.159320 -0.018767
v 0.666796 0.780548 -0.017223
v 0.666796 0.780548 -0.017223
v 0.666677 1.159320 -0.018767
v 0.931141 1.159319 -0.350389
v 0.932673 0.780548 -0.350616
v 0.622019 0.780548 -0.598358
v 0.622138 1.159319 -0.596815
v 0.357674 1.159320 -0.265193
v 0.356143 0.780548 -0.264965
v 0.622019 0.780548 -0.598358
v 0.356143 0.780548 -0.264965
v 0.666796 0.780548 -0.017223
v 0.932673 0.780548 -0.350616
v 0.621490 1.159319 -0.605227
v 0.349328 1.159320 -0.263953
v 0.357674 1.159320 -0.265193
v 0.622138 1.159319 -0.596815
v 0.667326 1.159320 -0.010354
v 0.666677 1.159320 -0.018767
v 0.939487 1.159319 -0.351629
v 0.931141 1.159319 -0.350389
vn 0.6235 -0.0000 -0.7818
vn -0.6235 -0.0000 0.7818
vn 0.7818 -0.0000 0.6235
vn -0.7818 -0.0000 -0.6235
vn -0.0000 -1.0000 -0.0000
vn -0.6235 -0.0030 0.7818
vn 0.6235 -0.0030 -0.7818
vn -0.7818 -0.0028 -0.6235
vn 0.7818 -0.0028 0.6235
vn -0.0000 1.0000 -0.0000
s 0
f 1//1 2//1 3//1
f 1//1 3//1 4//1
f 5//2 6//2 7//2
f 5//2 7//2 8//2
f 9//3 10//3 11//3
f 9//3 11//3 12//3
f 13//4 14//4 15//4
f 13//4 15//4 16//4
f 17//5 18//5 19//5
f 17//5 19//5 20//5
f 21//6 22//6 23//6
f 21//6 23//6 24//6
f 25//7 26//7 27//7
f 25//7 27//7 28//7
f 29//8 30//8 31//8
f 29//8 31//8 32//8
f 33//9 34//9 35//9
f 33//9 35//9 36//9
f 37//10 38//10 39//10
f 37//10 39//10 40//10
f 41//10 42//10 43//10
f 41//10 43//10 44//10
f 42//10 45//10 46//10
f 42//10 46//10 43//10
f 45//10 47//10 48//10
f 45//10 48//10 46//10
f 47//10 41//10 44//10
f 47//10 44//10 48//10
f 47//5 42//5 41//5
f 43//10 48//10 44//10
f 47//5 45//5 42//5
f 43//10 46//10 48//10
