# Blender 5.1.1
# www.blender.org
o roage
v -0.637348 0.467806 0.597377
v -0.635232 0.489688 0.611192
v -0.635841 0.490662 0.612038
v -0.644444 0.466233 0.607231
v -0.628539 0.466233 0.618684
v -0.635825 0.490662 0.612049
v -0.635216 0.489688 0.611203
v -0.621443 0.467806 0.608830
v -0.644444 0.466233 0.607231
v -0.635841 0.490662 0.612038
v -0.635825 0.490662 0.612049
v -0.628539 0.466233 0.618684
v -0.621443 0.467806 0.608830
v -0.635216 0.489688 0.611203
v -0.635232 0.489688 0.611192
v -0.637348 0.467806 0.597377
v -0.635825 0.490662 0.612049
v -0.635841 0.490662 0.612038
v -0.635232 0.489688 0.611192
v -0.635216 0.489688 0.611203
v -0.621443 0.467806 0.608830
v -0.637348 0.467806 0.597377
v -0.644444 0.466233 0.607231
v -0.628539 0.466233 0.618684
v -0.697411 0.431376 0.553679
v -0.677151 0.431376 0.595399
v -0.677384 0.488741 0.595512
v -0.697645 0.488741 0.553792
v -0.706414 0.488697 0.558051
v -0.686153 0.488697 0.599770
v -0.685920 0.431332 0.599657
v -0.706180 0.431332 0.557938
v -0.686153 0.488697 0.599770
v -0.677384 0.488741 0.595512
v -0.676812 0.487736 0.596680
v -0.685581 0.487691 0.600939
v -0.677384 0.488741 0.595512
v -0.677151 0.431376 0.595399
v -0.676587 0.432382 0.596571
v -0.676812 0.487736 0.596680
v -0.677151 0.431376 0.595399
v -0.685920 0.431332 0.599657
v -0.685356 0.432338 0.600829
v -0.676587 0.432382 0.596571
v -0.685920 0.431332 0.599657
v -0.686153 0.488697 0.599770
v -0.685581 0.487691 0.600939
v -0.685356 0.432338 0.600829
v -0.685581 0.487691 0.600939
v -0.676812 0.487736 0.596680
v -0.676516 0.485780 0.597269
v -0.685285 0.485736 0.601528
v -0.676812 0.487736 0.596680
v -0.676587 0.432382 0.596571
v -0.676307 0.434337 0.597168
v -0.676516 0.485780 0.597269
v -0.676587 0.432382 0.596571
v -0.685356 0.432338 0.600829
v -0.685076 0.434293 0.601426
v -0.676307 0.434337 0.597168
v -0.685356 0.432338 0.600829
v -0.685581 0.487691 0.600939
v -0.685285 0.485736 0.601528
v -0.685076 0.434293 0.601426
v -0.685285 0.485736 0.601528
v -0.676516 0.485780 0.597269
v -0.676350 0.482083 0.597573
v -0.685119 0.482039 0.601831
v -0.676516 0.485780 0.597269
v -0.676307 0.434337 0.597168
v -0.676171 0.438034 0.597486
v -0.676350 0.482083 0.597573
v -0.676307 0.434337 0.597168
v -0.685076 0.434293 0.601426
v -0.684940 0.437990 0.601744
v -0.676171 0.438034 0.597486
v -0.685076 0.434293 0.601426
v -0.685285 0.485736 0.601528
v -0.685119 0.482039 0.601831
v -0.684940 0.437990 0.601744
v -0.685119 0.482039 0.601831
v -0.676350 0.482083 0.597573
v -0.676171 0.438034 0.597486
v -0.684940 0.437990 0.601744
v -0.706414 0.488697 0.558051
v -0.697645 0.488741 0.553792
v -0.696881 0.489572 0.555374
v -0.705650 0.489528 0.559633
v -0.697645 0.488741 0.553792
v -0.677384 0.488741 0.595512
v -0.678155 0.489572 0.593933
v -0.696881 0.489572 0.555374
v -0.677384 0.488741 0.595512
v -0.686153 0.488697 0.599770
v -0.686924 0.489528 0.598192
v -0.678155 0.489572 0.593933
v -0.686153 0.488697 0.599770
v -0.706414 0.488697 0.558051
v -0.705650 0.489528 0.559633
v -0.686924 0.489528 0.598192
v -0.705650 0.489528 0.559633
v -0.696881 0.489572 0.555374
v -0.695876 0.490497 0.557453
v -0.704645 0.490453 0.561712
v -0.696881 0.489572 0.555374
v -0.678155 0.489572 0.593933
v -0.679168 0.490497 0.591858
v -0.695876 0.490497 0.557453
v -0.678155 0.489572 0.593933
v -0.686924 0.489528 0.598192
v -0.687937 0.490453 0.596116
v -0.679168 0.490497 0.591858
v -0.686924 0.489528 0.598192
v -0.705650 0.489528 0.559633
v -0.704645 0.490453 0.561712
v -0.687937 0.490453 0.596116
v -0.704645 0.490453 0.561712
v -0.695876 0.490497 0.557453
v -0.694224 0.491010 0.560861
v -0.702993 0.490966 0.565119
v -0.695876 0.490497 0.557453
v -0.679168 0.490497 0.591858
v -0.680824 0.491010 0.588453
v -0.694224 0.491010 0.560861
v -0.679168 0.490497 0.591858
v -0.687937 0.490453 0.596116
v -0.689593 0.490966 0.592711
v -0.680824 0.491010 0.588453
v -0.687937 0.490453 0.596116
v -0.704645 0.490453 0.561712
v -0.702993 0.490966 0.565119
v -0.689593 0.490966 0.592711
v -0.702993 0.490966 0.565119
v -0.694224 0.491010 0.560861
v -0.680824 0.491010 0.588453
v -0.689593 0.490966 0.592711
v -0.706180 0.431332 0.557938
v -0.697411 0.431376 0.553679
v -0.697587 0.433731 0.553341
v -0.706356 0.433686 0.557599
v -0.697411 0.431376 0.553679
v -0.697645 0.488741 0.553792
v -0.697802 0.486387 0.553445
v -0.697587 0.433731 0.553341
v -0.697645 0.488741 0.553792
v -0.706414 0.488697 0.558051
v -0.706571 0.486343 0.557703
v -0.697802 0.486387 0.553445
v -0.706414 0.488697 0.558051
v -0.706180 0.431332 0.557938
v -0.706356 0.433686 0.557599
v -0.706571 0.486343 0.557703
v -0.706356 0.433686 0.557599
v -0.697587 0.433731 0.553341
v -0.697900 0.436954 0.552730
v -0.706669 0.436910 0.556988
v -0.697587 0.433731 0.553341
v -0.697802 0.486387 0.553445
v -0.698088 0.483163 0.552821
v -0.697900 0.436954 0.552730
v -0.697802 0.486387 0.553445
v -0.706571 0.486343 0.557703
v -0.706857 0.483119 0.557080
v -0.698088 0.483163 0.552821
v -0.706571 0.486343 0.557703
v -0.706356 0.433686 0.557599
v -0.706669 0.436910 0.556988
v -0.706857 0.483119 0.557080
v -0.706669 0.436910 0.556988
v -0.697900 0.436954 0.552730
v -0.698186 0.439975 0.552173
v -0.706955 0.439931 0.556432
v -0.697900 0.436954 0.552730
v -0.698088 0.483163 0.552821
v -0.698349 0.480142 0.552253
v -0.698186 0.439975 0.552173
v -0.698088 0.483163 0.552821
v -0.706857 0.483119 0.557080
v -0.707118 0.480098 0.556511
v -0.698349 0.480142 0.552253
v -0.706857 0.483119 0.557080
v -0.706669 0.436910 0.556988
v -0.706955 0.439931 0.556432
v -0.707118 0.480098 0.556511
v -0.706955 0.439931 0.556432
v -0.698186 0.439975 0.552173
v -0.698349 0.480142 0.552253
v -0.707118 0.480098 0.556511
v -0.685920 0.431332 0.599657
v -0.677151 0.431376 0.595399
v -0.678183 0.430308 0.593261
v -0.686952 0.430264 0.597520
v -0.677151 0.431376 0.595399
v -0.697411 0.431376 0.553679
v -0.696370 0.430308 0.555812
v -0.678183 0.430308 0.593261
v -0.697411 0.431376 0.553679
v -0.706180 0.431332 0.557938
v -0.705139 0.430264 0.560070
v -0.696370 0.430308 0.555812
v -0.706180 0.431332 0.557938
v -0.685920 0.431332 0.599657
v -0.686952 0.430264 0.597520
v -0.705139 0.430264 0.560070
v -0.686952 0.430264 0.597520
v -0.678183 0.430308 0.593261
v -0.679668 0.429081 0.590191
v -0.688437 0.429037 0.594449
v -0.678183 0.430308 0.593261
v -0.696370 0.430308 0.555812
v -0.694875 0.429081 0.558878
v -0.679668 0.429081 0.590191
v -0.696370 0.430308 0.555812
v -0.705139 0.430264 0.560070
v -0.703644 0.429037 0.563136
v -0.694875 0.429081 0.558878
v -0.705139 0.430264 0.560070
v -0.686952 0.430264 0.597520
v -0.688437 0.429037 0.594449
v -0.703644 0.429037 0.563136
v -0.688437 0.429037 0.594449
v -0.679668 0.429081 0.590191
v -0.694875 0.429081 0.558878
v -0.703644 0.429037 0.563136
v -0.643363 0.471303 0.633095
v -0.640048 0.486191 0.643385
v -0.640051 0.486191 0.643404
v -0.646144 0.471303 0.652334
v -0.636727 0.471303 0.653696
v -0.640042 0.486191 0.643405
v -0.640039 0.486191 0.643386
v -0.633946 0.471303 0.634456
v -0.646144 0.471303 0.652334
v -0.640051 0.486191 0.643404
v -0.640042 0.486191 0.643405
v -0.636727 0.471303 0.653696
v -0.633946 0.471303 0.634456
v -0.640039 0.486191 0.643386
v -0.640048 0.486191 0.643385
v -0.643363 0.471303 0.633095
v -0.640042 0.486191 0.643405
v -0.640051 0.486191 0.643404
v -0.640048 0.486191 0.643385
v -0.640039 0.486191 0.643386
v -0.633946 0.471303 0.634456
v -0.643363 0.471303 0.633095
v -0.646144 0.471303 0.652334
v -0.636727 0.471303 0.653696
v -0.759807 0.461434 0.907511
v -0.759807 0.482054 0.907511
v -0.699173 0.482054 0.854164
v -0.699173 0.461434 0.854164
v -0.710426 0.461434 0.841375
v -0.710426 0.482054 0.841375
v -0.771059 0.482054 0.894721
v -0.771059 0.461434 0.894721
v -0.771059 0.461434 0.894721
v -0.771059 0.482054 0.894721
v -0.759807 0.482054 0.907511
v -0.759807 0.461434 0.907511
v -0.699173 0.461434 0.854164
v -0.699173 0.482054 0.854164
v -0.710426 0.482054 0.841375
v -0.710426 0.461434 0.841375
v -0.759807 0.482054 0.907511
v -0.771059 0.482054 0.894721
v -0.710426 0.482054 0.841375
v -0.699173 0.482054 0.854164
v -0.699173 0.461434 0.854164
v -0.710426 0.461434 0.841375
v -0.771059 0.461434 0.894721
v -0.759807 0.461434 0.907511
v -0.641961 0.433103 0.625242
v -0.658707 0.433103 0.646800
v -0.658828 0.466868 0.646706
v -0.642081 0.466868 0.625148
v -0.646613 0.466842 0.621628
v -0.663359 0.466842 0.643186
v -0.663238 0.433077 0.643280
v -0.646492 0.433077 0.621722
v -0.663359 0.466842 0.643186
v -0.658828 0.466868 0.646706
v -0.659295 0.466276 0.647312
v -0.663827 0.466250 0.643793
v -0.658828 0.466868 0.646706
v -0.658707 0.433103 0.646800
v -0.659179 0.433695 0.647403
v -0.659295 0.466276 0.647312
v -0.658707 0.433103 0.646800
v -0.663238 0.433077 0.643280
v -0.663710 0.433669 0.643883
v -0.659179 0.433695 0.647403
v -0.663238 0.433077 0.643280
v -0.663359 0.466842 0.643186
v -0.663827 0.466250 0.643793
v -0.663710 0.433669 0.643883
v -0.663827 0.466250 0.643793
v -0.659295 0.466276 0.647312
v -0.659529 0.465125 0.647622
v -0.664061 0.465099 0.644102
v -0.659421 0.434846 0.647706
v -0.659529 0.465125 0.647622
v -0.659179 0.433695 0.647403
v -0.663710 0.433669 0.643883
v -0.663952 0.434820 0.644186
v -0.659421 0.434846 0.647706
v -0.664061 0.465099 0.644102
v -0.663952 0.434820 0.644186
v -0.664061 0.465099 0.644102
v -0.659529 0.465125 0.647622
v -0.659646 0.462949 0.647789
v -0.664178 0.462923 0.644269
v -0.659554 0.437022 0.647861
v -0.659646 0.462949 0.647789
v -0.659421 0.434846 0.647706
v -0.663952 0.434820 0.644186
v -0.664085 0.436996 0.644341
v -0.659554 0.437022 0.647861
v -0.664178 0.462923 0.644269
v -0.664085 0.436996 0.644341
v -0.664178 0.462923 0.644269
v -0.659646 0.462949 0.647789
v -0.659554 0.437022 0.647861
v -0.664085 0.436996 0.644341
v -0.646613 0.466842 0.621628
v -0.642081 0.466868 0.625148
v -0.642718 0.467357 0.625963
v -0.647249 0.467331 0.622443
v -0.642081 0.466868 0.625148
v -0.658195 0.467357 0.645888
v -0.642718 0.467357 0.625963
v -0.658828 0.466868 0.646706
v -0.663359 0.466842 0.643186
v -0.662727 0.467331 0.642368
v -0.658195 0.467357 0.645888
v -0.663359 0.466842 0.643186
v -0.647249 0.467331 0.622443
v -0.662727 0.467331 0.642368
v -0.647249 0.467331 0.622443
v -0.642718 0.467357 0.625963
v -0.643553 0.467901 0.627035
v -0.648085 0.467875 0.623515
v -0.657363 0.467901 0.644813
v -0.643553 0.467901 0.627035
v -0.658195 0.467357 0.645888
v -0.662727 0.467331 0.642368
v -0.661895 0.467875 0.641293
v -0.657363 0.467901 0.644813
v -0.662727 0.467331 0.642368
v -0.647249 0.467331 0.622443
v -0.648085 0.467875 0.623515
v -0.661895 0.467875 0.641293
v -0.648085 0.467875 0.623515
v -0.643553 0.467901 0.627035
v -0.644922 0.468203 0.628795
v -0.649453 0.468177 0.625275
v -0.655997 0.468203 0.643052
v -0.644922 0.468203 0.628795
v -0.657363 0.467901 0.644813
v -0.661895 0.467875 0.641293
v -0.660528 0.468177 0.639532
v -0.655997 0.468203 0.643052
v -0.661895 0.467875 0.641293
v -0.648085 0.467875 0.623515
v -0.649453 0.468177 0.625275
v -0.660528 0.468177 0.639532
v -0.649453 0.468177 0.625275
v -0.644922 0.468203 0.628795
v -0.655997 0.468203 0.643052
v -0.660528 0.468177 0.639532
v -0.646492 0.433077 0.621722
v -0.641961 0.433103 0.625242
v -0.641828 0.434489 0.625061
v -0.646359 0.434463 0.621541
v -0.641961 0.433103 0.625242
v -0.642081 0.466868 0.625148
v -0.641939 0.465482 0.624975
v -0.641828 0.434489 0.625061
v -0.642081 0.466868 0.625148
v -0.646613 0.466842 0.621628
v -0.646470 0.465456 0.621455
v -0.641939 0.465482 0.624975
v -0.646613 0.466842 0.621628
v -0.646492 0.433077 0.621722
v -0.646359 0.434463 0.621541
v -0.646470 0.465456 0.621455
v -0.646359 0.434463 0.621541
v -0.641828 0.434489 0.625061
v -0.641587 0.436387 0.624737
v -0.646118 0.436361 0.621217
v -0.641684 0.463585 0.624661
v -0.641587 0.436387 0.624737
v -0.641939 0.465482 0.624975
v -0.646470 0.465456 0.621455
v -0.646216 0.463559 0.621141
v -0.641684 0.463585 0.624661
v -0.646118 0.436361 0.621217
v -0.646216 0.463559 0.621141
v -0.646118 0.436361 0.621217
v -0.641587 0.436387 0.624737
v -0.641368 0.438165 0.624441
v -0.645899 0.438139 0.620921
v -0.641452 0.461807 0.624375
v -0.641368 0.438165 0.624441
v -0.641684 0.463585 0.624661
v -0.646216 0.463559 0.621141
v -0.645983 0.461781 0.620855
v -0.641452 0.461807 0.624375
v -0.645899 0.438139 0.620921
v -0.645983 0.461781 0.620855
v -0.645899 0.438139 0.620921
v -0.641368 0.438165 0.624441
v -0.641452 0.461807 0.624375
v -0.645983 0.461781 0.620855
v -0.663238 0.433077 0.643280
v -0.658707 0.433103 0.646800
v -0.657848 0.432475 0.645698
v -0.662379 0.432449 0.642178
v -0.641961 0.433103 0.625242
v -0.642816 0.432475 0.626347
v -0.657848 0.432475 0.645698
v -0.641961 0.433103 0.625242
v -0.646492 0.433077 0.621722
v -0.647347 0.432449 0.622827
v -0.642816 0.432475 0.626347
v -0.646492 0.433077 0.621722
v -0.663238 0.433077 0.643280
v -0.662379 0.432449 0.642178
v -0.647347 0.432449 0.622827
v -0.662379 0.432449 0.642178
v -0.657848 0.432475 0.645698
v -0.656614 0.431752 0.644115
v -0.661145 0.431726 0.640595
v -0.644045 0.431752 0.627934
v -0.656614 0.431752 0.644115
v -0.642816 0.432475 0.626347
v -0.647347 0.432449 0.622827
v -0.648576 0.431727 0.624415
v -0.644045 0.431752 0.627934
v -0.647347 0.432449 0.622827
v -0.662379 0.432449 0.642178
v -0.661145 0.431726 0.640595
v -0.648576 0.431727 0.624415
v -0.661145 0.431726 0.640595
v -0.656614 0.431752 0.644115
v -0.644045 0.431752 0.627934
v -0.648576 0.431727 0.624415
vn -0.7586 0.3865 -0.5246
vn -0.7585 0.3865 -0.5246
vn -0.2642 0.5330 -0.8038
vn -0.7800 0.3735 -0.5021
vn 0.7380 0.3865 0.5531
vn 0.9039 0.3401 0.2595
vn 0.7172 0.3886 0.5785
vn -0.5837 0.0461 0.8106
vn 0.5317 0.4148 -0.7384
vn 0.3989 0.7308 -0.5539
vn 0.0751 -0.9917 -0.1043
vn 0.8995 0.0045 -0.4368
vn -0.8995 -0.0045 0.4368
vn 0.2640 0.7911 0.5518
vn 0.2704 -0.7911 0.5486
vn 0.4126 0.3195 0.8530
vn 0.4152 -0.3195 0.8518
vn 0.4346 0.0931 0.8958
vn 0.4353 -0.0931 0.8954
vn 0.4353 -0.0931 0.8955
vn -0.8995 -0.0045 0.4369
vn 0.4368 -0.0000 0.8995
vn -0.1904 0.9040 -0.3827
vn 0.1830 0.9040 0.3863
vn -0.1662 0.9283 -0.3327
vn 0.1587 0.9283 0.3363
vn -0.0627 0.9909 -0.1187
vn 0.0546 0.9909 0.1227
vn -0.0041 1.0000 0.0020
vn -0.4306 -0.1599 -0.8883
vn -0.4319 0.1599 -0.8877
vn -0.4264 -0.2081 -0.8802
vn -0.4281 0.2081 -0.8794
vn -0.4269 -0.2027 -0.8813
vn -0.4269 -0.2028 -0.8813
vn -0.4286 0.2028 -0.8805
vn -0.4286 0.2027 -0.8805
vn -0.4368 -0.0000 -0.8995
vn 0.1829 -0.9120 0.3672
vn -0.1755 -0.9120 -0.3708
vn 0.1517 -0.9409 0.3027
vn -0.1441 -0.9409 -0.3064
vn 0.0041 -1.0000 -0.0020
vn -0.9429 0.3041 -0.1363
vn -0.9428 0.3041 -0.1363
vn 0.9428 0.3040 0.1364
vn 0.9428 0.3041 0.1363
vn -0.1202 0.5464 0.8289
vn -0.1198 0.5463 0.8290
vn 0.1200 0.5463 -0.8290
vn 0.1198 0.5463 -0.8290
vn -0.0000 1.0000 -0.0001
vn -0.0000 1.0000 -0.0000
vn -0.0000 -1.0000 -0.0000
vn 0.6606 -0.0000 0.7508
vn -0.6606 -0.0000 -0.7508
vn -0.7508 -0.0000 0.6606
vn 0.7508 -0.0000 -0.6606
vn 0.7897 0.0045 0.6135
vn -0.7897 -0.0045 -0.6135
vn -0.3781 0.7911 0.4808
vn -0.3724 -0.7911 0.4852
vn -0.5825 0.3195 0.7474
vn -0.5802 -0.3195 0.7492
vn -0.6111 0.0931 0.7860
vn -0.6105 -0.0931 0.7866
vn -0.6135 -0.0000 0.7897
vn 0.2590 0.9040 -0.3401
vn -0.2654 0.9040 0.3350
vn 0.2248 0.9283 -0.2962
vn -0.2314 0.9283 0.2911
vn 0.0788 0.9909 -0.1087
vn -0.0859 0.9909 0.1032
vn -0.0036 1.0000 -0.0028
vn 0.6061 -0.1599 -0.7791
vn 0.6050 0.1599 -0.7800
vn 0.6008 -0.2081 -0.7718
vn 0.5993 0.2081 -0.7730
vn 0.6014 -0.2027 -0.7728
vn 0.6000 0.2027 -0.7739
vn 0.6135 -0.0000 -0.7897
vn -0.2484 -0.9120 0.3265
vn 0.2549 -0.9120 -0.3214
vn -0.2043 -0.9409 0.2700
vn 0.2111 -0.9409 -0.2648
vn 0.0036 -1.0000 0.0028
vt 0.000000 0.000000
vt 1.000000 1.000000
vt 0.000000 1.000000
vt 1.000000 0.000000
vt 1.000000 2.000000
vt 0.000000 2.000000
s 1
f 1/1/1 3/2/2 2/3/3
f 4/4/4 3/2/2 1/1/1
f 5/1/5 7/2/5 6/3/6
f 8/4/7 7/2/5 5/1/5
s 0
f 9/1/8 11/2/8 10/3/8
f 12/4/8 11/2/8 9/1/8
f 13/1/9 15/2/9 14/3/9
f 16/4/9 15/2/9 13/1/9
f 17/3/10 19/5/10 18/6/10
f 20/2/10 19/5/10 17/3/10
f 21/3/11 23/5/11 22/6/11
f 24/2/11 23/5/11 21/3/11
f 25/3/12 27/5/12 26/6/12
f 28/2/12 27/5/12 25/3/12
f 29/3/13 31/5/13 30/6/13
f 32/2/13 31/5/13 29/3/13
f 33/3/14 35/6/14 34/6/14
f 36/3/14 35/6/14 33/3/14
f 37/6/12 39/5/12 38/5/12
f 40/6/12 39/5/12 37/6/12
f 41/5/15 43/2/15 42/2/15
f 44/5/15 43/2/15 41/5/15
f 45/2/13 47/3/13 46/3/13
f 48/2/13 47/3/13 45/2/13
f 49/3/16 51/6/16 50/6/16
f 52/3/16 51/6/16 49/3/16
f 53/6/12 55/5/12 54/5/12
f 56/6/12 55/5/12 53/6/12
f 57/5/17 59/2/17 58/2/17
f 60/5/17 59/2/17 57/5/17
f 61/2/13 63/3/13 62/3/13
f 64/2/13 63/3/13 61/2/13
f 65/3/18 67/6/18 66/6/18
s 1
f 68/3/18 67/6/18 65/3/18
s 0
f 69/6/12 71/5/12 70/5/12
f 72/6/12 71/5/12 69/6/12
f 73/5/19 75/2/19 74/2/19
s 1
f 76/5/20 75/2/20 73/5/20
s 0
f 77/2/21 79/3/21 78/3/21
f 80/2/13 79/3/13 77/2/13
f 81/3/22 83/5/22 82/6/22
f 84/2/22 83/5/22 81/3/22
f 85/3/23 87/6/23 86/6/23
f 88/3/23 87/6/23 85/3/23
f 89/6/12 91/5/12 90/5/12
f 92/6/12 91/5/12 89/6/12
f 93/5/24 95/2/24 94/2/24
f 96/5/24 95/2/24 93/5/24
f 97/2/13 99/3/13 98/3/13
f 100/2/13 99/3/13 97/2/13
f 101/3/25 103/6/25 102/6/25
f 104/3/25 103/6/25 101/3/25
f 105/6/12 107/5/12 106/5/12
f 108/6/12 107/5/12 105/6/12
f 109/5/26 111/2/26 110/2/26
f 112/5/26 111/2/26 109/5/26
f 113/2/13 115/3/13 114/3/13
f 116/2/13 115/3/13 113/2/13
f 117/3/27 119/6/27 118/6/27
f 120/3/27 119/6/27 117/3/27
f 121/6/12 123/5/12 122/5/12
f 124/6/12 123/5/12 121/6/12
f 125/5/28 127/2/28 126/2/28
f 128/5/28 127/2/28 125/5/28
f 129/2/13 131/3/13 130/3/13
f 132/2/13 131/3/13 129/2/13
f 133/3/29 135/5/29 134/6/29
f 136/2/29 135/5/29 133/3/29
f 137/3/30 139/6/30 138/6/30
f 140/3/30 139/6/30 137/3/30
f 141/6/12 143/5/12 142/5/12
f 144/6/12 143/5/12 141/6/12
f 145/5/31 147/2/31 146/2/31
f 148/5/31 147/2/31 145/5/31
f 149/2/13 151/3/13 150/3/13
f 152/2/13 151/3/13 149/2/13
f 153/3/32 155/6/32 154/6/32
f 156/3/32 155/6/32 153/3/32
f 157/6/12 159/5/12 158/5/12
f 160/6/12 159/5/12 157/6/12
f 161/5/33 163/2/33 162/2/33
f 164/5/33 163/2/33 161/5/33
f 165/2/13 167/3/13 166/3/13
f 168/2/13 167/3/13 165/2/13
f 169/3/34 171/6/34 170/6/34
f 172/3/35 171/6/35 169/3/35
f 173/6/12 175/5/12 174/5/12
f 176/6/12 175/5/12 173/6/12
f 177/5/36 179/2/36 178/2/36
f 180/5/37 179/2/37 177/5/37
f 181/2/13 183/3/13 182/3/13
f 184/2/13 183/3/13 181/2/13
f 185/3/38 187/5/38 186/6/38
f 188/2/38 187/5/38 185/3/38
f 189/3/39 191/6/39 190/6/39
s 1
f 192/3/39 191/6/39 189/3/39
s 0
f 193/6/12 195/5/12 194/5/12
f 196/6/12 195/5/12 193/6/12
f 197/5/40 199/2/40 198/2/40
s 1
f 200/5/40 199/2/40 197/5/40
s 0
f 201/2/13 203/3/13 202/3/13
f 204/2/13 203/3/13 201/2/13
f 205/3/41 207/6/41 206/6/41
f 208/3/41 207/6/41 205/3/41
f 209/6/12 211/5/12 210/5/12
f 212/6/12 211/5/12 209/6/12
f 213/5/42 215/2/42 214/2/42
f 216/5/42 215/2/42 213/5/42
f 217/2/13 219/3/13 218/3/13
f 220/2/13 219/3/13 217/2/13
f 221/3/43 223/5/43 222/6/43
f 224/2/43 223/5/43 221/3/43
f 225/1/44 227/2/44 226/3/44
f 228/4/45 227/2/45 225/1/45
f 229/1/46 231/2/46 230/3/46
f 232/4/47 231/2/47 229/1/47
f 233/1/48 235/2/48 234/3/48
f 236/4/49 235/2/49 233/1/49
f 237/1/50 239/2/50 238/3/50
f 240/4/51 239/2/51 237/1/51
f 241/3/52 243/5/52 242/6/52
f 244/2/53 243/5/53 241/3/53
f 245/3/54 247/5/54 246/6/54
f 248/2/54 247/5/54 245/3/54
f 249/3/55 251/5/55 250/6/55
f 252/2/55 251/5/55 249/3/55
f 253/3/56 255/5/56 254/6/56
f 256/2/56 255/5/56 253/3/56
f 257/3/57 259/5/57 258/6/57
f 260/2/57 259/5/57 257/3/57
f 261/3/58 263/5/58 262/6/58
f 264/2/58 263/5/58 261/3/58
f 265/3/53 267/5/53 266/6/53
f 268/2/53 267/5/53 265/3/53
f 269/3/54 271/5/54 270/6/54
f 272/2/54 271/5/54 269/3/54
f 273/3/59 275/5/59 274/6/59
f 276/2/59 275/5/59 273/3/59
f 277/3/60 279/5/60 278/6/60
f 280/2/60 279/5/60 277/3/60
f 281/3/61 283/6/61 282/6/61
f 284/3/61 283/6/61 281/3/61
f 285/6/59 287/5/59 286/5/59
f 288/6/59 287/5/59 285/6/59
f 289/5/62 291/2/62 290/2/62
f 292/5/62 291/2/62 289/5/62
f 293/2/60 295/3/60 294/3/60
f 296/2/60 295/3/60 293/2/60
f 297/3/63 299/6/63 298/6/63
f 300/3/63 299/6/63 297/3/63
f 288/6/59 301/5/59 287/5/59
f 302/6/59 301/5/59 288/6/59
f 303/5/64 305/2/64 304/2/64
f 306/5/64 305/2/64 303/5/64
f 296/2/60 307/3/60 295/3/60
f 308/2/60 307/3/60 296/2/60
f 309/3/65 311/6/65 310/6/65
f 312/3/65 311/6/65 309/3/65
f 302/6/59 313/5/59 301/5/59
f 314/6/59 313/5/59 302/6/59
f 315/5/66 317/2/66 316/2/66
f 318/5/66 317/2/66 315/5/66
f 308/2/60 319/3/60 307/3/60
f 320/2/60 319/3/60 308/2/60
f 321/3/67 323/5/67 322/6/67
f 324/2/67 323/5/67 321/3/67
f 325/3/68 327/6/68 326/6/68
f 328/3/68 327/6/68 325/3/68
f 329/6/59 330/5/59 275/5/59
f 331/6/59 330/5/59 329/6/59
f 332/5/69 334/2/69 333/2/69
f 335/5/69 334/2/69 332/5/69
f 336/2/60 337/3/60 277/3/60
f 338/2/60 337/3/60 336/2/60
f 339/3/70 341/6/70 340/6/70
s 1
f 342/3/70 341/6/70 339/3/70
s 0
f 331/6/59 343/5/59 330/5/59
f 344/6/59 343/5/59 331/6/59
f 345/5/71 347/2/71 346/2/71
f 348/5/71 347/2/71 345/5/71
f 349/2/60 351/3/60 350/3/60
f 352/2/60 351/3/60 349/2/60
f 353/3/72 355/6/72 354/6/72
f 356/3/72 355/6/72 353/3/72
f 344/6/59 357/5/59 343/5/59
f 358/6/59 357/5/59 344/6/59
f 359/5/73 361/2/73 360/2/73
f 362/5/73 361/2/73 359/5/73
f 363/2/60 365/3/60 364/3/60
f 366/2/60 365/3/60 363/2/60
f 367/3/74 369/5/74 368/6/74
f 370/2/74 369/5/74 367/3/74
f 371/3/75 373/6/75 372/6/75
f 374/3/75 373/6/75 371/3/75
f 375/6/59 377/5/59 376/5/59
f 378/6/59 377/5/59 375/6/59
f 379/5/76 381/2/76 380/2/76
f 382/5/76 381/2/76 379/5/76
f 383/2/60 385/3/60 384/3/60
f 386/2/60 385/3/60 383/2/60
f 387/3/77 389/6/77 388/6/77
f 390/3/77 389/6/77 387/3/77
f 378/6/59 391/5/59 377/5/59
f 392/6/59 391/5/59 378/6/59
f 393/5/78 395/2/78 394/2/78
f 396/5/78 395/2/78 393/5/78
f 386/2/60 397/3/60 385/3/60
f 398/2/60 397/3/60 386/2/60
f 399/3/79 401/6/79 400/6/79
f 402/3/79 401/6/79 399/3/79
f 392/6/59 403/5/59 391/5/59
f 404/6/59 403/5/59 392/6/59
f 405/5/80 407/2/80 406/2/80
f 408/5/80 407/2/80 405/5/80
f 398/2/60 409/3/60 397/3/60
f 410/2/60 409/3/60 398/2/60
f 411/3/81 413/5/81 412/6/81
f 414/2/81 413/5/81 411/3/81
f 415/3/82 417/6/82 416/6/82
f 418/3/82 417/6/82 415/3/82
f 274/6/59 420/5/59 419/5/59
f 421/6/59 420/5/59 274/6/59
f 422/5/83 424/2/83 423/2/83
f 425/5/83 424/2/83 422/5/83
f 426/2/60 428/3/60 427/3/60
f 429/2/60 428/3/60 426/2/60
f 430/3/84 432/6/84 431/6/84
f 433/3/84 432/6/84 430/3/84
f 421/6/59 434/5/59 420/5/59
f 435/6/59 434/5/59 421/6/59
f 436/5/85 438/2/85 437/2/85
f 439/5/85 438/2/85 436/5/85
f 440/2/60 442/3/60 441/3/60
f 443/2/60 442/3/60 440/2/60
f 444/3/86 446/5/86 445/6/86
f 447/2/86 446/5/86 444/3/86
