# Blender 5.1.1
# www.blender.org
o Object_255
v -0.548397 0.429985 0.707983
v -0.548397 0.622788 0.707983
v -0.552987 0.622788 0.708284
v -0.552987 0.429985 0.708284
v -0.549213 0.429985 0.765942
v -0.549213 0.622788 0.765942
v -0.544623 0.622788 0.765642
v -0.544623 0.429985 0.765642
v -0.544623 0.429985 0.765642
v -0.544623 0.622788 0.765642
v -0.548397 0.622788 0.707983
v -0.548397 0.429985 0.707983
v -0.552987 0.429985 0.708284
v -0.552987 0.622788 0.708284
v -0.549213 0.622788 0.765942
v -0.549213 0.429985 0.765942
v -0.548397 0.622788 0.707983
v -0.544623 0.622788 0.765642
v -0.549213 0.622788 0.765942
v -0.552987 0.622788 0.708284
v -0.552987 0.429985 0.708284
v -0.549213 0.429985 0.765942
v -0.544623 0.429985 0.765642
v -0.548397 0.429985 0.707983
vn -0.0653 -0.0000 -0.9979
vn 0.0653 -0.0000 0.9979
vn 0.9979 -0.0000 -0.0653
vn -0.9979 -0.0000 0.0653
vn -0.0000 1.0000 -0.0000
vn -0.0000 -1.0000 -0.0000
vt 0.000000 1.000000
vt 1.000000 2.000000
vt 0.000000 2.000000
vt 1.000000 1.000000
s 0
f 1/1/1 3/2/1 2/3/1
f 4/4/1 3/2/1 1/1/1
f 5/1/2 7/2/2 6/3/2
f 8/4/2 7/2/2 5/1/2
f 9/1/3 11/2/3 10/3/3
f 12/4/3 11/2/3 9/1/3
f 13/1/4 15/2/4 14/3/4
f 16/4/4 15/2/4 13/1/4
f 17/1/5 19/2/5 18/3/5
f 20/4/5 19/2/5 17/1/5
f 21/1/6 23/2/6 22/3/6
f 24/4/6 23/2/6 21/1/6
