# Blender 5.1.1
# www.blender.org
o tank.008
v -1.207586 0.695482 0.397756
v -0.488962 0.695482 0.397756
v -0.488962 0.429958 0.397755
v -1.207586 0.429958 0.397755
v -1.199288 0.692416 0.405279
v -1.197423 0.429958 0.406970
v -0.499125 0.429958 0.406970
v -0.497260 0.692416 0.405279
v -1.207586 0.695482 1.034321
v -1.207586 0.689369 1.034321
v -1.207586 0.429957 1.034321
v -0.488962 0.436070 1.034321
v -0.488962 0.695482 1.034321
v -0.488962 0.429957 1.034321
v -1.191044 0.695482 1.034321
v -1.199266 0.689325 1.034321
v -1.197423 0.429957 1.034321
v -1.199288 0.692416 1.034321
v -0.499108 0.432349 1.034321
v -0.499125 0.429957 1.034321
v -0.497260 0.692416 1.034321
v -1.191044 0.692416 1.034321
v -0.499033 0.429957 1.034321
v -1.207349 0.429957 1.034321
vn -0.0000 -0.0000 -1.0000
vn -1.0000 -0.0000 -0.0000
vn 1.0000 -0.0000 -0.0000
vn -0.0000 1.0000 -0.0000
vn -0.0000 0.0064 1.0000
vn 1.0000 0.0071 -0.0000
vn -1.0000 0.0071 -0.0000
vn -0.0000 -1.0000 -0.0000
vn -0.0000 -0.0000 1.0000
vn -0.0002 -0.0000 1.0000
vt 0.000000 0.000000
vt 0.589139 0.494035
vt 0.589139 0.258588
vt 0.588110 0.258588
vt 0.500094 0.490657
vt 0.500094 0.494035
vt 0.502144 0.494035
vt 0.589139 0.253041
vt 0.587089 0.253041
vt 0.500094 0.253041
vt 0.500094 0.253121
vt 0.500094 0.256449
vt 0.587074 0.255831
vt 0.588110 0.255824
vt 0.500896 0.490632
vt 0.500094 0.490627
vt 0.588110 0.491252
s 0
f 1/1/1 2/1/1 3/1/1
f 1/1/1 3/1/1 4/1/1
f 1/1/2 10/1/2 9/1/2
f 10/1/2 4/1/2 11/1/2
f 13/1/3 12/1/3 2/1/3
f 12/1/3 3/1/3 2/1/3
f 1/1/4 15/1/4 2/1/4
f 2/1/4 15/1/4 13/1/4
f 5/1/5 6/1/5 7/1/5
f 5/1/5 7/1/5 8/1/5
f 16/1/6 17/1/6 6/1/6
f 5/1/6 16/1/6 6/1/6
f 7/1/7 19/1/7 8/1/7
f 21/1/7 8/1/7 19/1/7
f 22/1/8 8/1/8 21/1/8
f 5/1/8 22/1/8 18/1/8
f 23/1/8 3/1/8 14/1/8
f 7/1/8 23/1/8 20/1/8
f 11/1/8 6/1/8 24/1/8
f 24/1/8 6/1/8 17/1/8
f 4/1/8 3/1/8 7/1/8
f 4/1/8 7/1/8 6/1/8
f 13/2/9 15/3/9 22/4/9
f 1/1/2 4/1/2 10/1/2
f 12/1/3 14/1/3 3/1/3
f 1/1/4 9/1/4 15/1/4
f 5/1/6 18/1/6 16/1/6
f 7/1/7 20/1/7 19/1/7
f 5/1/8 8/1/8 22/1/8
f 7/1/8 3/1/8 23/1/8
f 11/1/8 4/1/8 6/1/8
f 23/5/9 14/6/9 12/7/9
f 15/3/9 9/8/9 10/9/9
f 10/9/9 11/10/9 24/11/9
f 24/11/9 17/12/9 16/13/9
f 24/11/9 16/13/9 18/14/9
f 23/5/9 12/7/9 13/2/9
f 19/15/9 20/16/9 23/5/9
f 21/17/10 19/15/10 23/5/10
f 10/9/9 24/11/9 18/14/9
f 15/3/9 10/9/9 18/14/9
f 21/17/9 23/5/9 13/2/9
f 15/3/9 18/14/9 22/4/9
f 22/4/9 21/17/9 13/2/9
