# Blender v3.0.0 OBJ File: '6630-grid.blend'
# www.blender.org
o Grid_Cube_Grid
v 2.950000 -0.020000 -4.950000
v 2.950000 0.020000 -4.950000
v -2.950000 -0.020000 -4.950000
v -2.950000 0.020000 -4.950000
v 2.950000 -0.020000 -5.050000
v 2.950000 0.020000 -5.050000
v -2.950000 -0.020000 -5.050000
v -2.950000 0.020000 -5.050000
v -0.050000 -0.020000 5.949999
v -0.050000 0.020000 5.949999
v -0.050000 -0.020000 -5.950000
v -0.050000 0.020000 -5.950000
v 0.050000 -0.020000 5.949999
v 0.050000 0.020000 5.949999
v 0.050000 -0.020000 -5.950000
v 0.050000 0.020000 -5.950000
v -1.050000 -0.020000 5.949999
v -1.050000 0.020000 5.949999
v -1.050000 -0.020000 -5.950000
v -1.050000 0.020000 -5.950000
v -0.950000 -0.020000 5.949999
v -0.950000 0.020000 5.949999
v -0.950000 -0.020000 -5.950000
v -0.950000 0.020000 -5.950000
v -2.050000 -0.020000 5.949999
v -2.050000 0.020000 5.949999
v -2.050000 -0.020000 -5.949999
v -2.050000 0.020000 -5.949999
v -1.950000 -0.020000 5.949999
v -1.950000 0.020000 5.949999
v -1.950000 -0.020000 -5.950000
v -1.950000 0.020000 -5.950000
v 0.950000 -0.020000 5.949999
v 0.950000 0.020000 5.949999
v 0.950000 -0.020000 -5.950000
v 0.950000 0.020000 -5.950000
v 1.050000 -0.020000 5.949999
v 1.050000 0.020000 5.949999
v 1.050000 -0.020000 -5.950000
v 1.050000 0.020000 -5.950000
v 1.950000 -0.020000 5.949999
v 1.950000 0.020000 5.949999
v 1.950000 -0.020000 -5.950000
v 1.950000 0.020000 -5.950000
v 2.050000 -0.020000 5.949999
v 2.050000 0.020000 5.949999
v 2.050000 -0.020000 -5.950000
v 2.050000 0.020000 -5.950000
v 2.950000 -0.020000 0.050000
v 2.950000 0.020000 0.050000
v -2.950000 -0.020000 0.050000
v -2.950000 0.020000 0.050000
v 2.950000 -0.020000 -0.050000
v 2.950000 0.020000 -0.050000
v -2.950000 -0.020000 -0.050000
v -2.950000 0.020000 -0.050000
v 2.950000 -0.020000 -0.950000
v 2.950000 0.020000 -0.950000
v -2.950000 -0.020000 -0.950000
v -2.950000 0.020000 -0.950000
v 2.950000 -0.020000 -1.050001
v 2.950000 0.020000 -1.050001
v -2.950000 -0.020000 -1.050000
v -2.950000 0.020000 -1.050000
v 2.950000 -0.020000 -1.950000
v 2.950000 0.020000 -1.950000
v -2.950000 -0.020000 -1.950000
v -2.950000 0.020000 -1.950000
v 2.950000 -0.020000 -2.050000
v 2.950000 0.020000 -2.050000
v -2.950000 -0.020000 -2.050000
v -2.950000 0.020000 -2.050000
v 2.950000 -0.020000 -2.950000
v 2.950000 0.020000 -2.950000
v -2.950000 -0.020000 -2.950000
v -2.950000 0.020000 -2.950000
v 2.950000 -0.020000 -3.050000
v 2.950000 0.020000 -3.050000
v -2.950000 -0.020000 -3.050000
v -2.950000 0.020000 -3.050000
v 2.950000 -0.020000 -3.950000
v 2.950000 0.020000 -3.950000
v -2.950000 -0.020000 -3.950000
v -2.950000 0.020000 -3.950000
v 2.950000 -0.020000 -4.050000
v 2.950000 0.020000 -4.050000
v -2.950000 -0.020000 -4.050000
v -2.950000 0.020000 -4.050000
v 2.950000 -0.020000 5.049999
v 2.950000 0.020000 5.049999
v -2.950000 -0.020000 5.049999
v -2.950000 0.020000 5.049999
v 2.950000 -0.020000 4.950000
v 2.950000 0.020000 4.950000
v -2.950000 -0.020000 4.950000
v -2.950000 0.020000 4.950000
v 2.950000 -0.020000 4.049999
v 2.950000 0.020000 4.049999
v -2.950000 -0.020000 4.049999
v -2.950000 0.020000 4.049999
v 2.950000 -0.020000 3.950000
v 2.950000 0.020000 3.950000
v -2.950000 -0.020000 3.950000
v -2.950000 0.020000 3.950000
v 2.950000 -0.020000 3.049999
v 2.950000 0.020000 3.049999
v -2.950000 -0.020000 3.049999
v -2.950000 0.020000 3.049999
v 2.950000 -0.020000 2.949999
v 2.950000 0.020000 2.949999
v -2.950000 -0.020000 2.949999
v -2.950000 0.020000 2.949999
v 2.950000 -0.020000 2.049999
v 2.950000 0.020000 2.049999
v -2.950000 -0.020000 2.049999
v -2.950000 0.020000 2.049999
v 2.950000 -0.020000 1.949999
v 2.950000 0.020000 1.949999
v -2.950000 -0.020000 1.949999
v -2.950000 0.020000 1.949999
v 2.950000 -0.020000 1.050000
v 2.950000 0.020000 1.050000
v -2.950000 -0.020000 1.050000
v -2.950000 0.020000 1.050000
v 2.950000 -0.020000 0.950000
v 2.950000 0.020000 0.950000
v -2.950000 -0.020000 0.950000
v -2.950000 0.020000 0.950000
vt 0.625000 0.000000
vt 0.375000 0.250000
vt 0.375000 0.000000
vt 0.625000 0.250000
vt 0.375000 0.500000
vt 0.625000 0.500000
vt 0.375000 0.750000
vt 0.625000 0.750000
vt 0.375000 1.000000
vt 0.125000 0.750000
vt 0.125000 0.500000
vt 0.875000 0.500000
vt 0.625000 0.000000
vt 0.375000 0.250000
vt 0.375000 0.000000
vt 0.625000 0.250000
vt 0.375000 0.500000
vt 0.625000 0.500000
vt 0.375000 0.750000
vt 0.625000 0.750000
vt 0.375000 1.000000
vt 0.125000 0.750000
vt 0.125000 0.500000
vt 0.875000 0.500000
vt 0.625000 0.000000
vt 0.375000 0.250000
vt 0.375000 0.000000
vt 0.625000 0.250000
vt 0.375000 0.500000
vt 0.625000 0.500000
vt 0.375000 0.750000
vt 0.625000 0.750000
vt 0.375000 1.000000
vt 0.125000 0.750000
vt 0.125000 0.500000
vt 0.875000 0.500000
vt 0.625000 0.000000
vt 0.375000 0.250000
vt 0.375000 0.000000
vt 0.625000 0.250000
vt 0.375000 0.500000
vt 0.625000 0.500000
vt 0.375000 0.750000
vt 0.625000 0.750000
vt 0.375000 1.000000
vt 0.125000 0.750000
vt 0.125000 0.500000
vt 0.875000 0.500000
vt 0.625000 0.000000
vt 0.375000 0.250000
vt 0.375000 0.000000
vt 0.625000 0.250000
vt 0.375000 0.500000
vt 0.625000 0.500000
vt 0.375000 0.750000
vt 0.625000 0.750000
vt 0.375000 1.000000
vt 0.125000 0.750000
vt 0.125000 0.500000
vt 0.875000 0.500000
vt 0.625000 0.000000
vt 0.375000 0.250000
vt 0.375000 0.000000
vt 0.625000 0.250000
vt 0.375000 0.500000
vt 0.625000 0.500000
vt 0.375000 0.750000
vt 0.625000 0.750000
vt 0.375000 1.000000
vt 0.125000 0.750000
vt 0.125000 0.500000
vt 0.875000 0.500000
vt 0.625000 0.000000
vt 0.375000 0.250000
vt 0.375000 0.000000
vt 0.625000 0.250000
vt 0.375000 0.500000
vt 0.625000 0.500000
vt 0.375000 0.750000
vt 0.625000 0.750000
vt 0.375000 1.000000
vt 0.125000 0.750000
vt 0.125000 0.500000
vt 0.875000 0.500000
vt 0.625000 0.000000
vt 0.375000 0.250000
vt 0.375000 0.000000
vt 0.625000 0.250000
vt 0.375000 0.500000
vt 0.625000 0.500000
vt 0.375000 0.750000
vt 0.625000 0.750000
vt 0.375000 1.000000
vt 0.125000 0.750000
vt 0.125000 0.500000
vt 0.875000 0.500000
vt 0.625000 0.000000
vt 0.375000 0.250000
vt 0.375000 0.000000
vt 0.625000 0.250000
vt 0.375000 0.500000
vt 0.625000 0.500000
vt 0.375000 0.750000
vt 0.625000 0.750000
vt 0.375000 1.000000
vt 0.125000 0.750000
vt 0.125000 0.500000
vt 0.875000 0.500000
vt 0.625000 0.000000
vt 0.375000 0.250000
vt 0.375000 0.000000
vt 0.625000 0.250000
vt 0.375000 0.500000
vt 0.625000 0.500000
vt 0.375000 0.750000
vt 0.625000 0.750000
vt 0.375000 1.000000
vt 0.125000 0.750000
vt 0.125000 0.500000
vt 0.875000 0.500000
vt 0.625000 0.000000
vt 0.375000 0.250000
vt 0.375000 0.000000
vt 0.625000 0.250000
vt 0.375000 0.500000
vt 0.625000 0.500000
vt 0.375000 0.750000
vt 0.625000 0.750000
vt 0.375000 1.000000
vt 0.125000 0.750000
vt 0.125000 0.500000
vt 0.875000 0.500000
vt 0.625000 0.000000
vt 0.375000 0.250000
vt 0.375000 0.000000
vt 0.625000 0.250000
vt 0.375000 0.500000
vt 0.625000 0.500000
vt 0.375000 0.750000
vt 0.625000 0.750000
vt 0.375000 1.000000
vt 0.125000 0.750000
vt 0.125000 0.500000
vt 0.875000 0.500000
vt 0.625000 0.000000
vt 0.375000 0.250000
vt 0.375000 0.000000
vt 0.625000 0.250000
vt 0.375000 0.500000
vt 0.625000 0.500000
vt 0.375000 0.750000
vt 0.625000 0.750000
vt 0.375000 1.000000
vt 0.125000 0.750000
vt 0.125000 0.500000
vt 0.875000 0.500000
vt 0.625000 0.000000
vt 0.375000 0.250000
vt 0.375000 0.000000
vt 0.625000 0.250000
vt 0.375000 0.500000
vt 0.625000 0.500000
vt 0.375000 0.750000
vt 0.625000 0.750000
vt 0.375000 1.000000
vt 0.125000 0.750000
vt 0.125000 0.500000
vt 0.875000 0.500000
vt 0.625000 0.000000
vt 0.375000 0.250000
vt 0.375000 0.000000
vt 0.625000 0.250000
vt 0.375000 0.500000
vt 0.625000 0.500000
vt 0.375000 0.750000
vt 0.625000 0.750000
vt 0.375000 1.000000
vt 0.125000 0.750000
vt 0.125000 0.500000
vt 0.875000 0.500000
vt 0.625000 0.000000
vt 0.375000 0.250000
vt 0.375000 0.000000
vt 0.625000 0.250000
vt 0.375000 0.500000
vt 0.625000 0.500000
vt 0.375000 0.750000
vt 0.625000 0.750000
vt 0.375000 1.000000
vt 0.125000 0.750000
vt 0.125000 0.500000
vt 0.875000 0.500000
vt 0.625000 1.000000
vt 0.875000 0.750000
vt 0.625000 1.000000
vt 0.875000 0.750000
vt 0.625000 1.000000
vt 0.875000 0.750000
vt 0.625000 1.000000
vt 0.875000 0.750000
vt 0.625000 1.000000
vt 0.875000 0.750000
vt 0.625000 1.000000
vt 0.875000 0.750000
vt 0.625000 1.000000
vt 0.875000 0.750000
vt 0.625000 1.000000
vt 0.875000 0.750000
vt 0.625000 1.000000
vt 0.875000 0.750000
vt 0.625000 1.000000
vt 0.875000 0.750000
vt 0.625000 1.000000
vt 0.875000 0.750000
vt 0.625000 1.000000
vt 0.875000 0.750000
vt 0.625000 1.000000
vt 0.875000 0.750000
vt 0.625000 1.000000
vt 0.875000 0.750000
vt 0.625000 1.000000
vt 0.875000 0.750000
vt 0.625000 1.000000
vt 0.875000 0.750000
vn 0.0000 0.0000 1.0000
vn -1.0000 0.0000 0.0000
vn -0.0000 0.0000 -1.0000
vn 1.0000 0.0000 0.0000
vn 0.0000 -1.0000 0.0000
vn 0.0000 1.0000 0.0000
s off
f 2/1/1 3/2/1 1/3/1
f 4/4/2 7/5/2 3/2/2
f 8/6/3 5/7/3 7/5/3
f 6/8/4 1/9/4 5/7/4
f 7/5/5 1/10/5 3/11/5
f 4/12/6 6/8/6 8/6/6
f 10/13/2 11/14/2 9/15/2
f 12/16/3 15/17/3 11/14/3
f 16/18/4 13/19/4 15/17/4
f 14/20/1 9/21/1 13/19/1
f 15/17/5 9/22/5 11/23/5
f 12/24/6 14/20/6 16/18/6
f 18/25/2 19/26/2 17/27/2
f 20/28/3 23/29/3 19/26/3
f 24/30/4 21/31/4 23/29/4
f 22/32/1 17/33/1 21/31/1
f 23/29/5 17/34/5 19/35/5
f 20/36/6 22/32/6 24/30/6
f 26/37/2 27/38/2 25/39/2
f 28/40/3 31/41/3 27/38/3
f 32/42/4 29/43/4 31/41/4
f 30/44/1 25/45/1 29/43/1
f 31/41/5 25/46/5 27/47/5
f 28/48/6 30/44/6 32/42/6
f 34/49/2 35/50/2 33/51/2
f 36/52/3 39/53/3 35/50/3
f 40/54/4 37/55/4 39/53/4
f 38/56/1 33/57/1 37/55/1
f 39/53/5 33/58/5 35/59/5
f 36/60/6 38/56/6 40/54/6
f 42/61/2 43/62/2 41/63/2
f 44/64/3 47/65/3 43/62/3
f 48/66/4 45/67/4 47/65/4
f 46/68/1 41/69/1 45/67/1
f 47/65/5 41/70/5 43/71/5
f 44/72/6 46/68/6 48/66/6
f 50/73/1 51/74/1 49/75/1
f 52/76/2 55/77/2 51/74/2
f 56/78/3 53/79/3 55/77/3
f 54/80/4 49/81/4 53/79/4
f 55/77/5 49/82/5 51/83/5
f 52/84/6 54/80/6 56/78/6
f 58/85/1 59/86/1 57/87/1
f 60/88/2 63/89/2 59/86/2
f 64/90/3 61/91/3 63/89/3
f 62/92/4 57/93/4 61/91/4
f 63/89/5 57/94/5 59/95/5
f 60/96/6 62/92/6 64/90/6
f 66/97/1 67/98/1 65/99/1
f 68/100/2 71/101/2 67/98/2
f 72/102/3 69/103/3 71/101/3
f 70/104/4 65/105/4 69/103/4
f 71/101/5 65/106/5 67/107/5
f 68/108/6 70/104/6 72/102/6
f 74/109/1 75/110/1 73/111/1
f 76/112/2 79/113/2 75/110/2
f 80/114/3 77/115/3 79/113/3
f 78/116/4 73/117/4 77/115/4
f 79/113/5 73/118/5 75/119/5
f 76/120/6 78/116/6 80/114/6
f 82/121/1 83/122/1 81/123/1
f 84/124/2 87/125/2 83/122/2
f 88/126/3 85/127/3 87/125/3
f 86/128/4 81/129/4 85/127/4
f 87/125/5 81/130/5 83/131/5
f 84/132/6 86/128/6 88/126/6
f 90/133/1 91/134/1 89/135/1
f 92/136/2 95/137/2 91/134/2
f 96/138/3 93/139/3 95/137/3
f 94/140/4 89/141/4 93/139/4
f 95/137/5 89/142/5 91/143/5
f 92/144/6 94/140/6 96/138/6
f 98/145/1 99/146/1 97/147/1
f 100/148/2 103/149/2 99/146/2
f 104/150/3 101/151/3 103/149/3
f 102/152/4 97/153/4 101/151/4
f 103/149/5 97/154/5 99/155/5
f 100/156/6 102/152/6 104/150/6
f 106/157/1 107/158/1 105/159/1
f 108/160/2 111/161/2 107/158/2
f 112/162/3 109/163/3 111/161/3
f 110/164/4 105/165/4 109/163/4
f 111/161/5 105/166/5 107/167/5
f 108/168/6 110/164/6 112/162/6
f 114/169/1 115/170/1 113/171/1
f 116/172/2 119/173/2 115/170/2
f 120/174/3 117/175/3 119/173/3
f 118/176/4 113/177/4 117/175/4
f 119/173/5 113/178/5 115/179/5
f 116/180/6 118/176/6 120/174/6
f 122/181/1 123/182/1 121/183/1
f 124/184/2 127/185/2 123/182/2
f 128/186/3 125/187/3 127/185/3
f 126/188/4 121/189/4 125/187/4
f 127/185/5 121/190/5 123/191/5
f 124/192/6 126/188/6 128/186/6
f 2/1/1 4/4/1 3/2/1
f 4/4/2 8/6/2 7/5/2
f 8/6/3 6/8/3 5/7/3
f 6/8/4 2/193/4 1/9/4
f 7/5/5 5/7/5 1/10/5
f 4/12/6 2/194/6 6/8/6
f 10/13/2 12/16/2 11/14/2
f 12/16/3 16/18/3 15/17/3
f 16/18/4 14/20/4 13/19/4
f 14/20/1 10/195/1 9/21/1
f 15/17/5 13/19/5 9/22/5
f 12/24/6 10/196/6 14/20/6
f 18/25/2 20/28/2 19/26/2
f 20/28/3 24/30/3 23/29/3
f 24/30/4 22/32/4 21/31/4
f 22/32/1 18/197/1 17/33/1
f 23/29/5 21/31/5 17/34/5
f 20/36/6 18/198/6 22/32/6
f 26/37/2 28/40/2 27/38/2
f 28/40/3 32/42/3 31/41/3
f 32/42/4 30/44/4 29/43/4
f 30/44/1 26/199/1 25/45/1
f 31/41/5 29/43/5 25/46/5
f 28/48/6 26/200/6 30/44/6
f 34/49/2 36/52/2 35/50/2
f 36/52/3 40/54/3 39/53/3
f 40/54/4 38/56/4 37/55/4
f 38/56/1 34/201/1 33/57/1
f 39/53/5 37/55/5 33/58/5
f 36/60/6 34/202/6 38/56/6
f 42/61/2 44/64/2 43/62/2
f 44/64/3 48/66/3 47/65/3
f 48/66/4 46/68/4 45/67/4
f 46/68/1 42/203/1 41/69/1
f 47/65/5 45/67/5 41/70/5
f 44/72/6 42/204/6 46/68/6
f 50/73/1 52/76/1 51/74/1
f 52/76/2 56/78/2 55/77/2
f 56/78/3 54/80/3 53/79/3
f 54/80/4 50/205/4 49/81/4
f 55/77/5 53/79/5 49/82/5
f 52/84/6 50/206/6 54/80/6
f 58/85/1 60/88/1 59/86/1
f 60/88/2 64/90/2 63/89/2
f 64/90/3 62/92/3 61/91/3
f 62/92/4 58/207/4 57/93/4
f 63/89/5 61/91/5 57/94/5
f 60/96/6 58/208/6 62/92/6
f 66/97/1 68/100/1 67/98/1
f 68/100/2 72/102/2 71/101/2
f 72/102/3 70/104/3 69/103/3
f 70/104/4 66/209/4 65/105/4
f 71/101/5 69/103/5 65/106/5
f 68/108/6 66/210/6 70/104/6
f 74/109/1 76/112/1 75/110/1
f 76/112/2 80/114/2 79/113/2
f 80/114/3 78/116/3 77/115/3
f 78/116/4 74/211/4 73/117/4
f 79/113/5 77/115/5 73/118/5
f 76/120/6 74/212/6 78/116/6
f 82/121/1 84/124/1 83/122/1
f 84/124/2 88/126/2 87/125/2
f 88/126/3 86/128/3 85/127/3
f 86/128/4 82/213/4 81/129/4
f 87/125/5 85/127/5 81/130/5
f 84/132/6 82/214/6 86/128/6
f 90/133/1 92/136/1 91/134/1
f 92/136/2 96/138/2 95/137/2
f 96/138/3 94/140/3 93/139/3
f 94/140/4 90/215/4 89/141/4
f 95/137/5 93/139/5 89/142/5
f 92/144/6 90/216/6 94/140/6
f 98/145/1 100/148/1 99/146/1
f 100/148/2 104/150/2 103/149/2
f 104/150/3 102/152/3 101/151/3
f 102/152/4 98/217/4 97/153/4
f 103/149/5 101/151/5 97/154/5
f 100/156/6 98/218/6 102/152/6
f 106/157/1 108/160/1 107/158/1
f 108/160/2 112/162/2 111/161/2
f 112/162/3 110/164/3 109/163/3
f 110/164/4 106/219/4 105/165/4
f 111/161/5 109/163/5 105/166/5
f 108/168/6 106/220/6 110/164/6
f 114/169/1 116/172/1 115/170/1
f 116/172/2 120/174/2 119/173/2
f 120/174/3 118/176/3 117/175/3
f 118/176/4 114/221/4 113/177/4
f 119/173/5 117/175/5 113/178/5
f 116/180/6 114/222/6 118/176/6
f 122/181/1 124/184/1 123/182/1
f 124/184/2 128/186/2 127/185/2
f 128/186/3 126/188/3 125/187/3
f 126/188/4 122/223/4 121/189/4
f 127/185/5 125/187/5 121/190/5
f 124/192/6 122/224/6 126/188/6
