# Blender 5.1.1
# www.blender.org
o Glass_Glass_0
v -0.992129 0.648105 -0.504266
v -0.992129 1.030560 -0.504266
v -0.654475 1.030558 -0.648986
v -0.654580 0.648105 -0.648955
v -1.010828 1.032562 -0.476483
v -0.624291 1.032562 -0.642164
v -0.624173 1.422616 -0.642207
v -1.010829 1.422618 -0.476483
v -0.985390 1.042980 -0.488546
v -0.985391 1.425435 -0.488546
v -0.647737 1.425433 -0.633266
v -0.647840 1.042980 -0.633229
v -1.017600 0.645578 -0.492281
v -0.631065 0.645578 -0.657968
v -0.630945 1.035632 -0.658006
v -1.017600 1.035635 -0.492281
vn -0.3939 -0.0000 -0.9191
vn -0.3940 -0.0000 -0.9191
vn 0.3940 -0.0000 0.9191
vt 0.523163 0.482617
vt 0.994979 0.482617
vt 0.994979 0.029490
vt 0.523163 0.029490
vt 0.005022 0.966660
vt 0.523910 0.966660
vt 0.523910 0.485467
vt 0.005022 0.485467
vt 0.526760 0.938595
vt 0.998575 0.938595
vt 0.998575 0.485467
vt 0.526760 0.485467
vt 0.001425 0.482617
vt 0.520313 0.482617
vt 0.520313 0.001425
vt 0.001425 0.001425
s 0
f 1/1/1 2/2/1 3/3/1
f 1/1/2 3/3/2 4/4/2
f 5/5/3 6/6/3 7/7/3
f 5/5/3 7/7/3 8/8/3
f 9/9/1 10/10/1 11/11/1
f 9/9/2 11/11/2 12/12/2
f 13/13/3 14/14/3 15/15/3
f 13/13/3 15/15/3 16/16/3
