# Blender 5.1.1
# www.blender.org
o 1
v -1.235320 1.438187 -0.356200
v -1.062991 1.438187 -0.430068
v -1.059753 1.422888 -0.422515
v -1.232082 1.422889 -0.348647
v -1.059281 1.423532 -0.421414
v -1.062519 1.438830 -0.428967
v -1.234848 1.438831 -0.355099
v -1.231610 1.423532 -0.347546
v -1.059753 1.422888 -0.422515
v -1.059281 1.423532 -0.421414
v -1.231610 1.423532 -0.347546
v -1.232082 1.422889 -0.348647
v -1.062991 1.438187 -0.430068
v -1.062519 1.438830 -0.428967
v -1.059281 1.423532 -0.421414
v -1.059753 1.422888 -0.422515
v -1.235320 1.438187 -0.356200
v -1.234848 1.438831 -0.355099
v -1.062519 1.438830 -0.428967
v -1.062991 1.438187 -0.430068
v -1.232082 1.422889 -0.348647
v -1.231610 1.423532 -0.347546
v -1.234848 1.438831 -0.355099
v -1.235320 1.438187 -0.356200
v -1.235320 1.418504 -0.356200
v -1.062991 1.418503 -0.430068
v -1.059753 1.403205 -0.422515
v -1.232082 1.403206 -0.348647
v -1.059281 1.403848 -0.421414
v -1.062519 1.419147 -0.428967
v -1.234848 1.419147 -0.355099
v -1.231610 1.403849 -0.347546
v -1.059753 1.403205 -0.422515
v -1.059281 1.403848 -0.421414
v -1.231610 1.403849 -0.347546
v -1.232082 1.403206 -0.348647
v -1.062991 1.418503 -0.430068
v -1.062519 1.419147 -0.428967
v -1.059281 1.403848 -0.421414
v -1.059753 1.403205 -0.422515
v -1.235320 1.418504 -0.356200
v -1.234848 1.419147 -0.355099
v -1.062519 1.419147 -0.428967
v -1.062991 1.418503 -0.430068
v -1.232082 1.403206 -0.348647
v -1.231610 1.403849 -0.347546
v -1.234848 1.419147 -0.355099
v -1.235320 1.418504 -0.356200
v -1.235320 1.398820 -0.356200
v -1.062991 1.398820 -0.430068
v -1.059753 1.383521 -0.422515
v -1.232082 1.383522 -0.348647
v -1.059281 1.384165 -0.421414
v -1.062519 1.399463 -0.428967
v -1.234848 1.399464 -0.355099
v -1.231610 1.384165 -0.347546
v -1.059753 1.383521 -0.422515
v -1.059281 1.384165 -0.421414
v -1.231610 1.384165 -0.347546
v -1.232082 1.383522 -0.348647
v -1.062991 1.398820 -0.430068
v -1.062519 1.399463 -0.428967
v -1.059281 1.384165 -0.421414
v -1.059753 1.383521 -0.422515
v -1.235320 1.398820 -0.356200
v -1.234848 1.399464 -0.355099
v -1.062519 1.399463 -0.428967
v -1.062991 1.398820 -0.430068
v -1.232082 1.383522 -0.348647
v -1.231610 1.384165 -0.347546
v -1.234848 1.399464 -0.355099
v -1.235320 1.398820 -0.356200
v -1.235320 1.379137 -0.356200
v -1.062991 1.379136 -0.430068
v -1.059753 1.363838 -0.422515
v -1.232082 1.363839 -0.348647
v -1.059281 1.364481 -0.421414
v -1.062519 1.379780 -0.428967
v -1.234848 1.379780 -0.355099
v -1.231610 1.364482 -0.347546
v -1.059753 1.363838 -0.422515
v -1.059281 1.364481 -0.421414
v -1.231610 1.364482 -0.347546
v -1.232082 1.363839 -0.348647
v -1.062991 1.379136 -0.430068
v -1.062519 1.379780 -0.428967
v -1.059281 1.364481 -0.421414
v -1.059753 1.363838 -0.422515
v -1.235320 1.379137 -0.356200
v -1.234848 1.379780 -0.355099
v -1.062519 1.379780 -0.428967
v -1.062991 1.379136 -0.430068
v -1.232082 1.363839 -0.348647
v -1.231610 1.364482 -0.347546
v -1.234848 1.379780 -0.355099
v -1.235320 1.379137 -0.356200
v -1.235320 1.359453 -0.356200
v -1.062991 1.359453 -0.430068
v -1.059753 1.344155 -0.422515
v -1.232082 1.344155 -0.348647
v -1.059281 1.344798 -0.421414
v -1.062519 1.360096 -0.428967
v -1.234848 1.360097 -0.355099
v -1.231610 1.344799 -0.347546
v -1.059753 1.344155 -0.422515
v -1.059281 1.344798 -0.421414
v -1.231610 1.344799 -0.347546
v -1.232082 1.344155 -0.348647
v -1.062991 1.359453 -0.430068
v -1.062519 1.360096 -0.428967
v -1.059281 1.344798 -0.421414
v -1.059753 1.344155 -0.422515
v -1.235320 1.359453 -0.356200
v -1.234848 1.360097 -0.355099
v -1.062519 1.360096 -0.428967
v -1.062991 1.359453 -0.430068
v -1.232082 1.344155 -0.348647
v -1.231610 1.344799 -0.347546
v -1.234848 1.360097 -0.355099
v -1.235320 1.359453 -0.356200
v -1.235320 1.339770 -0.356200
v -1.062991 1.339769 -0.430068
v -1.059753 1.324471 -0.422515
v -1.232082 1.324472 -0.348647
v -1.059281 1.325114 -0.421414
v -1.062519 1.340413 -0.428967
v -1.234848 1.340413 -0.355099
v -1.231610 1.325115 -0.347546
v -1.059753 1.324471 -0.422515
v -1.059281 1.325114 -0.421414
v -1.231610 1.325115 -0.347546
v -1.232082 1.324472 -0.348647
v -1.062991 1.339769 -0.430068
v -1.062519 1.340413 -0.428967
v -1.059281 1.325114 -0.421414
v -1.059753 1.324471 -0.422515
v -1.235320 1.339770 -0.356200
v -1.234848 1.340413 -0.355099
v -1.062519 1.340413 -0.428967
v -1.062991 1.339769 -0.430068
v -1.232082 1.324472 -0.348647
v -1.231610 1.325115 -0.347546
v -1.234848 1.340413 -0.355099
v -1.235320 1.339770 -0.356200
v -1.235320 1.320086 -0.356200
v -1.062991 1.320086 -0.430068
v -1.059753 1.304788 -0.422515
v -1.232082 1.304788 -0.348647
v -1.059281 1.305431 -0.421414
v -1.062519 1.320729 -0.428967
v -1.234848 1.320730 -0.355099
v -1.231610 1.305432 -0.347546
v -1.059753 1.304788 -0.422515
v -1.059281 1.305431 -0.421414
v -1.231610 1.305432 -0.347546
v -1.232082 1.304788 -0.348647
v -1.062991 1.320086 -0.430068
v -1.062519 1.320729 -0.428967
v -1.059281 1.305431 -0.421414
v -1.059753 1.304788 -0.422515
v -1.235320 1.320086 -0.356200
v -1.234848 1.320730 -0.355099
v -1.062519 1.320729 -0.428967
v -1.062991 1.320086 -0.430068
v -1.232082 1.304788 -0.348647
v -1.231610 1.305432 -0.347546
v -1.234848 1.320730 -0.355099
v -1.235320 1.320086 -0.356200
v -1.235320 1.300403 -0.356200
v -1.062991 1.300403 -0.430068
v -1.059753 1.285104 -0.422515
v -1.232082 1.285105 -0.348647
v -1.059281 1.285748 -0.421414
v -1.062519 1.301046 -0.428967
v -1.234848 1.301046 -0.355099
v -1.231610 1.285748 -0.347546
v -1.059753 1.285104 -0.422515
v -1.059281 1.285748 -0.421414
v -1.231610 1.285748 -0.347546
v -1.232082 1.285105 -0.348647
v -1.062991 1.300403 -0.430068
v -1.062519 1.301046 -0.428967
v -1.059281 1.285748 -0.421414
v -1.059753 1.285104 -0.422515
v -1.235320 1.300403 -0.356200
v -1.234848 1.301046 -0.355099
v -1.062519 1.301046 -0.428967
v -1.062991 1.300403 -0.430068
v -1.232082 1.285105 -0.348647
v -1.231610 1.285748 -0.347546
v -1.234848 1.301046 -0.355099
v -1.235320 1.300403 -0.356200
v -1.235320 1.280719 -0.356200
v -1.062991 1.280719 -0.430068
v -1.059753 1.265421 -0.422515
v -1.232082 1.265421 -0.348647
v -1.059281 1.266064 -0.421414
v -1.062519 1.281363 -0.428967
v -1.234848 1.281363 -0.355099
v -1.231610 1.266065 -0.347546
v -1.059753 1.265421 -0.422515
v -1.059281 1.266064 -0.421414
v -1.231610 1.266065 -0.347546
v -1.232082 1.265421 -0.348647
v -1.062991 1.280719 -0.430068
v -1.062519 1.281363 -0.428967
v -1.059281 1.266064 -0.421414
v -1.059753 1.265421 -0.422515
v -1.235320 1.280719 -0.356200
v -1.234848 1.281363 -0.355099
v -1.062519 1.281363 -0.428967
v -1.062991 1.280719 -0.430068
v -1.232082 1.265421 -0.348647
v -1.231610 1.266065 -0.347546
v -1.234848 1.281363 -0.355099
v -1.235320 1.280719 -0.356200
v -1.235320 1.261036 -0.356200
v -1.062991 1.261036 -0.430068
v -1.059753 1.245737 -0.422515
v -1.232082 1.245738 -0.348647
v -1.059281 1.246381 -0.421414
v -1.062519 1.261679 -0.428967
v -1.234848 1.261679 -0.355099
v -1.231610 1.246381 -0.347546
v -1.059753 1.245737 -0.422515
v -1.059281 1.246381 -0.421414
v -1.231610 1.246381 -0.347546
v -1.232082 1.245738 -0.348647
v -1.062991 1.261036 -0.430068
v -1.062519 1.261679 -0.428967
v -1.059281 1.246381 -0.421414
v -1.059753 1.245737 -0.422515
v -1.235320 1.261036 -0.356200
v -1.234848 1.261679 -0.355099
v -1.062519 1.261679 -0.428967
v -1.062991 1.261036 -0.430068
v -1.232082 1.245738 -0.348647
v -1.231610 1.246381 -0.347546
v -1.234848 1.261679 -0.355099
v -1.235320 1.261036 -0.356200
v -1.235320 1.241353 -0.356200
v -1.062991 1.241352 -0.430068
v -1.059753 1.226054 -0.422515
v -1.232082 1.226054 -0.348647
v -1.059281 1.226697 -0.421414
v -1.062519 1.241996 -0.428967
v -1.234848 1.241996 -0.355099
v -1.231610 1.226698 -0.347546
v -1.059753 1.226054 -0.422515
v -1.059281 1.226697 -0.421414
v -1.231610 1.226698 -0.347546
v -1.232082 1.226054 -0.348647
v -1.062991 1.241352 -0.430068
v -1.062519 1.241996 -0.428967
v -1.059281 1.226697 -0.421414
v -1.059753 1.226054 -0.422515
v -1.235320 1.241353 -0.356200
v -1.234848 1.241996 -0.355099
v -1.062519 1.241996 -0.428967
v -1.062991 1.241352 -0.430068
v -1.232082 1.226054 -0.348647
v -1.231610 1.226698 -0.347546
v -1.234848 1.241996 -0.355099
v -1.235320 1.241353 -0.356200
v -1.235320 1.221669 -0.356200
v -1.062991 1.221669 -0.430068
v -1.059753 1.206370 -0.422515
v -1.232082 1.206371 -0.348647
v -1.059281 1.207014 -0.421414
v -1.062519 1.222312 -0.428967
v -1.234848 1.222312 -0.355099
v -1.231610 1.207014 -0.347546
v -1.059753 1.206370 -0.422515
v -1.059281 1.207014 -0.421414
v -1.231610 1.207014 -0.347546
v -1.232082 1.206371 -0.348647
v -1.062991 1.221669 -0.430068
v -1.062519 1.222312 -0.428967
v -1.059281 1.207014 -0.421414
v -1.059753 1.206370 -0.422515
v -1.235320 1.221669 -0.356200
v -1.234848 1.222312 -0.355099
v -1.062519 1.222312 -0.428967
v -1.062991 1.221669 -0.430068
v -1.232082 1.206371 -0.348647
v -1.231610 1.207014 -0.347546
v -1.234848 1.222312 -0.355099
v -1.235320 1.221669 -0.356200
v -1.235320 1.201986 -0.356200
v -1.062991 1.201985 -0.430068
v -1.059753 1.186687 -0.422515
v -1.232082 1.186687 -0.348647
v -1.059281 1.187330 -0.421414
v -1.062519 1.202629 -0.428967
v -1.234848 1.202629 -0.355099
v -1.231610 1.187331 -0.347546
v -1.059753 1.186687 -0.422515
v -1.059281 1.187330 -0.421414
v -1.231610 1.187331 -0.347546
v -1.232082 1.186687 -0.348647
v -1.062991 1.201985 -0.430068
v -1.062519 1.202629 -0.428967
v -1.059281 1.187330 -0.421414
v -1.059753 1.186687 -0.422515
v -1.235320 1.201986 -0.356200
v -1.234848 1.202629 -0.355099
v -1.062519 1.202629 -0.428967
v -1.062991 1.201985 -0.430068
v -1.232082 1.186687 -0.348647
v -1.231610 1.187331 -0.347546
v -1.234848 1.202629 -0.355099
v -1.235320 1.201986 -0.356200
v -1.235320 1.182302 -0.356200
v -1.062991 1.182302 -0.430068
v -1.059753 1.167003 -0.422515
v -1.232082 1.167004 -0.348647
v -1.059281 1.167647 -0.421414
v -1.062519 1.182945 -0.428967
v -1.234848 1.182945 -0.355099
v -1.231610 1.167647 -0.347546
v -1.059753 1.167003 -0.422515
v -1.059281 1.167647 -0.421414
v -1.231610 1.167647 -0.347546
v -1.232082 1.167004 -0.348647
v -1.062991 1.182302 -0.430068
v -1.062519 1.182945 -0.428967
v -1.059281 1.167647 -0.421414
v -1.059753 1.167003 -0.422515
v -1.235320 1.182302 -0.356200
v -1.234848 1.182945 -0.355099
v -1.062519 1.182945 -0.428967
v -1.062991 1.182302 -0.430068
v -1.232082 1.167004 -0.348647
v -1.231610 1.167647 -0.347546
v -1.234848 1.182945 -0.355099
v -1.235320 1.182302 -0.356200
v -1.235320 1.162619 -0.356200
v -1.062991 1.162618 -0.430068
v -1.059753 1.147320 -0.422515
v -1.232082 1.147320 -0.348647
v -1.059281 1.147963 -0.421414
v -1.062519 1.163262 -0.428967
v -1.234848 1.163262 -0.355099
v -1.231610 1.147964 -0.347546
v -1.059753 1.147320 -0.422515
v -1.059281 1.147963 -0.421414
v -1.231610 1.147964 -0.347546
v -1.232082 1.147320 -0.348647
v -1.062991 1.162618 -0.430068
v -1.062519 1.163262 -0.428967
v -1.059281 1.147963 -0.421414
v -1.059753 1.147320 -0.422515
v -1.235320 1.162619 -0.356200
v -1.234848 1.163262 -0.355099
v -1.062519 1.163262 -0.428967
v -1.062991 1.162618 -0.430068
v -1.232082 1.147320 -0.348647
v -1.231610 1.147964 -0.347546
v -1.234848 1.163262 -0.355099
v -1.235320 1.162619 -0.356200
v -1.235320 1.142935 -0.356200
v -1.062991 1.142935 -0.430068
v -1.059753 1.127636 -0.422515
v -1.232082 1.127637 -0.348647
v -1.059281 1.128280 -0.421414
v -1.062519 1.143578 -0.428967
v -1.234848 1.143579 -0.355099
v -1.231610 1.128280 -0.347546
v -1.059753 1.127636 -0.422515
v -1.059281 1.128280 -0.421414
v -1.231610 1.128280 -0.347546
v -1.232082 1.127637 -0.348647
v -1.062991 1.142935 -0.430068
v -1.062519 1.143578 -0.428967
v -1.059281 1.128280 -0.421414
v -1.059753 1.127636 -0.422515
v -1.235320 1.142935 -0.356200
v -1.234848 1.143579 -0.355099
v -1.062519 1.143578 -0.428967
v -1.062991 1.142935 -0.430068
v -1.232082 1.127637 -0.348647
v -1.231610 1.128280 -0.347546
v -1.234848 1.143579 -0.355099
v -1.235320 1.142935 -0.356200
v -1.235320 1.123252 -0.356200
v -1.062991 1.123251 -0.430068
v -1.059753 1.107953 -0.422515
v -1.232082 1.107953 -0.348647
v -1.059281 1.108596 -0.421414
v -1.062519 1.123895 -0.428967
v -1.234848 1.123895 -0.355099
v -1.231610 1.108597 -0.347546
v -1.059753 1.107953 -0.422515
v -1.059281 1.108596 -0.421414
v -1.231610 1.108597 -0.347546
v -1.232082 1.107953 -0.348647
v -1.062991 1.123251 -0.430068
v -1.062519 1.123895 -0.428967
v -1.059281 1.108596 -0.421414
v -1.059753 1.107953 -0.422515
v -1.235320 1.123252 -0.356200
v -1.234848 1.123895 -0.355099
v -1.062519 1.123895 -0.428967
v -1.062991 1.123251 -0.430068
v -1.232082 1.107953 -0.348647
v -1.231610 1.108597 -0.347546
v -1.234848 1.123895 -0.355099
v -1.235320 1.123252 -0.356200
v -1.235320 1.103568 -0.356200
v -1.062991 1.103568 -0.430068
v -1.059753 1.088269 -0.422515
v -1.232082 1.088270 -0.348647
v -1.059281 1.088913 -0.421414
v -1.062519 1.104211 -0.428967
v -1.234848 1.104212 -0.355099
v -1.231610 1.088913 -0.347546
v -1.059753 1.088269 -0.422515
v -1.059281 1.088913 -0.421414
v -1.231610 1.088913 -0.347546
v -1.232082 1.088270 -0.348647
v -1.062991 1.103568 -0.430068
v -1.062519 1.104211 -0.428967
v -1.059281 1.088913 -0.421414
v -1.059753 1.088269 -0.422515
v -1.235320 1.103568 -0.356200
v -1.234848 1.104212 -0.355099
v -1.062519 1.104211 -0.428967
v -1.062991 1.103568 -0.430068
v -1.232082 1.088270 -0.348647
v -1.231610 1.088913 -0.347546
v -1.234848 1.104212 -0.355099
v -1.235320 1.103568 -0.356200
v -1.235320 1.083885 -0.356200
v -1.062991 1.083884 -0.430068
v -1.059753 1.068586 -0.422515
v -1.232082 1.068586 -0.348647
v -1.059281 1.069229 -0.421414
v -1.062519 1.084528 -0.428967
v -1.234848 1.084528 -0.355099
v -1.231610 1.069230 -0.347546
v -1.059753 1.068586 -0.422515
v -1.059281 1.069229 -0.421414
v -1.231610 1.069230 -0.347546
v -1.232082 1.068586 -0.348647
v -1.062991 1.083884 -0.430068
v -1.062519 1.084528 -0.428967
v -1.059281 1.069229 -0.421414
v -1.059753 1.068586 -0.422515
v -1.235320 1.083885 -0.356200
v -1.234848 1.084528 -0.355099
v -1.062519 1.084528 -0.428967
v -1.062991 1.083884 -0.430068
v -1.232082 1.068586 -0.348647
v -1.231610 1.069230 -0.347546
v -1.234848 1.084528 -0.355099
v -1.235320 1.083885 -0.356200
vn -0.3471 -0.4732 -0.8097
vn 0.3471 0.4732 0.8097
vn 0.1864 -0.8809 0.4349
vn 0.9191 -0.0000 -0.3940
vn -0.1864 0.8809 -0.4349
vn -0.9191 -0.0000 0.3940
vn 0.1864 -0.8810 0.4349
vn -0.1864 0.8810 -0.4349
vn 0.1864 -0.8809 0.4350
vn -0.1864 0.8809 -0.4350
vt 0.939723 0.241910
vt 0.939723 0.333778
vt 0.920915 0.333778
vt 0.920915 0.241910
vt 0.919442 0.333778
vt 0.900635 0.333778
vt 0.900635 0.241910
vt 0.919442 0.241910
vt 0.939723 0.334444
vt 0.920915 0.334444
vt 0.899162 0.241910
vt 0.899162 0.333778
vt 0.919442 0.241244
vt 0.900635 0.241244
s 0
f 1/1/1 2/2/1 3/3/1
f 1/1/1 3/3/1 4/4/1
f 5/5/2 6/6/2 7/7/2
f 5/5/2 7/7/2 8/8/2
f 9/3/3 10/5/3 11/8/3
f 9/3/3 11/8/3 12/4/3
f 13/2/4 14/9/4 15/10/4
f 13/2/4 15/10/4 16/3/4
f 17/11/5 18/7/5 19/6/5
f 17/11/5 19/6/5 20/12/5
f 21/13/6 22/8/6 23/7/6
f 21/13/6 23/7/6 24/14/6
f 25/1/1 26/2/1 27/3/1
f 25/1/1 27/3/1 28/4/1
f 29/5/2 30/6/2 31/7/2
f 29/5/2 31/7/2 32/8/2
f 33/3/3 34/5/3 35/8/3
f 33/3/3 35/8/3 36/4/3
f 37/2/4 38/9/4 39/10/4
f 37/2/4 39/10/4 40/3/4
f 41/11/5 42/7/5 43/6/5
f 41/11/5 43/6/5 44/12/5
f 45/13/6 46/8/6 47/7/6
f 45/13/6 47/7/6 48/14/6
f 49/1/1 50/2/1 51/3/1
f 49/1/1 51/3/1 52/4/1
f 53/5/2 54/6/2 55/7/2
f 53/5/2 55/7/2 56/8/2
f 57/3/3 58/5/3 59/8/3
f 57/3/3 59/8/3 60/4/3
f 61/2/4 62/9/4 63/10/4
f 61/2/4 63/10/4 64/3/4
f 65/11/5 66/7/5 67/6/5
f 65/11/5 67/6/5 68/12/5
f 69/13/6 70/8/6 71/7/6
f 69/13/6 71/7/6 72/14/6
f 73/1/1 74/2/1 75/3/1
f 73/1/1 75/3/1 76/4/1
f 77/5/2 78/6/2 79/7/2
f 77/5/2 79/7/2 80/8/2
f 81/3/3 82/5/3 83/8/3
f 81/3/3 83/8/3 84/4/3
f 85/2/4 86/9/4 87/10/4
f 85/2/4 87/10/4 88/3/4
f 89/11/5 90/7/5 91/6/5
f 89/11/5 91/6/5 92/12/5
f 93/13/6 94/8/6 95/7/6
f 93/13/6 95/7/6 96/14/6
f 97/1/1 98/2/1 99/3/1
f 97/1/1 99/3/1 100/4/1
f 101/5/2 102/6/2 103/7/2
f 101/5/2 103/7/2 104/8/2
f 105/3/3 106/5/3 107/8/3
f 105/3/3 107/8/3 108/4/3
f 109/2/4 110/9/4 111/10/4
f 109/2/4 111/10/4 112/3/4
f 113/11/5 114/7/5 115/6/5
f 113/11/5 115/6/5 116/12/5
f 117/13/6 118/8/6 119/7/6
f 117/13/6 119/7/6 120/14/6
f 121/1/1 122/2/1 123/3/1
f 121/1/1 123/3/1 124/4/1
f 125/5/2 126/6/2 127/7/2
f 125/5/2 127/7/2 128/8/2
f 129/3/3 130/5/3 131/8/3
f 129/3/3 131/8/3 132/4/3
f 133/2/4 134/9/4 135/10/4
f 133/2/4 135/10/4 136/3/4
f 137/11/5 138/7/5 139/6/5
f 137/11/5 139/6/5 140/12/5
f 141/13/6 142/8/6 143/7/6
f 141/13/6 143/7/6 144/14/6
f 145/1/1 146/2/1 147/3/1
f 145/1/1 147/3/1 148/4/1
f 149/5/2 150/6/2 151/7/2
f 149/5/2 151/7/2 152/8/2
f 153/3/7 154/5/7 155/8/7
f 153/3/3 155/8/3 156/4/3
f 157/2/4 158/9/4 159/10/4
f 157/2/4 159/10/4 160/3/4
f 161/11/5 162/7/5 163/6/5
f 161/11/8 163/6/8 164/12/8
f 165/13/6 166/8/6 167/7/6
f 165/13/6 167/7/6 168/14/6
f 169/1/1 170/2/1 171/3/1
f 169/1/1 171/3/1 172/4/1
f 173/5/2 174/6/2 175/7/2
f 173/5/2 175/7/2 176/8/2
f 177/3/7 178/5/7 179/8/7
f 177/3/7 179/8/7 180/4/7
f 181/2/4 182/9/4 183/10/4
f 181/2/4 183/10/4 184/3/4
f 185/11/8 186/7/8 187/6/8
f 185/11/8 187/6/8 188/12/8
f 189/13/6 190/8/6 191/7/6
f 189/13/6 191/7/6 192/14/6
f 193/1/1 194/2/1 195/3/1
f 193/1/1 195/3/1 196/4/1
f 197/5/2 198/6/2 199/7/2
f 197/5/2 199/7/2 200/8/2
f 201/3/3 202/5/3 203/8/3
f 201/3/7 203/8/7 204/4/7
f 205/2/4 206/9/4 207/10/4
f 205/2/4 207/10/4 208/3/4
f 209/11/5 210/7/5 211/6/5
f 209/11/8 211/6/8 212/12/8
f 213/13/6 214/8/6 215/7/6
f 213/13/6 215/7/6 216/14/6
f 217/1/1 218/2/1 219/3/1
f 217/1/1 219/3/1 220/4/1
f 221/5/2 222/6/2 223/7/2
f 221/5/2 223/7/2 224/8/2
f 225/3/7 226/5/7 227/8/7
f 225/3/3 227/8/3 228/4/3
f 229/2/4 230/9/4 231/10/4
f 229/2/4 231/10/4 232/3/4
f 233/11/8 234/7/8 235/6/8
f 233/11/5 235/6/5 236/12/5
f 237/13/6 238/8/6 239/7/6
f 237/13/6 239/7/6 240/14/6
f 241/1/1 242/2/1 243/3/1
f 241/1/1 243/3/1 244/4/1
f 245/5/2 246/6/2 247/7/2
f 245/5/2 247/7/2 248/8/2
f 249/3/7 250/5/7 251/8/7
f 249/3/7 251/8/7 252/4/7
f 253/2/4 254/9/4 255/10/4
f 253/2/4 255/10/4 256/3/4
f 257/11/8 258/7/8 259/6/8
f 257/11/8 259/6/8 260/12/8
f 261/13/6 262/8/6 263/7/6
f 261/13/6 263/7/6 264/14/6
f 265/1/1 266/2/1 267/3/1
f 265/1/1 267/3/1 268/4/1
f 269/5/2 270/6/2 271/7/2
f 269/5/2 271/7/2 272/8/2
f 273/3/7 274/5/7 275/8/7
f 273/3/7 275/8/7 276/4/7
f 277/2/4 278/9/4 279/10/4
f 277/2/4 279/10/4 280/3/4
f 281/11/8 282/7/8 283/6/8
f 281/11/8 283/6/8 284/12/8
f 285/13/6 286/8/6 287/7/6
f 285/13/6 287/7/6 288/14/6
f 289/1/1 290/2/1 291/3/1
f 289/1/1 291/3/1 292/4/1
f 293/5/2 294/6/2 295/7/2
f 293/5/2 295/7/2 296/8/2
f 297/3/7 298/5/7 299/8/7
f 297/3/7 299/8/7 300/4/7
f 301/2/4 302/9/4 303/10/4
f 301/2/4 303/10/4 304/3/4
f 305/11/8 306/7/8 307/6/8
f 305/11/8 307/6/8 308/12/8
f 309/13/6 310/8/6 311/7/6
f 309/13/6 311/7/6 312/14/6
f 313/1/1 314/2/1 315/3/1
f 313/1/1 315/3/1 316/4/1
f 317/5/2 318/6/2 319/7/2
f 317/5/2 319/7/2 320/8/2
f 321/3/9 322/5/9 323/8/9
f 321/3/7 323/8/7 324/4/7
f 325/2/4 326/9/4 327/10/4
f 325/2/4 327/10/4 328/3/4
f 329/11/10 330/7/10 331/6/10
f 329/11/8 331/6/8 332/12/8
f 333/13/6 334/8/6 335/7/6
f 333/13/6 335/7/6 336/14/6
f 337/1/1 338/2/1 339/3/1
f 337/1/1 339/3/1 340/4/1
f 341/5/2 342/6/2 343/7/2
f 341/5/2 343/7/2 344/8/2
f 345/3/7 346/5/7 347/8/7
f 345/3/7 347/8/7 348/4/7
f 349/2/4 350/9/4 351/10/4
f 349/2/4 351/10/4 352/3/4
f 353/11/8 354/7/8 355/6/8
f 353/11/8 355/6/8 356/12/8
f 357/13/6 358/8/6 359/7/6
f 357/13/6 359/7/6 360/14/6
f 361/1/1 362/2/1 363/3/1
f 361/1/1 363/3/1 364/4/1
f 365/5/2 366/6/2 367/7/2
f 365/5/2 367/7/2 368/8/2
f 369/3/7 370/5/7 371/8/7
f 369/3/7 371/8/7 372/4/7
f 373/2/4 374/9/4 375/10/4
f 373/2/4 375/10/4 376/3/4
f 377/11/8 378/7/8 379/6/8
f 377/11/8 379/6/8 380/12/8
f 381/13/6 382/8/6 383/7/6
f 381/13/6 383/7/6 384/14/6
f 385/1/1 386/2/1 387/3/1
f 385/1/1 387/3/1 388/4/1
f 389/5/2 390/6/2 391/7/2
f 389/5/2 391/7/2 392/8/2
f 393/3/9 394/5/9 395/8/9
f 393/3/7 395/8/7 396/4/7
f 397/2/4 398/9/4 399/10/4
f 397/2/4 399/10/4 400/3/4
f 401/11/10 402/7/10 403/6/10
f 401/11/8 403/6/8 404/12/8
f 405/13/6 406/8/6 407/7/6
f 405/13/6 407/7/6 408/14/6
f 409/1/1 410/2/1 411/3/1
f 409/1/1 411/3/1 412/4/1
f 413/5/2 414/6/2 415/7/2
f 413/5/2 415/7/2 416/8/2
f 417/3/7 418/5/7 419/8/7
f 417/3/7 419/8/7 420/4/7
f 421/2/4 422/9/4 423/10/4
f 421/2/4 423/10/4 424/3/4
f 425/11/8 426/7/8 427/6/8
f 425/11/8 427/6/8 428/12/8
f 429/13/6 430/8/6 431/7/6
f 429/13/6 431/7/6 432/14/6
f 433/1/1 434/2/1 435/3/1
f 433/1/1 435/3/1 436/4/1
f 437/5/2 438/6/2 439/7/2
f 437/5/2 439/7/2 440/8/2
f 441/3/7 442/5/7 443/8/7
f 441/3/7 443/8/7 444/4/7
f 445/2/4 446/9/4 447/10/4
f 445/2/4 447/10/4 448/3/4
f 449/11/8 450/7/8 451/6/8
f 449/11/8 451/6/8 452/12/8
f 453/13/6 454/8/6 455/7/6
f 453/13/6 455/7/6 456/14/6
