# Blender 5.1.1
# www.blender.org
o 2_1_01_0
v -1.256969 1.480626 -0.337245
v -1.254238 1.483666 -0.338456
v -1.255926 1.481447 -0.340833
v -1.035294 1.483660 -0.432292
v -1.032493 1.480637 -0.433512
v -1.035577 1.481441 -0.435272
v -1.031575 1.478909 -0.426484
v -1.034382 1.481942 -0.425307
v -1.035871 1.478278 -0.421568
v -1.246775 1.478284 -0.331171
v -1.250340 1.481948 -0.332751
v -1.253110 1.478926 -0.331597
v -1.033899 1.470216 -0.422413
v -1.248748 1.470221 -0.330325
v -1.052740 1.445052 -0.414337
v -1.057005 1.448779 -0.412508
v -1.061409 1.443313 -0.412264
v -1.223519 1.443317 -0.342783
v -1.226732 1.448783 -0.339763
v -1.230997 1.445056 -0.337934
v -1.219834 0.621322 -0.349419
v -1.222538 0.624262 -0.348260
v -1.226732 0.617877 -0.341585
v -1.223519 0.613542 -0.342783
v -1.231001 0.611814 -0.337939
v -1.058329 0.617892 -0.413770
v -1.066054 0.624277 -0.415336
v -1.068757 0.621336 -0.414177
v -1.061411 0.613556 -0.412270
v -1.226731 1.438982 -0.341585
v -1.052744 0.611829 -0.414348
v -1.226747 0.608076 -0.339763
v -1.056997 0.608091 -0.412525
v -1.219834 1.435537 -0.349419
v -1.222538 1.432597 -0.348260
v -1.242303 0.579147 -0.333094
v -1.248751 0.587056 -0.330331
v -1.253113 0.579147 -0.331602
v -1.058324 1.438977 -0.413759
v -1.031580 0.579167 -0.426495
v -1.033904 0.587075 -0.422424
v -1.035914 0.579167 -0.421562
v -1.250390 0.576206 -0.332829
v -1.068753 1.435533 -0.414166
v -1.034403 0.576227 -0.425404
v -1.066049 1.432592 -0.415325
v -1.254183 0.576206 -0.338380
v -1.256972 0.579147 -0.337251
v -1.255926 0.579147 -0.340833
v -1.032497 0.579167 -0.433524
v -1.035292 0.576226 -0.432207
v -1.035582 0.579167 -0.435283
v -1.250015 1.008450 -0.349573
v -1.250014 1.067794 -0.349574
v -1.040975 1.067715 -0.439171
v -1.040978 1.008500 -0.439176
v -1.036415 1.067715 -0.428531
v -1.040975 1.067715 -0.439171
v -1.250014 1.067794 -0.349574
v -1.245454 1.067794 -0.338934
v -1.245454 1.008450 -0.338934
v -1.250015 1.008450 -0.349573
v -1.040978 1.008500 -0.439176
v -1.036418 1.008501 -0.428537
v -1.046565 0.606235 -0.442652
v -1.037847 0.606235 -0.422313
v -1.037843 1.454372 -0.422303
v -1.046561 1.454372 -0.442641
v -1.253689 0.606216 -0.353869
v -1.244971 0.606216 -0.333530
v -1.037847 0.606235 -0.422313
v -1.046565 0.606235 -0.442652
v -1.253689 1.454378 -0.353869
v -1.244971 1.454378 -0.333530
v -1.244971 0.606216 -0.333530
v -1.253689 0.606216 -0.353869
v -1.046561 1.454372 -0.442641
v -1.037843 1.454372 -0.422303
v -1.244971 1.454378 -0.333530
v -1.253689 1.454378 -0.353869
v -1.260300 0.579147 -0.351036
v -1.253689 0.606216 -0.353869
v -1.046565 0.606235 -0.442652
v -1.039955 0.579167 -0.445486
v -1.245454 1.008450 -0.338934
v -1.036418 1.008501 -0.428537
v -1.034704 1.013985 -0.424539
v -1.243741 1.013943 -0.334937
v -1.034692 1.062046 -0.424512
v -1.036415 1.067715 -0.428531
v -1.245454 1.067794 -0.338934
v -1.243728 1.062112 -0.334909
v -1.254238 1.483666 -0.338456
v -1.035294 1.483660 -0.432292
v -1.035577 1.481441 -0.435272
v -1.255926 1.481447 -0.340833
v -1.034206 1.056777 -0.423378
v -1.034692 1.062046 -0.424512
v -1.243728 1.062112 -0.334909
v -1.243242 1.056841 -0.333775
v -1.034206 1.019231 -0.423377
v -1.243245 1.019189 -0.333780
v -1.243741 1.013943 -0.334937
v -1.034704 1.013985 -0.424539
v -1.250340 1.481948 -0.332751
v -1.034382 1.481942 -0.425307
v -1.035294 1.483660 -0.432292
v -1.254238 1.483666 -0.338456
v -1.260300 1.481447 -0.351036
v -1.253689 1.454378 -0.353869
v -1.253689 0.606216 -0.353869
v -1.260300 0.579147 -0.351036
v -1.039950 1.481441 -0.445475
v -1.046561 1.454372 -0.442641
v -1.253689 1.454378 -0.353869
v -1.260300 1.481447 -0.351036
v -1.034206 1.019231 -0.423377
v -1.034206 1.056777 -0.423378
v -1.243242 1.056841 -0.333775
v -1.243245 1.019189 -0.333780
v -1.039955 0.579167 -0.445486
v -1.046565 0.606235 -0.442652
v -1.046561 1.454372 -0.442641
v -1.039950 1.481441 -0.445475
v -1.255926 1.481447 -0.340833
v -1.260300 1.481447 -0.351036
v -1.260300 0.579147 -0.351036
v -1.255926 0.579147 -0.340833
v -1.039950 1.481441 -0.445475
v -1.260300 1.481447 -0.351036
v -1.035582 0.579167 -0.435283
v -1.039955 0.579167 -0.445486
v -1.039950 1.481441 -0.445475
v -1.035577 1.481441 -0.435272
v -1.255926 0.579147 -0.340833
v -1.260300 0.579147 -0.351036
v -1.039955 0.579167 -0.445486
v -1.035582 0.579167 -0.435283
v -1.226732 0.617877 -0.341585
v -1.222538 0.624262 -0.348260
v -1.222538 1.432597 -0.348260
v -1.226731 1.438982 -0.341585
v -1.230997 1.445056 -0.337934
v -1.231001 0.611814 -0.337939
v -1.248748 1.470221 -0.330325
v -1.248751 0.587056 -0.330331
v -1.246775 1.478284 -0.331171
v -1.035871 1.478278 -0.421568
v -1.253110 1.478926 -0.331597
v -1.253113 0.579147 -0.331602
v -1.256969 1.480626 -0.337245
v -1.256972 0.579147 -0.337251
v -1.256972 0.579147 -0.337251
v -1.256969 1.480626 -0.337245
v -1.058324 1.438977 -0.413759
v -1.066049 1.432592 -0.415325
v -1.066054 0.624277 -0.415336
v -1.058329 0.617892 -0.413770
v -1.226732 1.448783 -0.339763
v -1.057005 1.448779 -0.412508
v -1.052740 1.445052 -0.414337
v -1.052744 0.611829 -0.414348
v -1.033899 1.470216 -0.422413
v -1.033904 0.587075 -0.422424
v -1.031575 1.478909 -0.426484
v -1.031580 0.579167 -0.426495
v -1.032493 1.480637 -0.433512
v -1.032497 0.579167 -0.433524
v -1.223519 1.443317 -0.342783
v -1.061409 1.443313 -0.412264
v -1.032493 1.480637 -0.433512
v -1.032497 0.579167 -0.433524
v -1.068757 0.621336 -0.414177
v -1.219834 0.621322 -0.349419
v -1.223519 0.613542 -0.342783
v -1.061411 0.613556 -0.412270
v -1.226747 0.608076 -0.339763
v -1.056997 0.608091 -0.412525
v -1.035914 0.579167 -0.421562
v -1.242303 0.579147 -0.333094
v -1.219834 1.435537 -0.349419
v -1.068753 1.435533 -0.414166
v -1.250390 0.576206 -0.332829
v -1.034403 0.576227 -0.425404
v -1.250390 0.576206 -0.332829
v -1.253113 0.579147 -0.331602
v -1.035292 0.576226 -0.432207
v -1.034403 0.576227 -0.425404
v -1.250390 0.576206 -0.332829
v -1.254183 0.576206 -0.338380
v -1.031580 0.579167 -0.426495
v -1.034403 0.576227 -0.425404
v -1.035582 0.579167 -0.435283
v -1.035292 0.576226 -0.432207
v -1.254183 0.576206 -0.338380
v -1.255926 0.579147 -0.340833
vn -0.6678 0.7005 0.2518
vn -0.7557 0.6510 -0.0708
vn 0.6550 0.7107 -0.2567
vn 0.4901 0.6762 -0.5501
vn 0.8882 0.2546 0.3825
vn 0.5074 0.7290 0.4594
vn 0.5305 0.2327 0.8151
vn 0.2157 0.2343 0.9479
vn -0.0336 0.7350 0.6772
vn -0.3764 0.2595 0.8894
vn 0.6245 0.0291 0.7804
vn 0.1188 0.0307 0.9924
vn 0.2845 -0.0633 0.9566
vn 0.3601 -0.1094 0.9265
vn 0.2633 -0.2809 0.9229
vn 0.4866 -0.2813 0.8271
vn 0.4226 -0.1095 0.8997
vn 0.4966 -0.0636 0.8656
vn 0.5527 0.3778 0.7428
vn 0.7599 0.1597 0.6302
vn 0.6741 0.1528 0.7226
vn 0.4866 0.2809 0.8273
vn 0.4965 0.0633 0.8657
vn 0.0586 0.1528 0.9865
vn -0.0687 0.1606 0.9846
vn 0.1567 0.3777 0.9125
vn 0.2635 0.2809 0.9229
vn 0.6742 -0.1529 0.7226
vn 0.2847 0.0632 0.9565
vn 0.4226 0.1089 0.8998
vn 0.3602 0.1089 0.9265
vn 0.5528 -0.3777 0.7428
vn 0.7605 -0.1606 0.6292
vn 0.2798 -0.2544 0.9257
vn 0.1677 -0.0597 0.9840
vn -0.2350 -0.1409 0.9617
vn 0.0584 -0.1524 0.9866
vn 0.8872 -0.1481 0.4370
vn 0.6261 -0.0308 0.7791
vn 0.5340 -0.2690 0.8016
vn 0.2132 -0.5107 0.8329
vn 0.1567 -0.3774 0.9127
vn 0.4935 -0.5863 0.6425
vn -0.0677 -0.1597 0.9848
vn -0.6099 -0.7723 -0.1777
vn -0.8639 -0.5023 -0.0374
vn -0.8847 -0.4058 -0.2295
vn 0.5700 -0.7193 -0.3971
vn 0.3047 -0.7885 -0.5343
vn 0.0515 -0.7194 -0.6927
vn -0.3940 -0.0000 -0.9191
vn -0.3940 0.0001 -0.9191
vn 0.0003 1.0000 -0.0002
vn 0.0002 -1.0000 -0.0001
vn -0.9191 -0.0000 0.3940
vn -0.0001 1.0000 -0.0000
vn 0.9191 -0.0000 -0.3940
vn -0.0000 -1.0000 -0.0000
vn 0.3088 -0.6213 0.7201
vn 0.3089 -0.6210 0.7203
vn 0.3121 0.6108 0.7277
vn 0.3122 0.6105 0.7279
vn -0.2419 0.7891 -0.5646
vn -0.2420 0.7891 -0.5646
vn -0.1279 0.9458 -0.2984
vn 0.3837 0.2280 0.8949
vn 0.3837 0.2279 0.8949
vn 0.3831 -0.2336 0.8937
vn 0.3831 -0.2339 0.8936
vn -0.0335 0.7351 0.6772
vn 0.5073 0.7291 0.4594
vn 0.0968 0.9694 0.2258
vn 0.0968 0.9694 0.2257
vn -0.3939 -0.0000 -0.9191
vn 0.3940 -0.0000 0.9191
vn 0.3940 -0.0002 0.9191
vn -0.9982 -0.0000 0.0608
vn -0.0000 1.0000 -0.0000
vn 0.7461 -0.0000 -0.6659
vn 0.7461 -0.0000 -0.6658
vn 0.0001 -1.0000 -0.0000
vn 0.7599 0.1597 0.6301
vn 0.7599 -0.1596 0.6301
vn 0.6742 -0.1528 0.7225
vn 0.4966 -0.0635 0.8656
vn 0.4965 0.0632 0.8657
vn 0.1187 0.0307 0.9925
vn 0.2158 0.2344 0.9479
vn 0.5304 0.2328 0.8151
vn -0.3765 0.2594 0.8894
vn -0.8257 -0.0000 0.5641
vn -0.8257 -0.0000 0.5640
vn -0.9601 -0.0000 -0.2796
vn 0.0583 -0.1524 0.9866
vn -0.0677 -0.1596 0.9848
vn -0.0677 0.1596 0.9848
vn 0.0585 0.1527 0.9865
vn 0.4226 -0.1094 0.8997
vn 0.3602 -0.1095 0.9265
vn 0.6246 0.0291 0.7804
vn 0.8882 0.2545 0.3825
vn 0.9916 -0.0000 -0.1295
vn 0.9916 -0.0000 -0.1294
vn 0.4866 -0.2814 0.8271
vn 0.4956 -0.0000 -0.8685
vn 0.4955 -0.0000 -0.8686
vn 0.1568 0.3778 0.9125
vn 0.4865 0.2809 0.8273
vn 0.2636 0.2809 0.9228
vn 0.5339 -0.2691 0.8016
vn 0.2798 -0.2545 0.9257
vn 0.5527 -0.3777 0.7429
vn 0.4934 -0.5863 0.6425
vn -0.5839 -0.7070 0.3989
vn -0.5839 -0.7071 0.3989
vn 0.0001 -1.0000 0.0001
vn 0.7012 -0.7071 -0.0915
vn 0.0514 -0.7194 -0.6927
vn -0.6098 -0.7724 -0.1777
vt 0.906375 0.852903
vt 0.906375 0.858218
vt 0.908538 0.855738
vt 0.629158 0.915616
vt 0.629158 0.920996
vt 0.631243 0.918399
vt 0.625145 0.920996
vt 0.625145 0.915616
vt 0.620919 0.915616
vt 0.898262 0.858218
vt 0.902457 0.858218
vt 0.902457 0.852903
vt 0.620919 0.920996
vt 0.898262 0.852903
vt 0.601648 0.920996
vt 0.601648 0.915616
vt 0.597429 0.915616
vt 0.875116 0.858218
vt 0.879346 0.858218
vt 0.879346 0.852903
vt 0.706719 0.223571
vt 0.700751 0.223571
vt 0.700751 0.229727
vt 0.706719 0.229727
vt 0.700751 0.234208
vt 0.597709 0.922958
vt 0.591633 0.922958
vt 0.591633 0.928480
vt 0.597709 0.928480
vt 0.875116 0.852903
vt 0.602132 0.922958
vt 0.706719 0.234208
vt 0.602132 0.928480
vt 0.869306 0.858218
vt 0.869306 0.852903
vt 0.706719 0.253224
vt 0.700751 0.253224
vt 0.700751 0.258419
vt 0.597429 0.920996
vt 0.626225 0.922958
vt 0.622101 0.922958
vt 0.622101 0.928480
vt 0.706719 0.258419
vt 0.591633 0.915616
vt 0.626225 0.928480
vt 0.591633 0.920996
vt 0.706719 0.262392
vt 0.700751 0.262392
vt 0.703098 0.265079
vt 0.630259 0.922958
vt 0.630259 0.928480
vt 0.632617 0.924870
vt 0.000327 0.474560
vt 0.000327 0.522747
vt 0.148800 0.522747
vt 0.148800 0.474560
vt 0.148800 0.532157
vt 0.000327 0.532157
vt 0.000327 0.465150
vt 0.148800 0.465150
vt 0.359746 0.747675
vt 0.359746 0.718071
vt 0.011443 0.718072
vt 0.011443 0.747676
vt 0.916182 0.364741
vt 0.896286 0.364741
vt 0.896286 0.507562
vt 0.916182 0.507562
vt 0.615498 0.374441
vt 0.586474 0.374441
vt 0.586477 0.722278
vt 0.615501 0.722278
vt 0.847203 0.707944
vt 0.826765 0.707944
vt 0.826760 0.850940
vt 0.847197 0.850941
vt 0.940584 0.364741
vt 0.940584 0.507562
vt 0.148800 0.459458
vt 0.000327 0.459458
vt 0.148800 0.537983
vt 0.000327 0.537983
vt 0.884027 0.850575
vt 0.884033 0.708490
vt 0.880970 0.707945
vt 0.880964 0.850942
vt 0.148800 0.542382
vt 0.000327 0.542382
vt 0.148800 0.455072
vt 0.000327 0.455072
vt 0.889956 0.849779
vt 0.889962 0.709632
vt 0.624931 0.363340
vt 0.624934 0.733379
vt 0.872270 0.707945
vt 0.872265 0.850942
vt 0.148800 0.572946
vt 0.000327 0.572946
vt 0.370862 0.757297
vt 0.000327 0.757298
vt 0.639490 0.363340
vt 0.639494 0.733379
vt 0.370862 0.771814
vt 0.000327 0.771815
vt 0.949965 0.364741
vt 0.949965 0.507562
vt 0.690511 0.717450
vt 0.700616 0.714825
vt 0.700616 0.382392
vt 0.690511 0.379767
vt 0.683147 0.377268
vt 0.683150 0.719944
vt 0.659551 0.366920
vt 0.659554 0.730126
vt 0.893599 0.848196
vt 0.893600 0.711327
vt 0.653575 0.363339
vt 0.653578 0.733379
vt 0.644449 0.363340
vt 0.644452 0.733379
vt 0.017766 0.823811
vt 0.020388 0.834088
vt 0.352337 0.834088
vt 0.354959 0.823811
vt 0.918695 0.835188
vt 0.918695 0.725043
vt 0.015271 0.816322
vt 0.357449 0.816322
vt 0.004937 0.790848
vt 0.367614 0.790848
vt 0.001367 0.784719
vt 0.370862 0.784718
vt 0.000657 0.776122
vt 0.370862 0.776121
vt 0.923606 0.832717
vt 0.923606 0.727514
vt 0.999024 0.485685
vt 0.999024 0.385785
vt 0.991369 0.382137
vt 0.991368 0.489332
vt 0.986492 0.379610
vt 0.986492 0.491858
vt 0.962957 0.505798
vt 0.962957 0.369322
vt 0.931030 0.829138
vt 0.931029 0.731094
vt 0.959375 0.364741
vt 0.959375 0.507562
vt 0.953558 0.507562
vt 0.953558 0.364741
s 1
f 1/1/1 2/2/1 3/3/2
f 4/4/3 5/5/3 6/6/4
f 7/7/5 8/8/6 9/9/7
f 10/10/8 11/11/9 12/12/10
f 9/9/7 13/13/11 7/7/5
f 12/12/10 14/14/12 10/10/8
f 15/15/13 16/16/14 17/17/15
f 18/18/16 19/19/17 20/20/18
f 21/21/19 22/22/20 23/23/21
f 23/23/21 24/24/22 21/21/19
f 24/24/22 23/23/21 25/25/23
f 26/26/24 27/27/25 28/28/26
f 28/28/26 29/29/27 26/26/24
f 20/20/18 30/30/28 18/18/16
f 31/31/29 26/26/24 29/29/27
f 25/25/23 32/32/30 24/24/22
f 29/29/27 33/33/31 31/31/29
f 34/34/32 18/18/16 30/30/28
f 30/30/28 35/35/33 34/34/32
f 36/36/34 37/37/35 38/38/36
f 17/17/15 39/39/37 15/15/13
f 40/40/38 41/41/39 42/42/40
f 38/38/36 43/43/41 36/36/34
f 39/39/37 17/17/15 44/44/42
f 42/42/40 45/45/43 40/40/38
f 44/44/42 46/46/44 39/39/37
f 47/47/45 48/48/46 49/49/47
f 50/50/48 51/51/49 52/52/50
s 0
f 53/53/51 54/54/51 55/55/51
f 53/53/52 55/55/52 56/56/52
f 57/57/53 58/55/53 59/54/53
f 57/57/53 59/54/53 60/58/53
f 61/59/54 62/53/54 63/56/54
f 61/59/54 63/56/54 64/60/54
f 65/61/55 66/62/55 67/63/55
f 65/61/55 67/63/55 68/64/55
f 69/65/56 70/66/56 71/67/56
f 69/65/56 71/67/56 72/68/56
f 73/69/57 74/70/57 75/71/57
f 73/69/57 75/71/57 76/72/57
f 77/73/58 78/74/58 79/75/58
f 77/73/58 79/75/58 80/76/58
f 81/77/51 82/65/51 83/68/51
f 81/77/51 83/68/51 84/78/51
f 85/59/59 86/60/59 87/79/59
f 85/59/60 87/79/60 88/80/60
f 89/81/61 90/57/61 91/58/61
f 89/81/62 91/58/62 92/82/62
s 1
f 93/83/63 94/84/64 95/85/65
f 93/83/63 95/85/65 96/86/65
s 0
f 97/87/66 98/81/66 99/82/66
f 97/87/67 99/82/67 100/88/67
s 1
f 101/89/68 102/90/68 103/80/68
s 0
f 101/89/69 103/80/69 104/79/69
s 1
f 105/91/70 106/92/71 107/84/72
f 105/91/70 107/84/72 108/83/73
s 0
f 109/93/74 110/69/74 111/72/74
f 109/93/74 111/72/74 112/94/74
f 113/95/74 114/73/74 115/76/74
f 113/95/74 115/76/74 116/96/74
f 117/97/75 118/87/75 119/88/75
f 117/97/76 119/88/76 120/98/76
s 1
f 5/5/3 4/4/3 8/8/6
f 5/5/3 8/8/6 7/7/5
s 0
f 121/99/51 122/61/51 123/64/51
f 121/99/51 123/64/51 124/100/51
s 1
f 125/101/77 126/93/55 127/94/55
f 125/101/77 127/94/55 128/102/47
f 95/85/65 129/95/78 130/96/78
f 95/85/65 130/96/78 96/86/65
f 131/103/79 132/99/57 133/100/57
f 131/103/79 133/100/57 134/104/80
s 0
f 135/105/81 136/77/81 137/78/81
f 135/105/81 137/78/81 138/106/81
s 1
f 139/107/21 140/108/82 141/109/83
f 139/107/21 141/109/83 142/110/84
f 143/111/85 144/112/86 139/107/21
f 143/111/85 139/107/21 142/110/84
f 2/2/1 1/1/1 12/12/10
f 2/2/1 12/12/10 11/11/9
f 144/112/86 143/111/85 145/113/87
f 144/112/86 145/113/87 146/114/35
f 106/92/71 105/91/70 147/115/88
f 106/92/71 147/115/88 148/116/89
f 149/117/90 150/118/36 146/114/35
f 149/117/90 146/114/35 145/113/87
f 150/118/36 149/117/90 151/119/91
f 150/118/36 151/119/91 152/120/92
f 125/101/77 128/102/47 153/120/46
f 125/101/77 153/120/46 154/119/93
f 155/121/94 156/122/95 157/123/96
f 155/121/94 157/123/96 158/124/97
f 148/116/89 147/115/88 159/125/98
f 148/116/89 159/125/98 160/126/99
f 161/127/13 155/121/94 158/124/97
f 161/127/13 158/124/97 162/128/29
f 9/9/7 16/16/14 15/15/13
f 9/9/7 15/15/13 13/13/11
f 163/129/100 161/127/13 162/128/29
f 163/129/100 162/128/29 164/130/39
f 165/131/101 163/129/100 164/130/39
f 165/131/101 164/130/39 166/132/38
f 10/10/8 14/14/12 20/20/18
f 10/10/8 20/20/18 19/19/17
f 167/133/102 165/131/101 166/132/38
f 167/133/102 166/132/38 168/134/103
f 160/126/99 159/125/98 169/135/104
f 160/126/99 169/135/104 170/136/15
f 134/104/80 171/133/105 172/134/106
f 134/104/80 172/134/106 131/103/79
f 173/137/107 174/138/19 175/139/108
f 173/137/107 175/139/108 176/140/109
f 36/36/34 32/32/30 25/25/23
f 36/36/34 25/25/23 37/37/35
f 177/141/30 178/142/31 176/140/109
f 177/141/30 176/140/109 175/139/108
f 42/42/40 41/41/39 31/31/29
f 42/42/40 31/31/29 33/33/31
f 179/143/110 178/142/31 177/141/30
f 179/143/110 177/141/30 180/144/111
f 181/145/112 182/146/42 170/136/15
f 181/145/112 170/136/15 169/135/104
f 183/147/41 184/148/113 179/143/110
f 183/147/41 179/143/110 180/144/111
f 48/48/46 47/47/45 185/43/114
f 48/48/46 185/43/114 186/38/115
s 0
f 187/149/116 188/148/116 189/147/116
f 187/149/81 189/147/81 190/150/81
s 1
f 50/50/48 191/40/117 192/45/117
f 50/50/48 192/45/117 51/51/49
f 193/106/118 194/149/49 195/150/119
f 193/106/118 195/150/119 196/105/47
