# Blender 5.1.1
# www.blender.org
o 2_1_1_01_0
v -0.350375 1.483666 -0.725892
v -0.347615 1.480626 -0.727036
v -0.350933 1.481447 -0.728755
v -0.572124 1.480637 -0.630847
v -0.569310 1.483660 -0.632034
v -0.571273 1.481441 -0.634294
v -0.564880 1.481942 -0.626557
v -0.567667 1.478909 -0.625336
v -0.561145 1.478278 -0.625057
v -0.348931 1.481948 -0.719136
v -0.350245 1.478284 -0.715464
v -0.346185 1.478926 -0.720346
v -0.563116 1.470216 -0.624211
v -0.348272 1.470221 -0.716310
v -0.540010 1.448779 -0.634116
v -0.544276 1.445052 -0.632287
v -0.536797 1.443313 -0.637137
v -0.370289 1.448783 -0.706873
v -0.374692 1.443317 -0.706629
v -0.366023 1.445056 -0.708701
v -0.379334 0.624262 -0.709695
v -0.382038 0.621322 -0.708536
v -0.371609 0.617877 -0.708129
v -0.374692 0.613542 -0.706629
v -0.366025 0.611814 -0.708707
v -0.535819 0.624277 -0.642619
v -0.540011 0.617892 -0.635944
v -0.533116 0.621336 -0.643778
v -0.536800 0.613556 -0.637142
v -0.371609 1.438982 -0.708129
v -0.544281 0.611829 -0.632299
v -0.370278 0.608076 -0.706884
v -0.540028 0.608091 -0.634121
v -0.382038 1.435537 -0.708536
v -0.379335 1.432597 -0.709695
v -0.348274 0.587056 -0.716316
v -0.354722 0.579147 -0.713552
v -0.346187 0.579147 -0.720352
v -0.540006 1.438977 -0.635933
v -0.563121 0.587075 -0.624223
v -0.567672 0.579167 -0.625347
v -0.561111 0.579167 -0.625084
v -0.348953 0.576206 -0.719226
v -0.533110 1.435533 -0.643767
v -0.564936 0.576227 -0.626639
v -0.535814 1.432592 -0.642608
v -0.347617 0.579147 -0.727041
v -0.350358 0.576206 -0.725800
v -0.350933 0.579147 -0.728755
v -0.569249 0.576226 -0.631974
v -0.572130 0.579167 -0.630858
v -0.571277 0.579167 -0.634305
v -0.570374 1.067715 -0.640892
v -0.361339 1.067794 -0.730500
v -0.361339 1.008450 -0.730500
v -0.570375 1.008500 -0.640898
v -0.361339 1.067794 -0.730500
v -0.570374 1.067715 -0.640892
v -0.565813 1.067715 -0.630252
v -0.356779 1.067794 -0.719860
v -0.570375 1.008500 -0.640898
v -0.361339 1.008450 -0.730500
v -0.356778 1.008450 -0.719861
v -0.565815 1.008501 -0.630258
v -0.560318 1.454372 -0.626991
v -0.560322 0.606235 -0.627002
v -0.569040 0.606235 -0.647341
v -0.569036 1.454372 -0.647330
v -0.560322 0.606235 -0.627002
v -0.353198 0.606216 -0.715785
v -0.361916 0.606216 -0.736124
v -0.569040 0.606235 -0.647341
v -0.353198 0.606216 -0.715785
v -0.353198 1.454378 -0.715785
v -0.361916 1.454378 -0.736124
v -0.361916 0.606216 -0.736124
v -0.353198 1.454378 -0.715785
v -0.560318 1.454372 -0.626991
v -0.569036 1.454372 -0.647330
v -0.361916 1.454378 -0.736124
v -0.569040 0.606235 -0.647341
v -0.361916 0.606216 -0.736124
v -0.355306 0.579147 -0.738957
v -0.575651 0.579167 -0.644508
v -0.564102 1.013985 -0.626261
v -0.565815 1.008501 -0.630258
v -0.356778 1.008450 -0.719861
v -0.355065 1.013943 -0.715864
v -0.356779 1.067794 -0.719860
v -0.565813 1.067715 -0.630252
v -0.564090 1.062046 -0.626233
v -0.355054 1.062112 -0.715835
v -0.571273 1.481441 -0.634294
v -0.569310 1.483660 -0.632034
v -0.350375 1.483666 -0.725892
v -0.350933 1.481447 -0.728755
v -0.355054 1.062112 -0.715835
v -0.564090 1.062046 -0.626233
v -0.563604 1.056777 -0.625099
v -0.354568 1.056841 -0.714701
v -0.355065 1.013943 -0.715864
v -0.354569 1.019189 -0.714707
v -0.563603 1.019231 -0.625099
v -0.564102 1.013985 -0.626261
v -0.569310 1.483660 -0.632034
v -0.564880 1.481942 -0.626557
v -0.348931 1.481948 -0.719136
v -0.350375 1.483666 -0.725892
v -0.361916 0.606216 -0.736124
v -0.361916 1.454378 -0.736124
v -0.355306 1.481447 -0.738957
v -0.355306 0.579147 -0.738957
v -0.361916 1.454378 -0.736124
v -0.569036 1.454372 -0.647330
v -0.575646 1.481441 -0.644497
v -0.355306 1.481447 -0.738957
v -0.354568 1.056841 -0.714701
v -0.563604 1.056777 -0.625099
v -0.563603 1.019231 -0.625099
v -0.354569 1.019189 -0.714707
v -0.569036 1.454372 -0.647330
v -0.569040 0.606235 -0.647341
v -0.575651 0.579167 -0.644508
v -0.575646 1.481441 -0.644497
v -0.355306 0.579147 -0.738957
v -0.355306 1.481447 -0.738957
v -0.350933 1.481447 -0.728755
v -0.350933 0.579147 -0.728755
v -0.355306 1.481447 -0.738957
v -0.575646 1.481441 -0.644497
v -0.575646 1.481441 -0.644497
v -0.575651 0.579167 -0.644508
v -0.571277 0.579167 -0.634305
v -0.571273 1.481441 -0.634294
v -0.575651 0.579167 -0.644508
v -0.355306 0.579147 -0.738957
v -0.350933 0.579147 -0.728755
v -0.571277 0.579167 -0.634305
v -0.379335 1.432597 -0.709695
v -0.379334 0.624262 -0.709695
v -0.371609 0.617877 -0.708129
v -0.371609 1.438982 -0.708129
v -0.366025 0.611814 -0.708707
v -0.366023 1.445056 -0.708701
v -0.348272 1.470221 -0.716310
v -0.348274 0.587056 -0.716316
v -0.350245 1.478284 -0.715464
v -0.561145 1.478278 -0.625057
v -0.346187 0.579147 -0.720352
v -0.346185 1.478926 -0.720346
v -0.347615 1.480626 -0.727036
v -0.347617 0.579147 -0.727041
v -0.347617 0.579147 -0.727041
v -0.347615 1.480626 -0.727036
v -0.535819 0.624277 -0.642619
v -0.535814 1.432592 -0.642608
v -0.540006 1.438977 -0.635933
v -0.540011 0.617892 -0.635944
v -0.370289 1.448783 -0.706873
v -0.540010 1.448779 -0.634116
v -0.544276 1.445052 -0.632287
v -0.544281 0.611829 -0.632299
v -0.563116 1.470216 -0.624211
v -0.563121 0.587075 -0.624223
v -0.567667 1.478909 -0.625336
v -0.567672 0.579167 -0.625347
v -0.572124 1.480637 -0.630847
v -0.572130 0.579167 -0.630858
v -0.374692 1.443317 -0.706629
v -0.536797 1.443313 -0.637137
v -0.572130 0.579167 -0.630858
v -0.572124 1.480637 -0.630847
v -0.374692 0.613542 -0.706629
v -0.382038 0.621322 -0.708536
v -0.533116 0.621336 -0.643778
v -0.536800 0.613556 -0.637142
v -0.540028 0.608091 -0.634121
v -0.370278 0.608076 -0.706884
v -0.561111 0.579167 -0.625084
v -0.354722 0.579147 -0.713552
v -0.533110 1.435533 -0.643767
v -0.382038 1.435537 -0.708536
v -0.564936 0.576227 -0.626639
v -0.348953 0.576206 -0.719226
v -0.348953 0.576206 -0.719226
v -0.346187 0.579147 -0.720352
v -0.348953 0.576206 -0.719226
v -0.564936 0.576227 -0.626639
v -0.569249 0.576226 -0.631974
v -0.350358 0.576206 -0.725800
v -0.564936 0.576227 -0.626639
v -0.567672 0.579167 -0.625347
v -0.350358 0.576206 -0.725800
v -0.569249 0.576226 -0.631974
v -0.571277 0.579167 -0.634305
v -0.350933 0.579147 -0.728755
vn 0.6428 0.7005 -0.3100
vn 0.6429 0.7005 -0.3100
vn 0.4699 0.6510 -0.5961
vn -0.6376 0.7107 0.2974
vn -0.7363 0.6762 -0.0244
vn -0.0172 0.7291 0.6842
vn -0.3355 0.2546 0.9070
vn 0.2245 0.2327 0.9463
vn 0.5137 0.7350 0.4426
vn 0.5378 0.2343 0.8099
vn 0.9037 0.2595 0.3406
vn 0.1346 0.0291 0.9905
vn 0.6368 0.0307 0.7704
vn 0.4226 -0.1094 0.8997
vn 0.4966 -0.0633 0.8657
vn 0.4869 -0.2809 0.8271
vn 0.3602 -0.1095 0.9264
vn 0.2634 -0.2813 0.9227
vn 0.2845 -0.0636 0.9566
vn -0.0687 0.1606 0.9846
vn 0.1568 0.3778 0.9125
vn 0.0585 0.1528 0.9865
vn 0.2636 0.2809 0.9228
vn 0.2846 0.0633 0.9565
vn 0.7599 0.1597 0.6301
vn 0.6741 0.1528 0.7227
vn 0.5528 0.3777 0.7428
vn 0.4866 0.2809 0.8272
vn 0.0584 -0.1529 0.9865
vn 0.4965 0.0632 0.8658
vn 0.3602 0.1089 0.9265
vn 0.4226 0.1089 0.8998
vn 0.1568 -0.3777 0.9126
vn -0.0676 -0.1597 0.9848
vn 0.5970 -0.0598 0.8000
vn 0.4775 -0.2544 0.8410
vn 0.8586 -0.1409 0.4930
vn 0.6742 -0.1524 0.7226
vn 0.1325 -0.0308 0.9907
vn -0.2953 -0.1481 0.9439
vn 0.2123 -0.2690 0.9394
vn 0.4562 -0.5106 0.7288
vn 0.5530 -0.3774 0.7428
vn 0.1250 -0.5863 0.8004
vn 0.7605 -0.1606 0.6292
vn 0.5686 -0.5023 -0.6514
vn 0.2919 -0.7723 -0.5642
vn 0.4438 -0.4058 -0.7990
vn -0.5970 -0.7885 -0.1478
vn -0.6806 -0.7193 0.1390
vn -0.5371 -0.7194 -0.4403
vn -0.3940 -0.0000 -0.9191
vn -0.3940 0.0001 -0.9191
vn -0.0003 1.0000 0.0001
vn -0.0002 -1.0000 0.0001
vn 0.9191 -0.0000 -0.3940
vn 0.0001 1.0000 -0.0000
vn -0.9191 -0.0000 0.3940
vn -0.0000 -1.0000 -0.0000
vn 0.3086 -0.6213 0.7202
vn 0.3088 -0.6208 0.7206
vn 0.3118 0.6108 0.7278
vn 0.3119 0.6105 0.7281
vn -0.1280 0.9458 -0.2984
vn -0.2421 0.7891 -0.5646
vn -0.2420 0.7891 -0.5645
vn 0.3835 0.2280 0.8949
vn 0.3836 0.2279 0.8950
vn 0.3831 -0.2335 0.8937
vn 0.3830 -0.2338 0.8937
vn 0.0968 0.9694 0.2258
vn -0.0171 0.7291 0.6842
vn 0.5135 0.7350 0.4427
vn 0.0968 0.9694 0.2257
vn 0.3940 -0.0000 0.9191
vn 0.3940 -0.0002 0.9191
vn 0.7323 -0.0000 -0.6810
vn -0.0000 1.0000 -0.0000
vn -0.9967 -0.0000 0.0811
vn -0.9967 -0.0000 0.0812
vn -0.0001 -1.0000 -0.0000
vn -0.0677 -0.1596 0.9849
vn -0.0677 0.1597 0.9848
vn 0.0584 -0.1528 0.9865
vn 0.2846 0.0632 0.9566
vn 0.2845 -0.0635 0.9566
vn 0.6369 0.0307 0.7703
vn 0.5970 -0.0597 0.8000
vn 0.5377 0.2344 0.8099
vn 0.2246 0.2328 0.9462
vn 0.9037 0.2594 0.3406
vn 0.9779 -0.0000 -0.2090
vn 0.9779 -0.0000 -0.2091
vn 0.4597 -0.0000 -0.8881
vn 0.7599 0.1596 0.6301
vn 0.7600 -0.1596 0.6301
vn 0.6743 -0.1524 0.7226
vn 0.6741 0.1527 0.7227
vn 0.3602 -0.1094 0.9264
vn 0.4226 -0.1095 0.8997
vn 0.4964 0.0632 0.8658
vn 0.1345 0.0291 0.9905
vn -0.3355 0.2545 0.9070
vn -0.2953 -0.1481 0.9438
vn -0.7775 -0.0000 0.6288
vn -0.7775 -0.0000 0.6289
vn 0.2635 -0.2814 0.9227
vn 0.4868 -0.2809 0.8271
vn -0.9707 -0.0000 -0.2401
vn -0.9708 -0.0000 -0.2400
vn 0.1569 0.3778 0.9125
vn 0.5527 0.3778 0.7428
vn 0.3603 0.1089 0.9265
vn 0.2124 -0.2691 0.9394
vn 0.4775 -0.2545 0.8410
vn 0.5529 -0.3774 0.7429
vn 0.1569 -0.3777 0.9125
vn 0.1251 -0.5863 0.8004
vn 0.4562 -0.5107 0.7288
vn 0.6916 -0.7070 -0.1478
vn 0.6915 -0.7071 -0.1479
vn -0.0000 -1.0000 0.0001
vn -0.5498 -0.7071 0.4447
vn 0.2918 -0.7724 -0.5642
vn -0.5970 -0.7885 -0.1477
vn -0.5371 -0.7194 -0.4404
vt 0.906375 0.858218
vt 0.906375 0.852903
vt 0.908538 0.855738
vt 0.629158 0.920996
vt 0.629158 0.915616
vt 0.631243 0.918399
vt 0.625145 0.915616
vt 0.625145 0.920996
vt 0.620919 0.915616
vt 0.902457 0.858218
vt 0.898262 0.858218
vt 0.902457 0.852903
vt 0.620919 0.920996
vt 0.898262 0.852903
vt 0.601648 0.915616
vt 0.601648 0.920996
vt 0.597429 0.915616
vt 0.879346 0.858218
vt 0.875116 0.858218
vt 0.879346 0.852903
vt 0.700751 0.223571
vt 0.706719 0.223571
vt 0.700751 0.229727
vt 0.706719 0.229727
vt 0.700751 0.234208
vt 0.591633 0.922958
vt 0.597709 0.922958
vt 0.591633 0.928480
vt 0.597709 0.928480
vt 0.875116 0.852903
vt 0.602132 0.922958
vt 0.706719 0.234208
vt 0.602132 0.928480
vt 0.869306 0.858218
vt 0.869306 0.852903
vt 0.700751 0.253224
vt 0.706719 0.253224
vt 0.700751 0.258419
vt 0.597429 0.920996
vt 0.622101 0.922958
vt 0.626225 0.922958
vt 0.622101 0.928480
vt 0.706719 0.258419
vt 0.591633 0.915616
vt 0.626225 0.928480
vt 0.591633 0.920996
vt 0.700751 0.262392
vt 0.706719 0.262392
vt 0.703098 0.265079
vt 0.630259 0.928480
vt 0.630259 0.922958
vt 0.632617 0.924870
vt 0.148800 0.522747
vt 0.000327 0.522747
vt 0.000327 0.474560
vt 0.148800 0.474560
vt 0.148800 0.532157
vt 0.000327 0.532157
vt 0.000327 0.465150
vt 0.148800 0.465150
vt 0.011443 0.718072
vt 0.359746 0.718071
vt 0.359746 0.747675
vt 0.011443 0.747676
vt 0.896286 0.507562
vt 0.896286 0.364741
vt 0.916182 0.364741
vt 0.916182 0.507562
vt 0.586477 0.722278
vt 0.586474 0.374441
vt 0.615498 0.374441
vt 0.615501 0.722278
vt 0.826760 0.850940
vt 0.826765 0.707944
vt 0.847203 0.707944
vt 0.847197 0.850941
vt 0.940584 0.364741
vt 0.940584 0.507562
vt 0.148800 0.459458
vt 0.000327 0.459458
vt 0.148800 0.537983
vt 0.000327 0.537983
vt 0.880970 0.707945
vt 0.884033 0.708490
vt 0.884027 0.850575
vt 0.880964 0.850942
vt 0.148800 0.542382
vt 0.000327 0.542382
vt 0.000327 0.455072
vt 0.148800 0.455072
vt 0.889962 0.709632
vt 0.889956 0.849779
vt 0.624931 0.363340
vt 0.624934 0.733379
vt 0.872270 0.707945
vt 0.872265 0.850942
vt 0.148800 0.572946
vt 0.000327 0.572946
vt 0.370862 0.757297
vt 0.000327 0.757298
vt 0.639490 0.363340
vt 0.639494 0.733379
vt 0.370862 0.771814
vt 0.000327 0.771815
vt 0.949965 0.364741
vt 0.949965 0.507562
vt 0.700616 0.382392
vt 0.700616 0.714825
vt 0.690511 0.717450
vt 0.690511 0.379767
vt 0.683150 0.719944
vt 0.683147 0.377268
vt 0.659551 0.366920
vt 0.659554 0.730126
vt 0.893599 0.848196
vt 0.893600 0.711327
vt 0.653578 0.733379
vt 0.653575 0.363339
vt 0.644449 0.363340
vt 0.644452 0.733379
vt 0.352337 0.834088
vt 0.020388 0.834088
vt 0.017766 0.823811
vt 0.354959 0.823811
vt 0.918695 0.835188
vt 0.918695 0.725043
vt 0.015271 0.816322
vt 0.357449 0.816322
vt 0.004937 0.790848
vt 0.367614 0.790848
vt 0.001367 0.784719
vt 0.370862 0.784718
vt 0.000657 0.776122
vt 0.370862 0.776121
vt 0.923606 0.832717
vt 0.923606 0.727514
vt 0.991369 0.382137
vt 0.999024 0.385785
vt 0.999024 0.485685
vt 0.991368 0.489332
vt 0.986492 0.491858
vt 0.986492 0.379610
vt 0.962957 0.505798
vt 0.962957 0.369322
vt 0.931029 0.731094
vt 0.931030 0.829138
vt 0.959375 0.507562
vt 0.959375 0.364741
vt 0.953558 0.507562
vt 0.953558 0.364741
s 1
f 1/1/1 2/2/2 3/3/3
f 4/4/4 5/5/4 6/6/5
f 7/7/6 8/8/7 9/9/8
f 10/10/9 11/11/10 12/12/11
f 13/13/12 9/9/8 8/8/7
f 14/14/13 12/12/11 11/11/10
f 15/15/14 16/16/15 17/17/16
f 18/18/17 19/19/18 20/20/19
f 21/21/20 22/22/21 23/23/22
f 24/24/23 23/23/22 22/22/21
f 23/23/22 24/24/23 25/25/24
f 26/26/25 27/27/26 28/28/27
f 29/29/28 28/28/27 27/27/26
f 30/30/29 20/20/19 19/19/18
f 27/27/26 31/31/30 29/29/28
f 32/32/31 25/25/24 24/24/23
f 33/33/32 29/29/28 31/31/30
f 19/19/18 34/34/33 30/30/29
f 35/35/34 30/30/29 34/34/33
f 36/36/35 37/37/36 38/38/37
f 39/39/38 17/17/16 16/16/15
f 40/40/39 41/41/40 42/42/41
f 43/43/42 38/38/37 37/37/36
f 17/17/16 39/39/38 44/44/43
f 45/45/44 42/42/41 41/41/40
f 46/46/45 44/44/43 39/39/38
f 47/47/46 48/48/47 49/49/48
f 50/50/49 51/51/50 52/52/51
s 0
f 53/53/52 54/54/52 55/55/52
f 53/53/53 55/55/53 56/56/53
f 57/54/54 58/53/54 59/57/54
f 57/54/54 59/57/54 60/58/54
f 61/56/55 62/55/55 63/59/55
f 61/56/55 63/59/55 64/60/55
f 65/61/56 66/62/56 67/63/56
f 65/61/56 67/63/56 68/64/56
f 69/65/57 70/66/57 71/67/57
f 69/65/57 71/67/57 72/68/57
f 73/69/58 74/70/58 75/71/58
f 73/69/58 75/71/58 76/72/58
f 77/73/59 78/74/59 79/75/59
f 77/73/59 79/75/59 80/76/59
f 81/68/52 82/67/52 83/77/52
f 81/68/52 83/77/52 84/78/52
f 85/79/60 86/60/60 87/59/60
f 85/79/61 87/59/61 88/80/61
f 89/58/62 90/57/62 91/81/62
f 89/58/63 91/81/63 92/82/63
s 1
f 93/83/64 94/84/65 95/85/66
f 93/83/64 95/85/66 96/86/64
s 0
f 97/82/67 98/81/67 99/87/67
f 97/82/68 99/87/68 100/88/68
f 101/80/69 102/89/69 103/90/69
s 1
f 101/80/70 103/90/70 104/79/70
f 105/84/71 106/91/72 107/92/73
f 105/84/71 107/92/73 108/85/74
s 0
f 109/72/52 110/71/52 111/93/52
f 109/72/52 111/93/52 112/94/52
f 113/76/52 114/75/52 115/95/52
f 113/76/52 115/95/52 116/96/52
f 117/88/75 118/87/75 119/97/75
f 117/88/76 119/97/76 120/98/76
s 1
f 7/7/6 5/5/4 4/4/4
f 7/7/6 4/4/4 8/8/7
s 0
f 121/64/52 122/63/52 123/99/52
f 121/64/52 123/99/52 124/100/52
s 1
f 125/94/56 126/93/56 127/101/77
f 125/94/56 127/101/77 128/102/48
f 129/96/78 130/95/78 93/83/64
f 129/96/78 93/83/64 96/86/64
f 131/100/58 132/99/58 133/103/79
f 131/100/58 133/103/79 134/104/80
s 0
f 135/78/81 136/77/81 137/105/81
f 135/78/81 137/105/81 138/106/81
s 1
f 139/107/82 140/108/83 141/109/22
f 139/107/82 141/109/22 142/110/84
f 141/109/22 143/111/85 144/112/86
f 141/109/22 144/112/86 142/110/84
f 12/12/11 2/2/2 1/1/1
f 12/12/11 1/1/1 10/10/9
f 145/113/87 144/112/86 143/111/85
f 145/113/87 143/111/85 146/114/88
f 147/115/89 107/92/73 106/91/72
f 147/115/89 106/91/72 148/116/90
f 146/114/88 149/117/37 150/118/91
f 146/114/88 150/118/91 145/113/87
f 151/119/92 150/118/91 149/117/37
f 151/119/92 149/117/37 152/120/93
f 153/120/46 128/102/48 127/101/77
f 153/120/46 127/101/77 154/119/94
f 155/121/95 156/122/96 157/123/97
f 155/121/95 157/123/97 158/124/98
f 159/125/99 147/115/89 148/116/90
f 159/125/99 148/116/90 160/126/100
f 158/124/98 157/123/97 161/127/15
f 158/124/98 161/127/15 162/128/101
f 16/16/15 15/15/14 9/9/8
f 16/16/15 9/9/8 13/13/12
f 162/128/101 161/127/15 163/129/102
f 162/128/101 163/129/102 164/130/39
f 164/130/39 163/129/102 165/131/103
f 164/130/39 165/131/103 166/132/104
f 20/20/19 14/14/13 11/11/10
f 20/20/19 11/11/10 18/18/17
f 166/132/104 165/131/103 167/133/105
f 166/132/104 167/133/105 168/134/106
f 169/135/107 159/125/99 160/126/100
f 169/135/107 160/126/100 170/136/108
f 171/134/109 172/133/110 134/104/80
f 171/134/109 134/104/80 133/103/79
f 173/137/23 174/138/111 175/139/112
f 173/137/23 175/139/112 176/140/28
f 25/25/24 32/32/31 37/37/36
f 25/25/24 37/37/36 36/36/35
f 176/140/28 177/141/32 178/142/113
f 176/140/28 178/142/113 173/137/23
f 31/31/30 40/40/39 42/42/41
f 31/31/30 42/42/41 33/33/32
f 178/142/113 177/141/32 179/143/114
f 178/142/113 179/143/114 180/144/115
f 170/136/108 181/145/116 182/146/117
f 170/136/108 182/146/117 169/135/107
f 179/143/114 183/147/118 184/148/119
f 179/143/114 184/148/119 180/144/115
f 185/43/120 48/48/47 47/47/46
f 185/43/120 47/47/46 186/38/121
s 0
f 187/148/122 188/147/122 189/149/122
f 187/148/81 189/149/81 190/150/81
s 1
f 191/45/123 192/41/123 51/51/50
f 191/45/123 51/51/50 50/50/49
f 193/150/124 194/149/125 195/106/126
f 193/150/124 195/106/126 196/105/48
