# Blender 5.1.1
# www.blender.org
mtllib train_writing.mtl
o train_sign_writing.001
v -2.748281 1.056030 9.208469
v -2.748241 0.987341 9.239023
v -2.693027 0.987341 9.238950
v -2.693068 1.056030 9.208397
v -2.700360 1.056080 5.901721
v -2.700400 0.987392 5.871166
v -2.755614 0.987392 5.871238
v -2.755574 1.056080 5.901794
vn 0.0012 0.4064 0.9137
vn -0.0012 0.4064 -0.9137
vt 1.000000 0.005542
vt 1.000000 0.997645
vt 0.000000 0.997645
vt 0.000000 0.005542
s 0
usemtl pasted__aiStandardSurface3.002
f 1/1/1 2/2/1 3/3/1
f 1/1/1 3/3/1 4/4/1
f 5/1/2 6/2/2 7/3/2
f 5/1/2 7/3/2 8/4/2
