# Blender 5.1.1
# www.blender.org
mtllib train_lights.mtl
o lights.001
v -2.702618 1.295645 9.104587
v -2.707743 1.300756 9.104593
v -2.721340 1.282042 9.104610
v -2.699329 1.289194 9.104582
v -2.698205 1.282042 9.104580
v -2.699301 1.274882 9.104582
v -2.702659 1.268470 9.104586
v -2.707720 1.263297 9.104592
v -2.714159 1.259943 9.104601
v -2.721340 1.258893 9.104610
v -2.728488 1.260042 9.104620
v -2.734896 1.263383 9.104629
v -2.740002 1.268483 9.104635
v -2.743289 1.274911 9.104639
v -2.744496 1.282042 9.104641
v -2.743309 1.289181 9.104640
v -2.740091 1.295666 9.104635
v -2.734950 1.300775 9.104629
v -2.728477 1.304007 9.104620
v -2.721340 1.305151 9.104611
v -2.714180 1.304079 9.104602
v -2.746024 1.295692 6.005612
v -2.740898 1.300803 6.005605
v -2.727302 1.282090 6.005587
v -2.749313 1.289241 6.005616
v -2.750436 1.282090 6.005617
v -2.749341 1.274929 6.005616
v -2.745983 1.268517 6.005611
v -2.740922 1.263344 6.005605
v -2.734483 1.259991 6.005596
v -2.727302 1.258940 6.005587
v -2.720153 1.260089 6.005577
v -2.713745 1.263430 6.005569
v -2.708640 1.268531 6.005562
v -2.705353 1.274958 6.005558
v -2.704145 1.282090 6.005557
v -2.705333 1.289228 6.005558
v -2.708550 1.295713 6.005563
v -2.713692 1.300822 6.005569
v -2.720165 1.304054 6.005578
v -2.727302 1.305198 6.005588
v -2.734462 1.304127 6.005597
vn 0.0013 -0.0000 1.0000
vn 0.0014 -0.0000 1.0000
vn -0.0013 -0.0000 -1.0000
vt 0.529421 0.125347
vt 0.533927 0.120829
vt 0.517430 0.108844
vt 0.523735 0.128246
vt 0.517430 0.129237
vt 0.511118 0.128271
vt 0.505466 0.125311
vt 0.500906 0.120850
vt 0.497950 0.115173
vt 0.497023 0.108844
vt 0.498037 0.102542
vt 0.500982 0.096893
vt 0.505478 0.092393
vt 0.511143 0.089495
vt 0.517430 0.088431
vt 0.523723 0.089477
vt 0.529440 0.092314
vt 0.533943 0.096846
vt 0.536792 0.102552
vt 0.537801 0.108844
vt 0.536856 0.115156
s 0
usemtl pasted__lambert20.002
f 1/1/1 2/2/1 3/3/1
f 4/4/1 1/1/1 3/3/1
f 5/5/1 4/4/1 3/3/1
f 6/6/1 5/5/1 3/3/1
f 7/7/1 6/6/1 3/3/1
f 8/8/1 7/7/1 3/3/1
f 9/9/1 8/8/1 3/3/1
f 10/10/1 9/9/1 3/3/1
f 11/11/1 10/10/1 3/3/1
f 12/12/1 11/11/1 3/3/1
f 13/13/1 12/12/1 3/3/1
f 14/14/1 13/13/1 3/3/1
f 15/15/1 14/14/1 3/3/1
f 16/16/1 15/15/1 3/3/1
f 17/17/1 16/16/1 3/3/1
f 18/18/1 17/17/1 3/3/1
f 19/19/1 18/18/1 3/3/1
f 20/20/1 19/19/1 3/3/1
f 21/21/1 20/20/1 3/3/1
f 2/2/2 21/21/2 3/3/2
f 22/1/3 23/2/3 24/3/3
f 25/4/3 22/1/3 24/3/3
f 26/5/3 25/4/3 24/3/3
f 27/6/3 26/5/3 24/3/3
f 28/7/3 27/6/3 24/3/3
f 29/8/3 28/7/3 24/3/3
f 30/9/3 29/8/3 24/3/3
f 31/10/3 30/9/3 24/3/3
f 32/11/3 31/10/3 24/3/3
f 33/12/3 32/11/3 24/3/3
f 34/13/3 33/12/3 24/3/3
f 35/14/3 34/13/3 24/3/3
f 36/15/3 35/14/3 24/3/3
f 37/16/3 36/15/3 24/3/3
f 38/17/3 37/16/3 24/3/3
f 39/18/3 38/17/3 24/3/3
f 40/19/3 39/18/3 24/3/3
f 41/20/3 40/19/3 24/3/3
f 42/21/3 41/20/3 24/3/3
f 23/2/3 42/21/3 24/3/3
