# Blender 5.1.1
# www.blender.org
o Object_35
v -0.700101 0.529708 0.965137
v -0.688916 0.524244 0.958101
v -0.686860 0.520008 0.954264
v -0.686586 0.514749 0.950337
v -0.693416 0.504718 0.944863
v -0.689788 0.508180 0.946482
v -0.695130 0.533363 0.959685
v -0.684451 0.526466 0.955625
v -0.682114 0.521986 0.951771
v -0.682022 0.517201 0.949045
v -0.687705 0.507383 0.941243
v -0.684708 0.511432 0.945205
v -0.701507 0.533531 0.942167
v -0.663179 0.515435 0.930198
v -0.662506 0.514941 0.931004
v -0.662318 0.514602 0.931068
v -0.662263 0.514270 0.930961
v -0.662826 0.513914 0.929802
v -0.662533 0.513913 0.930359
v -0.663376 0.515393 0.929674
v -0.663389 0.515164 0.929334
v -0.663310 0.514859 0.929275
v -0.663216 0.514555 0.929265
v -0.663097 0.514238 0.929315
v -0.686235 0.540652 0.947647
v -0.688813 0.540397 0.950349
v -0.687642 0.541263 0.949076
v -0.680997 0.531591 0.952146
v -0.679179 0.532166 0.950440
v -0.680321 0.532423 0.951736
v -0.678587 0.526492 0.949985
v -0.676760 0.527115 0.948578
v -0.677870 0.527223 0.949748
v -0.677503 0.521677 0.946983
v -0.675559 0.522386 0.945607
v -0.676640 0.522354 0.946675
v -0.682101 0.517985 0.936821
v -0.679920 0.519149 0.935457
v -0.681140 0.519000 0.936207
v -0.679667 0.517757 0.941024
v -0.677639 0.518880 0.939669
v -0.678780 0.518712 0.940566
v -0.687886 0.539397 0.941704
v -0.691427 0.540042 0.944067
v -0.689574 0.540142 0.943017
v -0.687232 0.535354 0.936960
v -0.690765 0.536107 0.939132
v -0.688880 0.535956 0.937969
v -0.685993 0.531334 0.934997
v -0.689567 0.531879 0.936773
v -0.687643 0.531730 0.935925
v -0.683650 0.538253 0.945845
v -0.685119 0.537118 0.940521
v -0.677358 0.530697 0.948463
v -0.675210 0.526197 0.946860
v -0.674149 0.521986 0.944246
v -0.676018 0.518855 0.938913
v -0.678062 0.519088 0.935157
v -0.684549 0.533541 0.936314
v -0.683451 0.529957 0.934592
v -0.703264 0.540402 0.949202
v -0.702913 0.539460 0.946155
v -0.714965 0.529209 0.961263
v -0.719589 0.526560 0.955526
v -0.720987 0.523120 0.949794
v -0.718631 0.513625 0.942037
v -0.716115 0.509732 0.940823
v -0.713680 0.507189 0.940453
v -0.721565 0.529302 0.949544
v -0.723827 0.525084 0.945426
v -0.722146 0.515794 0.938653
v -0.720293 0.512996 0.937746
v -0.702890 0.533483 0.941809
v -0.729324 0.513115 0.913066
v -0.729873 0.512925 0.913364
v -0.730270 0.512565 0.913453
v -0.730416 0.511880 0.913308
v -0.730270 0.511667 0.913205
v -0.729866 0.511551 0.912918
v -0.723050 0.535559 0.942641
v -0.723785 0.536052 0.939916
v -0.723422 0.536525 0.941676
v -0.725488 0.530031 0.940622
v -0.726285 0.530514 0.938239
v -0.725934 0.530824 0.939922
v -0.725381 0.519998 0.934582
v -0.726456 0.520601 0.932424
v -0.726028 0.520621 0.933882
v -0.723635 0.517532 0.932783
v -0.724822 0.518302 0.930647
v -0.724319 0.518234 0.932042
v -0.712799 0.530394 0.928053
v -0.710579 0.531142 0.931330
v -0.711836 0.530881 0.929658
v -0.712996 0.526481 0.925938
v -0.710613 0.526826 0.928943
v -0.712018 0.526861 0.927422
v -0.711274 0.522140 0.927154
v -0.713726 0.522363 0.924413
v -0.712782 0.522584 0.925773
v -0.724562 0.533891 0.937103
v -0.726818 0.528962 0.935652
v -0.726999 0.520132 0.930557
v -0.725540 0.518079 0.928978
v -0.715585 0.521695 0.923346
v -0.714729 0.528860 0.926490
v -0.714918 0.525369 0.924651
v -0.701804 0.525996 0.937232
v -0.701120 0.519604 0.934186
v -0.701131 0.502837 0.943313
v -0.701467 0.503184 0.943270
v -0.707579 0.530613 0.964822
v -0.707841 0.530481 0.964179
v -0.699295 0.505557 0.936675
v -0.699849 0.505828 0.936666
v -0.706367 0.533539 0.960224
v -0.706835 0.533430 0.959898
v -0.703753 0.540256 0.949271
v -0.704268 0.540013 0.949094
v -0.700360 0.519064 0.934714
v -0.699896 0.519162 0.935041
v -0.701278 0.525558 0.937337
v -0.700797 0.525549 0.937654
v -0.702949 0.539543 0.946263
v -0.703473 0.539294 0.946124
v -0.701654 0.533616 0.942108
v -0.702749 0.533579 0.941823
v -0.702212 0.533463 0.942043
v -0.693356 0.504746 0.944669
v -0.684667 0.511496 0.945395
v -0.689735 0.508134 0.946290
v -0.694968 0.533301 0.959785
v -0.700170 0.529862 0.964964
v -0.662993 0.513956 0.929901
v -0.663294 0.514213 0.929382
v -0.662782 0.513980 0.930286
v -0.663549 0.515505 0.929673
v -0.663377 0.515550 0.930103
v -0.663590 0.515183 0.929288
v -0.663498 0.514810 0.929240
v -0.663404 0.514492 0.929254
v -0.686108 0.540651 0.947800
v -0.687506 0.541287 0.949219
v -0.688653 0.540401 0.950476
v -0.678669 0.518704 0.940731
v -0.677535 0.518871 0.939838
v -0.679573 0.517776 0.941200
v -0.683541 0.538242 0.946010
v -0.675923 0.518843 0.939086
v -0.706562 0.533564 0.960198
v -0.707340 0.530721 0.964648
v -0.699481 0.505535 0.936610
v -0.700895 0.502950 0.943169
v -0.703950 0.540249 0.949234
v -0.703141 0.539519 0.946219
v -0.701850 0.533598 0.942078
v -0.717694 0.510338 0.936840
v -0.717121 0.532524 0.954047
v -0.728741 0.511916 0.912436
v -0.728531 0.512527 0.912396
v -0.728599 0.512202 0.912370
v -0.719519 0.539479 0.939146
v -0.719030 0.540181 0.941054
v -0.718580 0.539351 0.942725
v -0.721137 0.517214 0.929731
v -0.721705 0.517321 0.928398
v -0.720515 0.516340 0.930595
v -0.720731 0.536937 0.936377
v -0.722744 0.517200 0.926959
v -0.700162 0.519052 0.934796
v -0.701099 0.525538 0.937443
v -0.702553 0.533573 0.941896
v -0.663144 0.514084 0.929641
v -0.681406 0.521297 0.933928
v -0.682764 0.521290 0.934667
v -0.684223 0.520500 0.935216
v -0.679386 0.521003 0.933768
v -0.693074 0.513541 0.938061
v -0.728990 0.511775 0.912593
v -0.715622 0.520097 0.925066
v -0.714795 0.520167 0.926371
v -0.713738 0.519465 0.927571
v -0.717287 0.519674 0.923951
v -0.706941 0.513054 0.934469
v -0.700143 0.512282 0.935620
v -0.699873 0.512495 0.935854
v -0.699510 0.512305 0.935784
v -0.662961 0.514076 0.929559
v -0.699316 0.512328 0.935827
v -0.700345 0.512293 0.935561
vn 0.5967 -0.1480 0.7887
vn 0.5430 -0.4097 0.7330
vn 0.6241 -0.3166 0.7143
vn 0.6227 -0.0835 0.7780
vn 0.5004 -0.5122 0.6980
vn 0.6273 -0.4783 0.6146
vn 0.5805 -0.7658 0.2767
vn 0.4148 -0.9084 -0.0520
vn 0.5444 -0.7515 -0.3726
vn 0.6975 -0.7165 0.0130
vn 0.3822 -0.6361 -0.6703
vn 0.6758 -0.6878 -0.2649
vn -0.2582 -0.9148 -0.3106
vn -0.3243 -0.9364 -0.1343
vn -0.2698 -0.9555 0.1192
vn -0.1634 -0.9861 0.0300
vn 0.5436 0.7737 -0.3253
vn 0.5731 0.7587 -0.3097
vn 0.4790 0.7494 -0.4571
vn 0.4753 0.7577 -0.4472
vn 0.2711 0.6121 -0.7428
vn 0.2238 0.5189 -0.8251
vn 0.0987 0.2526 -0.9625
vn 0.0838 0.4249 -0.9014
vn -0.3043 -0.7024 -0.6434
vn -0.3313 -0.8235 -0.4605
vn 0.6638 -0.4494 0.5978
vn 0.6170 -0.2188 0.7560
vn -0.0929 0.9922 0.0828
vn -0.0337 0.8511 0.5239
vn -0.2069 0.9228 0.3251
vn -0.2150 0.9560 -0.1998
vn 0.0412 0.7174 -0.6954
vn -0.3395 0.5799 -0.7406
vn 0.5576 0.0588 0.8280
vn -0.1077 0.4923 -0.8637
vn -0.3575 0.3578 -0.8626
vn 0.7625 -0.0231 0.6466
vn 0.7161 -0.1357 0.6846
vn 0.8451 0.3555 0.3992
vn 0.8282 0.3641 0.4260
vn 0.7406 -0.0454 0.6704
vn 0.7827 0.3212 0.5332
vn 0.6154 0.2135 0.7588
vn 0.6447 -0.1036 0.7574
vn 0.5910 -0.4633 0.6604
vn 0.6315 -0.4220 0.6505
vn -0.1294 -0.8754 -0.4658
vn 0.0160 -0.9974 -0.0707
vn 0.3506 -0.9053 -0.2398
vn 0.0666 -0.8195 -0.5692
vn -0.2509 -0.6690 -0.6996
vn -0.1830 -0.6331 -0.7521
vn 0.0239 -0.4996 -0.8659
vn 0.3330 0.8989 -0.2847
vn 0.1889 0.8480 -0.4953
vn -0.1529 0.9072 -0.3920
vn -0.1081 0.9936 -0.0326
vn -0.0437 0.5912 -0.8053
vn -0.3223 0.5553 -0.7666
vn -0.1710 0.3629 -0.9160
vn -0.3947 0.2876 -0.8726
vn 0.5263 -0.4804 0.7016
vn 0.4010 -0.5891 0.7015
vn 0.4934 0.4349 -0.7533
vn 0.3816 0.0912 -0.9198
vn 0.5129 0.0701 -0.8556
vn 0.5655 0.4264 -0.7060
vn 0.4757 0.5135 -0.7142
vn 0.2458 0.5554 -0.7944
vn -0.7413 -0.5558 0.3764
vn -0.8137 -0.5288 0.2413
vn -0.7384 -0.6720 0.0558
vn -0.7004 -0.6798 0.2173
vn -0.8461 0.2969 0.4428
vn -0.8545 0.2545 0.4529
vn -0.9158 -0.1376 0.3774
vn -0.8968 -0.2009 0.3943
vn -0.6387 -0.7598 -0.1219
vn -0.6095 -0.7915 -0.0443
vn 0.2132 -0.2974 -0.9307
vn 0.3369 -0.6071 -0.7197
vn 0.2904 -0.1312 -0.9479
vn 0.0469 0.8147 0.5780
vn 0.0582 0.8033 0.5927
vn 0.0165 0.8410 0.5409
vn -0.5175 0.6966 0.4969
vn -0.5467 0.6674 0.5057
vn 0.0489 -0.9750 0.2167
vn -0.3621 -0.8587 0.3627
vn -0.2085 -0.8830 0.4205
vn 0.1230 -0.9417 0.3132
vn 0.3364 0.4335 -0.8360
vn 0.4179 0.3142 -0.8524
vn 0.5110 0.0343 -0.8589
vn 0.3642 0.2609 -0.8940
vn -0.9527 0.3017 -0.0354
vn -0.7698 0.5764 -0.2743
vn -0.7485 0.5720 -0.3356
vn -0.9540 0.2924 -0.0668
vn 0.5997 -0.1429 -0.7874
vn 0.6822 0.3089 -0.6628
vn -0.7028 -0.6975 -0.1399
vn -0.5058 -0.7489 -0.4282
vn 0.2848 -0.2949 -0.9121
vn 0.4318 -0.4853 -0.7603
vn 0.6290 -0.2492 -0.7364
vn 0.6253 -0.5637 -0.5396
vn -0.2999 0.7877 0.5381
vn -0.7476 0.3898 0.5377
vn -0.8916 0.0081 0.4527
vn 0.7066 0.3952 -0.5870
vn -0.8393 -0.5022 0.2084
vn -0.7922 0.5992 -0.1162
vn -0.7433 0.5838 0.3267
vn -0.2996 0.9381 0.1738
vn -0.4273 0.8392 -0.3363
vn -0.9622 0.2601 0.0812
vn -0.9186 0.1597 0.3614
vn -0.4573 -0.8628 0.2157
vn -0.6260 -0.7788 0.0398
vn -0.8384 -0.4736 0.2697
vn -0.8051 -0.5124 0.2987
vn -0.0557 -0.9979 0.0325
vn -0.2878 -0.9249 -0.2485
vn 0.5696 0.3888 -0.7242
vn 0.7485 0.3277 -0.5765
vn 0.7564 0.2156 -0.6175
vn 0.6107 0.2693 -0.7446
vn 0.7287 -0.2361 -0.6429
vn 0.6725 -0.2220 -0.7060
vn -0.7676 -0.5258 0.3664
vn -0.6512 -0.6261 0.4289
vn -0.4948 0.7203 -0.4862
vn -0.4949 0.7028 -0.5110
vn -0.0539 0.9810 0.1863
vn -0.0662 0.8877 -0.4557
vn 0.1222 0.5503 -0.8260
vn -0.1816 0.8482 0.4975
vn -0.2471 0.8271 0.5049
vn -0.2860 0.8160 0.5023
vn -0.3884 0.8172 0.4258
vn 0.1219 -0.9309 -0.3444
vn 0.2360 -0.4778 -0.8462
vn -0.0832 -0.6166 -0.7828
vn -0.1949 -0.9085 -0.3698
vn 0.4942 -0.1044 -0.8631
vn 0.5203 0.1191 -0.8456
vn 0.2387 0.2048 -0.9493
vn 0.2529 -0.1164 -0.9605
vn -0.3144 0.9455 0.0844
vn -0.0668 0.9901 0.1238
vn 0.4636 0.4404 -0.7688
vn 0.2082 0.4558 -0.8654
vn -0.1508 0.8083 -0.5692
vn 0.1287 0.7870 -0.6034
vn -0.0377 0.5275 -0.8487
vn 0.1929 0.5417 -0.8181
vn 0.4098 0.5432 -0.7328
vn 0.2546 -0.9336 -0.2522
vn 0.5872 -0.7570 0.2866
vn 0.4510 -0.8923 0.0173
vn 0.6555 -0.7233 0.2175
vn 0.1759 0.7177 0.6737
vn 0.1899 0.6876 0.7008
vn -0.2798 -0.9554 -0.0949
vn -0.1974 -0.9530 0.2298
vn -0.2472 -0.5925 -0.7667
vn -0.1113 -0.6766 -0.7279
vn -0.2231 -0.8938 -0.3889
vn 0.6332 0.7424 -0.2186
vn 0.4490 0.7749 -0.4449
vn 0.2710 0.4879 -0.8298
vn 0.1495 0.1135 -0.9822
vn -0.0318 0.0178 -0.9993
vn 0.0220 -0.1447 -0.9892
vn 0.1153 0.9527 0.2812
vn 0.4806 0.8710 -0.1013
vn -0.0510 0.7963 0.6027
vn 0.0983 -0.9925 0.0723
vn 0.4321 -0.8997 -0.0620
vn 0.6987 -0.7062 -0.1144
vn 0.6199 0.7594 -0.1976
vn -0.0838 -0.9797 0.1823
vn -0.0053 -0.1219 -0.9925
vn 0.2151 -0.1339 -0.9674
vn 0.6020 -0.6391 -0.4788
vn 0.6234 -0.6702 -0.4027
vn 0.5659 -0.6069 -0.5581
vn 0.5652 -0.7932 -0.2268
vt 0.000000 1.000000
s 1
f 2/1/1 3/1/2 9/1/3
f 2/1/1 9/1/3 8/1/4
f 3/1/2 4/1/5 10/1/6
f 3/1/2 10/1/6 9/1/3
f 131/1/7 129/1/8 11/1/9
f 131/1/7 11/1/9 12/1/10
f 12/1/10 11/1/9 37/1/11
f 12/1/10 37/1/11 40/1/12
f 58/1/13 134/1/14 136/1/15
f 58/1/13 136/1/15 57/1/16
f 52/1/17 138/1/18 137/1/19
f 52/1/17 137/1/19 53/1/20
f 59/1/21 139/1/22 140/1/23
f 59/1/21 140/1/23 60/1/24
f 177/1/25 173/1/26 134/1/14
f 177/1/25 134/1/14 58/1/13
f 9/1/3 10/1/6 34/1/27
f 9/1/3 34/1/27 31/1/28
f 61/1/29 7/1/30 26/1/31
f 61/1/29 26/1/31 44/1/32
f 62/1/33 61/1/29 44/1/32
f 62/1/33 44/1/32 47/1/34
f 8/1/4 9/1/3 31/1/28
f 8/1/4 31/1/28 28/1/35
f 13/1/36 62/1/33 47/1/34
f 13/1/36 47/1/34 50/1/37
f 55/1/38 16/1/39 15/1/40
f 55/1/38 15/1/40 54/1/41
f 53/1/20 137/1/19 139/1/22
f 53/1/20 139/1/22 59/1/21
f 32/1/42 29/1/43 30/1/44
f 32/1/42 30/1/44 33/1/45
f 33/1/45 30/1/44 28/1/35
f 33/1/45 28/1/35 31/1/28
f 35/1/46 32/1/42 33/1/45
f 35/1/46 33/1/45 36/1/47
f 36/1/47 33/1/45 31/1/28
f 36/1/47 31/1/28 34/1/27
f 38/1/48 41/1/49 42/1/50
f 38/1/48 42/1/50 39/1/51
f 39/1/51 42/1/50 40/1/12
f 39/1/51 40/1/12 37/1/11
f 174/1/52 38/1/48 39/1/51
f 174/1/52 39/1/51 175/1/53
f 175/1/53 39/1/51 37/1/11
f 175/1/53 37/1/11 176/1/54
f 25/1/55 43/1/56 45/1/57
f 25/1/55 45/1/57 27/1/58
f 27/1/58 45/1/57 44/1/32
f 27/1/58 44/1/32 26/1/31
f 43/1/56 46/1/59 48/1/60
f 43/1/56 48/1/60 45/1/57
f 45/1/57 48/1/60 47/1/34
f 45/1/57 47/1/34 44/1/32
f 46/1/59 49/1/61 51/1/62
f 46/1/59 51/1/62 48/1/60
f 48/1/60 51/1/62 50/1/37
f 48/1/60 50/1/37 47/1/34
f 56/1/63 17/1/64 16/1/39
f 56/1/63 16/1/39 55/1/38
f 35/1/46 56/1/63 55/1/38
f 35/1/46 55/1/38 32/1/42
f 43/1/56 53/1/20 59/1/21
f 43/1/56 59/1/21 46/1/59
f 32/1/42 55/1/38 54/1/41
f 32/1/42 54/1/41 29/1/43
f 174/1/52 177/1/25 58/1/13
f 174/1/52 58/1/13 38/1/48
f 46/1/59 59/1/21 60/1/24
f 46/1/59 60/1/24 49/1/61
f 25/1/55 52/1/17 53/1/20
f 25/1/55 53/1/20 43/1/56
f 38/1/48 58/1/13 57/1/16
f 38/1/48 57/1/16 41/1/49
f 122/1/65 120/1/66 109/1/67
f 122/1/65 109/1/67 108/1/68
f 73/1/69 127/1/70 122/1/65
f 73/1/69 122/1/65 108/1/68
f 66/1/71 71/1/72 72/1/73
f 66/1/71 72/1/73 67/1/74
f 64/1/75 69/1/76 70/1/77
f 64/1/75 70/1/77 65/1/78
f 67/1/74 72/1/73 157/1/79
f 67/1/74 157/1/79 68/1/80
f 178/1/81 11/1/9 114/1/82
f 178/1/81 114/1/82 189/1/83
f 151/1/84 133/1/85 7/1/30
f 151/1/84 7/1/30 116/1/86
f 63/1/87 158/1/88 69/1/76
f 63/1/87 69/1/76 64/1/75
f 169/1/89 104/1/90 78/1/91
f 169/1/89 78/1/91 79/1/92
f 106/1/93 107/1/94 161/1/95
f 106/1/93 161/1/95 160/1/96
f 102/1/97 101/1/98 75/1/99
f 102/1/97 75/1/99 76/1/100
f 109/1/67 98/1/101 96/1/102
f 109/1/67 96/1/102 108/1/68
f 72/1/73 89/1/103 167/1/104
f 72/1/73 167/1/104 157/1/79
f 184/1/105 182/1/106 98/1/101
f 184/1/105 98/1/101 109/1/67
f 107/1/94 105/1/107 159/1/108
f 107/1/94 159/1/108 161/1/95
f 158/1/88 164/1/109 80/1/110
f 158/1/88 80/1/110 69/1/76
f 69/1/76 80/1/110 83/1/111
f 69/1/76 83/1/111 70/1/77
f 108/1/68 96/1/102 93/1/112
f 108/1/68 93/1/112 73/1/69
f 71/1/72 86/1/113 89/1/103
f 71/1/72 89/1/103 72/1/73
f 81/1/114 82/1/115 163/1/116
f 81/1/114 163/1/116 162/1/117
f 82/1/115 80/1/110 164/1/109
f 82/1/115 164/1/109 163/1/116
f 84/1/118 85/1/119 82/1/115
f 84/1/118 82/1/115 81/1/114
f 85/1/119 83/1/111 80/1/110
f 85/1/119 80/1/110 82/1/115
f 90/1/120 91/1/121 88/1/122
f 90/1/120 88/1/122 87/1/123
f 91/1/121 89/1/103 86/1/113
f 91/1/121 86/1/113 88/1/122
f 166/1/124 165/1/125 91/1/121
f 166/1/124 91/1/121 90/1/120
f 165/1/125 167/1/104 89/1/103
f 165/1/125 89/1/103 91/1/121
f 92/1/126 94/1/127 97/1/128
f 92/1/126 97/1/128 95/1/129
f 94/1/127 93/1/112 96/1/102
f 94/1/127 96/1/102 97/1/128
f 95/1/129 97/1/128 100/1/130
f 95/1/129 100/1/130 99/1/131
f 97/1/128 96/1/102 98/1/101
f 97/1/128 98/1/101 100/1/130
f 104/1/90 103/1/132 77/1/133
f 104/1/90 77/1/133 78/1/91
f 101/1/98 168/1/134 74/1/135
f 101/1/98 74/1/135 75/1/99
f 81/1/114 162/1/117 168/1/134
f 81/1/114 168/1/134 101/1/98
f 90/1/120 87/1/123 103/1/132
f 90/1/120 103/1/132 104/1/90
f 95/1/129 99/1/131 105/1/107
f 95/1/129 105/1/107 107/1/94
f 84/1/118 81/1/114 101/1/98
f 84/1/118 101/1/98 102/1/97
f 92/1/126 95/1/129 107/1/94
f 92/1/126 107/1/94 106/1/93
f 166/1/124 90/1/120 104/1/90
f 166/1/124 104/1/90 169/1/89
f 118/1/136 116/1/86 7/1/30
f 118/1/136 7/1/30 61/1/29
f 118/1/136 61/1/29 62/1/33
f 118/1/136 62/1/33 124/1/137
f 13/1/36 126/1/138 124/1/137
f 13/1/36 124/1/137 62/1/33
f 117/1/139 113/1/140 112/1/141
f 117/1/139 112/1/141 150/1/142
f 111/1/143 115/1/144 152/1/145
f 111/1/143 152/1/145 110/1/146
f 185/1/147 170/1/148 121/1/149
f 185/1/147 121/1/149 186/1/150
f 150/1/142 154/1/151 119/1/152
f 150/1/142 119/1/152 117/1/139
f 170/1/148 171/1/153 123/1/154
f 170/1/148 123/1/154 121/1/149
f 154/1/151 155/1/155 125/1/156
f 154/1/151 125/1/156 119/1/152
f 155/1/155 156/1/157 128/1/158
f 155/1/155 128/1/158 125/1/156
f 171/1/153 172/1/159 128/1/158
f 171/1/153 128/1/158 123/1/154
f 129/1/8 153/1/160 114/1/82
f 129/1/8 114/1/82 11/1/9
f 129/1/8 131/1/7 6/1/161
f 129/1/8 6/1/161 5/1/162
f 131/1/7 12/1/10 130/1/163
f 131/1/7 130/1/163 6/1/161
f 7/1/30 133/1/85 1/1/164
f 7/1/30 1/1/164 132/1/165
f 136/1/15 134/1/14 18/1/166
f 136/1/15 18/1/166 19/1/167
f 173/1/26 135/1/168 24/1/169
f 173/1/26 24/1/169 188/1/170
f 137/1/19 138/1/18 14/1/171
f 137/1/19 14/1/171 20/1/172
f 139/1/22 137/1/19 20/1/172
f 139/1/22 20/1/172 21/1/173
f 140/1/23 139/1/22 21/1/173
f 140/1/23 21/1/173 22/1/174
f 141/1/175 140/1/23 22/1/174
f 141/1/175 22/1/174 23/1/176
f 135/1/168 141/1/175 23/1/176
f 135/1/168 23/1/176 24/1/169
f 25/1/55 27/1/58 143/1/177
f 25/1/55 143/1/177 142/1/178
f 27/1/58 26/1/31 144/1/179
f 27/1/58 144/1/179 143/1/177
f 42/1/50 41/1/49 146/1/180
f 42/1/50 146/1/180 145/1/181
f 40/1/12 42/1/50 145/1/181
f 40/1/12 145/1/181 147/1/182
f 26/1/31 7/1/30 132/1/165
f 26/1/31 132/1/165 144/1/179
f 12/1/10 40/1/12 147/1/182
f 12/1/10 147/1/182 130/1/163
f 52/1/17 25/1/55 142/1/178
f 52/1/17 142/1/178 148/1/183
f 57/1/16 136/1/15 19/1/167
f 57/1/16 19/1/167 149/1/184
f 138/1/18 52/1/17 148/1/183
f 138/1/18 148/1/183 14/1/171
f 41/1/49 57/1/16 149/1/184
f 41/1/49 149/1/184 146/1/180
f 151/1/84 116/1/86 150/1/142
f 151/1/84 150/1/142 112/1/141
f 114/1/82 153/1/160 110/1/146
f 114/1/82 110/1/146 152/1/145
f 189/1/83 114/1/82 152/1/145
f 189/1/83 152/1/145 187/1/185
f 116/1/86 118/1/136 154/1/151
f 116/1/86 154/1/151 150/1/142
f 118/1/136 124/1/137 155/1/155
f 118/1/136 155/1/155 154/1/151
f 124/1/137 126/1/138 156/1/157
f 124/1/137 156/1/157 155/1/155
f 153/1/160 129/1/8 5/1/162
f 153/1/160 5/1/162 110/1/146
f 133/1/85 151/1/84 112/1/141
f 133/1/85 112/1/141 1/1/164
f 190/1/186 120/1/66 170/1/148
f 190/1/186 170/1/148 185/1/147
f 120/1/66 122/1/65 171/1/153
f 120/1/66 171/1/153 170/1/148
f 122/1/65 127/1/70 172/1/159
f 122/1/65 172/1/159 171/1/153
f 134/1/14 173/1/26 188/1/170
f 134/1/14 188/1/170 18/1/166
f 115/1/144 186/1/150 187/1/185
f 115/1/144 187/1/185 152/1/145
f 99/1/131 180/1/187 183/1/188
f 99/1/131 183/1/188 105/1/107
f 100/1/130 98/1/101 182/1/106
f 100/1/130 182/1/106 181/1/189
f 99/1/131 100/1/130 181/1/189
f 99/1/131 181/1/189 180/1/187
f 105/1/107 183/1/188 179/1/190
f 105/1/107 179/1/190 159/1/108
f 109/1/67 120/1/66 190/1/186
f 109/1/67 190/1/186 184/1/105
f 11/1/9 178/1/81 176/1/54
f 11/1/9 176/1/54 37/1/11
