# Blender 5.1.1
# www.blender.org
o mesh_17.002
v -0.692870 0.514648 0.951095
v -0.692875 0.514852 0.951104
v -0.692945 0.515041 0.951137
v -0.693073 0.515193 0.951188
v -0.693620 0.515273 0.951388
v -0.693784 0.515164 0.951443
v -0.693904 0.515003 0.951481
v -0.693965 0.514808 0.951496
v -0.693397 0.514726 0.951352
v -0.693397 0.514726 0.951352
v -0.693397 0.514726 0.951352
v -0.693397 0.514726 0.951352
v -0.693397 0.514726 0.951352
v -0.693397 0.514726 0.951352
v -0.693397 0.514726 0.951352
v -0.693397 0.514726 0.951352
v -0.693397 0.514726 0.951352
v -0.693763 0.514264 0.951402
v -0.693594 0.514169 0.951338
v -0.693404 0.514141 0.951268
v -0.693215 0.514184 0.951202
v -0.692772 0.514633 0.951035
v -0.692777 0.514877 0.951046
v -0.692861 0.515103 0.951085
v -0.693013 0.515284 0.951146
v -0.693667 0.515379 0.951386
v -0.693863 0.515249 0.951451
v -0.694006 0.515057 0.951496
v -0.694079 0.514825 0.951513
v -0.693837 0.514174 0.951402
v -0.693636 0.514060 0.951325
v -0.693409 0.514027 0.951242
v -0.693184 0.514079 0.951163
v -0.692764 0.514755 0.951037
v -0.692810 0.514994 0.951062
v -0.692930 0.515200 0.951113
v -0.693770 0.515323 0.951421
v -0.693942 0.515160 0.951477
v -0.694052 0.514944 0.951508
v -0.693741 0.514108 0.951365
v -0.693524 0.514033 0.951284
v -0.693294 0.514042 0.951201
v -0.693273 0.514360 0.951255
v -0.693040 0.514673 0.951183
v -0.693043 0.514811 0.951189
v -0.693043 0.514811 0.951189
v -0.693091 0.514939 0.951211
v -0.693091 0.514939 0.951211
v -0.693176 0.515041 0.951246
v -0.693546 0.515095 0.951381
v -0.693657 0.515022 0.951418
v -0.693657 0.515022 0.951418
v -0.693737 0.514913 0.951443
v -0.693737 0.514913 0.951443
v -0.693779 0.514781 0.951454
v -0.693642 0.514414 0.951391
v -0.693528 0.514350 0.951347
v -0.693528 0.514350 0.951347
v -0.693400 0.514331 0.951300
v -0.693400 0.514331 0.951300
v -0.692859 0.514751 0.951093
v -0.692897 0.514952 0.951115
v -0.692998 0.515127 0.951158
v -0.693710 0.515231 0.951418
v -0.693855 0.515093 0.951466
v -0.693948 0.514910 0.951492
v -0.693685 0.514203 0.951371
v -0.693501 0.514139 0.951302
v -0.693307 0.514147 0.951233
v -0.692799 0.514637 0.951056
v -0.692805 0.514870 0.951067
v -0.692885 0.515085 0.951104
v -0.693029 0.515257 0.951162
v -0.693652 0.515348 0.951390
v -0.693838 0.515224 0.951453
v -0.693975 0.515041 0.951495
v -0.694044 0.514820 0.951512
v -0.693814 0.514200 0.951406
v -0.693622 0.514092 0.951333
v -0.693406 0.514060 0.951254
v -0.693191 0.514109 0.951178
v -0.692985 0.514745 0.951159
v -0.693015 0.514898 0.951175
v -0.693092 0.515032 0.951208
v -0.693634 0.515111 0.951406
v -0.693745 0.515005 0.951442
v -0.693816 0.514866 0.951463
v -0.693615 0.514327 0.951370
v -0.693475 0.514279 0.951318
v -0.693327 0.514285 0.951265
v -0.692792 0.514754 0.951058
v -0.692835 0.514981 0.951082
v -0.692949 0.515178 0.951130
v -0.693750 0.515295 0.951424
v -0.693915 0.515139 0.951477
v -0.694019 0.514934 0.951507
v -0.693723 0.514136 0.951371
v -0.693515 0.514065 0.951293
v -0.693297 0.514074 0.951215
v -0.713522 0.512682 0.947071
v -0.713649 0.512836 0.947025
v -0.713725 0.513025 0.947015
v -0.713743 0.513226 0.947043
v -0.713458 0.513673 0.947299
v -0.713289 0.513709 0.947407
v -0.713113 0.513675 0.947506
v -0.712953 0.513575 0.947583
v -0.713268 0.513119 0.947378
v -0.713268 0.513119 0.947378
v -0.713268 0.513119 0.947378
v -0.713268 0.513119 0.947378
v -0.713268 0.513119 0.947378
v -0.713268 0.513119 0.947378
v -0.713268 0.513119 0.947378
v -0.713268 0.513119 0.947378
v -0.713268 0.513119 0.947378
v -0.712732 0.513030 0.947611
v -0.712775 0.512841 0.947549
v -0.712874 0.512686 0.947460
v -0.713017 0.512584 0.947355
v -0.713566 0.512599 0.947002
v -0.713717 0.512782 0.946947
v -0.713809 0.513008 0.946936
v -0.713830 0.513249 0.946969
v -0.713490 0.513782 0.947275
v -0.713288 0.513825 0.947404
v -0.713078 0.513785 0.947522
v -0.712886 0.513665 0.947614
v -0.712622 0.513015 0.947647
v -0.712673 0.512788 0.947573
v -0.712792 0.512603 0.947467
v -0.712962 0.512482 0.947341
v -0.713648 0.512684 0.946970
v -0.713771 0.512892 0.946936
v -0.713829 0.513129 0.946947
v -0.713391 0.513814 0.947340
v -0.713182 0.513815 0.947465
v -0.712978 0.513734 0.947572
v -0.712639 0.512898 0.947615
v -0.712725 0.512689 0.947523
v -0.712872 0.512533 0.947406
v -0.713101 0.512757 0.947367
v -0.713442 0.512823 0.947175
v -0.713528 0.512927 0.947144
v -0.713528 0.512927 0.947144
v -0.713579 0.513054 0.947137
v -0.713579 0.513054 0.947137
v -0.713591 0.513191 0.947156
v -0.713399 0.513492 0.947329
v -0.713285 0.513516 0.947402
v -0.713285 0.513516 0.947402
v -0.713166 0.513493 0.947469
v -0.713166 0.513493 0.947469
v -0.713058 0.513426 0.947521
v -0.712908 0.513058 0.947539
v -0.712938 0.512930 0.947497
v -0.712938 0.512930 0.947497
v -0.713004 0.512825 0.947437
v -0.713004 0.512825 0.947437
v -0.713594 0.512749 0.947040
v -0.713699 0.512925 0.947011
v -0.713747 0.513126 0.947021
v -0.713377 0.513706 0.947353
v -0.713200 0.513707 0.947460
v -0.713027 0.513638 0.947550
v -0.712740 0.512931 0.947586
v -0.712813 0.512753 0.947508
v -0.712937 0.512622 0.947409
v -0.713556 0.512622 0.947026
v -0.713699 0.512797 0.946973
v -0.713787 0.513012 0.946962
v -0.713807 0.513242 0.946994
v -0.713483 0.513750 0.947285
v -0.713290 0.513791 0.947409
v -0.713090 0.513752 0.947521
v -0.712907 0.513638 0.947608
v -0.712656 0.513019 0.947640
v -0.712705 0.512803 0.947569
v -0.712818 0.512627 0.947468
v -0.712980 0.512511 0.947349
v -0.713519 0.512836 0.947124
v -0.713598 0.512970 0.947102
v -0.713635 0.513123 0.947109
v -0.713353 0.513566 0.947363
v -0.713218 0.513566 0.947444
v -0.713086 0.513514 0.947512
v -0.712868 0.512975 0.947540
v -0.712923 0.512840 0.947481
v -0.713018 0.512739 0.947405
v -0.713634 0.512703 0.946994
v -0.713751 0.512901 0.946962
v -0.713806 0.513127 0.946973
v -0.713389 0.513781 0.947347
v -0.713189 0.513782 0.947467
v -0.712995 0.513704 0.947569
v -0.712671 0.512907 0.947609
v -0.712754 0.512708 0.947522
v -0.712893 0.512559 0.947410
vn 0.3391 -0.0350 0.9401
vn 0.4343 -0.0490 0.8994
vn 0.4486 -0.0303 0.8932
vn 0.4334 -0.0128 0.9011
vn 0.4628 -0.0533 0.8849
vn 0.4645 -0.0295 0.8851
vn 0.4618 -0.0061 0.8870
vn 0.4334 -0.0129 0.9011
vn 0.4409 0.0101 0.8975
vn 0.4210 0.0207 0.9068
vn 0.4557 0.0169 0.8900
vn 0.4455 0.0378 0.8945
vn 0.4204 0.0449 0.9062
vn 0.3984 0.0475 0.9160
vn 0.4324 0.0571 0.8999
vn 0.4159 0.0730 0.9065
vn 0.3390 -0.0350 0.9401
vn 0.3013 0.0618 0.9515
vn 0.2784 0.0657 0.9582
vn 0.2723 0.0425 0.9613
vn 0.2890 0.0915 0.9529
vn 0.2687 0.0811 0.9598
vn 0.2509 0.0662 0.9657
vn 0.2722 0.0425 0.9613
vn 0.2489 0.0383 0.9678
vn 0.2509 0.0139 0.9679
vn 0.2353 0.0491 0.9707
vn 0.2232 0.0291 0.9743
vn 0.2510 0.0139 0.9679
vn 0.2304 0.0017 0.9731
vn 0.2401 -0.0206 0.9705
vn 0.2137 0.0072 0.9769
vn 0.2090 -0.0161 0.9778
vn 0.2760 -0.1172 0.9540
vn 0.2830 -0.1401 0.9488
vn 0.3059 -0.1341 0.9426
vn 0.2559 -0.1423 0.9562
vn 0.2744 -0.1556 0.9489
vn 0.2952 -0.1644 0.9412
vn 0.3060 -0.1341 0.9425
vn 0.3200 -0.1528 0.9350
vn 0.3397 -0.1390 0.9302
vn 0.3167 -0.1700 0.9332
vn 0.3390 -0.1710 0.9251
vn 0.3589 -0.1511 0.9211
vn 0.3731 -0.1314 0.9185
vn 0.3614 -0.1683 0.9171
vn 0.3828 -0.1609 0.9097
vn 0.5460 -0.0254 0.8374
vn 0.5411 0.0140 0.8408
vn 0.5430 -0.0653 0.8372
vn 0.6408 -0.0801 0.7635
vn 0.6444 -0.0197 0.7644
vn 0.6380 0.0402 0.7690
vn 0.5311 0.0526 0.8457
vn 0.5138 0.0878 0.8534
vn 0.6218 0.0980 0.7770
vn 0.5965 0.1518 0.7881
vn 0.4920 0.1200 0.8623
vn 0.4644 0.1467 0.8734
vn 0.5627 0.1999 0.8021
vn 0.5214 0.2412 0.8185
vn 0.2173 0.1602 0.9629
vn 0.1875 0.1355 0.9729
vn 0.2512 0.1779 0.9514
vn 0.1985 0.2884 0.9367
vn 0.1477 0.2607 0.9540
vn 0.1019 0.2242 0.9692
vn 0.1610 0.1067 0.9812
vn 0.1409 0.0728 0.9873
vn 0.0626 0.1799 0.9817
vn 0.0312 0.1292 0.9911
vn 0.1252 0.0362 0.9915
vn 0.1170 -0.0029 0.9931
vn 0.0084 0.0734 0.9973
vn -0.0049 0.0145 0.9999
vn 0.2267 -0.2371 0.9447
vn 0.2615 -0.2518 0.9318
vn 0.1957 -0.2149 0.9568
vn 0.1144 -0.3068 0.9449
vn 0.1619 -0.3396 0.9265
vn 0.2142 -0.3629 0.9069
vn 0.2979 -0.2616 0.9181
vn 0.3355 -0.2626 0.9047
vn 0.2696 -0.3764 0.8863
vn 0.3264 -0.3793 0.8658
vn 0.3728 -0.2587 0.8911
vn 0.4089 -0.2460 0.8788
vn 0.3826 -0.3720 0.8457
vn 0.4375 -0.3540 0.8266
vn -0.5067 -0.1622 0.8467
vn -0.5768 -0.2133 0.7886
vn -0.5746 -0.2371 0.7833
vn -0.5544 -0.2405 0.7967
vn -0.5679 -0.2643 0.7795
vn -0.5840 -0.2480 0.7729
vn -0.5972 -0.2287 0.7688
vn -0.5066 -0.1622 0.8468
vn -0.5904 -0.1797 0.7868
vn -0.5957 -0.2019 0.7775
vn -0.5768 -0.2132 0.7885
vn -0.6081 -0.2075 0.7663
vn -0.6150 -0.1849 0.7665
vn -0.5936 -0.1440 0.7918
vn -0.6052 -0.1617 0.7795
vn -0.6192 -0.1614 0.7685
vn -0.6192 -0.1380 0.7730
vn -0.5130 -0.0584 0.8564
vn -0.5310 -0.0458 0.8462
vn -0.5431 -0.0648 0.8372
vn -0.5531 -0.0344 0.8324
vn -0.5340 -0.0279 0.8450
vn -0.5139 -0.0260 0.8574
vn -0.4818 -0.0644 0.8739
vn -0.4955 -0.0451 0.8674
vn -0.4933 -0.0276 0.8694
vn -0.4732 -0.0339 0.8803
vn -0.4533 -0.0821 0.8876
vn -0.4611 -0.0593 0.8854
vn -0.4535 -0.0434 0.8902
vn -0.4358 -0.0572 0.8982
vn -0.4218 -0.2124 0.8815
vn -0.4038 -0.2006 0.8926
vn -0.4141 -0.1787 0.8925
vn -0.3846 -0.1834 0.9047
vn -0.3875 -0.2063 0.8985
vn -0.3945 -0.2274 0.8903
vn -0.5066 -0.1623 0.8468
vn -0.4393 -0.2399 0.8657
vn -0.4180 -0.2362 0.8772
vn -0.4044 -0.2469 0.8806
vn -0.4177 -0.2634 0.8696
vn -0.4646 -0.2579 0.8471
vn -0.4431 -0.2622 0.8573
vn -0.4327 -0.2774 0.8578
vn -0.4506 -0.2870 0.8453
vn -0.6532 -0.2719 0.7067
vn -0.6310 -0.3044 0.7136
vn -0.6040 -0.3317 0.7246
vn -0.6836 -0.3735 0.6270
vn -0.6432 -0.4156 0.6431
vn -0.7177 -0.3248 0.6159
vn -0.6831 -0.1983 0.7029
vn -0.6714 -0.2364 0.7024
vn -0.7445 -0.2708 0.6102
vn -0.7630 -0.2133 0.6102
vn -0.6900 -0.1198 0.7138
vn -0.6901 -0.1590 0.7060
vn -0.7727 -0.1539 0.6158
vn -0.7735 -0.0943 0.6267
vn -0.5132 0.0679 0.8555
vn -0.5470 0.0652 0.8346
vn -0.5791 0.0541 0.8134
vn -0.5567 0.1848 0.8099
vn -0.6054 0.1691 0.7778
vn -0.5055 0.1903 0.8416
vn -0.4448 0.0548 0.8939
vn -0.4786 0.0655 0.8756
vn -0.4534 0.1854 0.8718
vn -0.4019 0.1702 0.8997
vn -0.3823 0.0160 0.9239
vn -0.4119 0.0390 0.9104
vn -0.3525 0.1453 0.9244
vn -0.3071 0.1114 0.9451
vn -0.3130 -0.2700 0.9106
vn -0.3011 -0.2344 0.9243
vn -0.2962 -0.1961 0.9348
vn -0.1851 -0.2677 0.9456
vn -0.1767 -0.2099 0.9616
vn -0.2021 -0.3219 0.9249
vn -0.3516 -0.3302 0.8760
vn -0.3292 -0.3028 0.8944
vn -0.2276 -0.3709 0.9003
vn -0.2606 -0.4133 0.8725
vn -0.4071 -0.3699 0.8351
vn -0.3772 -0.3536 0.8560
vn -0.3002 -0.4478 0.8422
vn -0.3448 -0.4734 0.8105
vt 0.527778 1.000000
vt 0.541570 0.958622
vt 0.527656 0.945972
vt 0.513793 0.958622
vt 0.555363 0.917245
vt 0.527631 0.925623
vt 0.499807 0.917245
vt 0.472222 1.000000
vt 0.486015 0.958622
vt 0.472100 0.945972
vt 0.458237 0.958622
vt 0.472076 0.925623
vt 0.444252 0.917245
vt 0.416667 1.000000
vt 0.430459 0.958622
vt 0.416545 0.945972
vt 0.402681 0.958622
vt 0.416520 0.925623
vt 0.388696 0.917245
vt 0.194444 1.000000
vt 0.208237 0.958622
vt 0.194323 0.945972
vt 0.180459 0.958622
vt 0.222029 0.917245
vt 0.194298 0.925623
vt 0.166474 0.917245
vt 0.138889 1.000000
vt 0.152681 0.958622
vt 0.138767 0.945972
vt 0.124904 0.958622
vt 0.138742 0.925623
vt 0.110918 0.917244
vt 0.083333 1.000000
vt 0.097126 0.958622
vt 0.083212 0.945972
vt 0.069348 0.958622
vt 0.083187 0.925623
vt 0.055363 0.917245
vt 0.861111 1.000000
vt 0.874904 0.958622
vt 0.860989 0.945972
vt 0.847126 0.958622
vt 0.888696 0.917245
vt 0.860965 0.925623
vt 0.833141 0.917245
vt 0.805556 1.000000
vt 0.819348 0.958622
vt 0.805434 0.945972
vt 0.791570 0.958622
vt 0.805409 0.925623
vt 0.777585 0.917245
vt 0.750000 1.000000
vt 0.763793 0.958622
vt 0.749878 0.945972
vt 0.736015 0.958622
vt 0.749854 0.925623
vt 0.722029 0.917245
vt 0.527682 0.917429
vt 0.499902 0.917049
vt 0.555457 0.917049
vt 0.555523 0.913716
vt 0.527745 0.913716
vt 0.499967 0.913716
vt 0.472126 0.917429
vt 0.444346 0.917049
vt 0.472190 0.913716
vt 0.444412 0.913716
vt 0.416570 0.917429
vt 0.388790 0.917049
vt 0.416634 0.913716
vt 0.388856 0.913716
vt 0.194348 0.917429
vt 0.166568 0.917049
vt 0.222124 0.917049
vt 0.222189 0.913716
vt 0.194412 0.913716
vt 0.166634 0.913716
vt 0.138793 0.917429
vt 0.111012 0.917049
vt 0.138856 0.913716
vt 0.111078 0.913716
vt 0.083240 0.917429
vt 0.055496 0.917049
vt 0.083312 0.913716
vt 0.055619 0.913716
vt 0.861015 0.917429
vt 0.833235 0.917049
vt 0.888791 0.917049
vt 0.888856 0.913716
vt 0.861078 0.913716
vt 0.833301 0.913716
vt 0.805459 0.917429
vt 0.777679 0.917049
vt 0.805523 0.913716
vt 0.777745 0.913716
vt 0.749907 0.917429
vt 0.722151 0.917049
vt 0.749969 0.913716
vt 0.722201 0.913716
s 1
f 14/1/1 44/2/2 82/3/3
f 14/1/1 82/3/3 46/4/4
f 1/5/5 61/6/6 82/3/3
f 1/5/5 82/3/3 44/2/2
f 2/7/7 46/4/4 82/3/3
f 2/7/7 82/3/3 61/6/6
f 13/8/1 45/9/8 83/10/9
f 13/8/1 83/10/9 48/11/10
f 2/7/7 62/12/11 83/10/9
f 2/7/7 83/10/9 45/9/8
f 3/13/12 48/11/10 83/10/9
f 3/13/12 83/10/9 62/12/11
f 12/14/1 47/15/10 84/16/13
f 12/14/1 84/16/13 49/17/14
f 3/13/12 63/18/15 84/16/13
f 3/13/12 84/16/13 47/15/10
f 4/19/16 49/17/14 84/16/13
f 4/19/16 84/16/13 63/18/15
f 11/20/17 50/21/18 85/22/19
f 11/20/17 85/22/19 52/23/20
f 5/24/21 64/25/22 85/22/19
f 5/24/21 85/22/19 50/21/18
f 6/26/23 52/23/20 85/22/19
f 6/26/23 85/22/19 64/25/22
f 10/27/17 51/28/24 86/29/25
f 10/27/17 86/29/25 54/30/26
f 6/26/23 65/31/27 86/29/25
f 6/26/23 86/29/25 51/28/24
f 7/32/28 54/30/26 86/29/25
f 7/32/28 86/29/25 65/31/27
f 9/33/17 53/34/29 87/35/30
f 9/33/17 87/35/30 55/36/31
f 7/32/28 66/37/32 87/35/30
f 7/32/28 87/35/30 53/34/29
f 8/38/33 55/36/31 87/35/30
f 8/38/33 87/35/30 66/37/32
f 17/39/17 56/40/34 88/41/35
f 17/39/17 88/41/35 58/42/36
f 18/43/37 67/44/38 88/41/35
f 18/43/37 88/41/35 56/40/34
f 19/45/39 58/42/36 88/41/35
f 19/45/39 88/41/35 67/44/38
f 16/46/1 57/47/40 89/48/41
f 16/46/1 89/48/41 60/49/42
f 19/45/39 68/50/43 89/48/41
f 19/45/39 89/48/41 57/47/40
f 20/51/44 60/49/42 89/48/41
f 20/51/44 89/48/41 68/50/43
f 15/52/17 59/53/42 90/54/45
f 15/52/17 90/54/45 43/55/46
f 20/51/44 69/56/47 90/54/45
f 20/51/44 90/54/45 59/53/42
f 21/57/48 43/55/46 90/54/45
f 21/57/48 90/54/45 69/56/47
f 2/7/7 61/6/6 91/58/49
f 2/7/7 91/58/49 71/59/50
f 61/6/6 1/5/5 70/60/51
f 61/6/6 70/60/51 91/58/49
f 91/58/49 70/60/51 22/61/52
f 91/58/49 22/61/52 34/62/53
f 71/59/50 91/58/49 34/62/53
f 71/59/50 34/62/53 23/63/54
f 3/13/12 62/12/11 92/64/55
f 3/13/12 92/64/55 72/65/56
f 62/12/11 2/7/7 71/59/50
f 62/12/11 71/59/50 92/64/55
f 92/64/55 71/59/50 23/63/54
f 92/64/55 23/63/54 35/66/57
f 72/65/56 92/64/55 35/66/57
f 72/65/56 35/66/57 24/67/58
f 4/19/16 63/18/15 93/68/59
f 4/19/16 93/68/59 73/69/60
f 63/18/15 3/13/12 72/65/56
f 63/18/15 72/65/56 93/68/59
f 93/68/59 72/65/56 24/67/58
f 93/68/59 24/67/58 36/70/61
f 73/69/60 93/68/59 36/70/61
f 73/69/60 36/70/61 25/71/62
f 6/26/23 64/25/22 94/72/63
f 6/26/23 94/72/63 75/73/64
f 64/25/22 5/24/21 74/74/65
f 64/25/22 74/74/65 94/72/63
f 94/72/63 74/74/65 26/75/66
f 94/72/63 26/75/66 37/76/67
f 75/73/64 94/72/63 37/76/67
f 75/73/64 37/76/67 27/77/68
f 7/32/28 65/31/27 95/78/69
f 7/32/28 95/78/69 76/79/70
f 65/31/27 6/26/23 75/73/64
f 65/31/27 75/73/64 95/78/69
f 95/78/69 75/73/64 27/77/68
f 95/78/69 27/77/68 38/80/71
f 76/79/70 95/78/69 38/80/71
f 76/79/70 38/80/71 28/81/72
f 8/38/33 66/37/32 96/82/73
f 8/38/33 96/82/73 77/83/74
f 66/37/32 7/32/28 76/79/70
f 66/37/32 76/79/70 96/82/73
f 96/82/73 76/79/70 28/81/72
f 96/82/73 28/81/72 39/84/75
f 77/83/74 96/82/73 39/84/75
f 77/83/74 39/84/75 29/85/76
f 19/45/39 67/44/38 97/86/77
f 19/45/39 97/86/77 79/87/78
f 67/44/38 18/43/37 78/88/79
f 67/44/38 78/88/79 97/86/77
f 97/86/77 78/88/79 30/89/80
f 97/86/77 30/89/80 40/90/81
f 79/87/78 97/86/77 40/90/81
f 79/87/78 40/90/81 31/91/82
f 20/51/44 68/50/43 98/92/83
f 20/51/44 98/92/83 80/93/84
f 68/50/43 19/45/39 79/87/78
f 68/50/43 79/87/78 98/92/83
f 98/92/83 79/87/78 31/91/82
f 98/92/83 31/91/82 41/94/85
f 80/93/84 98/92/83 41/94/85
f 80/93/84 41/94/85 32/95/86
f 21/57/48 69/56/47 99/96/87
f 21/57/48 99/96/87 81/97/88
f 69/56/47 20/51/44 80/93/84
f 69/56/47 80/93/84 99/96/87
f 99/96/87 80/93/84 32/95/86
f 99/96/87 32/95/86 42/98/89
f 81/97/88 99/96/87 42/98/89
f 81/97/88 42/98/89 33/99/90
f 113/1/91 145/4/92 181/3/93
f 113/1/91 181/3/93 143/2/94
f 100/5/95 143/2/94 181/3/93
f 100/5/95 181/3/93 160/6/96
f 101/7/97 160/6/96 181/3/93
f 101/7/97 181/3/93 145/4/92
f 112/8/98 147/11/99 182/10/100
f 112/8/98 182/10/100 144/9/101
f 101/7/97 144/9/101 182/10/100
f 101/7/97 182/10/100 161/12/102
f 102/13/103 161/12/102 182/10/100
f 102/13/103 182/10/100 147/11/99
f 111/14/91 148/17/104 183/16/105
f 111/14/91 183/16/105 146/15/99
f 102/13/103 146/15/99 183/16/105
f 102/13/103 183/16/105 162/18/106
f 103/19/107 162/18/106 183/16/105
f 103/19/107 183/16/105 148/17/104
f 110/20/98 151/23/108 184/22/109
f 110/20/98 184/22/109 149/21/110
f 104/24/111 149/21/110 184/22/109
f 104/24/111 184/22/109 163/25/112
f 105/26/113 163/25/112 184/22/109
f 105/26/113 184/22/109 151/23/108
f 109/27/98 153/30/114 185/29/115
f 109/27/98 185/29/115 150/28/108
f 105/26/113 150/28/108 185/29/115
f 105/26/113 185/29/115 164/31/116
f 106/32/117 164/31/116 185/29/115
f 106/32/117 185/29/115 153/30/114
f 108/33/98 154/36/118 186/35/119
f 108/33/98 186/35/119 152/34/114
f 106/32/117 152/34/114 186/35/119
f 106/32/117 186/35/119 165/37/120
f 107/38/121 165/37/120 186/35/119
f 107/38/121 186/35/119 154/36/118
f 116/39/98 157/42/122 187/41/123
f 116/39/98 187/41/123 155/40/124
f 117/43/125 155/40/124 187/41/123
f 117/43/125 187/41/123 166/44/126
f 118/45/127 166/44/126 187/41/123
f 118/45/127 187/41/123 157/42/122
f 115/46/128 159/49/129 188/48/130
f 115/46/128 188/48/130 156/47/122
f 118/45/127 156/47/122 188/48/130
f 118/45/127 188/48/130 167/50/131
f 119/51/132 167/50/131 188/48/130
f 119/51/132 188/48/130 159/49/129
f 114/52/98 142/55/133 189/54/134
f 114/52/98 189/54/134 158/53/129
f 119/51/132 158/53/129 189/54/134
f 119/51/132 189/54/134 168/56/135
f 120/57/136 168/56/135 189/54/134
f 120/57/136 189/54/134 142/55/133
f 101/7/97 170/59/137 190/58/138
f 101/7/97 190/58/138 160/6/96
f 160/6/96 190/58/138 169/60/139
f 160/6/96 169/60/139 100/5/95
f 190/58/138 133/62/140 121/61/141
f 190/58/138 121/61/141 169/60/139
f 170/59/137 122/63/142 133/62/140
f 170/59/137 133/62/140 190/58/138
f 102/13/103 171/65/143 191/64/144
f 102/13/103 191/64/144 161/12/102
f 161/12/102 191/64/144 170/59/137
f 161/12/102 170/59/137 101/7/97
f 191/64/144 134/66/145 122/63/142
f 191/64/144 122/63/142 170/59/137
f 171/65/143 123/67/146 134/66/145
f 171/65/143 134/66/145 191/64/144
f 103/19/107 172/69/147 192/68/148
f 103/19/107 192/68/148 162/18/106
f 162/18/106 192/68/148 171/65/143
f 162/18/106 171/65/143 102/13/103
f 192/68/148 135/70/149 123/67/146
f 192/68/148 123/67/146 171/65/143
f 172/69/147 124/71/150 135/70/149
f 172/69/147 135/70/149 192/68/148
f 105/26/113 174/73/151 193/72/152
f 105/26/113 193/72/152 163/25/112
f 163/25/112 193/72/152 173/74/153
f 163/25/112 173/74/153 104/24/111
f 193/72/152 136/76/154 125/75/155
f 193/72/152 125/75/155 173/74/153
f 174/73/151 126/77/156 136/76/154
f 174/73/151 136/76/154 193/72/152
f 106/32/117 175/79/157 194/78/158
f 106/32/117 194/78/158 164/31/116
f 164/31/116 194/78/158 174/73/151
f 164/31/116 174/73/151 105/26/113
f 194/78/158 137/80/159 126/77/156
f 194/78/158 126/77/156 174/73/151
f 175/79/157 127/81/160 137/80/159
f 175/79/157 137/80/159 194/78/158
f 107/38/121 176/83/161 195/82/162
f 107/38/121 195/82/162 165/37/120
f 165/37/120 195/82/162 175/79/157
f 165/37/120 175/79/157 106/32/117
f 195/82/162 138/84/163 127/81/160
f 195/82/162 127/81/160 175/79/157
f 176/83/161 128/85/164 138/84/163
f 176/83/161 138/84/163 195/82/162
f 118/45/127 178/87/165 196/86/166
f 118/45/127 196/86/166 166/44/126
f 166/44/126 196/86/166 177/88/167
f 166/44/126 177/88/167 117/43/125
f 196/86/166 139/90/168 129/89/169
f 196/86/166 129/89/169 177/88/167
f 178/87/165 130/91/170 139/90/168
f 178/87/165 139/90/168 196/86/166
f 119/51/132 179/93/171 197/92/172
f 119/51/132 197/92/172 167/50/131
f 167/50/131 197/92/172 178/87/165
f 167/50/131 178/87/165 118/45/127
f 197/92/172 140/94/173 130/91/170
f 197/92/172 130/91/170 178/87/165
f 179/93/171 131/95/174 140/94/173
f 179/93/171 140/94/173 197/92/172
f 120/57/136 180/97/175 198/96/176
f 120/57/136 198/96/176 168/56/135
f 168/56/135 198/96/176 179/93/171
f 168/56/135 179/93/171 119/51/132
f 198/96/176 141/98/177 131/95/174
f 198/96/176 131/95/174 179/93/171
f 180/97/175 132/99/178 141/98/177
f 180/97/175 141/98/177 198/96/176
