# Blender 5.1.1
# www.blender.org
o mesh_17.003
v -0.693051 0.514292 0.951147
v -0.692932 0.514454 0.951110
v -0.692870 0.514648 0.951095
v -0.693073 0.515193 0.951188
v -0.693241 0.515288 0.951252
v -0.693432 0.515316 0.951322
v -0.693620 0.515273 0.951388
v -0.693965 0.514808 0.951496
v -0.693960 0.514604 0.951486
v -0.693960 0.514604 0.951486
v -0.693890 0.514415 0.951454
v -0.693397 0.514726 0.951352
v -0.693397 0.514726 0.951352
v -0.693397 0.514726 0.951352
v -0.693397 0.514726 0.951352
v -0.693397 0.514726 0.951352
v -0.693397 0.514726 0.951352
v -0.693397 0.514726 0.951352
v -0.693397 0.514726 0.951352
v -0.693397 0.514726 0.951352
v -0.693763 0.514264 0.951402
v -0.693215 0.514184 0.951202
v -0.692845 0.514401 0.951053
v -0.692988 0.514208 0.951097
v -0.692772 0.514633 0.951035
v -0.693013 0.515284 0.951146
v -0.693215 0.515397 0.951223
v -0.693442 0.515431 0.951306
v -0.693667 0.515379 0.951386
v -0.694079 0.514825 0.951513
v -0.694073 0.514581 0.951502
v -0.694073 0.514581 0.951502
v -0.693989 0.514355 0.951464
v -0.693837 0.514174 0.951402
v -0.693184 0.514079 0.951163
v -0.692908 0.514298 0.951072
v -0.692799 0.514514 0.951040
v -0.693109 0.515350 0.951183
v -0.693327 0.515425 0.951265
v -0.693556 0.515415 0.951347
v -0.694086 0.514702 0.951512
v -0.693728 0.514516 0.951425
v -0.693728 0.514516 0.951425
v -0.694041 0.514464 0.951486
v -0.693921 0.514258 0.951435
v -0.693273 0.514360 0.951255
v -0.693162 0.514433 0.951218
v -0.693162 0.514433 0.951218
v -0.693080 0.514135 0.951128
v -0.693081 0.514542 0.951193
v -0.693081 0.514542 0.951193
v -0.693040 0.514673 0.951183
v -0.693176 0.515041 0.951246
v -0.693290 0.515105 0.951289
v -0.693290 0.515105 0.951289
v -0.693419 0.515124 0.951336
v -0.693419 0.515124 0.951336
v -0.693546 0.515095 0.951381
v -0.693779 0.514781 0.951454
v -0.693775 0.514644 0.951447
v -0.693775 0.514644 0.951447
v -0.693642 0.514414 0.951391
v -0.692980 0.514364 0.951123
v -0.692887 0.514546 0.951096
v -0.693150 0.515254 0.951217
v -0.693335 0.515317 0.951286
v -0.693529 0.515309 0.951356
v -0.693977 0.514706 0.951495
v -0.693939 0.514504 0.951474
v -0.693837 0.514329 0.951431
v -0.693126 0.514225 0.951170
v -0.692869 0.514416 0.951073
v -0.693005 0.514233 0.951115
v -0.692799 0.514637 0.951056
v -0.693029 0.515257 0.951162
v -0.693221 0.515365 0.951236
v -0.693437 0.515397 0.951315
v -0.693652 0.515348 0.951390
v -0.694044 0.514820 0.951512
v -0.694039 0.514588 0.951501
v -0.694039 0.514588 0.951501
v -0.693959 0.514373 0.951465
v -0.693814 0.514200 0.951406
v -0.693191 0.514109 0.951178
v -0.693189 0.514344 0.951217
v -0.693078 0.514450 0.951181
v -0.693007 0.514589 0.951161
v -0.693208 0.515128 0.951253
v -0.693348 0.515176 0.951306
v -0.693496 0.515170 0.951359
v -0.693838 0.514710 0.951465
v -0.693809 0.514557 0.951449
v -0.693731 0.514423 0.951416
v -0.692929 0.514318 0.951091
v -0.692824 0.514524 0.951061
v -0.693120 0.515321 0.951197
v -0.693328 0.515392 0.951275
v -0.693547 0.515383 0.951354
v -0.694052 0.514703 0.951510
v -0.694008 0.514476 0.951486
v -0.693894 0.514279 0.951438
v -0.693093 0.514162 0.951144
v -0.713186 0.512548 0.947247
v -0.713362 0.512582 0.947148
v -0.713522 0.512682 0.947071
v -0.713743 0.513226 0.947043
v -0.713700 0.513416 0.947105
v -0.713601 0.513571 0.947194
v -0.713458 0.513673 0.947299
v -0.712953 0.513575 0.947583
v -0.712826 0.513421 0.947629
v -0.712826 0.513421 0.947629
v -0.712749 0.513232 0.947639
v -0.713268 0.513119 0.947378
v -0.713268 0.513119 0.947378
v -0.713268 0.513119 0.947378
v -0.713268 0.513119 0.947378
v -0.713268 0.513119 0.947378
v -0.713268 0.513119 0.947378
v -0.713268 0.513119 0.947378
v -0.713268 0.513119 0.947378
v -0.713268 0.513119 0.947378
v -0.712732 0.513030 0.947611
v -0.713017 0.512584 0.947355
v -0.713374 0.512479 0.947094
v -0.713165 0.512439 0.947212
v -0.713566 0.512599 0.947002
v -0.713830 0.513249 0.946969
v -0.713779 0.513476 0.947043
v -0.713661 0.513661 0.947150
v -0.713490 0.513782 0.947275
v -0.712886 0.513665 0.947614
v -0.712735 0.513482 0.947669
v -0.712735 0.513482 0.947669
v -0.712643 0.513256 0.947681
v -0.712622 0.513015 0.947647
v -0.712962 0.512482 0.947341
v -0.713270 0.512449 0.947151
v -0.713474 0.512530 0.947044
v -0.713814 0.513366 0.947002
v -0.713727 0.513575 0.947093
v -0.713581 0.513731 0.947211
v -0.712804 0.513580 0.947647
v -0.712921 0.513194 0.947558
v -0.712921 0.513194 0.947558
v -0.712681 0.513372 0.947680
v -0.712623 0.513135 0.947669
v -0.713101 0.512757 0.947367
v -0.713215 0.512733 0.947294
v -0.713215 0.512733 0.947294
v -0.713061 0.512450 0.947276
v -0.713334 0.512756 0.947227
v -0.713334 0.512756 0.947227
v -0.713442 0.512823 0.947175
v -0.713591 0.513191 0.947156
v -0.713562 0.513319 0.947198
v -0.713562 0.513319 0.947198
v -0.713495 0.513423 0.947258
v -0.713495 0.513423 0.947258
v -0.713399 0.513492 0.947329
v -0.713058 0.513426 0.947521
v -0.712972 0.513322 0.947552
v -0.712972 0.513322 0.947552
v -0.712908 0.513058 0.947539
v -0.713274 0.512550 0.947193
v -0.713447 0.512619 0.947103
v -0.713734 0.513327 0.947067
v -0.713661 0.513504 0.947144
v -0.713537 0.513635 0.947244
v -0.712880 0.513508 0.947613
v -0.712775 0.513332 0.947641
v -0.712727 0.513131 0.947632
v -0.713097 0.512551 0.947299
v -0.713373 0.512509 0.947114
v -0.713173 0.512470 0.947226
v -0.713556 0.512622 0.947026
v -0.713807 0.513242 0.946994
v -0.713758 0.513458 0.947065
v -0.713645 0.513634 0.947166
v -0.713483 0.513750 0.947285
v -0.712907 0.513638 0.947608
v -0.712764 0.513463 0.947661
v -0.712764 0.513463 0.947661
v -0.712676 0.513248 0.947672
v -0.712656 0.513019 0.947640
v -0.712980 0.512511 0.947349
v -0.713140 0.512685 0.947322
v -0.713275 0.512685 0.947241
v -0.713407 0.512737 0.947172
v -0.713625 0.513276 0.947144
v -0.713570 0.513411 0.947203
v -0.713475 0.513512 0.947279
v -0.712974 0.513415 0.947560
v -0.712895 0.513281 0.947582
v -0.712858 0.513128 0.947575
v -0.713274 0.512479 0.947167
v -0.713468 0.512556 0.947066
v -0.713792 0.513353 0.947025
v -0.713709 0.513553 0.947112
v -0.713570 0.513701 0.947224
v -0.712829 0.513558 0.947640
v -0.712712 0.513359 0.947672
v -0.712657 0.513134 0.947662
v -0.713074 0.512480 0.947287
vn 0.3391 -0.0350 0.9401
vn 0.3731 -0.1314 0.9184
vn 0.3951 -0.1357 0.9085
vn 0.4021 -0.1122 0.9087
vn 0.3828 -0.1609 0.9097
vn 0.4030 -0.1505 0.9027
vn 0.4208 -0.1359 0.8969
vn 0.4022 -0.1121 0.9087
vn 0.4240 -0.1075 0.8993
vn 0.4235 -0.0835 0.9021
vn 0.4365 -0.1185 0.8919
vn 0.4486 -0.0985 0.8883
vn 0.4234 -0.0835 0.9021
vn 0.4429 -0.0713 0.8937
vn 0.4343 -0.0491 0.8994
vn 0.4579 -0.0766 0.8857
vn 0.4628 -0.0533 0.8849
vn 0.3984 0.0476 0.9160
vn 0.3901 0.0702 0.9181
vn 0.3685 0.0644 0.9274
vn 0.4158 0.0730 0.9065
vn 0.3973 0.0861 0.9136
vn 0.3769 0.0951 0.9214
vn 0.3684 0.0645 0.9274
vn 0.3533 0.0831 0.9318
vn 0.3348 0.0694 0.9397
vn 0.3550 0.1008 0.9294
vn 0.3328 0.1016 0.9375
vn 0.3347 0.0694 0.9398
vn 0.3144 0.0818 0.9458
vn 0.3014 0.0618 0.9515
vn 0.3103 0.0990 0.9455
vn 0.2890 0.0916 0.9529
vn 0.3390 -0.0351 0.9401
vn 0.2401 -0.0206 0.9705
vn 0.2247 -0.0393 0.9736
vn 0.2410 -0.0568 0.9689
vn 0.2090 -0.0161 0.9778
vn 0.2072 -0.0398 0.9775
vn 0.2101 -0.0634 0.9756
vn 0.3390 -0.0350 0.9401
vn 0.2409 -0.0568 0.9689
vn 0.2327 -0.0795 0.9693
vn 0.2534 -0.0903 0.9631
vn 0.2100 -0.0634 0.9756
vn 0.2160 -0.0863 0.9726
vn 0.2263 -0.1072 0.9682
vn 0.3391 -0.0351 0.9401
vn 0.2535 -0.0904 0.9631
vn 0.2527 -0.1146 0.9607
vn 0.2760 -0.1172 0.9540
vn 0.2393 -0.1265 0.9627
vn 0.2559 -0.1423 0.9562
vn 0.4990 -0.1749 0.8488
vn 0.5192 -0.1409 0.8430
vn 0.4726 -0.2037 0.8574
vn 0.5340 -0.2899 0.7942
vn 0.5733 -0.2456 0.7817
vn 0.6048 -0.1948 0.7722
vn 0.5349 -0.1044 0.8385
vn 0.5432 -0.0653 0.8371
vn 0.6275 -0.1391 0.7661
vn 0.6409 -0.0801 0.7634
vn 0.4332 0.1689 0.8853
vn 0.3987 0.1838 0.8985
vn 0.4644 0.1467 0.8734
vn 0.5215 0.2411 0.8184
vn 0.4739 0.2738 0.8369
vn 0.4220 0.2973 0.8564
vn 0.3622 0.1933 0.9118
vn 0.3247 0.1946 0.9256
vn 0.3667 0.3107 0.8769
vn 0.3099 0.3137 0.8975
vn 0.2871 0.1903 0.9388
vn 0.2514 0.1779 0.9514
vn 0.2533 0.3061 0.9177
vn 0.1988 0.2884 0.9366
vn 0.1139 -0.0428 0.9926
vn 0.1189 -0.0823 0.9895
vn 0.1170 -0.0029 0.9931
vn -0.0049 0.0144 0.9999
vn -0.0084 -0.0459 0.9989
vn -0.0020 -0.1059 0.9944
vn 0.1289 -0.1207 0.9843
vn 0.1462 -0.1559 0.9769
vn 0.0142 -0.1637 0.9864
vn 0.0395 -0.2175 0.9753
vn 0.1681 -0.1881 0.9677
vn 0.1956 -0.2149 0.9569
vn 0.0732 -0.2656 0.9613
vn 0.1142 -0.3068 0.9449
vn 0.4427 -0.2283 0.8671
vn 0.4088 -0.2461 0.8788
vn 0.4373 -0.3540 0.8267
vn 0.4883 -0.3263 0.8094
vn -0.5066 -0.1623 0.8468
vn -0.4947 -0.2643 0.8279
vn -0.4750 -0.2769 0.8353
vn -0.4647 -0.2579 0.8471
vn -0.4507 -0.2870 0.8453
vn -0.4697 -0.2936 0.8326
vn -0.4898 -0.2954 0.8203
vn -0.5258 -0.2583 0.8104
vn -0.5105 -0.2770 0.8141
vn -0.5104 -0.2937 0.8082
vn -0.5306 -0.2875 0.7974
vn -0.5543 -0.2406 0.7968
vn -0.5450 -0.2631 0.7961
vn -0.5260 -0.2582 0.8103
vn -0.5502 -0.2779 0.7874
vn -0.5680 -0.2642 0.7795
vn -0.5067 -0.1622 0.8467
vn -0.5860 -0.1103 0.8028
vn -0.6025 -0.1214 0.7888
vn -0.5936 -0.1439 0.7918
vn -0.6192 -0.1380 0.7730
vn -0.6162 -0.1151 0.7791
vn -0.6093 -0.0941 0.7874
vn -0.5066 -0.1622 0.8468
vn -0.5684 -0.0828 0.8186
vn -0.5879 -0.0860 0.8043
vn -0.5859 -0.1103 0.8028
vn -0.5994 -0.0744 0.7970
vn -0.5864 -0.0581 0.8080
vn -0.5431 -0.0648 0.8372
vn -0.5631 -0.0596 0.8243
vn -0.5683 -0.0827 0.8186
vn -0.5709 -0.0441 0.8198
vn -0.5531 -0.0345 0.8324
vn -0.4310 -0.1094 0.8957
vn -0.4315 -0.0851 0.8981
vn -0.4532 -0.0822 0.8876
vn -0.4358 -0.0572 0.8982
vn -0.4197 -0.0734 0.9047
vn -0.4065 -0.0928 0.9089
vn -0.4173 -0.1430 0.8975
vn -0.4104 -0.1203 0.9039
vn -0.4309 -0.1094 0.8957
vn -0.3956 -0.1139 0.9113
vn -0.3887 -0.1365 0.9112
vn -0.4141 -0.1787 0.8925
vn -0.4009 -0.1605 0.9020
vn -0.3845 -0.1600 0.9092
vn -0.3846 -0.1834 0.9047
vn -0.5415 -0.3706 0.7546
vn -0.5075 -0.3812 0.7727
vn -0.4731 -0.3839 0.7930
vn -0.4969 -0.4896 0.7165
vn -0.4447 -0.4946 0.7467
vn -0.5484 -0.4746 0.6885
vn -0.6041 -0.3317 0.7246
vn -0.5742 -0.3547 0.7379
vn -0.5976 -0.4495 0.6640
vn -0.6432 -0.4156 0.6431
vn -0.6732 -0.0459 0.7380
vn -0.6851 -0.0814 0.7239
vn -0.6901 -0.1198 0.7137
vn -0.7652 -0.0366 0.6427
vn -0.7735 -0.0944 0.6267
vn -0.7481 0.0177 0.6634
vn -0.6348 0.0145 0.7726
vn -0.6570 -0.0130 0.7538
vn -0.7228 0.0667 0.6879
vn -0.6897 0.1092 0.7158
vn -0.5792 0.0541 0.8134
vn -0.6090 0.0379 0.7923
vn -0.6503 0.1437 0.7460
vn -0.6055 0.1692 0.7777
vn -0.3331 -0.0440 0.9419
vn -0.3551 -0.0114 0.9348
vn -0.3822 0.0159 0.9239
vn -0.2667 0.0692 0.9613
vn -0.3070 0.1113 0.9452
vn -0.2326 0.0205 0.9724
vn -0.3032 -0.1176 0.9457
vn -0.3149 -0.0794 0.9458
vn -0.2058 -0.0335 0.9780
vn -0.2325 0.0205 0.9724
vn -0.1872 -0.0910 0.9781
vn -0.2962 -0.1960 0.9348
vn -0.2961 -0.1568 0.9422
vn -0.1775 -0.1504 0.9726
vn -0.1766 -0.2099 0.9616
vn -0.4391 -0.3808 0.8137
vn -0.4071 -0.3699 0.8351
vn -0.3935 -0.4890 0.7785
vn -0.3448 -0.4733 0.8106
vt 0.694444 1.000000
vt 0.708237 0.958622
vt 0.694444 0.945972
vt 0.680652 0.958622
vt 0.722029 0.917245
vt 0.694444 0.925623
vt 0.666859 0.917245
vt 0.638889 1.000000
vt 0.652874 0.958622
vt 0.638889 0.945972
vt 0.624904 0.958622
vt 0.638888 0.925623
vt 0.610918 0.917245
vt 0.583333 1.000000
vt 0.597126 0.958622
vt 0.583212 0.945972
vt 0.569348 0.958622
vt 0.583188 0.925623
vt 0.555363 0.917245
vt 0.361111 1.000000
vt 0.374904 0.958622
vt 0.360989 0.945972
vt 0.347126 0.958622
vt 0.388696 0.917245
vt 0.360965 0.925623
vt 0.333141 0.917244
vt 0.305556 1.000000
vt 0.319348 0.958622
vt 0.305434 0.945972
vt 0.291570 0.958622
vt 0.305409 0.925623
vt 0.277585 0.917245
vt 0.250000 1.000000
vt 0.263793 0.958622
vt 0.249878 0.945972
vt 0.236015 0.958622
vt 0.249854 0.925623
vt 0.222029 0.917245
vt 0.027778 1.000000
vt 0.041570 0.958622
vt 0.027778 0.945972
vt 0.013985 0.958622
vt 0.055363 0.917245
vt 0.027781 0.925623
vt 0.000193 0.917245
vt 0.972222 1.000000
vt 0.986015 0.958622
vt 0.972100 0.945972
vt 0.958237 0.958622
vt 0.999807 0.917245
vt 0.972073 0.925623
vt 0.944252 0.917245
vt 0.916667 1.000000
vt 0.930459 0.958622
vt 0.916545 0.945972
vt 0.902682 0.958622
vt 0.916521 0.925623
vt 0.888696 0.917245
vt 0.638886 0.917429
vt 0.611040 0.917049
vt 0.666711 0.917049
vt 0.666678 0.913716
vt 0.638888 0.913716
vt 0.611089 0.913716
vt 0.583240 0.917429
vt 0.555457 0.917049
vt 0.583302 0.913716
vt 0.555523 0.913716
vt 0.361015 0.917429
vt 0.333235 0.917049
vt 0.388790 0.917049
vt 0.388856 0.913716
vt 0.361078 0.913716
vt 0.333301 0.913716
vt 0.305459 0.917429
vt 0.277679 0.917049
vt 0.305523 0.913716
vt 0.277745 0.913716
vt 0.249904 0.917429
vt 0.222124 0.917049
vt 0.249967 0.913716
vt 0.222189 0.913716
vt 0.027811 0.917495
vt 0.000118 0.917064
vt 0.055496 0.917049
vt 0.055619 0.913716
vt 0.028008 0.913980
vt 0.000044 0.916883
vt 0.972096 0.917495
vt 0.944334 0.917049
vt 0.999882 0.917064
vt 0.999957 0.916883
vt 0.971962 0.913980
vt 0.944326 0.913716
vt 0.916570 0.917429
vt 0.888791 0.917049
vt 0.916624 0.913716
vt 0.888856 0.913716
vt 0.694442 0.917429
vt 0.722151 0.917049
vt 0.722201 0.913716
vt 0.694443 0.913716
s 1
f 18/1/1 46/2/2 85/3/3
f 18/1/1 85/3/3 48/4/4
f 22/5/5 71/6/6 85/3/3
f 22/5/5 85/3/3 46/2/2
f 1/7/7 48/4/4 85/3/3
f 1/7/7 85/3/3 71/6/6
f 17/8/1 47/9/8 86/10/9
f 17/8/1 86/10/9 51/11/10
f 1/7/7 63/12/11 86/10/9
f 1/7/7 86/10/9 47/9/8
f 2/13/12 51/11/10 86/10/9
f 2/13/12 86/10/9 63/12/11
f 16/14/1 50/15/13 87/16/14
f 16/14/1 87/16/14 52/17/15
f 2/13/12 64/18/16 87/16/14
f 2/13/12 87/16/14 50/15/13
f 3/19/17 52/17/15 87/16/14
f 3/19/17 87/16/14 64/18/16
f 15/20/1 53/21/18 88/22/19
f 15/20/1 88/22/19 55/23/20
f 4/24/21 65/25/22 88/22/19
f 4/24/21 88/22/19 53/21/18
f 5/26/23 55/23/20 88/22/19
f 5/26/23 88/22/19 65/25/22
f 14/27/1 54/28/24 89/29/25
f 14/27/1 89/29/25 57/30/26
f 5/26/23 66/31/27 89/29/25
f 5/26/23 89/29/25 54/28/24
f 6/32/28 57/30/26 89/29/25
f 6/32/28 89/29/25 66/31/27
f 13/33/1 56/34/29 90/35/30
f 13/33/1 90/35/30 58/36/31
f 6/32/28 67/37/32 90/35/30
f 6/32/28 90/35/30 56/34/29
f 7/38/33 58/36/31 90/35/30
f 7/38/33 90/35/30 67/37/32
f 12/39/34 59/40/35 91/41/36
f 12/39/34 91/41/36 60/42/37
f 8/43/38 68/44/39 91/41/36
f 8/43/38 91/41/36 59/40/35
f 9/45/40 60/42/37 91/41/36
f 9/45/40 91/41/36 68/44/39
f 20/46/41 61/47/42 92/48/43
f 20/46/41 92/48/43 43/49/44
f 10/50/45 69/51/46 92/48/43
f 10/50/45 92/48/43 61/47/42
f 11/52/47 43/49/44 92/48/43
f 11/52/47 92/48/43 69/51/46
f 19/53/48 42/54/49 93/55/50
f 19/53/48 93/55/50 62/56/51
f 11/52/47 70/57/52 93/55/50
f 11/52/47 93/55/50 42/54/49
f 21/58/53 62/56/51 93/55/50
f 21/58/53 93/55/50 70/57/52
f 2/13/12 63/12/11 94/59/54
f 2/13/12 94/59/54 72/60/55
f 63/12/11 1/7/7 73/61/56
f 63/12/11 73/61/56 94/59/54
f 94/59/54 73/61/56 24/62/57
f 94/59/54 24/62/57 36/63/58
f 72/60/55 94/59/54 36/63/58
f 72/60/55 36/63/58 23/64/59
f 3/19/17 64/18/16 95/65/60
f 3/19/17 95/65/60 74/66/61
f 64/18/16 2/13/12 72/60/55
f 64/18/16 72/60/55 95/65/60
f 95/65/60 72/60/55 23/64/59
f 95/65/60 23/64/59 37/67/62
f 74/66/61 95/65/60 37/67/62
f 74/66/61 37/67/62 25/68/63
f 5/26/23 65/25/22 96/69/64
f 5/26/23 96/69/64 76/70/65
f 65/25/22 4/24/21 75/71/66
f 65/25/22 75/71/66 96/69/64
f 96/69/64 75/71/66 26/72/67
f 96/69/64 26/72/67 38/73/68
f 76/70/65 96/69/64 38/73/68
f 76/70/65 38/73/68 27/74/69
f 6/32/28 66/31/27 97/75/70
f 6/32/28 97/75/70 77/76/71
f 66/31/27 5/26/23 76/70/65
f 66/31/27 76/70/65 97/75/70
f 97/75/70 76/70/65 27/74/69
f 97/75/70 27/74/69 39/77/72
f 77/76/71 97/75/70 39/77/72
f 77/76/71 39/77/72 28/78/73
f 7/38/33 67/37/32 98/79/74
f 7/38/33 98/79/74 78/80/75
f 67/37/32 6/32/28 77/76/71
f 67/37/32 77/76/71 98/79/74
f 98/79/74 77/76/71 28/78/73
f 98/79/74 28/78/73 40/81/76
f 78/80/75 98/79/74 40/81/76
f 78/80/75 40/81/76 29/82/77
f 9/45/40 68/44/39 99/83/78
f 9/45/40 99/83/78 80/84/79
f 68/44/39 8/43/38 79/85/80
f 68/44/39 79/85/80 99/83/78
f 99/83/78 79/85/80 30/86/81
f 99/83/78 30/86/81 41/87/82
f 80/84/79 99/83/78 41/87/82
f 80/84/79 41/87/82 31/88/83
f 11/52/47 69/51/46 100/89/84
f 11/52/47 100/89/84 82/90/85
f 69/51/46 10/50/45 81/91/79
f 69/51/46 81/91/79 100/89/84
f 100/89/84 81/91/79 32/92/83
f 100/89/84 32/92/83 44/93/86
f 82/90/85 100/89/84 44/93/86
f 82/90/85 44/93/86 33/94/87
f 21/58/53 70/57/52 101/95/88
f 21/58/53 101/95/88 83/96/89
f 70/57/52 11/52/47 82/90/85
f 70/57/52 82/90/85 101/95/88
f 101/95/88 82/90/85 33/94/87
f 101/95/88 33/94/87 45/97/90
f 83/96/89 101/95/88 45/97/90
f 83/96/89 45/97/90 34/98/91
f 1/7/7 71/6/6 102/99/92
f 1/7/7 102/99/92 73/61/56
f 71/6/6 22/5/5 84/100/93
f 71/6/6 84/100/93 102/99/92
f 102/99/92 84/100/93 35/101/94
f 102/99/92 35/101/94 49/102/95
f 73/61/56 102/99/92 49/102/95
f 73/61/56 49/102/95 24/62/57
f 120/1/96 150/4/97 187/3/98
f 120/1/96 187/3/98 148/2/99
f 124/5/100 148/2/99 187/3/98
f 124/5/100 187/3/98 173/6/101
f 103/7/102 173/6/101 187/3/98
f 103/7/102 187/3/98 150/4/97
f 119/8/96 153/11/103 188/10/104
f 119/8/96 188/10/104 149/9/97
f 103/7/102 149/9/97 188/10/104
f 103/7/102 188/10/104 165/12/105
f 104/13/106 165/12/105 188/10/104
f 104/13/106 188/10/104 153/11/103
f 118/14/96 154/17/107 189/16/108
f 118/14/96 189/16/108 152/15/109
f 104/13/106 152/15/109 189/16/108
f 104/13/106 189/16/108 166/18/110
f 105/19/111 166/18/110 189/16/108
f 105/19/111 189/16/108 154/17/107
f 117/20/112 157/23/113 190/22/114
f 117/20/112 190/22/114 155/21/115
f 106/24/116 155/21/115 190/22/114
f 106/24/116 190/22/114 167/25/117
f 107/26/118 167/25/117 190/22/114
f 107/26/118 190/22/114 157/23/113
f 116/27/119 159/30/120 191/29/121
f 116/27/119 191/29/121 156/28/122
f 107/26/118 156/28/122 191/29/121
f 107/26/118 191/29/121 168/31/123
f 108/32/124 168/31/123 191/29/121
f 108/32/124 191/29/121 159/30/120
f 115/33/119 160/36/125 192/35/126
f 115/33/119 192/35/126 158/34/127
f 108/32/124 158/34/127 192/35/126
f 108/32/124 192/35/126 169/37/128
f 109/38/129 169/37/128 192/35/126
f 109/38/129 192/35/126 160/36/125
f 114/39/119 162/42/130 193/41/131
f 114/39/119 193/41/131 161/40/132
f 110/43/133 161/40/132 193/41/131
f 110/43/133 193/41/131 170/44/134
f 111/45/135 170/44/134 193/41/131
f 111/45/135 193/41/131 162/42/130
f 122/46/119 145/49/136 194/48/137
f 122/46/119 194/48/137 163/47/138
f 112/50/135 163/47/138 194/48/137
f 112/50/135 194/48/137 171/51/139
f 113/52/140 171/51/139 194/48/137
f 113/52/140 194/48/137 145/49/136
f 121/53/119 164/56/141 195/55/142
f 121/53/119 195/55/142 144/54/136
f 113/52/140 144/54/136 195/55/142
f 113/52/140 195/55/142 172/57/143
f 123/58/144 172/57/143 195/55/142
f 123/58/144 195/55/142 164/56/141
f 104/13/106 174/60/145 196/59/146
f 104/13/106 196/59/146 165/12/105
f 165/12/105 196/59/146 175/61/147
f 165/12/105 175/61/147 103/7/102
f 196/59/146 138/63/148 126/62/149
f 196/59/146 126/62/149 175/61/147
f 174/60/145 125/64/150 138/63/148
f 174/60/145 138/63/148 196/59/146
f 105/19/111 176/66/151 197/65/152
f 105/19/111 197/65/152 166/18/110
f 166/18/110 197/65/152 174/60/145
f 166/18/110 174/60/145 104/13/106
f 197/65/152 139/67/153 125/64/150
f 197/65/152 125/64/150 174/60/145
f 176/66/151 127/68/154 139/67/153
f 176/66/151 139/67/153 197/65/152
f 107/26/118 178/70/155 198/69/156
f 107/26/118 198/69/156 167/25/117
f 167/25/117 198/69/156 177/71/157
f 167/25/117 177/71/157 106/24/116
f 198/69/156 140/73/158 128/72/159
f 198/69/156 128/72/159 177/71/157
f 178/70/155 129/74/160 140/73/158
f 178/70/155 140/73/158 198/69/156
f 108/32/124 179/76/161 199/75/162
f 108/32/124 199/75/162 168/31/123
f 168/31/123 199/75/162 178/70/155
f 168/31/123 178/70/155 107/26/118
f 199/75/162 141/77/163 129/74/160
f 199/75/162 129/74/160 178/70/155
f 179/76/161 130/78/164 141/77/163
f 179/76/161 141/77/163 199/75/162
f 109/38/129 180/80/165 200/79/166
f 109/38/129 200/79/166 169/37/128
f 169/37/128 200/79/166 179/76/161
f 169/37/128 179/76/161 108/32/124
f 200/79/166 142/81/167 130/78/164
f 200/79/166 130/78/164 179/76/161
f 180/80/165 131/82/168 142/81/167
f 180/80/165 142/81/167 200/79/166
f 111/45/135 182/84/169 201/83/170
f 111/45/135 201/83/170 170/44/134
f 170/44/134 201/83/170 181/85/171
f 170/44/134 181/85/171 110/43/133
f 201/83/170 143/87/172 132/86/173
f 201/83/170 132/86/173 181/85/171
f 182/84/169 133/88/174 143/87/172
f 182/84/169 143/87/172 201/83/170
f 113/52/140 184/90/175 202/89/176
f 113/52/140 202/89/176 171/51/139
f 171/51/139 202/89/176 183/91/169
f 171/51/139 183/91/169 112/50/135
f 202/89/176 146/93/177 134/92/178
f 202/89/176 134/92/178 183/91/169
f 184/90/175 135/94/179 146/93/177
f 184/90/175 146/93/177 202/89/176
f 123/58/144 185/96/180 203/95/181
f 123/58/144 203/95/181 172/57/143
f 172/57/143 203/95/181 184/90/175
f 172/57/143 184/90/175 113/52/140
f 203/95/181 147/97/182 135/94/179
f 203/95/181 135/94/179 184/90/175
f 185/96/180 136/98/183 147/97/182
f 185/96/180 147/97/182 203/95/181
f 103/7/102 175/61/147 204/99/184
f 103/7/102 204/99/184 173/6/101
f 173/6/101 204/99/184 186/100/185
f 173/6/101 186/100/185 124/5/100
f 204/99/184 151/102/186 137/101/187
f 204/99/184 137/101/187 186/100/185
f 175/61/147 126/62/149 151/102/186
f 175/61/147 151/102/186 204/99/184
