# Blender 5.1.1
# www.blender.org
o grass3
v 0.509579 0.454297 0.949555
v 0.605155 0.454297 0.924504
v 0.610269 0.460071 0.941343
v 0.514693 0.460071 0.966394
v 0.506632 0.437482 0.934634
v 0.602208 0.437482 0.909583
v 0.602842 0.447370 0.914091
v 0.507267 0.447370 0.939141
v 0.507267 0.447370 0.939141
v 0.602842 0.447370 0.914091
v 0.605155 0.454297 0.924504
v 0.509579 0.454297 0.949555
v 0.552572 0.454262 0.955176
v 0.631201 0.454262 0.895345
v 0.642392 0.460019 0.908933
v 0.563764 0.460019 0.968764
v 0.544111 0.437463 0.942517
v 0.622740 0.437463 0.882686
v 0.625062 0.447346 0.886612
v 0.546434 0.447346 0.946443
v 0.546434 0.447346 0.946443
v 0.625062 0.447346 0.886612
v 0.631201 0.454262 0.895345
v 0.552572 0.454262 0.955176
v 0.563632 0.454301 0.914930
v 0.620449 0.454301 0.834097
v 0.635225 0.460078 0.843654
v 0.578407 0.460078 0.924487
v 0.551751 0.437483 0.905439
v 0.608569 0.437483 0.824607
v 0.611962 0.447372 0.827638
v 0.555144 0.447372 0.908471
v 0.555144 0.447372 0.908471
v 0.611962 0.447372 0.827638
v 0.620449 0.454301 0.834097
v 0.563632 0.454301 0.914930
v 0.559106 0.454279 0.904687
v 0.649630 0.454279 0.865094
v 0.657301 0.460031 0.880940
v 0.566777 0.460032 0.920533
v 0.553870 0.437482 0.890386
v 0.644394 0.437482 0.850794
v 0.645725 0.447364 0.855159
v 0.555201 0.447364 0.894751
v 0.555201 0.447364 0.894751
v 0.645725 0.447364 0.855159
v 0.649630 0.454279 0.865094
v 0.559106 0.454279 0.904687
v 0.458257 0.454295 0.969751
v 0.525024 0.454295 0.896921
v 0.538440 0.460088 0.908300
v 0.471673 0.460088 0.981131
v 0.447711 0.437463 0.958818
v 0.514478 0.437463 0.885987
v 0.517445 0.447356 0.889425
v 0.450678 0.447356 0.962256
v 0.450678 0.447356 0.962256
v 0.517445 0.447356 0.889425
v 0.525024 0.454295 0.896921
v 0.458257 0.454295 0.969751
v 0.556255 0.454319 0.896280
v 0.610253 0.454319 0.813537
v 0.625347 0.460106 0.822577
v 0.571349 0.460106 0.905320
v 0.544062 0.437493 0.887209
v 0.598060 0.437493 0.804466
v 0.601551 0.447384 0.807376
v 0.547553 0.447384 0.890119
v 0.547553 0.447384 0.890119
v 0.601551 0.447384 0.807376
v 0.610253 0.454319 0.813537
v 0.556255 0.454319 0.896280
v 0.441591 0.454299 0.901364
v 0.532550 0.454299 0.862784
v 0.540042 0.460065 0.878710
v 0.449082 0.460065 0.917291
v 0.436518 0.437490 0.887018
v 0.527478 0.437490 0.848437
v 0.528758 0.447376 0.852810
v 0.437798 0.447376 0.891391
v 0.437798 0.447376 0.891391
v 0.528758 0.447376 0.852810
v 0.532550 0.454299 0.862784
v 0.441591 0.454299 0.901364
v 0.525500 0.454315 0.875368
v 0.614358 0.454315 0.832167
v 0.622654 0.460110 0.847679
v 0.533795 0.460110 0.890881
v 0.519710 0.437482 0.861326
v 0.608568 0.437482 0.818125
v 0.610063 0.447375 0.822411
v 0.521205 0.447375 0.865613
v 0.521205 0.447375 0.865613
v 0.610063 0.447375 0.822411
v 0.614358 0.454315 0.832167
v 0.525500 0.454315 0.875368
v 0.456091 0.454292 0.896319
v 0.542587 0.454292 0.848563
v 0.551681 0.460057 0.863632
v 0.465186 0.460057 0.911389
v 0.449566 0.437485 0.882572
v 0.536062 0.437485 0.834815
v 0.537786 0.447370 0.839033
v 0.451290 0.447370 0.886790
v 0.451290 0.447370 0.886790
v 0.537786 0.447370 0.839033
v 0.542587 0.454292 0.848563
v 0.456091 0.454292 0.896319
v 0.450266 0.454280 0.931367
v 0.529969 0.454279 0.872975
v 0.540911 0.460044 0.886762
v 0.461208 0.460044 0.945154
v 0.442042 0.437472 0.918563
v 0.521745 0.437472 0.860171
v 0.523993 0.447358 0.864135
v 0.444290 0.447358 0.922527
v 0.444290 0.447358 0.922527
v 0.523993 0.447358 0.864135
v 0.529969 0.454279 0.872975
v 0.450266 0.454280 0.931367
v 0.503889 0.454307 0.867787
v 0.593677 0.454307 0.909023
v 0.586954 0.460085 0.925285
v 0.497167 0.460085 0.884049
v 0.511070 0.437488 0.854385
v 0.600858 0.437488 0.895621
v 0.598491 0.447376 0.899506
v 0.508704 0.447376 0.858270
v 0.508704 0.447376 0.858270
v 0.598491 0.447376 0.899506
v 0.593677 0.454307 0.909023
v 0.503889 0.454307 0.867787
v 0.472095 0.454308 0.828801
v 0.567213 0.454308 0.855537
v 0.563108 0.460095 0.872645
v 0.467991 0.460095 0.845909
v 0.477097 0.437482 0.814451
v 0.572215 0.437482 0.841187
v 0.570484 0.447372 0.845389
v 0.475367 0.447372 0.818653
v 0.475367 0.447372 0.818653
v 0.570484 0.447372 0.845389
v 0.567213 0.454308 0.855537
v 0.472095 0.454308 0.828801
v 0.419381 0.454312 0.810646
v 0.516252 0.454312 0.830092
v 0.513457 0.460107 0.847460
v 0.416586 0.460107 0.828013
v 0.423279 0.437479 0.795965
v 0.520150 0.437479 0.815412
v 0.518744 0.447372 0.819729
v 0.421873 0.447372 0.800282
v 0.421873 0.447372 0.800282
v 0.518744 0.447372 0.819729
v 0.516252 0.454312 0.830092
v 0.419381 0.454312 0.810646
v 0.471727 0.454286 0.849602
v 0.551934 0.454286 0.791905
v 0.562755 0.460051 0.805787
v 0.482548 0.460051 0.863484
v 0.463614 0.437479 0.836727
v 0.543822 0.437479 0.779030
v 0.546035 0.447364 0.783013
v 0.465827 0.447364 0.840710
v 0.465827 0.447364 0.840710
v 0.546035 0.447364 0.783013
v 0.551934 0.454286 0.791905
v 0.471727 0.454286 0.849602
v 0.424066 0.454310 0.829844
v 0.520861 0.454310 0.810023
v 0.525052 0.460096 0.827110
v 0.428257 0.460097 0.846932
v 0.421937 0.437485 0.814797
v 0.518731 0.437485 0.794975
v 0.519119 0.447375 0.799503
v 0.422324 0.447375 0.819325
v 0.422324 0.447375 0.819325
v 0.519119 0.447375 0.799503
v 0.520861 0.454310 0.810023
v 0.424066 0.454310 0.829844
v 0.403784 0.454307 0.818825
v 0.500506 0.454307 0.798647
v 0.504760 0.460095 0.815719
v 0.408038 0.460095 0.835897
v 0.401600 0.437481 0.803787
v 0.498321 0.437481 0.783609
v 0.498725 0.447372 0.788135
v 0.402003 0.447372 0.808313
v 0.402003 0.447372 0.808313
v 0.498725 0.447372 0.788135
v 0.500506 0.454307 0.798647
v 0.403784 0.454307 0.818825
v 0.432671 0.454302 0.861843
v 0.488425 0.454302 0.780273
v 0.503320 0.460095 0.789633
v 0.447567 0.460095 0.871203
v 0.420680 0.437471 0.852517
v 0.476433 0.437471 0.770947
v 0.479858 0.447363 0.773929
v 0.424105 0.447363 0.855499
v 0.424105 0.447363 0.855499
v 0.479858 0.447363 0.773929
v 0.488425 0.454302 0.780273
v 0.432671 0.454302 0.861843
v 0.390967 0.454293 0.812626
v 0.489390 0.454293 0.803958
v 0.491608 0.460065 0.821416
v 0.393185 0.460065 0.830084
v 0.390564 0.437480 0.797420
v 0.488987 0.437480 0.788752
v 0.488857 0.447367 0.793303
v 0.390434 0.447367 0.801971
v 0.390434 0.447367 0.801971
v 0.488857 0.447367 0.793303
v 0.489390 0.454293 0.803958
v 0.390967 0.454293 0.812626
v 0.479223 0.454277 0.794509
v 0.569550 0.454277 0.834549
v 0.563042 0.460038 0.850904
v 0.472715 0.460038 0.810863
v 0.486232 0.437472 0.780998
v 0.576559 0.437472 0.821038
v 0.574241 0.447357 0.824963
v 0.483914 0.447357 0.784923
v 0.483914 0.447357 0.784923
v 0.574241 0.447357 0.824963
v 0.569550 0.454277 0.834549
v 0.479223 0.454277 0.794509
v 0.355892 0.454289 0.770388
v 0.454158 0.454289 0.760094
v 0.456665 0.460041 0.777519
v 0.358399 0.460041 0.787814
v 0.355235 0.437493 0.755172
v 0.453501 0.437493 0.744878
v 0.453447 0.447374 0.749441
v 0.355181 0.447374 0.759736
v 0.355181 0.447374 0.759736
v 0.453447 0.447374 0.749441
v 0.454158 0.454289 0.760094
v 0.355892 0.454289 0.770388
v 0.457233 0.454297 0.740815
v 0.554778 0.454297 0.756535
v 0.552648 0.460056 0.774009
v 0.455103 0.460056 0.758289
v 0.460571 0.437496 0.725961
v 0.558116 0.437496 0.741682
v 0.556873 0.447379 0.746069
v 0.459328 0.447379 0.730349
v 0.459328 0.447379 0.730349
v 0.556873 0.447379 0.746069
v 0.554778 0.454297 0.756535
v 0.457233 0.454297 0.740815
v 0.437370 0.454294 0.756451
v 0.516241 0.454294 0.696940
v 0.527377 0.460050 0.710573
v 0.448506 0.460050 0.770084
v 0.428960 0.437494 0.743757
v 0.507831 0.437494 0.684247
v 0.510138 0.447377 0.688182
v 0.431267 0.447377 0.747693
v 0.431267 0.447377 0.747693
v 0.510138 0.447377 0.688182
v 0.516241 0.454294 0.696940
v 0.437370 0.454294 0.756451
v 0.363098 0.454254 0.783794
v 0.458729 0.454254 0.758957
v 0.463808 0.460006 0.775814
v 0.368177 0.460006 0.800651
v 0.360179 0.437459 0.768846
v 0.455810 0.437459 0.744009
v 0.456438 0.447340 0.748530
v 0.360807 0.447341 0.773367
v 0.360807 0.447341 0.773367
v 0.456438 0.447340 0.748530
v 0.458729 0.454254 0.758957
v 0.363098 0.454254 0.783794
v 0.387752 0.454298 0.727915
v 0.484582 0.454298 0.708266
v 0.488744 0.460061 0.725368
v 0.391914 0.460061 0.745017
v 0.385645 0.437492 0.712842
v 0.482475 0.437492 0.693193
v 0.482857 0.447377 0.697735
v 0.386027 0.447377 0.717383
v 0.386027 0.447377 0.717383
v 0.482857 0.447377 0.697735
v 0.484582 0.454298 0.708266
v 0.387752 0.454298 0.727915
v 0.372852 0.454296 0.679836
v 0.465573 0.454296 0.713966
v 0.460134 0.460056 0.730707
v 0.367412 0.460056 0.696577
v 0.378975 0.437493 0.665899
v 0.471697 0.437493 0.700029
v 0.469636 0.447377 0.704096
v 0.376914 0.447377 0.669967
v 0.376914 0.447377 0.669967
v 0.469636 0.447377 0.704096
v 0.465573 0.454296 0.713966
v 0.372852 0.454296 0.679836
v 0.402942 0.454298 0.700796
v 0.501589 0.454298 0.695244
v 0.503254 0.460092 0.712756
v 0.404606 0.460092 0.718308
v 0.403021 0.437466 0.685606
v 0.501668 0.437466 0.680054
v 0.501394 0.447359 0.684586
v 0.402746 0.447359 0.690138
v 0.402746 0.447359 0.690138
v 0.501394 0.447359 0.684586
v 0.501589 0.454298 0.695244
v 0.402942 0.454298 0.700796
v 0.392726 0.454298 0.741081
v 0.473422 0.454298 0.684069
v 0.484122 0.460073 0.698040
v 0.403427 0.460073 0.755052
v 0.384729 0.437482 0.728146
v 0.465424 0.437482 0.671133
v 0.467601 0.447370 0.675131
v 0.386905 0.447370 0.732143
v 0.386905 0.447370 0.732143
v 0.467601 0.447370 0.675131
v 0.473422 0.454298 0.684069
v 0.392726 0.454298 0.741081
v 0.349828 0.454325 0.666298
v 0.439373 0.454325 0.708058
v 0.432558 0.460118 0.724275
v 0.343013 0.460118 0.682515
v 0.357082 0.437492 0.652951
v 0.446626 0.437492 0.694711
v 0.444241 0.447385 0.698574
v 0.354696 0.447385 0.656814
v 0.354696 0.447385 0.656814
v 0.444241 0.447385 0.698574
v 0.439373 0.454325 0.708058
v 0.349828 0.454325 0.666298
v 0.357748 0.454299 0.701138
v 0.447101 0.454299 0.658971
v 0.455221 0.460063 0.674587
v 0.365867 0.460063 0.716755
v 0.352108 0.437492 0.687003
v 0.441462 0.437492 0.644836
v 0.442915 0.447377 0.649155
v 0.353562 0.447377 0.691323
v 0.353562 0.447377 0.691323
v 0.442915 0.447377 0.649155
v 0.447101 0.454299 0.658971
v 0.357748 0.454299 0.701138
v 0.428824 0.454291 0.650651
v 0.489207 0.454291 0.572446
v 0.503534 0.460087 0.582652
v 0.443151 0.460087 0.660857
v 0.417394 0.437458 0.640648
v 0.477777 0.437457 0.562443
v 0.481022 0.447351 0.565617
v 0.420640 0.447351 0.643823
v 0.420640 0.447351 0.643823
v 0.481022 0.447351 0.565617
v 0.489207 0.454291 0.572446
v 0.428824 0.454291 0.650651
v 0.391022 0.454262 0.683699
v 0.489682 0.454262 0.678372
v 0.491308 0.460016 0.695902
v 0.392648 0.460016 0.701228
v 0.391134 0.437465 0.668470
v 0.489794 0.437465 0.663144
v 0.489510 0.447348 0.667698
v 0.390850 0.447348 0.673024
v 0.390850 0.447348 0.673024
v 0.489510 0.447348 0.667698
v 0.489682 0.454262 0.678372
v 0.391022 0.454262 0.683699
v 0.345094 0.454295 0.698299
v 0.435732 0.454295 0.658970
v 0.443354 0.460067 0.674832
v 0.352715 0.460067 0.714162
v 0.339906 0.437482 0.684000
v 0.430544 0.437482 0.644671
v 0.431859 0.447369 0.649029
v 0.341220 0.447369 0.688359
v 0.341220 0.447369 0.688359
v 0.431859 0.447369 0.649029
v 0.435732 0.454295 0.658970
v 0.345094 0.454295 0.698299
v 0.342934 0.454288 0.650853
v 0.441736 0.454288 0.651497
v 0.442299 0.460053 0.669089
v 0.343498 0.460053 0.668445
v 0.343966 0.437481 0.635671
v 0.442768 0.437481 0.636315
v 0.442209 0.447366 0.640837
v 0.343407 0.447366 0.640193
v 0.343407 0.447366 0.640193
v 0.442209 0.447366 0.640837
v 0.441736 0.454288 0.651497
v 0.342934 0.454288 0.650853
v 0.409615 0.454304 0.647568
v 0.495434 0.454304 0.696530
v 0.487310 0.460085 0.712138
v 0.401491 0.460085 0.663177
v 0.417945 0.437484 0.634850
v 0.503764 0.437484 0.683812
v 0.501066 0.447373 0.687473
v 0.415246 0.447373 0.638512
v 0.415246 0.447373 0.638512
v 0.501066 0.447373 0.687473
v 0.495434 0.454304 0.696530
v 0.409615 0.454304 0.647568
v 0.329752 0.454293 0.597973
v 0.424239 0.454293 0.626859
v 0.419744 0.460048 0.643880
v 0.325258 0.460048 0.614994
v 0.335088 0.437494 0.583711
v 0.429574 0.437494 0.612598
v 0.427743 0.447376 0.616776
v 0.333257 0.447376 0.587890
v 0.333257 0.447376 0.587890
v 0.427743 0.447376 0.616776
v 0.424239 0.454293 0.626859
v 0.329752 0.454293 0.597973
v 0.336609 0.454332 0.621066
v 0.432631 0.454332 0.644346
v 0.429148 0.460128 0.661588
v 0.333126 0.460128 0.638309
v 0.341087 0.437498 0.606553
v 0.437109 0.437498 0.629833
v 0.435532 0.447392 0.634090
v 0.339510 0.447392 0.610810
v 0.339510 0.447392 0.610810
v 0.435532 0.447392 0.634090
v 0.432631 0.454332 0.644346
v 0.336609 0.454332 0.621066
v 0.289019 0.454289 0.601725
v 0.386791 0.454289 0.615969
v 0.384926 0.460056 0.633470
v 0.287155 0.460056 0.619226
v 0.292132 0.437481 0.586830
v 0.389903 0.437481 0.601074
v 0.388727 0.447366 0.605476
v 0.290956 0.447366 0.591231
v 0.290956 0.447366 0.591231
v 0.388727 0.447366 0.605476
v 0.386791 0.454289 0.615969
v 0.289019 0.454289 0.601725
v 0.321857 0.454313 0.654603
v 0.403341 0.454312 0.598722
v 0.413842 0.460105 0.612836
v 0.332359 0.460105 0.668717
v 0.314051 0.437481 0.641571
v 0.395534 0.437481 0.585690
v 0.397649 0.447374 0.589709
v 0.316165 0.447374 0.645590
v 0.316165 0.447374 0.645590
v 0.397649 0.447374 0.589709
v 0.403341 0.454312 0.598722
v 0.321857 0.454313 0.654603
v 0.321133 0.454305 0.580528
v 0.418644 0.454305 0.596457
v 0.416479 0.460091 0.613917
v 0.318968 0.460091 0.597988
v 0.324499 0.437479 0.565708
v 0.422010 0.437479 0.581637
v 0.420760 0.447370 0.586007
v 0.323249 0.447370 0.570077
v 0.323249 0.447370 0.570077
v 0.420760 0.447370 0.586007
v 0.418644 0.454305 0.596457
v 0.321133 0.454305 0.580528
v 0.367652 0.454278 0.592349
v 0.456716 0.454278 0.635125
v 0.449711 0.460039 0.651274
v 0.360648 0.460039 0.608498
v 0.375070 0.437475 0.579057
v 0.464134 0.437475 0.621833
v 0.461696 0.447359 0.625686
v 0.372633 0.447359 0.582910
v 0.372633 0.447359 0.582910
v 0.461696 0.447359 0.625686
v 0.456716 0.454278 0.635125
v 0.367652 0.454278 0.592349
vn 0.0791 -0.9501 0.3018
vn 0.2306 -0.4158 0.8797
vn 0.1382 -0.8385 0.5271
vn 0.1883 -0.9504 0.2475
vn 0.5505 -0.4167 0.7234
vn 0.3295 -0.8390 0.4330
vn 0.2554 -0.9500 0.1795
vn 0.7441 -0.4156 0.5230
vn 0.4459 -0.8384 0.3134
vn 0.1246 -0.9505 0.2848
vn 0.3642 -0.4169 0.8328
vn 0.2180 -0.8391 0.4983
vn 0.2307 -0.9497 0.2115
vn 0.6707 -0.4148 0.6149
vn 0.4024 -0.8379 0.3689
vn 0.2618 -0.9499 0.1709
vn 0.7619 -0.4151 0.4972
vn 0.4569 -0.8381 0.2981
vn 0.1217 -0.9502 0.2868
vn 0.3550 -0.4162 0.8371
vn 0.2126 -0.8387 0.5013
vn 0.1369 -0.9497 0.2816
vn 0.3979 -0.4147 0.8183
vn 0.2387 -0.8378 0.4910
vn 0.1505 -0.9503 0.2727
vn 0.4395 -0.4163 0.7960
vn 0.2632 -0.8388 0.4766
vn 0.1841 -0.9503 0.2513
vn 0.5373 -0.4163 0.7335
vn 0.3218 -0.8388 0.4392
vn -0.1303 -0.9500 0.2837
vn -0.3796 -0.4156 0.8266
vn -0.2275 -0.8383 0.4954
vn -0.0846 -0.9499 0.3010
vn -0.2462 -0.4152 0.8758
vn -0.1476 -0.8381 0.5252
vn -0.0616 -0.9497 0.3070
vn -0.1791 -0.4147 0.8921
vn -0.1074 -0.8379 0.5352
vn 0.1819 -0.9503 0.2528
vn 0.5309 -0.4163 0.7381
vn 0.3179 -0.8388 0.4420
vn 0.0627 -0.9499 0.3063
vn 0.1825 -0.4152 0.8912
vn 0.1094 -0.8381 0.5344
vn 0.0639 -0.9499 0.3061
vn 0.1858 -0.4151 0.8906
vn 0.1114 -0.8381 0.5340
vn 0.2584 -0.9498 0.1766
vn 0.7512 -0.4148 0.5134
vn 0.4506 -0.8379 0.3080
vn 0.0274 -0.9501 0.3106
vn 0.0798 -0.4159 0.9059
vn 0.0478 -0.8386 0.5427
vn -0.1262 -0.9503 0.2846
vn -0.3684 -0.4165 0.8312
vn -0.2206 -0.8389 0.4976
vn 0.0324 -0.9505 0.3091
vn 0.0947 -0.4170 0.9040
vn 0.0567 -0.8392 0.5409
vn -0.0495 -0.9504 0.3072
vn -0.1446 -0.4166 0.8975
vn -0.0866 -0.8390 0.5372
vn 0.1873 -0.9504 0.2483
vn 0.5475 -0.4167 0.7256
vn 0.3277 -0.8390 0.4343
vn 0.0781 -0.9505 0.3008
vn 0.2285 -0.4170 0.8797
vn 0.1367 -0.8392 0.5264
vn 0.0619 -0.9503 0.3052
vn 0.1808 -0.4164 0.8910
vn 0.1083 -0.8388 0.5335
vn -0.1075 -0.9503 0.2920
vn -0.3140 -0.4166 0.8531
vn -0.1880 -0.8389 0.5107
vn 0.0176 -0.9497 0.3126
vn 0.0511 -0.4148 0.9085
vn 0.0307 -0.8379 0.5450
vn 0.1800 -0.9501 0.2548
vn 0.5248 -0.4158 0.7428
vn 0.3145 -0.8385 0.4451
vn -0.1323 -0.9497 0.2837
vn -0.3846 -0.4148 0.8246
vn -0.2307 -0.8379 0.4947
vn 0.1329 -0.9503 0.2816
vn 0.3880 -0.4163 0.8223
vn 0.2324 -0.8388 0.4924
vn 0.2478 -0.9497 0.1914
vn 0.7203 -0.4147 0.5561
vn 0.4321 -0.8378 0.3336
vn 0.0168 -0.9505 0.3104
vn 0.0490 -0.4169 0.9076
vn 0.0293 -0.8391 0.5431
vn 0.1241 -0.9501 0.2861
vn 0.3620 -0.4159 0.8343
vn 0.2169 -0.8385 0.4998
vn -0.0020 -0.9503 0.3115
vn -0.0059 -0.4163 0.9092
vn -0.0035 -0.8388 0.5445
vn -0.1548 -0.9500 0.2713
vn -0.4507 -0.4155 0.7901
vn -0.2702 -0.8383 0.4736
vn -0.0909 -0.9504 0.2974
vn -0.2658 -0.4168 0.8693
vn -0.1591 -0.8391 0.5203
vn -0.0738 -0.9497 0.3043
vn -0.2144 -0.4147 0.8843
vn -0.1286 -0.8378 0.5306
vn -0.0449 -0.9502 0.3083
vn -0.1311 -0.4162 0.8998
vn -0.0785 -0.8387 0.5389
vn 0.1770 -0.9498 0.2581
vn 0.5146 -0.4149 0.7504
vn 0.3087 -0.8379 0.4501
vn -0.0504 -0.9499 0.3085
vn -0.1467 -0.4152 0.8978
vn -0.0879 -0.8381 0.5384
vn -0.1348 -0.9503 0.2806
vn -0.3936 -0.4165 0.8195
vn -0.2356 -0.8389 0.4906
vt 0.000000 0.360284
vt 1.000000 0.360283
vt 1.000000 0.026950
vt 0.000000 0.026950
vt 0.000000 1.026950
vt 1.000000 1.026950
vt 1.000000 0.693617
vt 0.000000 0.693617
s 0
f 1/1/1 2/2/1 3/3/1
f 1/1/1 3/3/1 4/4/1
f 5/5/2 6/6/2 7/7/2
f 5/5/2 7/7/2 8/8/2
s 1
f 9/8/3 10/7/3 11/2/3
s 0
f 9/8/3 11/2/3 12/1/3
f 13/1/4 14/2/4 15/3/4
f 13/1/4 15/3/4 16/4/4
f 17/5/5 18/6/5 19/7/5
f 17/5/5 19/7/5 20/8/5
s 1
f 21/8/6 22/7/6 23/2/6
s 0
f 21/8/6 23/2/6 24/1/6
f 25/1/7 26/2/7 27/3/7
f 25/1/7 27/3/7 28/4/7
f 29/5/8 30/6/8 31/7/8
f 29/5/8 31/7/8 32/8/8
s 1
f 33/8/9 34/7/9 35/2/9
s 0
f 33/8/9 35/2/9 36/1/9
f 37/1/10 38/2/10 39/3/10
f 37/1/10 39/3/10 40/4/10
f 41/5/11 42/6/11 43/7/11
f 41/5/11 43/7/11 44/8/11
s 1
f 45/8/12 46/7/12 47/2/12
s 0
f 45/8/12 47/2/12 48/1/12
f 49/1/13 50/2/13 51/3/13
f 49/1/13 51/3/13 52/4/13
f 53/5/14 54/6/14 55/7/14
f 53/5/14 55/7/14 56/8/14
s 1
f 57/8/15 58/7/15 59/2/15
s 0
f 57/8/15 59/2/15 60/1/15
f 61/1/16 62/2/16 63/3/16
f 61/1/16 63/3/16 64/4/16
f 65/5/17 66/6/17 67/7/17
f 65/5/17 67/7/17 68/8/17
s 1
f 69/8/18 70/7/18 71/2/18
s 0
f 69/8/18 71/2/18 72/1/18
f 73/1/19 74/2/19 75/3/19
f 73/1/19 75/3/19 76/4/19
f 77/5/20 78/6/20 79/7/20
f 77/5/20 79/7/20 80/8/20
s 1
f 81/8/21 82/7/21 83/2/21
s 0
f 81/8/21 83/2/21 84/1/21
f 85/1/22 86/2/22 87/3/22
f 85/1/22 87/3/22 88/4/22
f 89/5/23 90/6/23 91/7/23
f 89/5/23 91/7/23 92/8/23
s 1
f 93/8/24 94/7/24 95/2/24
s 0
f 93/8/24 95/2/24 96/1/24
f 97/1/25 98/2/25 99/3/25
f 97/1/25 99/3/25 100/4/25
f 101/5/26 102/6/26 103/7/26
f 101/5/26 103/7/26 104/8/26
s 1
f 105/8/27 106/7/27 107/2/27
s 0
f 105/8/27 107/2/27 108/1/27
f 109/1/28 110/2/28 111/3/28
f 109/1/28 111/3/28 112/4/28
f 113/5/29 114/6/29 115/7/29
f 113/5/29 115/7/29 116/8/29
s 1
f 117/8/30 118/7/30 119/2/30
s 0
f 117/8/30 119/2/30 120/1/30
f 121/1/31 122/2/31 123/3/31
f 121/1/31 123/3/31 124/4/31
f 125/5/32 126/6/32 127/7/32
f 125/5/32 127/7/32 128/8/32
s 1
f 129/8/33 130/7/33 131/2/33
s 0
f 129/8/33 131/2/33 132/1/33
f 133/1/34 134/2/34 135/3/34
f 133/1/34 135/3/34 136/4/34
f 137/5/35 138/6/35 139/7/35
f 137/5/35 139/7/35 140/8/35
s 1
f 141/8/36 142/7/36 143/2/36
s 0
f 141/8/36 143/2/36 144/1/36
f 145/1/37 146/2/37 147/3/37
f 145/1/37 147/3/37 148/4/37
f 149/5/38 150/6/38 151/7/38
f 149/5/38 151/7/38 152/8/38
s 1
f 153/8/39 154/7/39 155/2/39
s 0
f 153/8/39 155/2/39 156/1/39
f 157/1/40 158/2/40 159/3/40
f 157/1/40 159/3/40 160/4/40
f 161/5/41 162/6/41 163/7/41
f 161/5/41 163/7/41 164/8/41
s 1
f 165/8/42 166/7/42 167/2/42
s 0
f 165/8/42 167/2/42 168/1/42
f 169/1/43 170/2/43 171/3/43
f 169/1/43 171/3/43 172/4/43
f 173/5/44 174/6/44 175/7/44
f 173/5/44 175/7/44 176/8/44
s 1
f 177/8/45 178/7/45 179/2/45
s 0
f 177/8/45 179/2/45 180/1/45
f 181/1/46 182/2/46 183/3/46
f 181/1/46 183/3/46 184/4/46
f 185/5/47 186/6/47 187/7/47
f 185/5/47 187/7/47 188/8/47
s 1
f 189/8/48 190/7/48 191/2/48
s 0
f 189/8/48 191/2/48 192/1/48
f 193/1/49 194/2/49 195/3/49
f 193/1/49 195/3/49 196/4/49
f 197/5/50 198/6/50 199/7/50
f 197/5/50 199/7/50 200/8/50
s 1
f 201/8/51 202/7/51 203/2/51
s 0
f 201/8/51 203/2/51 204/1/51
f 205/1/52 206/2/52 207/3/52
f 205/1/52 207/3/52 208/4/52
f 209/5/53 210/6/53 211/7/53
f 209/5/53 211/7/53 212/8/53
s 1
f 213/8/54 214/7/54 215/2/54
s 0
f 213/8/54 215/2/54 216/1/54
f 217/1/55 218/2/55 219/3/55
f 217/1/55 219/3/55 220/4/55
f 221/5/56 222/6/56 223/7/56
f 221/5/56 223/7/56 224/8/56
s 1
f 225/8/57 226/7/57 227/2/57
s 0
f 225/8/57 227/2/57 228/1/57
f 229/1/58 230/2/58 231/3/58
f 229/1/58 231/3/58 232/4/58
f 233/5/59 234/6/59 235/7/59
f 233/5/59 235/7/59 236/8/59
s 1
f 237/8/60 238/7/60 239/2/60
s 0
f 237/8/60 239/2/60 240/1/60
f 241/1/61 242/2/61 243/3/61
f 241/1/61 243/3/61 244/4/61
f 245/5/62 246/6/62 247/7/62
f 245/5/62 247/7/62 248/8/62
s 1
f 249/8/63 250/7/63 251/2/63
s 0
f 249/8/63 251/2/63 252/1/63
f 253/1/64 254/2/64 255/3/64
f 253/1/64 255/3/64 256/4/64
f 257/5/65 258/6/65 259/7/65
f 257/5/65 259/7/65 260/8/65
s 1
f 261/8/66 262/7/66 263/2/66
s 0
f 261/8/66 263/2/66 264/1/66
f 265/1/67 266/2/67 267/3/67
f 265/1/67 267/3/67 268/4/67
f 269/5/68 270/6/68 271/7/68
f 269/5/68 271/7/68 272/8/68
s 1
f 273/8/69 274/7/69 275/2/69
s 0
f 273/8/69 275/2/69 276/1/69
f 277/1/70 278/2/70 279/3/70
f 277/1/70 279/3/70 280/4/70
f 281/5/71 282/6/71 283/7/71
f 281/5/71 283/7/71 284/8/71
s 1
f 285/8/72 286/7/72 287/2/72
s 0
f 285/8/72 287/2/72 288/1/72
f 289/1/73 290/2/73 291/3/73
f 289/1/73 291/3/73 292/4/73
f 293/5/74 294/6/74 295/7/74
f 293/5/74 295/7/74 296/8/74
s 1
f 297/8/75 298/7/75 299/2/75
s 0
f 297/8/75 299/2/75 300/1/75
f 301/1/76 302/2/76 303/3/76
f 301/1/76 303/3/76 304/4/76
f 305/5/77 306/6/77 307/7/77
f 305/5/77 307/7/77 308/8/77
s 1
f 309/8/78 310/7/78 311/2/78
s 0
f 309/8/78 311/2/78 312/1/78
f 313/1/79 314/2/79 315/3/79
f 313/1/79 315/3/79 316/4/79
f 317/5/80 318/6/80 319/7/80
f 317/5/80 319/7/80 320/8/80
s 1
f 321/8/81 322/7/81 323/2/81
s 0
f 321/8/81 323/2/81 324/1/81
f 325/1/82 326/2/82 327/3/82
f 325/1/82 327/3/82 328/4/82
f 329/5/83 330/6/83 331/7/83
f 329/5/83 331/7/83 332/8/83
s 1
f 333/8/84 334/7/84 335/2/84
s 0
f 333/8/84 335/2/84 336/1/84
f 337/1/85 338/2/85 339/3/85
f 337/1/85 339/3/85 340/4/85
f 341/5/86 342/6/86 343/7/86
f 341/5/86 343/7/86 344/8/86
s 1
f 345/8/87 346/7/87 347/2/87
s 0
f 345/8/87 347/2/87 348/1/87
f 349/1/88 350/2/88 351/3/88
f 349/1/88 351/3/88 352/4/88
f 353/5/89 354/6/89 355/7/89
f 353/5/89 355/7/89 356/8/89
s 1
f 357/8/90 358/7/90 359/2/90
s 0
f 357/8/90 359/2/90 360/1/90
f 361/1/91 362/2/91 363/3/91
f 361/1/91 363/3/91 364/4/91
f 365/5/92 366/6/92 367/7/92
f 365/5/92 367/7/92 368/8/92
s 1
f 369/8/93 370/7/93 371/2/93
s 0
f 369/8/93 371/2/93 372/1/93
f 373/1/94 374/2/94 375/3/94
f 373/1/94 375/3/94 376/4/94
f 377/5/95 378/6/95 379/7/95
f 377/5/95 379/7/95 380/8/95
s 1
f 381/8/96 382/7/96 383/2/96
s 0
f 381/8/96 383/2/96 384/1/96
f 385/1/97 386/2/97 387/3/97
f 385/1/97 387/3/97 388/4/97
f 389/5/98 390/6/98 391/7/98
f 389/5/98 391/7/98 392/8/98
s 1
f 393/8/99 394/7/99 395/2/99
s 0
f 393/8/99 395/2/99 396/1/99
f 397/1/100 398/2/100 399/3/100
f 397/1/100 399/3/100 400/4/100
f 401/5/101 402/6/101 403/7/101
f 401/5/101 403/7/101 404/8/101
s 1
f 405/8/102 406/7/102 407/2/102
s 0
f 405/8/102 407/2/102 408/1/102
f 409/1/103 410/2/103 411/3/103
f 409/1/103 411/3/103 412/4/103
f 413/5/104 414/6/104 415/7/104
f 413/5/104 415/7/104 416/8/104
s 1
f 417/8/105 418/7/105 419/2/105
s 0
f 417/8/105 419/2/105 420/1/105
f 421/1/106 422/2/106 423/3/106
f 421/1/106 423/3/106 424/4/106
f 425/5/107 426/6/107 427/7/107
f 425/5/107 427/7/107 428/8/107
s 1
f 429/8/108 430/7/108 431/2/108
s 0
f 429/8/108 431/2/108 432/1/108
f 433/1/109 434/2/109 435/3/109
f 433/1/109 435/3/109 436/4/109
f 437/5/110 438/6/110 439/7/110
f 437/5/110 439/7/110 440/8/110
s 1
f 441/8/111 442/7/111 443/2/111
s 0
f 441/8/111 443/2/111 444/1/111
f 445/1/112 446/2/112 447/3/112
f 445/1/112 447/3/112 448/4/112
f 449/5/113 450/6/113 451/7/113
f 449/5/113 451/7/113 452/8/113
s 1
f 453/8/114 454/7/114 455/2/114
s 0
f 453/8/114 455/2/114 456/1/114
f 457/1/115 458/2/115 459/3/115
f 457/1/115 459/3/115 460/4/115
f 461/5/116 462/6/116 463/7/116
f 461/5/116 463/7/116 464/8/116
s 1
f 465/8/117 466/7/117 467/2/117
s 0
f 465/8/117 467/2/117 468/1/117
f 469/1/118 470/2/118 471/3/118
f 469/1/118 471/3/118 472/4/118
f 473/5/119 474/6/119 475/7/119
f 473/5/119 475/7/119 476/8/119
s 1
f 477/8/120 478/7/120 479/2/120
s 0
f 477/8/120 479/2/120 480/1/120
