# Blender 5.1.1
# www.blender.org
mtllib grass3.mtl
o grass3
v -0.658741 0.612209 0.795860
v -0.574277 0.612209 0.744597
v -0.564573 0.617983 0.759279
v -0.649038 0.617983 0.810541
v -0.665820 0.595394 0.782399
v -0.581356 0.595394 0.731136
v -0.579462 0.605282 0.735275
v -0.663927 0.605282 0.786538
v -0.663927 0.605282 0.786538
v -0.579462 0.605282 0.735275
v -0.574277 0.612209 0.744597
v -0.658741 0.612209 0.795860
v -0.615930 0.612175 0.788989
v -0.557626 0.612175 0.709222
v -0.543025 0.617931 0.719055
v -0.601329 0.617931 0.798822
v -0.627650 0.595375 0.779268
v -0.569345 0.595375 0.699501
v -0.566000 0.605258 0.702602
v -0.624304 0.605258 0.782369
v -0.624304 0.605258 0.782369
v -0.566000 0.605258 0.702602
v -0.557626 0.612175 0.709222
v -0.615930 0.612175 0.788989
v -0.616805 0.612213 0.747260
v -0.585395 0.612213 0.653582
v -0.568508 0.617991 0.658530
v -0.599918 0.617991 0.752208
v -0.630899 0.595395 0.741551
v -0.599488 0.595395 0.647873
v -0.595372 0.605284 0.649811
v -0.626783 0.605284 0.743489
v -0.626783 0.605284 0.743489
v -0.595372 0.605284 0.649811
v -0.585395 0.612213 0.653582
v -0.616805 0.612213 0.747260
v -0.624064 0.612191 0.738733
v -0.548587 0.612191 0.674972
v -0.536717 0.617944 0.687973
v -0.612193 0.617944 0.751734
v -0.633161 0.595394 0.726519
v -0.557684 0.595394 0.662758
v -0.555163 0.605276 0.666562
v -0.630640 0.605276 0.730323
v -0.630640 0.605276 0.730323
v -0.555163 0.605276 0.666562
v -0.548587 0.612191 0.674972
v -0.624064 0.612191 0.738733
v -0.702174 0.612207 0.829852
v -0.658946 0.612207 0.741007
v -0.642842 0.618001 0.748088
v -0.686071 0.618001 0.836933
v -0.715400 0.595376 0.822380
v -0.672171 0.595375 0.733535
v -0.668348 0.605268 0.735984
v -0.711576 0.605268 0.824829
v -0.711576 0.605268 0.824829
v -0.668348 0.605268 0.735984
v -0.658946 0.612207 0.741007
v -0.702174 0.612207 0.829852
v -0.629194 0.612232 0.731487
v -0.601030 0.612232 0.636783
v -0.583986 0.618019 0.641144
v -0.612149 0.618019 0.735849
v -0.643467 0.595405 0.726270
v -0.615303 0.595405 0.631565
v -0.611128 0.605296 0.633359
v -0.639291 0.605296 0.728064
v -0.639291 0.605296 0.728064
v -0.611128 0.605296 0.633359
v -0.601030 0.612232 0.636783
v -0.629194 0.612232 0.731487
v -0.737649 0.612211 0.769056
v -0.661465 0.612211 0.706141
v -0.649744 0.617977 0.719270
v -0.725927 0.617977 0.782185
v -0.746601 0.595403 0.756751
v -0.670418 0.595403 0.693836
v -0.667944 0.605288 0.697662
v -0.744127 0.605288 0.760578
v -0.744127 0.605288 0.760578
v -0.667944 0.605288 0.697662
v -0.661465 0.612211 0.706141
v -0.737649 0.612211 0.769056
v -0.664635 0.612227 0.720214
v -0.591784 0.612227 0.653469
v -0.579410 0.618022 0.665972
v -0.652261 0.618022 0.732717
v -0.674189 0.595394 0.708405
v -0.601338 0.595394 0.641660
v -0.598682 0.605287 0.645343
v -0.671533 0.605287 0.712088
v -0.671533 0.605287 0.712088
v -0.598682 0.605287 0.645343
v -0.591784 0.612227 0.653469
v -0.664635 0.612227 0.720214
v -0.725188 0.612204 0.760086
v -0.655900 0.612204 0.689649
v -0.642887 0.617969 0.701500
v -0.712175 0.617969 0.771936
v -0.735363 0.595397 0.748769
v -0.666075 0.595397 0.678332
v -0.663219 0.605283 0.681884
v -0.732507 0.605283 0.752320
v -0.732507 0.605283 0.752320
v -0.663219 0.605283 0.681884
v -0.655900 0.612204 0.689649
v -0.725188 0.612204 0.760086
v -0.720778 0.612192 0.795339
v -0.661033 0.612192 0.716645
v -0.646615 0.617957 0.726740
v -0.706360 0.617957 0.805434
v -0.732312 0.595385 0.785412
v -0.672567 0.595385 0.706718
v -0.669282 0.605270 0.709876
v -0.729027 0.605270 0.788570
v -0.729027 0.605270 0.788570
v -0.669282 0.605270 0.709876
v -0.661033 0.612192 0.716645
v -0.720778 0.612192 0.795339
v -0.687510 0.612219 0.719109
v -0.589692 0.612219 0.733031
v -0.591499 0.617997 0.750535
v -0.689317 0.617997 0.736613
v -0.684449 0.595400 0.704216
v -0.586631 0.595400 0.718138
v -0.587791 0.605289 0.722537
v -0.685609 0.605289 0.708615
v -0.685609 0.605289 0.708615
v -0.587791 0.605289 0.722537
v -0.589692 0.612219 0.733031
v -0.687510 0.612219 0.719109
v -0.729101 0.612220 0.690807
v -0.630308 0.612220 0.689311
v -0.629364 0.618007 0.706880
v -0.728157 0.618007 0.708375
v -0.728398 0.595394 0.675626
v -0.629605 0.595394 0.674131
v -0.630066 0.605285 0.678652
v -0.728859 0.605285 0.680147
v -0.728859 0.605285 0.680147
v -0.630066 0.605285 0.678652
v -0.630308 0.612220 0.689311
v -0.729101 0.612220 0.690807
v -0.784803 0.612224 0.688436
v -0.686409 0.612224 0.679454
v -0.684135 0.618019 0.696898
v -0.782530 0.618019 0.705880
v -0.785253 0.595391 0.673253
v -0.686858 0.595391 0.664271
v -0.686975 0.605284 0.668810
v -0.785370 0.605284 0.677792
v -0.785370 0.605284 0.677792
v -0.686975 0.605284 0.668810
v -0.686409 0.612224 0.679454
v -0.784803 0.612224 0.688436
v -0.723523 0.612199 0.710849
v -0.663096 0.612199 0.632678
v -0.648766 0.617963 0.642898
v -0.709193 0.617963 0.721069
v -0.734970 0.595392 0.700822
v -0.674543 0.595392 0.622650
v -0.671286 0.605277 0.625837
v -0.731713 0.605277 0.704009
v -0.731713 0.605277 0.704009
v -0.671286 0.605277 0.625837
v -0.663096 0.612199 0.632678
v -0.723523 0.612199 0.710849
v -0.774838 0.612223 0.705502
v -0.687714 0.612223 0.658903
v -0.678824 0.618009 0.674086
v -0.765949 0.618009 0.720685
v -0.781170 0.595397 0.691686
v -0.694045 0.595397 0.645088
v -0.692383 0.605288 0.649318
v -0.779508 0.605288 0.695916
v -0.779508 0.605288 0.695916
v -0.692383 0.605288 0.649318
v -0.687714 0.612223 0.658903
v -0.774838 0.612223 0.705502
v -0.797420 0.612220 0.700723
v -0.710467 0.612220 0.653804
v -0.701522 0.618007 0.668954
v -0.788475 0.618007 0.715873
v -0.803802 0.595393 0.686932
v -0.716850 0.595393 0.640013
v -0.715172 0.605284 0.644236
v -0.802125 0.605284 0.691155
v -0.802125 0.605284 0.691155
v -0.715172 0.605284 0.644236
v -0.710467 0.612220 0.653804
v -0.797420 0.612220 0.700723
v -0.757466 0.612214 0.733719
v -0.727286 0.612214 0.639637
v -0.710340 0.618007 0.644361
v -0.740521 0.618007 0.738443
v -0.771619 0.595383 0.728199
v -0.741439 0.595383 0.634118
v -0.737306 0.605275 0.635999
v -0.767486 0.605275 0.730081
v -0.767486 0.605275 0.730081
v -0.737306 0.605275 0.635999
v -0.727286 0.612214 0.639637
v -0.757466 0.612214 0.733719
v -0.811473 0.612205 0.698436
v -0.719607 0.612205 0.662064
v -0.712503 0.617977 0.678165
v -0.804369 0.617977 0.714537
v -0.816195 0.595392 0.683976
v -0.724329 0.595392 0.647604
v -0.723157 0.605279 0.652003
v -0.815022 0.605279 0.688375
v -0.815022 0.605279 0.688375
v -0.723157 0.605279 0.652003
v -0.719607 0.612205 0.662064
v -0.811473 0.612205 0.698436
v -0.732046 0.612189 0.655906
v -0.634052 0.612189 0.668529
v -0.635627 0.617951 0.686060
v -0.733621 0.617951 0.673437
v -0.729181 0.595384 0.640957
v -0.631187 0.595384 0.653580
v -0.632290 0.605269 0.658003
v -0.730284 0.605269 0.645380
v -0.730284 0.605269 0.645380
v -0.632290 0.605269 0.658003
v -0.634052 0.612189 0.668529
v -0.732046 0.612189 0.655906
v -0.857136 0.612201 0.667953
v -0.765884 0.612201 0.630066
v -0.758513 0.617953 0.646054
v -0.849764 0.617953 0.683940
v -0.862104 0.595405 0.653555
v -0.770852 0.595405 0.615669
v -0.769603 0.605287 0.620059
v -0.860854 0.605287 0.657945
v -0.860854 0.605287 0.657945
v -0.769603 0.605287 0.620059
v -0.765884 0.612201 0.630066
v -0.857136 0.612201 0.667953
v -0.768434 0.612209 0.610711
v -0.670456 0.612209 0.597965
v -0.667515 0.617968 0.615321
v -0.765493 0.617968 0.628067
v -0.769470 0.595408 0.595522
v -0.671491 0.595408 0.582777
v -0.671432 0.605291 0.587337
v -0.769410 0.605291 0.600082
v -0.769410 0.605291 0.600082
v -0.671432 0.605291 0.587337
v -0.670456 0.612209 0.597965
v -0.768434 0.612209 0.610711
v -0.783014 0.612206 0.631361
v -0.724386 0.612206 0.551832
v -0.709825 0.617962 0.561725
v -0.768453 0.617962 0.641254
v -0.794694 0.595406 0.621593
v -0.736066 0.595406 0.542064
v -0.732733 0.605289 0.545178
v -0.791361 0.605289 0.624707
v -0.791361 0.605289 0.624707
v -0.732733 0.605289 0.545178
v -0.724386 0.612206 0.551832
v -0.783014 0.612206 0.631361
v -0.846406 0.612167 0.678747
v -0.761827 0.612167 0.627674
v -0.752153 0.617918 0.642383
v -0.836732 0.617918 0.693457
v -0.853466 0.595371 0.665252
v -0.768887 0.595371 0.614178
v -0.766996 0.605253 0.618333
v -0.851575 0.605253 0.669406
v -0.851575 0.605253 0.669406
v -0.766996 0.605253 0.618333
v -0.761827 0.612167 0.627674
v -0.846406 0.612167 0.678747
v -0.838709 0.612210 0.618158
v -0.751501 0.612210 0.571715
v -0.742635 0.617973 0.586921
v -0.829843 0.617973 0.633363
v -0.845026 0.595404 0.604311
v -0.757818 0.595404 0.557869
v -0.756158 0.605289 0.562113
v -0.843366 0.605289 0.608556
v -0.843366 0.605289 0.608556
v -0.756158 0.605289 0.562113
v -0.751501 0.612210 0.571715
v -0.838709 0.612210 0.618158
v -0.866700 0.612208 0.576324
v -0.768095 0.612208 0.582598
v -0.768536 0.617968 0.600195
v -0.867140 0.617968 0.593921
v -0.864804 0.595406 0.561219
v -0.766200 0.595406 0.567494
v -0.767015 0.605290 0.571980
v -0.865620 0.605290 0.565706
v -0.865620 0.605290 0.565706
v -0.767015 0.605290 0.571980
v -0.768095 0.612208 0.582598
v -0.866700 0.612208 0.576324
v -0.831882 0.612211 0.587833
v -0.738913 0.612211 0.554384
v -0.732324 0.618005 0.570695
v -0.825294 0.618005 0.604144
v -0.836138 0.595378 0.573252
v -0.743168 0.595378 0.539803
v -0.742139 0.605271 0.544225
v -0.835109 0.605271 0.577674
v -0.835109 0.605271 0.577674
v -0.742139 0.605271 0.544225
v -0.738913 0.612211 0.554384
v -0.831882 0.612211 0.587833
v -0.830187 0.612210 0.629360
v -0.769097 0.612210 0.551705
v -0.754858 0.617985 0.562045
v -0.815947 0.617985 0.639699
v -0.841541 0.595394 0.619241
v -0.780451 0.595394 0.541587
v -0.777226 0.605282 0.544797
v -0.838315 0.605282 0.622452
v -0.838315 0.605282 0.622452
v -0.777226 0.605282 0.544797
v -0.769097 0.612210 0.551705
v -0.830187 0.612210 0.629360
v -0.892627 0.612237 0.569912
v -0.794893 0.612237 0.584406
v -0.796801 0.618031 0.601894
v -0.894536 0.618031 0.587400
v -0.889481 0.595405 0.555051
v -0.791746 0.595405 0.569545
v -0.792931 0.605297 0.573929
v -0.890666 0.605297 0.559435
v -0.890666 0.605297 0.559435
v -0.792931 0.605297 0.573929
v -0.794893 0.612237 0.584406
v -0.892627 0.612237 0.569912
v -0.875102 0.612211 0.601048
v -0.801482 0.612211 0.535153
v -0.789247 0.617976 0.547806
v -0.862867 0.617976 0.613702
v -0.884538 0.595405 0.589108
v -0.810917 0.595405 0.523213
v -0.808293 0.605290 0.526939
v -0.881914 0.605290 0.592834
v -0.881914 0.605290 0.592834
v -0.808293 0.605290 0.526939
v -0.801482 0.612211 0.535153
v -0.875102 0.612211 0.601048
v -0.821373 0.612203 0.532391
v -0.785796 0.612203 0.440215
v -0.769153 0.617999 0.445912
v -0.804730 0.617999 0.538088
v -0.835180 0.595370 0.526062
v -0.799603 0.595370 0.433886
v -0.795587 0.605263 0.436003
v -0.831164 0.605263 0.528179
v -0.831164 0.605263 0.528179
v -0.795587 0.605263 0.436003
v -0.785796 0.612203 0.440215
v -0.821373 0.612203 0.532391
v -0.848182 0.612175 0.574845
v -0.755136 0.612175 0.541608
v -0.748580 0.617928 0.557946
v -0.841626 0.617928 0.591183
v -0.852417 0.595378 0.560217
v -0.759371 0.595378 0.526980
v -0.758345 0.605260 0.531426
v -0.851391 0.605260 0.564663
v -0.851391 0.605260 0.564663
v -0.758345 0.605260 0.531426
v -0.755136 0.612175 0.541608
v -0.848182 0.612175 0.574845
v -0.888041 0.612207 0.601935
v -0.812379 0.612207 0.538394
v -0.800551 0.617980 0.551425
v -0.876213 0.617980 0.614966
v -0.897091 0.595394 0.589709
v -0.821429 0.595394 0.526168
v -0.818926 0.605281 0.529971
v -0.894588 0.605281 0.593512
v -0.894588 0.605281 0.593512
v -0.818926 0.605281 0.529971
v -0.812379 0.612207 0.538394
v -0.888041 0.612207 0.601935
v -0.903639 0.612201 0.557075
v -0.808755 0.612201 0.529520
v -0.803199 0.617966 0.546221
v -0.898083 0.617966 0.573776
v -0.906979 0.595393 0.542228
v -0.812096 0.595393 0.514673
v -0.811342 0.605279 0.519167
v -0.906225 0.605279 0.546722
v -0.906225 0.605279 0.546722
v -0.811342 0.605279 0.519167
v -0.808755 0.612201 0.529520
v -0.903639 0.612201 0.557075
v -0.840663 0.612216 0.534913
v -0.744446 0.612216 0.557372
v -0.747782 0.617997 0.574649
v -0.844000 0.617997 0.552190
v -0.836306 0.595396 0.520348
v -0.740088 0.595396 0.542807
v -0.741630 0.605285 0.547086
v -0.837848 0.605285 0.524627
v -0.837848 0.605285 0.524627
v -0.741630 0.605285 0.547086
v -0.744446 0.612216 0.557372
v -0.840663 0.612216 0.534913
v -0.931352 0.612205 0.510148
v -0.832551 0.612205 0.510894
v -0.832006 0.617960 0.528490
v -0.930807 0.617960 0.527744
v -0.930305 0.595406 0.494957
v -0.831504 0.595406 0.495703
v -0.832067 0.605289 0.500230
v -0.930868 0.605289 0.499484
v -0.930868 0.605289 0.499484
v -0.832067 0.605289 0.500230
v -0.832551 0.612205 0.510894
v -0.931352 0.612205 0.510148
v -0.918195 0.612245 0.530327
v -0.819522 0.612245 0.525262
v -0.817943 0.618040 0.542781
v -0.916617 0.618040 0.547847
v -0.918041 0.595411 0.515140
v -0.819368 0.595411 0.510074
v -0.819665 0.605304 0.514604
v -0.918339 0.605304 0.519670
v -0.918339 0.605304 0.519670
v -0.819665 0.605304 0.514604
v -0.819522 0.612245 0.525262
v -0.918195 0.612245 0.530327
v -0.969324 0.612202 0.525358
v -0.871550 0.612202 0.511133
v -0.868347 0.617968 0.528440
v -0.966121 0.617968 0.542665
v -0.970588 0.595393 0.510195
v -0.872814 0.595393 0.495970
v -0.872686 0.605279 0.500524
v -0.970460 0.605279 0.514749
v -0.970460 0.605279 0.514749
v -0.872686 0.605279 0.500524
v -0.871550 0.612202 0.511133
v -0.969324 0.612202 0.525358
v -0.922772 0.612225 0.566679
v -0.860605 0.612225 0.489884
v -0.846515 0.618017 0.500418
v -0.908682 0.618017 0.577212
v -0.933970 0.595394 0.556414
v -0.871803 0.595394 0.479619
v -0.868630 0.605286 0.482868
v -0.930797 0.605286 0.559663
v -0.930797 0.605286 0.559663
v -0.868630 0.605286 0.482868
v -0.860605 0.612225 0.489884
v -0.922772 0.612225 0.566679
v -0.944587 0.612217 0.495885
v -0.846582 0.612217 0.483349
v -0.843679 0.618003 0.500702
v -0.941684 0.618003 0.513238
v -0.945587 0.595391 0.480720
v -0.847582 0.595391 0.468185
v -0.847534 0.605282 0.472729
v -0.945539 0.605282 0.485265
v -0.945539 0.605282 0.485265
v -0.847534 0.605282 0.472729
v -0.846582 0.612217 0.483349
v -0.944587 0.612217 0.495885
v -0.896629 0.612190 0.493951
v -0.799066 0.612190 0.509556
v -0.801175 0.617951 0.527032
v -0.898738 0.617951 0.511427
v -0.893309 0.595387 0.479096
v -0.795745 0.595387 0.494701
v -0.796983 0.605271 0.499089
v -0.894547 0.605271 0.483484
v -0.894547 0.605271 0.483484
v -0.796983 0.605271 0.499089
v -0.799066 0.612190 0.509556
v -0.896629 0.612190 0.493951
vn 0.1619 -0.9501 0.2667
vn 0.4719 -0.4158 0.7775
vn 0.2827 -0.8385 0.4658
vn 0.2511 -0.9504 0.1835
vn 0.7339 -0.4167 0.5364
vn 0.4392 -0.8390 0.3211
vn 0.2959 -0.9500 0.0992
vn 0.8623 -0.4156 0.2891
vn 0.5168 -0.8384 0.1733
vn 0.2006 -0.9505 0.2374
vn 0.5866 -0.4169 0.6943
vn 0.3510 -0.8391 0.4155
vn 0.2815 -0.9497 0.1369
vn 0.8182 -0.4148 0.3981
vn 0.4908 -0.8379 0.2388
vn 0.2997 -0.9499 0.0891
vn 0.8720 -0.4151 0.2593
vn 0.5229 -0.8381 0.1555
vn 0.1984 -0.9502 0.2402
vn 0.5790 -0.4162 0.7011
vn 0.3467 -0.8387 0.4199
vn 0.2115 -0.9497 0.2309
vn 0.6147 -0.4147 0.6709
vn 0.3688 -0.8378 0.4025
vn 0.2220 -0.9503 0.2184
vn 0.6482 -0.4163 0.6376
vn 0.3882 -0.8388 0.3818
vn 0.2481 -0.9503 0.1883
vn 0.7242 -0.4163 0.5498
vn 0.4337 -0.8388 0.3292
vn -0.0440 -0.9500 0.3091
vn -0.1282 -0.4156 0.9005
vn -0.0768 -0.8383 0.5397
vn 0.0047 -0.9499 0.3126
vn 0.0138 -0.4152 0.9096
vn 0.0083 -0.8381 0.5455
vn 0.0285 -0.9497 0.3118
vn 0.0827 -0.4147 0.9062
vn 0.0496 -0.8379 0.5436
vn 0.2464 -0.9503 0.1905
vn 0.7194 -0.4163 0.5561
vn 0.4308 -0.8388 0.3330
vn 0.1474 -0.9499 0.2757
vn 0.4291 -0.4152 0.8022
vn 0.2573 -0.8381 0.4810
vn 0.1485 -0.9499 0.2752
vn 0.4320 -0.4151 0.8006
vn 0.2591 -0.8381 0.4801
vn 0.2980 -0.9498 0.0956
vn 0.8664 -0.4148 0.2779
vn 0.5197 -0.8379 0.1667
vn 0.1148 -0.9501 0.2899
vn 0.3348 -0.4159 0.8455
vn 0.2006 -0.8386 0.5065
vn -0.0398 -0.9503 0.3088
vn -0.1162 -0.4165 0.9017
vn -0.0695 -0.8389 0.5399
vn 0.1192 -0.9505 0.2870
vn 0.3485 -0.4170 0.8395
vn 0.2085 -0.8392 0.5023
vn 0.0401 -0.9504 0.3085
vn 0.1173 -0.4166 0.9015
vn 0.0702 -0.8390 0.5396
vn 0.2503 -0.9504 0.1845
vn 0.7317 -0.4167 0.5394
vn 0.4379 -0.8390 0.3228
vn 0.1606 -0.9505 0.2660
vn 0.4698 -0.4170 0.7781
vn 0.2811 -0.8392 0.4655
vn 0.1464 -0.9503 0.2748
vn 0.4274 -0.4164 0.8025
vn 0.2559 -0.8388 0.4805
vn -0.0198 -0.9503 0.3106
vn -0.0577 -0.4166 0.9073
vn -0.0346 -0.8389 0.5431
vn 0.1060 -0.9497 0.2946
vn 0.3080 -0.4148 0.8562
vn 0.1848 -0.8379 0.5136
vn 0.2452 -0.9501 0.1929
vn 0.7148 -0.4158 0.5623
vn 0.4283 -0.8385 0.3369
vn -0.0459 -0.9497 0.3096
vn -0.1335 -0.4148 0.9001
vn -0.0801 -0.8379 0.5400
vn 0.2077 -0.9503 0.2321
vn 0.6064 -0.4163 0.6775
vn 0.3631 -0.8388 0.4057
vn 0.2921 -0.9497 0.1127
vn 0.8489 -0.4147 0.3277
vn 0.5093 -0.8378 0.1966
vn 0.1046 -0.9505 0.2927
vn 0.3058 -0.4169 0.8560
vn 0.1830 -0.8391 0.5122
vn 0.2006 -0.9501 0.2388
vn 0.5848 -0.4159 0.6964
vn 0.3504 -0.8385 0.4172
vn 0.0869 -0.9503 0.2991
vn 0.2536 -0.4163 0.8732
vn 0.1518 -0.8388 0.5229
vn -0.0710 -0.9500 0.3041
vn -0.2068 -0.4155 0.8858
vn -0.1239 -0.8383 0.5309
vn -0.0023 -0.9504 0.3109
vn -0.0069 -0.4168 0.9090
vn -0.0041 -0.8391 0.5440
vn 0.0161 -0.9497 0.3127
vn 0.0467 -0.4147 0.9088
vn 0.0280 -0.8378 0.5452
vn 0.0449 -0.9502 0.3083
vn 0.1309 -0.4162 0.8998
vn 0.0784 -0.8387 0.5389
vn 0.2433 -0.9498 0.1969
vn 0.7072 -0.4149 0.5725
vn 0.4242 -0.8379 0.3434
vn 0.0397 -0.9499 0.3101
vn 0.1154 -0.4152 0.9024
vn 0.0692 -0.8381 0.5411
vn -0.0492 -0.9503 0.3073
vn -0.1436 -0.4165 0.8977
vn -0.0860 -0.8389 0.5375
vt 0.000000 0.360284
vt 1.000000 0.360283
vt 1.000000 0.026950
vt 0.000000 0.026950
vt 0.000000 1.026950
vt 1.000000 1.026950
vt 1.000000 0.693617
vt 0.000000 0.693617
s 0
usemtl Plate3.001
f 1/1/1 2/2/1 3/3/1
f 1/1/1 3/3/1 4/4/1
f 5/5/2 6/6/2 7/7/2
f 5/5/2 7/7/2 8/8/2
s 1
f 9/8/3 10/7/3 11/2/3
s 0
f 9/8/3 11/2/3 12/1/3
f 13/1/4 14/2/4 15/3/4
f 13/1/4 15/3/4 16/4/4
f 17/5/5 18/6/5 19/7/5
f 17/5/5 19/7/5 20/8/5
s 1
f 21/8/6 22/7/6 23/2/6
s 0
f 21/8/6 23/2/6 24/1/6
f 25/1/7 26/2/7 27/3/7
f 25/1/7 27/3/7 28/4/7
f 29/5/8 30/6/8 31/7/8
f 29/5/8 31/7/8 32/8/8
s 1
f 33/8/9 34/7/9 35/2/9
s 0
f 33/8/9 35/2/9 36/1/9
f 37/1/10 38/2/10 39/3/10
f 37/1/10 39/3/10 40/4/10
f 41/5/11 42/6/11 43/7/11
f 41/5/11 43/7/11 44/8/11
s 1
f 45/8/12 46/7/12 47/2/12
s 0
f 45/8/12 47/2/12 48/1/12
f 49/1/13 50/2/13 51/3/13
f 49/1/13 51/3/13 52/4/13
f 53/5/14 54/6/14 55/7/14
f 53/5/14 55/7/14 56/8/14
s 1
f 57/8/15 58/7/15 59/2/15
s 0
f 57/8/15 59/2/15 60/1/15
f 61/1/16 62/2/16 63/3/16
f 61/1/16 63/3/16 64/4/16
f 65/5/17 66/6/17 67/7/17
f 65/5/17 67/7/17 68/8/17
s 1
f 69/8/18 70/7/18 71/2/18
s 0
f 69/8/18 71/2/18 72/1/18
f 73/1/19 74/2/19 75/3/19
f 73/1/19 75/3/19 76/4/19
f 77/5/20 78/6/20 79/7/20
f 77/5/20 79/7/20 80/8/20
s 1
f 81/8/21 82/7/21 83/2/21
s 0
f 81/8/21 83/2/21 84/1/21
f 85/1/22 86/2/22 87/3/22
f 85/1/22 87/3/22 88/4/22
f 89/5/23 90/6/23 91/7/23
f 89/5/23 91/7/23 92/8/23
s 1
f 93/8/24 94/7/24 95/2/24
s 0
f 93/8/24 95/2/24 96/1/24
f 97/1/25 98/2/25 99/3/25
f 97/1/25 99/3/25 100/4/25
f 101/5/26 102/6/26 103/7/26
f 101/5/26 103/7/26 104/8/26
s 1
f 105/8/27 106/7/27 107/2/27
s 0
f 105/8/27 107/2/27 108/1/27
f 109/1/28 110/2/28 111/3/28
f 109/1/28 111/3/28 112/4/28
f 113/5/29 114/6/29 115/7/29
f 113/5/29 115/7/29 116/8/29
s 1
f 117/8/30 118/7/30 119/2/30
s 0
f 117/8/30 119/2/30 120/1/30
f 121/1/31 122/2/31 123/3/31
f 121/1/31 123/3/31 124/4/31
f 125/5/32 126/6/32 127/7/32
f 125/5/32 127/7/32 128/8/32
s 1
f 129/8/33 130/7/33 131/2/33
s 0
f 129/8/33 131/2/33 132/1/33
f 133/1/34 134/2/34 135/3/34
f 133/1/34 135/3/34 136/4/34
f 137/5/35 138/6/35 139/7/35
f 137/5/35 139/7/35 140/8/35
s 1
f 141/8/36 142/7/36 143/2/36
s 0
f 141/8/36 143/2/36 144/1/36
f 145/1/37 146/2/37 147/3/37
f 145/1/37 147/3/37 148/4/37
f 149/5/38 150/6/38 151/7/38
f 149/5/38 151/7/38 152/8/38
s 1
f 153/8/39 154/7/39 155/2/39
s 0
f 153/8/39 155/2/39 156/1/39
f 157/1/40 158/2/40 159/3/40
f 157/1/40 159/3/40 160/4/40
f 161/5/41 162/6/41 163/7/41
f 161/5/41 163/7/41 164/8/41
s 1
f 165/8/42 166/7/42 167/2/42
s 0
f 165/8/42 167/2/42 168/1/42
f 169/1/43 170/2/43 171/3/43
f 169/1/43 171/3/43 172/4/43
f 173/5/44 174/6/44 175/7/44
f 173/5/44 175/7/44 176/8/44
s 1
f 177/8/45 178/7/45 179/2/45
s 0
f 177/8/45 179/2/45 180/1/45
f 181/1/46 182/2/46 183/3/46
f 181/1/46 183/3/46 184/4/46
f 185/5/47 186/6/47 187/7/47
f 185/5/47 187/7/47 188/8/47
s 1
f 189/8/48 190/7/48 191/2/48
s 0
f 189/8/48 191/2/48 192/1/48
f 193/1/49 194/2/49 195/3/49
f 193/1/49 195/3/49 196/4/49
f 197/5/50 198/6/50 199/7/50
f 197/5/50 199/7/50 200/8/50
s 1
f 201/8/51 202/7/51 203/2/51
s 0
f 201/8/51 203/2/51 204/1/51
f 205/1/52 206/2/52 207/3/52
f 205/1/52 207/3/52 208/4/52
f 209/5/53 210/6/53 211/7/53
f 209/5/53 211/7/53 212/8/53
s 1
f 213/8/54 214/7/54 215/2/54
s 0
f 213/8/54 215/2/54 216/1/54
f 217/1/55 218/2/55 219/3/55
f 217/1/55 219/3/55 220/4/55
f 221/5/56 222/6/56 223/7/56
f 221/5/56 223/7/56 224/8/56
s 1
f 225/8/57 226/7/57 227/2/57
s 0
f 225/8/57 227/2/57 228/1/57
f 229/1/58 230/2/58 231/3/58
f 229/1/58 231/3/58 232/4/58
f 233/5/59 234/6/59 235/7/59
f 233/5/59 235/7/59 236/8/59
s 1
f 237/8/60 238/7/60 239/2/60
s 0
f 237/8/60 239/2/60 240/1/60
f 241/1/61 242/2/61 243/3/61
f 241/1/61 243/3/61 244/4/61
f 245/5/62 246/6/62 247/7/62
f 245/5/62 247/7/62 248/8/62
s 1
f 249/8/63 250/7/63 251/2/63
s 0
f 249/8/63 251/2/63 252/1/63
f 253/1/64 254/2/64 255/3/64
f 253/1/64 255/3/64 256/4/64
f 257/5/65 258/6/65 259/7/65
f 257/5/65 259/7/65 260/8/65
s 1
f 261/8/66 262/7/66 263/2/66
s 0
f 261/8/66 263/2/66 264/1/66
f 265/1/67 266/2/67 267/3/67
f 265/1/67 267/3/67 268/4/67
f 269/5/68 270/6/68 271/7/68
f 269/5/68 271/7/68 272/8/68
s 1
f 273/8/69 274/7/69 275/2/69
s 0
f 273/8/69 275/2/69 276/1/69
f 277/1/70 278/2/70 279/3/70
f 277/1/70 279/3/70 280/4/70
f 281/5/71 282/6/71 283/7/71
f 281/5/71 283/7/71 284/8/71
s 1
f 285/8/72 286/7/72 287/2/72
s 0
f 285/8/72 287/2/72 288/1/72
f 289/1/73 290/2/73 291/3/73
f 289/1/73 291/3/73 292/4/73
f 293/5/74 294/6/74 295/7/74
f 293/5/74 295/7/74 296/8/74
s 1
f 297/8/75 298/7/75 299/2/75
s 0
f 297/8/75 299/2/75 300/1/75
f 301/1/76 302/2/76 303/3/76
f 301/1/76 303/3/76 304/4/76
f 305/5/77 306/6/77 307/7/77
f 305/5/77 307/7/77 308/8/77
s 1
f 309/8/78 310/7/78 311/2/78
s 0
f 309/8/78 311/2/78 312/1/78
f 313/1/79 314/2/79 315/3/79
f 313/1/79 315/3/79 316/4/79
f 317/5/80 318/6/80 319/7/80
f 317/5/80 319/7/80 320/8/80
s 1
f 321/8/81 322/7/81 323/2/81
s 0
f 321/8/81 323/2/81 324/1/81
f 325/1/82 326/2/82 327/3/82
f 325/1/82 327/3/82 328/4/82
f 329/5/83 330/6/83 331/7/83
f 329/5/83 331/7/83 332/8/83
s 1
f 333/8/84 334/7/84 335/2/84
s 0
f 333/8/84 335/2/84 336/1/84
f 337/1/85 338/2/85 339/3/85
f 337/1/85 339/3/85 340/4/85
f 341/5/86 342/6/86 343/7/86
f 341/5/86 343/7/86 344/8/86
s 1
f 345/8/87 346/7/87 347/2/87
s 0
f 345/8/87 347/2/87 348/1/87
f 349/1/88 350/2/88 351/3/88
f 349/1/88 351/3/88 352/4/88
f 353/5/89 354/6/89 355/7/89
f 353/5/89 355/7/89 356/8/89
s 1
f 357/8/90 358/7/90 359/2/90
s 0
f 357/8/90 359/2/90 360/1/90
f 361/1/91 362/2/91 363/3/91
f 361/1/91 363/3/91 364/4/91
f 365/5/92 366/6/92 367/7/92
f 365/5/92 367/7/92 368/8/92
s 1
f 369/8/93 370/7/93 371/2/93
s 0
f 369/8/93 371/2/93 372/1/93
f 373/1/94 374/2/94 375/3/94
f 373/1/94 375/3/94 376/4/94
f 377/5/95 378/6/95 379/7/95
f 377/5/95 379/7/95 380/8/95
s 1
f 381/8/96 382/7/96 383/2/96
s 0
f 381/8/96 383/2/96 384/1/96
f 385/1/97 386/2/97 387/3/97
f 385/1/97 387/3/97 388/4/97
f 389/5/98 390/6/98 391/7/98
f 389/5/98 391/7/98 392/8/98
s 1
f 393/8/99 394/7/99 395/2/99
s 0
f 393/8/99 395/2/99 396/1/99
f 397/1/100 398/2/100 399/3/100
f 397/1/100 399/3/100 400/4/100
f 401/5/101 402/6/101 403/7/101
f 401/5/101 403/7/101 404/8/101
s 1
f 405/8/102 406/7/102 407/2/102
s 0
f 405/8/102 407/2/102 408/1/102
f 409/1/103 410/2/103 411/3/103
f 409/1/103 411/3/103 412/4/103
f 413/5/104 414/6/104 415/7/104
f 413/5/104 415/7/104 416/8/104
s 1
f 417/8/105 418/7/105 419/2/105
s 0
f 417/8/105 419/2/105 420/1/105
f 421/1/106 422/2/106 423/3/106
f 421/1/106 423/3/106 424/4/106
f 425/5/107 426/6/107 427/7/107
f 425/5/107 427/7/107 428/8/107
s 1
f 429/8/108 430/7/108 431/2/108
s 0
f 429/8/108 431/2/108 432/1/108
f 433/1/109 434/2/109 435/3/109
f 433/1/109 435/3/109 436/4/109
f 437/5/110 438/6/110 439/7/110
f 437/5/110 439/7/110 440/8/110
s 1
f 441/8/111 442/7/111 443/2/111
s 0
f 441/8/111 443/2/111 444/1/111
f 445/1/112 446/2/112 447/3/112
f 445/1/112 447/3/112 448/4/112
f 449/5/113 450/6/113 451/7/113
f 449/5/113 451/7/113 452/8/113
s 1
f 453/8/114 454/7/114 455/2/114
s 0
f 453/8/114 455/2/114 456/1/114
f 457/1/115 458/2/115 459/3/115
f 457/1/115 459/3/115 460/4/115
f 461/5/116 462/6/116 463/7/116
f 461/5/116 463/7/116 464/8/116
s 1
f 465/8/117 466/7/117 467/2/117
s 0
f 465/8/117 467/2/117 468/1/117
f 469/1/118 470/2/118 471/3/118
f 469/1/118 471/3/118 472/4/118
f 473/5/119 474/6/119 475/7/119
f 473/5/119 475/7/119 476/8/119
s 1
f 477/8/120 478/7/120 479/2/120
s 0
f 477/8/120 479/2/120 480/1/120
