# Blender 5.1.1
# www.blender.org
o Plane.002
v -0.937371 0.941699 0.558261
v -0.937371 0.941699 0.570902
v -0.906169 0.941699 0.570902
v -0.906169 0.941699 0.558261
v -0.937371 0.941699 0.570902
v -0.935929 0.942593 0.570902
v -0.937262 0.942041 0.570902
v -0.936949 0.942331 0.570902
v -0.936481 0.942525 0.570902
v -0.907610 0.942593 0.570902
v -0.906169 0.941699 0.570902
v -0.907059 0.942525 0.570902
v -0.906591 0.942331 0.570902
v -0.906278 0.942041 0.570902
v -0.935929 0.942593 0.558261
v -0.937371 0.941699 0.558261
v -0.936481 0.942525 0.558261
v -0.936949 0.942331 0.558261
v -0.937262 0.942041 0.558261
v -0.906169 0.941699 0.558261
v -0.907610 0.942593 0.558261
v -0.906278 0.942041 0.558261
v -0.906591 0.942331 0.558261
v -0.907059 0.942525 0.558261
vn -0.0000 1.0000 -0.0000
vn -0.0000 0.7437 -0.6685
vn -0.0000 0.7437 0.6685
vn 0.6648 0.7470 -0.0000
vn 0.0160 -0.2593 -0.9657
vn 0.3233 -0.1931 -0.9264
vn 0.1641 -0.2502 -0.9542
vn 0.0700 -0.2628 -0.9623
vn -0.0160 -0.2593 -0.9657
vn -0.4064 0.4566 -0.7915
vn -0.0700 -0.2628 -0.9623
vn -0.1641 -0.2502 -0.9542
vn -0.3233 -0.1931 -0.9264
vn 0.0160 -0.2593 0.9657
vn 0.4064 0.4566 0.7915
vn 0.0700 -0.2628 0.9623
vn 0.1641 -0.2502 0.9542
vn 0.3233 -0.1931 0.9264
vn -0.6648 0.7470 -0.0000
vn -0.0160 -0.2593 0.9657
vn -0.3233 -0.1931 0.9264
vn -0.1641 -0.2502 0.9542
vn -0.0700 -0.2628 0.9623
vt 1.000000 0.000000
vt 0.000000 1.000000
vt 0.000000 0.000000
vt 0.046209 0.000000
vt 0.028525 1.000000
vt 0.046209 1.000000
vt 0.028525 0.000000
vt 0.004511 1.000000
vt 0.004511 0.000000
vt 0.001172 1.000000
vt 0.001172 0.000000
vt 0.953791 1.000000
vt 0.971475 0.000000
vt 0.953791 0.000000
vt 0.971475 1.000000
vt 0.995489 0.000000
vt 0.995489 1.000000
vt 0.998828 0.000000
vt 0.998827 1.000000
vt 1.000000 1.000000
s 1
f 3/1/1 1/2/1 2/3/2
f 6/4/5 17/5/16 15/6/14
f 9/7/8 18/8/17 17/5/16
f 8/9/7 19/10/18 18/8/17
f 7/11/6 16/2/15 19/10/18
f 21/12/20 12/13/11 10/14/9
f 24/15/23 13/16/12 12/13/11
f 23/17/22 14/18/13 13/16/12
f 22/19/21 11/1/10 14/18/13
f 16/2/15 2/3/2 1/2/1
f 15/6/14 10/14/9 6/4/5
f 14/18/13 11/1/10 2/3/2
f 11/1/10 4/20/3 3/1/1
f 19/10/18 16/2/15 4/20/3
f 3/1/1 4/20/3 1/2/1
f 6/4/5 9/7/8 17/5/16
f 9/7/8 8/9/7 18/8/17
f 8/9/7 7/11/6 19/10/18
f 7/11/6 5/3/4 16/2/15
f 21/12/20 24/15/23 12/13/11
f 24/15/23 23/17/22 13/16/12
f 23/17/22 22/19/21 14/18/13
f 22/19/21 20/20/19 11/1/10
f 16/2/15 5/3/4 2/3/2
f 15/6/14 21/12/20 10/14/9
f 7/11/6 8/9/7 9/7/8
f 9/7/8 6/4/5 10/14/9
f 10/14/9 12/13/11 13/16/12
f 7/11/6 9/7/8 10/14/9
f 10/14/9 13/16/12 14/18/13
f 7/11/6 10/14/9 14/18/13
f 2/3/2 5/3/4 7/11/6
f 2/3/2 7/11/6 14/18/13
f 11/1/10 3/1/1 2/3/2
f 11/1/10 20/20/19 4/20/3
f 22/19/21 23/17/22 24/15/23
f 24/15/23 21/12/20 15/6/14
f 15/6/14 17/5/16 18/8/17
f 22/19/21 24/15/23 15/6/14
f 15/6/14 18/8/17 19/10/18
f 22/19/21 15/6/14 19/10/18
f 4/20/3 20/20/19 22/19/21
f 4/20/3 22/19/21 19/10/18
f 16/2/15 1/2/1 4/20/3
