# Blender 5.1.1
# www.blender.org
o tank.003
v -0.907285 0.937329 0.560176
v -0.935205 0.937329 0.560176
v -0.935205 0.937329 0.569809
v -0.907285 0.937329 0.569809
v -0.935205 0.907398 0.560176
v -0.907285 0.907398 0.560176
v -0.907285 0.907398 0.569809
v -0.935205 0.907398 0.569809
v -0.907285 0.907398 0.560176
v -0.907285 0.937329 0.560176
v -0.907285 0.937329 0.569809
v -0.907285 0.907398 0.569809
v -0.935205 0.937329 0.560176
v -0.935205 0.907398 0.560176
v -0.935205 0.907398 0.569809
v -0.935205 0.937329 0.569809
v -0.935205 0.937329 0.560176
v -0.907285 0.937329 0.560176
v -0.907285 0.907398 0.560176
v -0.935205 0.907398 0.560176
v -0.907608 0.936984 0.560287
v -0.907680 0.936906 0.569809
v -0.934810 0.936906 0.569809
v -0.934883 0.936984 0.560287
v -0.934883 0.907743 0.560287
v -0.934810 0.907821 0.569809
v -0.907680 0.907821 0.569809
v -0.907608 0.907743 0.560287
v -0.907608 0.907743 0.560287
v -0.907680 0.907821 0.569809
v -0.907680 0.936906 0.569809
v -0.907608 0.936984 0.560287
v -0.934883 0.936984 0.560287
v -0.934810 0.936906 0.569809
v -0.934810 0.907821 0.569809
v -0.934883 0.907743 0.560287
v -0.934883 0.936984 0.560287
v -0.934883 0.907743 0.560287
v -0.907608 0.907743 0.560287
v -0.907608 0.936984 0.560287
v -0.935205 0.937329 0.569809
v -0.935205 0.907398 0.569809
v -0.934810 0.907821 0.569809
v -0.934810 0.936906 0.569809
v -0.907285 0.907398 0.569809
v -0.907680 0.907821 0.569809
v -0.907285 0.937329 0.569809
v -0.907680 0.936906 0.569809
v -0.908464 0.942475 0.560582
v -0.907285 0.941212 0.560176
v -0.908464 0.942475 0.560176
v -0.908013 0.942379 0.560427
v -0.907631 0.942105 0.560295
v -0.907375 0.941695 0.560206
v -0.934027 0.942475 0.569403
v -0.935205 0.941212 0.569809
v -0.934027 0.942475 0.569809
v -0.934478 0.942379 0.569558
v -0.934860 0.942105 0.569690
v -0.935115 0.941695 0.569778
v -0.935205 0.941212 0.560176
v -0.934027 0.942475 0.560176
v -0.935115 0.941695 0.560176
v -0.934860 0.942105 0.560176
v -0.934478 0.942379 0.560176
v -0.907285 0.941212 0.569809
v -0.908464 0.942475 0.569809
v -0.907375 0.941695 0.569809
v -0.907631 0.942105 0.569809
v -0.908013 0.942379 0.569809
vn 0.3121 -0.2911 -0.9044
vn -0.3121 -0.2911 0.9044
vn -0.3121 -0.2911 -0.9044
vn 0.3121 -0.2911 0.9044
vn -0.0000 -1.0000 -0.0000
vn 1.0000 -0.0000 -0.0000
vn -1.0000 -0.0000 -0.0000
vn -0.0000 -0.0000 -1.0000
vn -0.0000 -1.0000 -0.0082
vn -0.0000 1.0000 -0.0082
vn -1.0000 -0.0000 -0.0076
vn 1.0000 -0.0000 -0.0076
vn -0.0000 -0.0000 1.0000
vn 0.1050 0.9945 -0.0000
vn 0.4071 0.9065 -0.1117
vn 0.0712 0.3206 -0.9445
vn 0.5661 0.6049 -0.5600
vn 0.4183 0.2173 -0.8820
vn 0.3386 0.0426 -0.9400
vn -0.1050 0.9945 -0.0000
vn -0.4071 0.9065 0.1117
vn -0.0712 0.3206 0.9445
vn -0.5661 0.6049 0.5600
vn -0.4183 0.2173 0.8820
vn -0.3386 0.0426 0.9400
vn -0.3423 0.0314 -0.9391
vn -0.3337 0.1289 -0.9338
vn -0.2562 0.2389 -0.9366
vn -0.1391 0.3131 -0.9395
vn -0.0340 0.3217 -0.9462
vn 0.1391 0.3131 0.9395
vn 0.2562 0.2389 0.9366
vn 0.3337 0.1289 0.9338
vn 0.3423 0.0314 0.9391
vn 0.0340 0.3217 0.9462
s 1
f 1//1 3//2 2//3
f 1//1 4//4 3//2
f 5//5 6//5 7//5
f 5//5 7//5 8//5
f 9//6 10//6 11//6
f 9//6 11//6 12//6
f 13//7 14//7 15//7
f 13//7 15//7 16//7
f 17//8 18//8 19//8
f 17//8 19//8 20//8
f 21//9 22//9 23//9
f 21//9 23//9 24//9
f 25//10 26//10 27//10
f 25//10 27//10 28//10
f 29//11 30//11 31//11
f 29//11 31//11 32//11
f 33//12 34//12 35//12
f 33//12 35//12 36//12
f 37//13 38//13 39//13
f 37//13 39//13 40//13
f 41//13 42//13 43//13
f 41//13 43//13 44//13
f 42//13 45//13 46//13
f 42//13 46//13 43//13
f 45//13 47//13 48//13
f 45//13 48//13 46//13
f 47//13 41//13 44//13
f 47//13 44//13 48//13
f 49//14 52//15 51//16
f 52//15 53//17 51//16
f 53//17 54//18 51//16
f 54//18 50//19 51//16
f 55//20 58//21 57//22
f 58//21 59//23 57//22
f 59//23 60//24 57//22
f 60//24 56//25 57//22
f 61//26 60//24 63//27
f 63//27 59//23 64//28
f 64//28 58//21 65//29
f 65//29 55//20 62//30
f 49//14 70//31 52//15
f 52//15 69//32 53//17
f 53//17 68//33 54//18
f 54//18 66//34 50//19
f 55//20 67//35 49//14
f 49//14 62//30 55//20
f 1//1 66//34 4//4
f 2//3 65//29 51//16
f 4//4 70//31 57//22
f 3//2 61//26 2//3
f 61//26 56//25 60//24
f 63//27 60//24 59//23
f 64//28 59//23 58//21
f 65//29 58//21 55//20
f 49//14 67//35 70//31
f 52//15 70//31 69//32
f 53//17 69//32 68//33
f 54//18 68//33 66//34
f 55//20 57//22 67//35
f 49//14 51//16 62//30
f 1//1 50//19 66//34
f 50//19 1//1 2//3
f 2//3 61//26 63//27
f 63//27 64//28 65//29
f 65//29 62//30 51//16
f 51//16 50//19 2//3
f 2//3 63//27 65//29
f 56//25 3//2 4//4
f 4//4 66//34 68//33
f 68//33 69//32 70//31
f 70//31 67//35 57//22
f 57//22 56//25 4//4
f 4//4 68//33 70//31
f 3//2 56//25 61//26
