# Blender 5.1.1
# www.blender.org
o tank.002
v 0.131043 0.425164 0.394974
v -0.478787 0.425164 0.394974
v -0.478787 0.618477 0.394973
v 0.131043 0.618477 0.394973
v -0.478787 0.425164 0.857314
v 0.131043 0.425164 0.857314
v 0.131043 0.618477 0.857314
v -0.478787 0.618477 0.857314
v 0.131043 0.425164 0.857314
v 0.131043 0.425164 0.394974
v 0.131043 0.618477 0.394973
v 0.131043 0.618477 0.857314
v -0.478787 0.425164 0.394974
v -0.478787 0.425164 0.857314
v -0.478787 0.618477 0.857314
v -0.478787 0.618477 0.394973
v -0.478787 0.425164 0.394974
v 0.131043 0.425164 0.394974
v 0.131043 0.425164 0.857314
v -0.478787 0.425164 0.857314
v 0.124001 0.427396 0.400312
v 0.122419 0.618477 0.401512
v -0.470163 0.618477 0.401512
v -0.471746 0.427396 0.400312
v -0.471746 0.427396 0.851976
v -0.470163 0.618477 0.850776
v 0.122419 0.618477 0.850776
v 0.124001 0.427396 0.851976
v 0.124001 0.427396 0.851976
v 0.122419 0.618477 0.850776
v 0.122419 0.618477 0.401512
v 0.124001 0.427396 0.400312
v -0.471746 0.427396 0.400312
v -0.470163 0.618477 0.401512
v -0.470163 0.618477 0.850776
v -0.471746 0.427396 0.851976
v -0.471746 0.427396 0.400312
v -0.471746 0.427396 0.851976
v 0.124001 0.427396 0.851976
v 0.124001 0.427396 0.400312
v -0.478787 0.618477 0.394973
v -0.478787 0.618477 0.857314
v -0.470163 0.618477 0.850776
v -0.470163 0.618477 0.401512
v 0.131043 0.618477 0.857314
v 0.122419 0.618477 0.850776
v 0.131043 0.618477 0.394973
v 0.122419 0.618477 0.401512
vn -0.0000 -0.0000 -1.0000
vn -0.0000 -0.0000 1.0000
vn 1.0000 -0.0000 -0.0000
vn -1.0000 -0.0000 -0.0000
vn -0.0000 -1.0000 -0.0000
vn -0.0000 -0.0063 1.0000
vn -0.0000 -0.0063 -1.0000
vn -1.0000 -0.0083 -0.0000
vn 1.0000 -0.0083 -0.0000
vn -0.0000 1.0000 -0.0000
s 0
f 1//1 2//1 3//1
f 1//1 3//1 4//1
f 5//2 6//2 7//2
f 5//2 7//2 8//2
f 9//3 10//3 11//3
f 9//3 11//3 12//3
f 13//4 14//4 15//4
f 13//4 15//4 16//4
f 17//5 18//5 19//5
f 17//5 19//5 20//5
f 21//6 22//6 23//6
f 21//6 23//6 24//6
f 25//7 26//7 27//7
f 25//7 27//7 28//7
f 29//8 30//8 31//8
f 29//8 31//8 32//8
f 33//9 34//9 35//9
f 33//9 35//9 36//9
f 37//10 38//10 39//10
f 37//10 39//10 40//10
f 41//10 42//10 43//10
f 41//10 43//10 44//10
f 42//10 45//10 46//10
f 42//10 46//10 43//10
f 45//10 47//10 48//10
f 45//10 48//10 46//10
f 47//10 41//10 44//10
f 47//10 44//10 48//10
f 47//5 42//5 41//5
f 43//10 48//10 44//10
f 47//5 45//5 42//5
f 43//10 46//10 48//10
