# Blender 5.1.1
# www.blender.org
o polySurface6560_pasted__lambert20_0
v -0.520545 0.946032 0.682816
v -0.520545 0.946683 0.683469
v -0.520542 0.944301 0.685199
v -0.520546 0.945211 0.682398
v -0.520546 0.944301 0.682255
v -0.520546 0.943389 0.682394
v -0.520546 0.942573 0.682822
v -0.520545 0.941914 0.683466
v -0.520544 0.941487 0.684285
v -0.520542 0.941354 0.685199
v -0.520541 0.941500 0.686110
v -0.520540 0.941925 0.686925
v -0.520539 0.942574 0.687575
v -0.520539 0.943393 0.687994
v -0.520539 0.944301 0.688147
v -0.520539 0.945209 0.687996
v -0.520539 0.946035 0.687587
v -0.520540 0.946685 0.686932
v -0.520541 0.947097 0.686108
v -0.520542 0.947242 0.685200
v -0.520544 0.947106 0.684288
v -0.915042 0.946038 0.688342
v -0.915043 0.946689 0.687689
v -0.915045 0.944306 0.685959
v -0.915041 0.945217 0.688760
v -0.915041 0.944306 0.688904
v -0.915041 0.943395 0.688764
v -0.915042 0.942579 0.688337
v -0.915043 0.941920 0.687692
v -0.915044 0.941493 0.686873
v -0.915045 0.941360 0.685959
v -0.915046 0.941506 0.685049
v -0.915047 0.941931 0.684233
v -0.915048 0.942580 0.683583
v -0.915049 0.943399 0.683164
v -0.915049 0.944306 0.683011
v -0.915049 0.945215 0.683162
v -0.915048 0.946041 0.683572
v -0.915047 0.946691 0.684226
v -0.915046 0.947103 0.685050
v -0.915045 0.947248 0.685959
v -0.915044 0.947112 0.686870
vn 1.0000 -0.0000 -0.0013
vn 1.0000 -0.0000 -0.0014
vn -1.0000 -0.0000 0.0013
vt 0.529421 0.125347
vt 0.533927 0.120829
vt 0.517430 0.108844
vt 0.523735 0.128246
vt 0.517430 0.129237
vt 0.511118 0.128271
vt 0.505466 0.125311
vt 0.500906 0.120850
vt 0.497950 0.115173
vt 0.497023 0.108844
vt 0.498037 0.102542
vt 0.500982 0.096893
vt 0.505478 0.092393
vt 0.511143 0.089495
vt 0.517430 0.088431
vt 0.523723 0.089477
vt 0.529440 0.092314
vt 0.533943 0.096846
vt 0.536792 0.102552
vt 0.537801 0.108844
vt 0.536856 0.115156
s 0
f 1/1/1 2/2/1 3/3/1
f 4/4/1 1/1/1 3/3/1
f 5/5/1 4/4/1 3/3/1
f 6/6/1 5/5/1 3/3/1
f 7/7/1 6/6/1 3/3/1
f 8/8/1 7/7/1 3/3/1
f 9/9/1 8/8/1 3/3/1
f 10/10/1 9/9/1 3/3/1
f 11/11/1 10/10/1 3/3/1
f 12/12/1 11/11/1 3/3/1
f 13/13/1 12/12/1 3/3/1
f 14/14/1 13/13/1 3/3/1
f 15/15/1 14/14/1 3/3/1
f 16/16/1 15/15/1 3/3/1
f 17/17/1 16/16/1 3/3/1
f 18/18/1 17/17/1 3/3/1
f 19/19/1 18/18/1 3/3/1
f 20/20/1 19/19/1 3/3/1
f 21/21/1 20/20/1 3/3/1
f 2/2/2 21/21/2 3/3/2
f 22/1/3 23/2/3 24/3/3
f 25/4/3 22/1/3 24/3/3
f 26/5/3 25/4/3 24/3/3
f 27/6/3 26/5/3 24/3/3
f 28/7/3 27/6/3 24/3/3
f 29/8/3 28/7/3 24/3/3
f 30/9/3 29/8/3 24/3/3
f 31/10/3 30/9/3 24/3/3
f 32/11/3 31/10/3 24/3/3
f 33/12/3 32/11/3 24/3/3
f 34/13/3 33/12/3 24/3/3
f 35/14/3 34/13/3 24/3/3
f 36/15/3 35/14/3 24/3/3
f 37/16/3 36/15/3 24/3/3
f 38/17/3 37/16/3 24/3/3
f 39/18/3 38/17/3 24/3/3
f 40/19/3 39/18/3 24/3/3
f 41/20/3 40/19/3 24/3/3
f 42/21/3 41/20/3 24/3/3
f 23/2/3 42/21/3 24/3/3
