# Blender 5.1.1
# www.blender.org
o polySurface6560_pasted__aiStandardSurface3_0
v -0.507321 0.915529 0.688629
v -0.503432 0.906785 0.688624
v -0.503441 0.906785 0.681595
v -0.507331 0.915529 0.681601
v -0.928267 0.915536 0.682529
v -0.932157 0.906792 0.682534
v -0.932147 0.906792 0.689563
v -0.928258 0.915536 0.689558
vn 0.9137 0.4064 -0.0012
vn -0.9137 0.4064 0.0012
vt 1.000000 0.005542
vt 1.000000 0.997645
vt 0.000000 0.997645
vt 0.000000 0.005542
s 0
f 1/1/1 2/2/1 3/3/1
f 1/1/1 3/3/1 4/4/1
f 5/1/2 6/2/2 7/3/2
f 5/1/2 7/3/2 8/4/2
