# Blender 5.1.1
# www.blender.org
o polySurface6560_pasted__aiStandardSurface3_0
v 0.084464 0.505397 0.688629
v 0.088353 0.496653 0.688624
v 0.088344 0.496653 0.681595
v 0.084455 0.505397 0.681601
v -0.336482 0.505403 0.682529
v -0.340371 0.496659 0.682534
v -0.340362 0.496659 0.689563
v -0.336472 0.505403 0.689558
vn 0.9137 0.4064 -0.0012
vn -0.9137 0.4064 0.0012
vt 1.000000 0.005542
vt 1.000000 0.997645
vt 0.000000 0.997645
vt 0.000000 0.005542
s 0
f 1/1/1 2/2/1 3/3/1
f 1/1/1 3/3/1 4/4/1
f 5/1/2 6/2/2 7/3/2
f 5/1/2 7/3/2 8/4/2
