# Blender 5.1.1
# www.blender.org
o polySurface6560_pasted__aiStandardSurface4_0
v 0.085226 0.496048 0.689496
v 0.088623 0.496048 0.689491
v 0.088354 0.496653 0.689492
v 0.085098 0.496653 0.689496
v 0.083094 0.506121 0.689499
v 0.084143 0.506121 0.689497
v 0.084142 0.506121 0.688630
v 0.083093 0.506121 0.688631
v 0.085087 0.496653 0.680819
v 0.088343 0.496653 0.680814
v 0.088612 0.496048 0.680814
v 0.085215 0.496048 0.680819
v 0.085225 0.496048 0.688628
v 0.088622 0.496048 0.688624
v 0.088623 0.496048 0.689491
v 0.085226 0.496048 0.689496
v 0.085097 0.496653 0.688628
v 0.085225 0.496048 0.688628
v 0.085226 0.496048 0.689496
v 0.085098 0.496653 0.689496
v 0.088605 0.496653 0.689492
v 0.088874 0.496048 0.689491
v 0.088873 0.496048 0.688623
v 0.088604 0.496653 0.688624
v 0.088595 0.496653 0.681595
v 0.088864 0.496048 0.681595
v 0.088863 0.496048 0.680814
v 0.088594 0.496653 0.680814
v 0.085215 0.496048 0.680819
v 0.088612 0.496048 0.680814
v 0.088613 0.496048 0.681595
v 0.085216 0.496048 0.681599
v 0.085087 0.496653 0.680819
v 0.085215 0.496048 0.680819
v 0.085216 0.496048 0.681599
v 0.085088 0.496653 0.681600
v 0.083084 0.506121 0.681602
v 0.084133 0.506121 0.681601
v 0.084132 0.506121 0.680820
v 0.083083 0.506121 0.680821
v 0.084394 0.506121 0.689497
v 0.084716 0.505397 0.689497
v 0.084715 0.505397 0.688629
v 0.084393 0.506121 0.688629
v 0.084705 0.505397 0.681600
v 0.084383 0.506121 0.681601
v 0.084704 0.505397 0.680819
v 0.084382 0.506121 0.680820
v 0.083083 0.506121 0.680821
v 0.084132 0.506121 0.680820
v 0.084454 0.505397 0.680820
v 0.083236 0.505397 0.680821
v 0.083083 0.506121 0.680821
v 0.083236 0.505397 0.680821
v 0.083237 0.505397 0.681602
v 0.083084 0.506121 0.681602
v 0.083246 0.505397 0.688631
v 0.083093 0.506121 0.688631
v 0.083247 0.505397 0.689499
v 0.083094 0.506121 0.689499
v 0.083247 0.505397 0.689499
v 0.084465 0.505397 0.689497
v 0.084143 0.506121 0.689497
v 0.083094 0.506121 0.689499
v 0.088873 0.496048 0.688623
v 0.088874 0.496048 0.689491
v 0.088874 0.496048 0.689491
v 0.088605 0.496653 0.689492
v 0.088863 0.496048 0.680814
v 0.088864 0.496048 0.681595
v 0.088594 0.496653 0.680814
v 0.088863 0.496048 0.680814
v 0.088353 0.496653 0.688624
v 0.088604 0.496653 0.688624
v 0.088595 0.496653 0.681595
v 0.088344 0.496653 0.681595
v 0.084716 0.505397 0.689497
v 0.084394 0.506121 0.689497
v 0.084394 0.506121 0.689497
v 0.084393 0.506121 0.688629
v 0.084455 0.505397 0.681601
v 0.084705 0.505397 0.681600
v 0.084715 0.505397 0.688629
v 0.084464 0.505397 0.688629
v 0.084383 0.506121 0.681601
v 0.084382 0.506121 0.680820
v 0.084382 0.506121 0.680820
v 0.084704 0.505397 0.680819
v 0.084715 0.505397 0.688629
v 0.088604 0.496653 0.688624
v 0.088353 0.496653 0.688624
v 0.084464 0.505397 0.688629
v 0.084455 0.505397 0.681601
v 0.088344 0.496653 0.681595
v 0.088595 0.496653 0.681595
v 0.084705 0.505397 0.681600
v -0.337244 0.496055 0.681662
v -0.340641 0.496055 0.681667
v -0.340373 0.496659 0.681666
v -0.337116 0.496659 0.681662
v -0.335112 0.506127 0.681659
v -0.336161 0.506127 0.681661
v -0.336160 0.506127 0.682528
v -0.335111 0.506127 0.682527
v -0.337105 0.496659 0.690339
v -0.340361 0.496659 0.690344
v -0.340630 0.496055 0.690344
v -0.337233 0.496055 0.690340
v -0.337243 0.496055 0.682530
v -0.340640 0.496055 0.682534
v -0.340641 0.496055 0.681667
v -0.337244 0.496055 0.681662
v -0.337115 0.496659 0.682530
v -0.337243 0.496055 0.682530
v -0.337244 0.496055 0.681662
v -0.337116 0.496659 0.681662
v -0.340623 0.496659 0.681667
v -0.340892 0.496055 0.681667
v -0.340891 0.496055 0.682535
v -0.340622 0.496659 0.682534
v -0.340613 0.496659 0.689563
v -0.340882 0.496055 0.689563
v -0.340881 0.496055 0.690344
v -0.340612 0.496659 0.690344
v -0.337233 0.496055 0.690340
v -0.340630 0.496055 0.690344
v -0.340631 0.496055 0.689563
v -0.337234 0.496055 0.689559
v -0.337105 0.496659 0.690339
v -0.337233 0.496055 0.690340
v -0.337234 0.496055 0.689559
v -0.337106 0.496659 0.689558
v -0.335102 0.506127 0.689556
v -0.336150 0.506127 0.689557
v -0.336149 0.506127 0.690338
v -0.335101 0.506127 0.690337
v -0.336412 0.506127 0.681661
v -0.336734 0.505403 0.681661
v -0.336733 0.505403 0.682529
v -0.336410 0.506127 0.682529
v -0.336723 0.505403 0.689558
v -0.336401 0.506127 0.689557
v -0.336722 0.505403 0.690339
v -0.336400 0.506127 0.690338
v -0.335101 0.506127 0.690337
v -0.336149 0.506127 0.690338
v -0.336471 0.505403 0.690338
v -0.335254 0.505403 0.690337
v -0.335101 0.506127 0.690337
v -0.335254 0.505403 0.690337
v -0.335255 0.505403 0.689556
v -0.335102 0.506127 0.689556
v -0.335264 0.505403 0.682527
v -0.335111 0.506127 0.682527
v -0.335265 0.505403 0.681660
v -0.335112 0.506127 0.681659
v -0.335265 0.505403 0.681660
v -0.336483 0.505403 0.681661
v -0.336161 0.506127 0.681661
v -0.335112 0.506127 0.681659
v -0.340891 0.496055 0.682535
v -0.340892 0.496055 0.681667
v -0.340892 0.496055 0.681667
v -0.340623 0.496659 0.681667
v -0.340881 0.496055 0.690344
v -0.340882 0.496055 0.689563
v -0.340612 0.496659 0.690344
v -0.340881 0.496055 0.690344
v -0.340371 0.496659 0.682534
v -0.340622 0.496659 0.682534
v -0.340613 0.496659 0.689563
v -0.340362 0.496659 0.689563
v -0.336734 0.505403 0.681661
v -0.336412 0.506127 0.681661
v -0.336412 0.506127 0.681661
v -0.336410 0.506127 0.682529
v -0.336472 0.505403 0.689558
v -0.336723 0.505403 0.689558
v -0.336733 0.505403 0.682529
v -0.336482 0.505403 0.682529
v -0.336401 0.506127 0.689557
v -0.336400 0.506127 0.690338
v -0.336400 0.506127 0.690338
v -0.336722 0.505403 0.690339
v -0.336733 0.505403 0.682529
v -0.340622 0.496659 0.682534
v -0.340371 0.496659 0.682534
v -0.336482 0.505403 0.682529
v -0.336472 0.505403 0.689558
v -0.340362 0.496659 0.689563
v -0.340613 0.496659 0.689563
v -0.336723 0.505403 0.689558
vn 0.0013 -0.0000 1.0000
vn -0.0000 1.0000 -0.0000
vn -0.0013 -0.0000 -1.0000
vn -0.0000 -1.0000 -0.0000
vn -0.9783 -0.2071 0.0013
vn 0.9137 0.4064 -0.0012
vn 0.9137 0.4063 -0.0012
vn -0.0013 -0.0001 -1.0000
vn -0.9783 -0.2070 0.0013
vn 0.0013 -0.0001 1.0000
vn 0.9783 -0.2071 -0.0013
vn -0.9137 0.4064 0.0012
vn 0.9783 -0.2072 -0.0013
vn -0.9137 0.4065 0.0012
vn -0.0013 0.0001 -1.0000
vn 0.0013 0.0001 1.0000
vt 0.001837 0.814995
vt 0.001837 0.523368
vt 0.018281 0.546440
vt 0.018281 0.825976
vt 0.282354 0.998007
vt 0.282354 0.907981
vt 0.309764 0.907981
vt 0.309764 0.998007
vt 0.820340 0.825977
vt 0.820340 0.546440
vt 0.836784 0.523368
vt 0.836784 0.814997
vt 0.892804 0.315148
vt 0.892804 0.023521
vt 0.920214 0.023521
vt 0.920214 0.315148
vt 0.892804 0.326129
vt 0.920214 0.326129
vt 0.282354 0.524911
vt 0.282354 0.501839
vt 0.309764 0.501839
vt 0.309764 0.524911
vt 0.531780 0.524911
vt 0.531780 0.501839
vt 0.556449 0.501839
vt 0.556449 0.524911
vt 0.646119 0.315148
vt 0.646119 0.023521
vt 0.670788 0.023521
vt 0.670788 0.315148
vt 0.646119 0.326129
vt 0.670788 0.326129
vt 0.531780 0.998007
vt 0.531780 0.907981
vt 0.556449 0.907981
vt 0.556449 0.998007
vt 0.282354 0.886452
vt 0.282354 0.858803
vt 0.309764 0.858803
vt 0.309764 0.886452
vt 0.531780 0.858803
vt 0.531780 0.886452
vt 0.556449 0.858803
vt 0.556449 0.886452
vt 0.562691 0.998008
vt 0.562691 0.907982
vt 0.582395 0.880332
vt 0.582395 0.984850
vt 0.646119 0.498160
vt 0.646119 0.485000
vt 0.670788 0.485000
vt 0.670788 0.498160
vt 0.892804 0.485000
vt 0.892804 0.498160
vt 0.920214 0.485000
vt 0.920214 0.498160
vt 0.256226 0.984847
vt 0.256226 0.880331
vt 0.275931 0.907980
vt 0.275931 0.998007
vt 0.892804 0.001992
vt 0.920214 0.001992
vt 0.001837 0.501839
vt 0.018281 0.524911
vt 0.646119 0.001992
vt 0.670788 0.001992
vt 0.820340 0.524912
vt 0.836784 0.501840
vt 0.309764 0.546440
vt 0.531780 0.546440
vt 0.256226 0.858802
vt 0.275931 0.886451
vt 0.153258 0.498159
vt 0.131730 0.498159
vt 0.131730 0.276142
vt 0.153258 0.276142
vt 0.562691 0.886453
vt 0.582395 0.858804
vt 0.402517 0.476631
vt 0.640462 0.142739
vt 0.640462 0.164267
vt 0.402517 0.498159
vt 0.396861 0.498159
vt 0.158915 0.164267
vt 0.158915 0.142739
vt 0.396861 0.476630
s 0
f 1/1/1 2/2/1 3/3/1
f 1/1/1 3/3/1 4/4/1
f 5/5/2 6/6/2 7/7/2
f 5/5/2 7/7/2 8/8/2
f 9/9/3 10/10/3 11/11/3
f 9/9/3 11/11/3 12/12/3
f 13/13/4 14/14/4 15/15/4
f 13/13/4 15/15/4 16/16/4
f 17/17/5 18/13/5 19/16/5
f 17/17/5 19/16/5 20/18/5
f 21/19/6 22/20/6 23/21/6
s 1
f 21/19/6 23/21/6 24/22/6
f 25/23/7 26/24/7 27/25/7
s 0
f 25/23/6 27/25/6 28/26/6
f 29/27/4 30/28/4 31/29/4
f 29/27/4 31/29/4 32/30/4
f 33/31/5 34/27/5 35/30/5
f 33/31/5 35/30/5 36/32/5
f 37/33/2 38/34/2 39/35/2
f 37/33/2 39/35/2 40/36/2
f 24/22/6 23/21/6 26/24/6
s 1
f 24/22/7 26/24/7 25/23/7
s 0
f 8/8/2 7/7/2 38/34/2
f 8/8/2 38/34/2 37/33/2
f 36/32/5 35/30/5 18/13/5
f 36/32/5 18/13/5 17/17/5
f 32/30/4 31/29/4 14/14/4
f 32/30/4 14/14/4 13/13/4
f 41/37/6 42/38/6 43/39/6
f 41/37/6 43/39/6 44/40/6
f 44/40/6 43/39/6 45/41/6
f 44/40/6 45/41/6 46/42/6
f 46/42/6 45/41/6 47/43/6
f 46/42/6 47/43/6 48/44/6
f 49/45/3 50/46/3 51/47/3
f 49/45/8 51/47/8 52/48/8
f 53/49/5 54/50/5 55/51/5
f 53/49/5 55/51/5 56/52/5
f 56/52/5 55/51/5 57/53/5
f 56/52/5 57/53/5 58/54/5
f 58/54/5 57/53/5 59/55/5
f 58/54/5 59/55/5 60/56/5
f 61/57/1 62/58/1 63/59/1
f 61/57/1 63/59/1 64/60/1
f 42/38/6 21/19/6 24/22/6
f 42/38/6 24/22/6 43/39/6
f 45/41/6 25/23/6 28/26/6
f 45/41/6 28/26/6 47/43/6
f 51/47/3 10/10/3 9/9/3
f 51/47/3 9/9/3 52/48/3
f 54/50/5 33/31/5 36/32/5
s 1
f 54/50/9 36/32/9 55/51/9
s 0
f 55/51/5 36/32/5 17/17/5
f 55/51/5 17/17/5 57/53/5
f 57/53/5 17/17/5 20/18/5
f 57/53/5 20/18/5 59/55/5
f 61/57/1 4/4/1 3/3/1
f 61/57/1 3/3/1 62/58/1
f 14/14/4 65/61/4 66/62/4
f 14/14/4 66/62/4 15/15/4
f 3/3/1 2/2/1 67/63/1
f 3/3/10 67/63/10 68/64/10
f 30/28/4 69/65/4 70/66/4
f 30/28/4 70/66/4 31/29/4
f 71/67/3 72/68/3 11/11/3
f 71/67/3 11/11/3 10/10/3
f 73/69/2 74/22/2 75/23/2
f 73/69/2 75/23/2 76/70/2
f 31/29/4 70/66/4 65/61/4
f 31/29/4 65/61/4 14/14/4
f 63/59/1 62/58/1 77/71/1
f 63/59/1 77/71/1 78/72/1
f 6/6/2 79/37/2 80/40/2
f 6/6/2 80/40/2 7/7/2
f 81/73/4 82/74/4 83/75/4
f 81/73/4 83/75/4 84/76/4
f 7/7/2 80/40/2 85/42/2
f 7/7/2 85/42/2 38/34/2
f 38/34/2 85/42/2 86/44/2
f 38/34/2 86/44/2 39/35/2
f 87/77/3 88/78/3 51/47/3
f 87/77/3 51/47/3 50/46/3
f 89/79/3 90/80/3 91/81/3
f 89/79/3 91/81/3 92/82/3
f 62/58/1 3/3/1 68/64/1
f 62/58/1 68/64/1 77/71/1
f 93/83/1 94/84/1 95/85/1
f 93/83/10 95/85/10 96/86/10
f 88/78/3 71/67/3 10/10/3
f 88/78/3 10/10/3 51/47/3
f 97/1/3 98/2/3 99/3/3
f 97/1/8 99/3/8 100/4/8
f 101/5/2 102/6/2 103/7/2
f 101/5/2 103/7/2 104/8/2
f 105/9/1 106/10/1 107/11/1
f 105/9/10 107/11/10 108/12/10
f 109/13/4 110/14/4 111/15/4
f 109/13/4 111/15/4 112/16/4
f 113/17/11 114/13/11 115/16/11
f 113/17/11 115/16/11 116/18/11
f 117/19/12 118/20/12 119/21/12
s 1
f 117/19/12 119/21/12 120/22/12
f 121/23/12 122/24/12 123/25/12
s 0
f 121/23/12 123/25/12 124/26/12
f 125/27/4 126/28/4 127/29/4
f 125/27/4 127/29/4 128/30/4
f 129/31/11 130/27/11 131/30/11
f 129/31/11 131/30/11 132/32/11
f 133/33/2 134/34/2 135/35/2
f 133/33/2 135/35/2 136/36/2
f 120/22/12 119/21/12 122/24/12
s 1
f 120/22/12 122/24/12 121/23/12
s 0
f 104/8/2 103/7/2 134/34/2
f 104/8/2 134/34/2 133/33/2
f 132/32/11 131/30/11 114/13/11
f 132/32/11 114/13/11 113/17/11
f 128/30/4 127/29/4 110/14/4
f 128/30/4 110/14/4 109/13/4
f 137/37/12 138/38/12 139/39/12
f 137/37/12 139/39/12 140/40/12
f 140/40/12 139/39/12 141/41/12
f 140/40/12 141/41/12 142/42/12
f 142/42/12 141/41/12 143/43/12
f 142/42/12 143/43/12 144/44/12
f 145/45/1 146/46/1 147/47/1
f 145/45/1 147/47/1 148/48/1
f 149/49/13 150/50/13 151/51/13
f 149/49/13 151/51/13 152/52/13
f 152/52/13 151/51/13 153/53/13
f 152/52/13 153/53/13 154/54/13
f 154/54/13 153/53/13 155/55/13
f 154/54/13 155/55/13 156/56/13
f 157/57/3 158/58/3 159/59/3
f 157/57/3 159/59/3 160/60/3
f 138/38/12 117/19/12 120/22/12
s 1
f 138/38/14 120/22/14 139/39/14
s 0
f 141/41/12 121/23/12 124/26/12
f 141/41/14 124/26/14 143/43/14
f 147/47/1 106/10/1 105/9/1
f 147/47/1 105/9/1 148/48/1
f 150/50/11 129/31/11 132/32/11
f 150/50/11 132/32/11 151/51/11
f 151/51/11 132/32/11 113/17/11
f 151/51/11 113/17/11 153/53/11
f 153/53/11 113/17/11 116/18/11
f 153/53/11 116/18/11 155/55/11
f 157/57/3 100/4/3 99/3/3
f 157/57/3 99/3/3 158/58/3
f 110/14/4 161/61/4 162/62/4
f 110/14/4 162/62/4 111/15/4
f 99/3/15 98/2/15 163/63/15
f 99/3/3 163/63/3 164/64/3
f 126/28/4 165/65/4 166/66/4
f 126/28/4 166/66/4 127/29/4
f 167/67/1 168/68/1 107/11/1
f 167/67/1 107/11/1 106/10/1
f 169/69/2 170/22/2 171/23/2
f 169/69/2 171/23/2 172/70/2
f 127/29/4 166/66/4 161/61/4
f 127/29/4 161/61/4 110/14/4
f 159/59/15 158/58/15 173/71/15
f 159/59/8 173/71/8 174/72/8
f 102/6/2 175/37/2 176/40/2
f 102/6/2 176/40/2 103/7/2
f 177/73/4 178/74/4 179/75/4
f 177/73/4 179/75/4 180/76/4
f 103/7/2 176/40/2 181/42/2
f 103/7/2 181/42/2 134/34/2
f 134/34/2 181/42/2 182/44/2
f 134/34/2 182/44/2 135/35/2
f 183/77/1 184/78/1 147/47/1
f 183/77/16 147/47/16 146/46/16
f 185/79/1 186/80/1 187/81/1
f 185/79/16 187/81/16 188/82/16
f 158/58/3 99/3/3 164/64/3
f 158/58/3 164/64/3 173/71/3
f 189/83/3 190/84/3 191/85/3
f 189/83/3 191/85/3 192/86/3
f 184/78/1 167/67/1 106/10/1
f 184/78/1 106/10/1 147/47/1
