# Blender 5.1.1
# www.blender.org
mtllib bread1.mtl
o Bread_Bread_0
v -0.774362 0.627494 0.763923
v -0.782776 0.627467 0.751599
v -0.776517 0.627584 0.755907
v -0.771579 0.627618 0.762215
v -0.791697 0.622990 0.751315
v -0.791831 0.622990 0.751071
v -0.793623 0.622900 0.752689
v -0.793411 0.622903 0.752870
v -0.787862 0.622698 0.772206
v -0.787724 0.622698 0.772430
v -0.786400 0.622757 0.771617
v -0.786537 0.622757 0.771393
v -0.782640 0.623279 0.751515
v -0.774227 0.623306 0.763840
v -0.771443 0.623430 0.762132
v -0.776382 0.623396 0.755824
v -0.797363 0.622758 0.753749
v -0.785212 0.622816 0.770580
v -0.794785 0.622817 0.754979
v -0.783294 0.627096 0.769403
v -0.783157 0.627096 0.769627
v -0.785210 0.627004 0.770888
v -0.785348 0.627004 0.770663
v -0.786673 0.626945 0.771476
v -0.797499 0.626946 0.753832
v -0.794920 0.627005 0.755062
v -0.791697 0.622990 0.751315
v -0.781105 0.622999 0.768060
v -0.777637 0.623154 0.765932
v -0.787835 0.623136 0.750268
v -0.816362 0.626076 0.766865
v -0.816602 0.626070 0.766724
v -0.813783 0.626229 0.763357
v -0.813590 0.626231 0.763557
v -0.781240 0.627187 0.768143
v -0.791833 0.627178 0.751399
v -0.787971 0.627324 0.750351
v -0.777772 0.627342 0.766015
v -0.793547 0.627091 0.752953
v -0.808907 0.622262 0.759892
v -0.809064 0.622261 0.759662
v -0.813648 0.622041 0.763274
v -0.813454 0.622043 0.763474
v -0.793411 0.622903 0.752870
v -0.783158 0.622908 0.769320
v -0.780967 0.622999 0.768284
v -0.777499 0.623154 0.766156
v -0.797798 0.626449 0.778302
v -0.809042 0.626450 0.759975
v -0.799132 0.626887 0.754143
v -0.787998 0.626886 0.772289
v -0.793547 0.627091 0.752953
v -0.793759 0.627088 0.752773
v -0.791966 0.627178 0.751154
v -0.791833 0.627178 0.751399
v -0.808907 0.622262 0.759892
v -0.797662 0.622261 0.778219
v -0.798996 0.622699 0.754059
v -0.813454 0.622043 0.763474
v -0.802562 0.622042 0.781225
v -0.797363 0.622758 0.753749
v -0.797327 0.622765 0.753473
v -0.799094 0.622701 0.753798
v -0.798996 0.622699 0.754059
v -0.802698 0.626230 0.781309
v -0.813590 0.626231 0.763557
v -0.785075 0.622816 0.770804
v -0.783021 0.622908 0.769544
v -0.813590 0.626231 0.763557
v -0.813783 0.626229 0.763357
v -0.809200 0.626449 0.759745
v -0.809042 0.626450 0.759975
v -0.787835 0.623136 0.750268
v -0.787840 0.623141 0.749989
v -0.799132 0.626887 0.754143
v -0.799230 0.626889 0.753882
v -0.797462 0.626953 0.753556
v -0.797499 0.626946 0.753832
v -0.794860 0.622820 0.754711
v -0.794785 0.622817 0.754979
v -0.816887 0.626031 0.768248
v -0.817165 0.626022 0.768227
v -0.787975 0.627329 0.750073
v -0.787971 0.627324 0.750351
v -0.782663 0.627476 0.751344
v -0.782527 0.623288 0.751261
v -0.776191 0.623406 0.755621
v -0.776326 0.627594 0.755705
v -0.771129 0.623438 0.762248
v -0.771265 0.627626 0.762331
v -0.797462 0.626953 0.753556
v -0.797327 0.622765 0.753473
v -0.794860 0.622820 0.754711
v -0.794996 0.627008 0.754794
v -0.791966 0.627178 0.751154
v -0.791831 0.622990 0.751071
v -0.787840 0.623141 0.749989
v -0.787975 0.627329 0.750073
v -0.793759 0.627088 0.752773
v -0.793623 0.622900 0.752689
v -0.809200 0.626449 0.759745
v -0.809064 0.622261 0.759662
v -0.799094 0.622701 0.753798
v -0.799230 0.626889 0.753882
v -0.813783 0.626229 0.763357
v -0.813648 0.622041 0.763274
v -0.807228 0.626022 0.784397
v -0.807093 0.621834 0.784313
v -0.816691 0.621814 0.769717
v -0.816826 0.626002 0.769800
v -0.794996 0.627008 0.754794
v -0.794860 0.622820 0.754711
v -0.817029 0.621834 0.768144
v -0.817165 0.626022 0.768227
v -0.816467 0.621883 0.766641
v -0.816602 0.626070 0.766724
v -0.813648 0.622041 0.763274
v -0.813783 0.626229 0.763357
v -0.797660 0.626449 0.778526
v -0.797525 0.622261 0.778443
v -0.802425 0.622042 0.781449
v -0.802560 0.626230 0.781533
v -0.777635 0.627342 0.766240
v -0.781103 0.627187 0.768367
v -0.802425 0.622042 0.781449
v -0.797525 0.622261 0.778443
v -0.813454 0.622043 0.763474
v -0.813648 0.622041 0.763274
v -0.816467 0.621883 0.766641
v -0.816226 0.621888 0.766782
v -0.786535 0.626945 0.771701
v -0.787860 0.626886 0.772513
v -0.797660 0.626449 0.778526
v -0.802560 0.626230 0.781533
v -0.816434 0.621825 0.769609
v -0.816691 0.621814 0.769717
v -0.807093 0.621834 0.784313
v -0.807065 0.621842 0.783988
v -0.807200 0.626029 0.784071
v -0.807228 0.626022 0.784397
v -0.816826 0.626002 0.769800
v -0.816570 0.626012 0.769693
v -0.776517 0.627584 0.755907
v -0.776326 0.627594 0.755705
v -0.771265 0.627626 0.762331
v -0.771579 0.627618 0.762215
v -0.782663 0.627476 0.751344
v -0.782776 0.627467 0.751599
v -0.782640 0.623279 0.751515
v -0.782527 0.623288 0.751261
v -0.771443 0.623430 0.762132
v -0.771129 0.623438 0.762248
v -0.776191 0.623406 0.755621
v -0.776382 0.623396 0.755824
v -0.794996 0.627008 0.754794
v -0.794920 0.627005 0.755062
v -0.774089 0.623306 0.764064
v -0.816752 0.621843 0.768164
v -0.817029 0.621834 0.768144
v -0.771129 0.623438 0.762248
v -0.794785 0.622817 0.754979
v -0.794860 0.622820 0.754711
v -0.774225 0.627494 0.764147
v -0.771265 0.627626 0.762331
v -0.807065 0.621842 0.783988
v -0.807093 0.621834 0.784313
v -0.807228 0.626022 0.784397
v -0.807200 0.626029 0.784071
v -0.817029 0.621834 0.768144
v -0.816752 0.621843 0.768164
v -0.794920 0.627005 0.755062
v -0.794996 0.627008 0.754794
v -0.807093 0.621834 0.784313
v -0.807228 0.626022 0.784397
v -0.787860 0.626886 0.772513
v -0.787724 0.622698 0.772430
v -0.786535 0.626945 0.771701
v -0.786400 0.622757 0.771617
v -0.785210 0.627004 0.770888
v -0.785075 0.622816 0.770804
v -0.783157 0.627096 0.769627
v -0.783021 0.622908 0.769544
v -0.781103 0.627187 0.768367
v -0.780967 0.622999 0.768284
v -0.777635 0.627342 0.766240
v -0.777499 0.623154 0.766156
v -0.774225 0.627494 0.764147
v -0.774089 0.623306 0.764064
v -0.771265 0.627626 0.762331
v -0.771129 0.623438 0.762248
v -0.816570 0.626012 0.769693
v -0.816887 0.626031 0.768248
v -0.816362 0.626076 0.766865
v -0.816434 0.621825 0.769609
v -0.816226 0.621888 0.766782
v -0.816752 0.621843 0.768164
vn -0.0324 0.9993 0.0199
vn 0.0324 -0.9993 -0.0199
vn 0.4059 0.0313 -0.9134
vn 0.6886 0.0367 -0.7242
vn 0.7940 0.0378 -0.6067
vn 0.1403 0.0243 -0.9898
vn 0.4478 0.0323 -0.8935
vn -0.4791 0.0020 -0.8778
vn -0.0154 0.0194 -0.9997
vn -0.7691 -0.0122 -0.6390
vn -0.5642 -0.0018 -0.8257
vn -0.3497 0.0073 -0.9368
vn -0.6963 -0.0083 -0.7177
vn -0.6963 -0.0082 -0.7177
vn -0.8349 -0.0380 0.5491
vn -0.9217 -0.0375 0.3860
vn -0.8525 -0.0172 -0.5224
vn -0.9968 -0.0308 -0.0737
vn -0.8636 -0.0179 -0.5039
vn -0.6964 -0.0083 -0.7177
vn 0.5230 -0.0000 0.8524
vt 0.781107 0.301443
vt 0.515035 0.314418
vt 0.639021 0.259371
vt 0.781106 0.243110
vt 0.478635 0.081427
vt 0.475075 0.084901
vt 0.452908 0.047878
vt 0.457478 0.045913
vt 0.385794 0.649661
vt 0.390768 0.649661
vt 0.390767 0.677428
vt 0.385794 0.677427
vt 0.119719 0.922469
vt 0.385792 0.935445
vt 0.385792 0.993778
vt 0.243706 0.977517
vt 0.016255 0.677426
vt 0.385793 0.705194
vt 0.059040 0.705192
vt 0.781107 0.488645
vt 0.786081 0.488644
vt 0.786081 0.531692
vt 0.781107 0.531693
vt 0.781107 0.559459
vt 0.411569 0.559460
vt 0.454355 0.531694
vt 0.032121 0.786437
vt 0.385793 0.791291
vt 0.385793 0.863972
vt 0.052236 0.855023
vt 0.935251 0.270195
vt 0.931883 0.266656
vt 0.995748 0.223566
vt 0.998047 0.227876
vt 0.781107 0.445597
vt 0.427436 0.450449
vt 0.447552 0.381863
vt 0.781107 0.372916
vt 0.435088 0.491071
vt 0.916672 0.203332
vt 0.911772 0.202478
vt 0.936568 0.101216
vt 0.941252 0.102889
vt 0.039773 0.745815
vt 0.385793 0.748242
vt 0.390767 0.791291
vt 0.390766 0.863972
vt 0.781107 0.792634
vt 0.397270 0.792630
vt 0.401048 0.587227
vt 0.781107 0.587225
vt 0.913367 0.470524
vt 0.911402 0.475093
vt 0.874380 0.452927
vt 0.877854 0.449368
vt 0.001957 0.444256
vt 0.385794 0.444256
vt 0.005733 0.649659
vt 0.014006 0.341556
vt 0.385794 0.341557
vt 0.902205 0.436499
vt 0.897987 0.439134
vt 0.890214 0.407988
vt 0.895176 0.407652
vt 0.781107 0.895333
vt 0.409318 0.895331
vt 0.390767 0.705195
vt 0.390767 0.748243
vt 0.821070 0.004022
vt 0.822743 0.008706
vt 0.721485 0.033503
vt 0.720631 0.028603
vt 0.539117 0.119517
vt 0.537591 0.124251
vt 0.516318 0.050101
vt 0.515982 0.055063
vt 0.484834 0.047290
vt 0.487468 0.043071
vt 0.442334 0.006892
vt 0.445026 0.002710
vt 0.919685 0.290943
vt 0.915103 0.289251
vt 0.835030 0.390415
vt 0.839763 0.388888
vt 0.792580 0.713237
vt 0.867396 0.713237
vt 0.867396 0.850562
vt 0.792580 0.850562
vt 0.867396 0.998047
vt 0.792580 0.998047
vt 0.873896 0.948776
vt 0.948712 0.948776
vt 0.948712 0.998047
vt 0.873896 0.998047
vt 0.792580 0.541822
vt 0.867396 0.541822
vt 0.867396 0.615689
vt 0.792580 0.615689
vt 0.792580 0.498673
vt 0.867396 0.498673
vt 0.873896 0.710046
vt 0.948712 0.710046
vt 0.948712 0.916673
vt 0.873896 0.916673
vt 0.873896 0.605793
vt 0.948712 0.605793
vt 0.448518 0.055548
vt 0.448518 0.130364
vt 0.137784 0.130364
vt 0.137784 0.055548
vt 0.792580 0.456346
vt 0.867396 0.456346
vt 0.109058 0.130364
vt 0.109058 0.055548
vt 0.080400 0.130364
vt 0.080400 0.055548
vt 0.001953 0.130364
vt 0.001953 0.055548
vt 0.635559 0.232342
vt 0.635559 0.157526
vt 0.738260 0.157526
vt 0.738260 0.232342
vt 0.786081 0.372915
vt 0.786081 0.445596
vt 0.390768 0.341557
vt 0.390767 0.444256
vt 0.013467 0.319855
vt 0.008580 0.320783
vt 0.001988 0.242614
vt 0.006945 0.243026
vt 0.786081 0.559459
vt 0.786081 0.587225
vt 0.786081 0.792633
vt 0.786081 0.895333
vt 0.006753 0.969033
vt 0.001968 0.969680
vt 0.010048 0.692249
vt 0.014702 0.697013
vt 0.998047 0.579321
vt 0.994360 0.583705
vt 0.913176 0.317397
vt 0.918028 0.316828
vt 0.874702 0.164284
vt 0.870243 0.162081
vt 0.955984 0.042088
vt 0.956568 0.047027
vt 0.828947 0.293054
vt 0.833884 0.293658
vt 0.634347 0.125395
vt 0.634952 0.130332
vt 0.880969 0.002710
vt 0.885908 0.003294
vt 0.765920 0.089035
vt 0.763717 0.084576
vt 0.453899 0.008939
vt 0.454653 0.004022
vt 0.390766 0.935445
vt 0.014702 0.993409
vt 0.010731 0.996155
vt 0.389107 0.997486
vt 0.941252 0.469312
vt 0.936335 0.470065
vt 0.786080 0.301443
vt 0.784422 0.239402
vt 0.385794 0.247189
vt 0.389360 0.243722
vt 0.784672 0.993168
vt 0.781106 0.989701
vt 0.009199 0.214878
vt 0.013467 0.217433
vt 0.956568 0.482974
vt 0.952387 0.485667
vt 0.836107 0.157526
vt 0.836107 0.232342
vt 0.430157 0.232342
vt 0.430157 0.157526
vt 0.402391 0.232342
vt 0.402391 0.157526
vt 0.374624 0.232342
vt 0.374624 0.157526
vt 0.331576 0.232342
vt 0.331576 0.157526
vt 0.288528 0.232342
vt 0.288528 0.157526
vt 0.215847 0.232342
vt 0.215847 0.157526
vt 0.144374 0.232342
vt 0.144374 0.157526
vt 0.082311 0.232342
vt 0.082311 0.157526
vt 0.433775 0.968455
vt 0.449905 0.989369
vt 0.474855 0.998032
vt 0.038463 0.268432
vt 0.054593 0.247518
vt 0.079543 0.238855
s 0
usemtl Bread
f 1/1/1 3/3/1 2/2/1
f 1/1/1 4/4/1 3/3/1
f 5/5/2 7/7/2 6/6/2
f 5/5/2 8/8/2 7/7/2
f 9/9/2 11/11/2 10/10/2
f 9/9/2 12/12/2 11/11/2
f 13/13/2 15/15/2 14/14/2
f 13/13/2 16/16/2 15/15/2
f 17/17/2 18/18/2 12/12/2
f 17/17/2 19/19/2 18/18/2
f 20/20/1 22/22/1 21/21/1
f 20/20/1 23/23/1 22/22/1
f 24/24/1 26/26/1 25/25/1
f 24/24/1 23/23/1 26/26/1
f 27/27/2 29/29/2 28/28/2
f 27/27/2 30/30/2 29/29/2
f 31/31/1 33/33/1 32/32/1
f 31/31/1 34/34/1 33/33/1
f 35/35/1 37/37/1 36/36/1
f 35/35/1 38/38/1 37/37/1
f 20/20/1 36/36/1 39/39/1
f 20/20/1 35/35/1 36/36/1
f 40/40/2 42/42/2 41/41/2
f 40/40/2 43/43/2 42/42/2
f 44/44/2 28/28/2 45/45/2
f 44/44/2 27/27/2 28/28/2
f 30/30/2 14/14/2 29/29/2
f 30/30/2 13/13/2 14/14/2
f 28/28/2 47/47/2 46/46/2
f 28/28/2 29/29/2 47/47/2
f 38/38/1 2/2/1 37/37/1
f 38/38/1 1/1/1 2/2/1
f 48/48/1 50/50/1 49/49/1
f 48/48/1 51/51/1 50/50/1
f 52/52/1 54/54/1 53/53/1
f 52/52/1 55/55/1 54/54/1
f 56/56/2 9/9/2 57/57/2
f 56/56/2 58/58/2 9/9/2
f 59/59/2 57/57/2 60/60/2
f 59/59/2 56/56/2 57/57/2
f 61/61/2 63/63/2 62/62/2
f 61/61/2 64/64/2 63/63/2
f 65/65/1 49/49/1 66/66/1
f 65/65/1 48/48/1 49/49/1
f 18/18/2 68/68/2 67/67/2
f 18/18/2 45/45/2 68/68/2
f 51/51/1 25/25/1 50/50/1
f 51/51/1 24/24/1 25/25/1
f 69/69/1 71/71/1 70/70/1
f 69/69/1 72/72/1 71/71/1
f 58/58/2 12/12/2 9/9/2
f 58/58/2 17/17/2 12/12/2
f 19/19/2 45/45/2 18/18/2
f 19/19/2 44/44/2 45/45/2
f 73/73/2 6/6/2 74/74/2
f 73/73/2 5/5/2 6/6/2
f 23/23/1 39/39/1 26/26/1
f 23/23/1 20/20/1 39/39/1
f 75/75/1 77/77/1 76/76/1
f 75/75/1 78/78/1 77/77/1
f 8/8/2 79/79/2 7/7/2
f 8/8/2 80/80/2 79/79/2
f 81/81/1 32/32/1 82/82/1
f 81/81/1 31/31/1 32/32/1
f 55/55/1 83/83/1 54/54/1
f 55/55/1 84/84/1 83/83/1
s 1
f 85/85/3 87/87/4 86/86/3
f 85/85/3 88/88/4 87/87/4
f 88/88/4 89/89/5 87/87/4
f 88/88/4 90/90/5 89/89/5
f 91/91/6 93/93/7 92/92/6
f 91/91/6 94/94/7 93/93/7
f 95/95/8 97/97/9 96/96/8
f 95/95/8 98/98/9 97/97/9
f 99/99/10 96/96/8 100/100/10
f 99/99/10 95/95/8 96/96/8
f 98/98/9 86/86/3 97/97/9
f 98/98/9 85/85/3 86/86/3
f 101/101/11 103/103/12 102/102/11
f 101/101/11 104/104/12 103/103/12
f 105/105/13 102/102/11 106/106/14
f 105/105/13 101/101/11 102/102/11
f 107/107/15 109/109/16 108/108/15
f 107/107/15 110/110/16 109/109/16
f 104/104/12 92/92/6 103/103/12
f 104/104/12 91/91/6 92/92/6
f 111/111/17 100/100/10 112/112/17
f 111/111/17 99/99/10 100/100/10
f 109/109/16 114/114/18 113/113/18
f 109/109/16 110/110/16 114/114/18
f 113/113/18 116/116/19 115/115/19
f 113/113/18 114/114/18 116/116/19
f 116/116/19 117/117/20 115/115/19
f 116/116/19 118/118/20 117/117/20
s 0
f 119/119/21 121/121/21 120/120/21
f 119/119/21 122/122/21 121/121/21
f 38/38/1 124/124/1 123/123/1
f 38/38/1 35/35/1 124/124/1
f 60/60/2 126/126/2 125/125/2
f 60/60/2 57/57/2 126/126/2
f 127/127/2 129/129/2 128/128/2
f 127/127/2 130/130/2 129/129/2
f 24/24/1 132/132/1 131/131/1
f 24/24/1 51/51/1 132/132/1
f 45/45/2 46/46/2 68/68/2
f 45/45/2 28/28/2 46/46/2
f 48/48/1 134/134/1 133/133/1
f 48/48/1 65/65/1 134/134/1
f 135/135/2 137/137/2 136/136/2
f 135/135/2 138/138/2 137/137/2
f 35/35/1 21/21/1 124/124/1
f 35/35/1 20/20/1 21/21/1
f 139/139/1 141/141/1 140/140/1
f 139/139/1 142/142/1 141/141/1
f 143/143/1 145/145/1 144/144/1
f 143/143/1 146/146/1 145/145/1
f 84/84/1 147/147/1 83/83/1
f 84/84/1 148/148/1 147/147/1
f 148/148/1 144/144/1 147/147/1
f 148/148/1 143/143/1 144/144/1
f 149/149/2 74/74/2 150/150/2
f 149/149/2 73/73/2 74/74/2
f 72/72/1 76/76/1 71/71/1
f 72/72/1 75/75/1 76/76/1
f 151/151/2 153/153/2 152/152/2
f 151/151/2 154/154/2 153/153/2
f 154/154/2 150/150/2 153/153/2
f 154/154/2 149/149/2 150/150/2
f 78/78/1 155/155/1 77/77/1
f 78/78/1 156/156/1 155/155/1
f 29/29/2 157/157/2 47/47/2
f 29/29/2 14/14/2 157/157/2
f 64/64/2 41/41/2 63/63/2
f 64/64/2 40/40/2 41/41/2
f 158/158/2 136/136/2 159/159/2
f 158/158/2 135/135/2 136/136/2
f 14/14/2 160/160/2 157/157/2
f 14/14/2 15/15/2 160/160/2
f 161/161/2 62/62/2 162/162/2
f 161/161/2 61/61/2 62/62/2
f 1/1/1 123/123/1 163/163/1
f 1/1/1 38/38/1 123/123/1
f 57/57/2 10/10/2 126/126/2
f 57/57/2 9/9/2 10/10/2
f 4/4/1 163/163/1 164/164/1
f 4/4/1 1/1/1 163/163/1
f 12/12/2 67/67/2 11/11/2
f 12/12/2 18/18/2 67/67/2
f 51/51/1 133/133/1 132/132/1
f 51/51/1 48/48/1 133/133/1
f 142/142/1 82/82/1 141/141/1
f 142/142/1 81/81/1 82/82/1
f 165/165/2 125/125/2 166/166/2
f 165/165/2 60/60/2 125/125/2
f 23/23/1 131/131/1 22/22/1
f 23/23/1 24/24/1 131/131/1
f 65/65/1 167/167/1 134/134/1
f 65/65/1 168/168/1 167/167/1
f 130/130/2 169/169/2 129/129/2
f 130/130/2 170/170/2 169/169/2
f 171/171/1 53/53/1 172/172/1
f 171/171/1 52/52/1 53/53/1
f 121/121/21 174/174/21 173/173/21
f 121/121/21 122/122/21 174/174/21
f 175/175/21 120/120/21 176/176/21
f 175/175/21 119/119/21 120/120/21
f 177/177/21 176/176/21 178/178/21
f 177/177/21 175/175/21 176/176/21
f 179/179/21 178/178/21 180/180/21
f 179/179/21 177/177/21 178/178/21
f 181/181/21 180/180/21 182/182/21
f 181/181/21 179/179/21 180/180/21
f 183/183/21 182/182/21 184/184/21
f 183/183/21 181/181/21 182/182/21
f 185/185/21 184/184/21 186/186/21
f 185/185/21 183/183/21 184/184/21
f 187/187/21 186/186/21 188/188/21
f 187/187/21 185/185/21 186/186/21
f 189/189/21 188/188/21 190/190/21
f 189/189/21 187/187/21 188/188/21
f 65/65/1 66/66/1 193/191/1
f 193/191/1 192/192/1 65/65/1
f 192/192/1 191/193/1 65/65/1
f 191/193/1 168/168/1 65/65/1
f 195/194/2 59/59/2 60/60/2
f 60/60/2 196/195/2 195/194/2
f 60/60/2 194/196/2 196/195/2
f 60/60/2 165/165/2 194/196/2
