# Blender 5.1.1
# www.blender.org
o Bread.001_Bread_0
v 0.407575 0.472379 0.746473
v 0.410657 0.472524 0.748684
v 0.404409 0.472483 0.755579
v 0.396798 0.472347 0.760048
v 0.386440 0.467146 0.759631
v 0.384584 0.467045 0.757687
v 0.384322 0.467041 0.757878
v 0.386264 0.467146 0.759903
v 0.392628 0.466809 0.735749
v 0.394094 0.466877 0.736801
v 0.394273 0.466877 0.736553
v 0.392806 0.466809 0.735501
v 0.396948 0.467482 0.760155
v 0.404559 0.467619 0.755687
v 0.410807 0.467659 0.748791
v 0.407725 0.467515 0.746580
v 0.380079 0.466876 0.756338
v 0.383168 0.466945 0.755128
v 0.395561 0.466946 0.737854
v 0.397685 0.471917 0.739378
v 0.395411 0.471810 0.737746
v 0.395589 0.471810 0.737498
v 0.397863 0.471917 0.739129
v 0.393944 0.471742 0.736694
v 0.383018 0.471809 0.755021
v 0.379928 0.471741 0.756230
v 0.386440 0.467146 0.759631
v 0.390826 0.467315 0.761167
v 0.403950 0.467338 0.743871
v 0.400110 0.467159 0.741117
v 0.359163 0.470730 0.739555
v 0.362099 0.470911 0.743620
v 0.361858 0.470908 0.743835
v 0.358873 0.470724 0.739698
v 0.399959 0.472023 0.741009
v 0.403799 0.472203 0.743764
v 0.390675 0.472180 0.761059
v 0.386289 0.472010 0.759523
v 0.384433 0.471910 0.757579
v 0.367218 0.466300 0.748257
v 0.362249 0.466046 0.743727
v 0.362008 0.466043 0.743943
v 0.367017 0.466299 0.748510
v 0.384584 0.467045 0.757687
v 0.397836 0.467052 0.739485
v 0.404128 0.467338 0.743623
v 0.400288 0.467159 0.740869
v 0.381626 0.471165 0.727856
v 0.392477 0.471673 0.735641
v 0.378062 0.471672 0.755734
v 0.367068 0.471164 0.748149
v 0.384433 0.471910 0.757579
v 0.386289 0.472010 0.759523
v 0.386114 0.472011 0.759795
v 0.384172 0.471906 0.757770
v 0.367218 0.466300 0.748257
v 0.378213 0.466808 0.755842
v 0.381776 0.466301 0.727964
v 0.362249 0.466046 0.743727
v 0.376351 0.466047 0.724072
v 0.380079 0.466876 0.756338
v 0.378213 0.466808 0.755842
v 0.378077 0.466810 0.756136
v 0.380098 0.466884 0.756661
v 0.376200 0.470912 0.723964
v 0.362099 0.470911 0.743620
v 0.398014 0.467052 0.739237
v 0.395739 0.466946 0.737605
v 0.362099 0.470911 0.743620
v 0.367068 0.471164 0.748149
v 0.366866 0.471164 0.748403
v 0.361858 0.470908 0.743835
v 0.390826 0.467315 0.761167
v 0.390798 0.467322 0.761489
v 0.378062 0.471672 0.755734
v 0.379928 0.471741 0.756230
v 0.379947 0.471748 0.756553
v 0.377927 0.471674 0.756028
v 0.383168 0.466945 0.755128
v 0.383058 0.466948 0.755433
v 0.358670 0.470678 0.737910
v 0.358347 0.470668 0.737911
v 0.390675 0.472180 0.761059
v 0.390647 0.472186 0.761382
v 0.396908 0.472357 0.760352
v 0.404613 0.472495 0.755830
v 0.404763 0.467630 0.755937
v 0.397058 0.467492 0.760460
v 0.411031 0.472533 0.748576
v 0.411181 0.467668 0.748683
v 0.379947 0.471748 0.756553
v 0.382908 0.471813 0.755325
v 0.383058 0.466948 0.755433
v 0.380098 0.466884 0.756661
v 0.386114 0.472011 0.759795
v 0.390647 0.472186 0.761382
v 0.390798 0.467322 0.761489
v 0.386264 0.467146 0.759903
v 0.384172 0.471906 0.757770
v 0.384322 0.467041 0.757878
v 0.366866 0.471164 0.748403
v 0.377927 0.471674 0.756028
v 0.378077 0.466810 0.756136
v 0.367017 0.466299 0.748510
v 0.361858 0.470908 0.743835
v 0.362008 0.466043 0.743943
v 0.371210 0.470670 0.720008
v 0.358871 0.470645 0.736116
v 0.359021 0.465780 0.736224
v 0.371360 0.465805 0.720115
v 0.382908 0.471813 0.755325
v 0.383058 0.466948 0.755433
v 0.358347 0.470668 0.737911
v 0.358497 0.465804 0.738018
v 0.358873 0.470724 0.739698
v 0.359024 0.465860 0.739806
v 0.361858 0.470908 0.743835
v 0.362008 0.466043 0.743943
v 0.381804 0.471165 0.727608
v 0.376378 0.470912 0.723716
v 0.376529 0.466047 0.723823
v 0.381954 0.466301 0.727716
v 0.400138 0.472023 0.740761
v 0.403977 0.472203 0.743516
v 0.381954 0.466301 0.727716
v 0.376529 0.466047 0.723823
v 0.362249 0.466046 0.743727
v 0.359314 0.465865 0.739663
v 0.359024 0.465860 0.739806
v 0.362008 0.466043 0.743943
v 0.392655 0.471673 0.735393
v 0.394122 0.471742 0.736445
v 0.376378 0.470912 0.723716
v 0.381804 0.471165 0.727608
v 0.359309 0.465792 0.736370
v 0.371365 0.465814 0.720495
v 0.371360 0.465805 0.720115
v 0.359021 0.465780 0.736224
v 0.371215 0.470678 0.720387
v 0.359159 0.470657 0.736263
v 0.358871 0.470645 0.736116
v 0.371210 0.470670 0.720008
v 0.404409 0.472483 0.755579
v 0.410657 0.472524 0.748684
v 0.411031 0.472533 0.748576
v 0.404613 0.472495 0.755830
v 0.396798 0.472347 0.760048
v 0.396908 0.472357 0.760352
v 0.396948 0.467482 0.760155
v 0.397058 0.467492 0.760460
v 0.410807 0.467659 0.748791
v 0.404559 0.467619 0.755687
v 0.404763 0.467630 0.755937
v 0.411181 0.467668 0.748683
v 0.383018 0.471809 0.755021
v 0.382908 0.471813 0.755325
v 0.407904 0.467515 0.746332
v 0.358821 0.465814 0.738018
v 0.358497 0.465804 0.738018
v 0.411181 0.467668 0.748683
v 0.383168 0.466945 0.755128
v 0.383058 0.466948 0.755433
v 0.407753 0.472379 0.746224
v 0.411031 0.472533 0.748576
v 0.371365 0.465814 0.720495
v 0.371360 0.465805 0.720115
v 0.371215 0.470678 0.720387
v 0.371210 0.470670 0.720008
v 0.358821 0.465814 0.738018
v 0.358497 0.465804 0.738018
v 0.383018 0.471809 0.755021
v 0.382908 0.471813 0.755325
v 0.371210 0.470670 0.720008
v 0.371360 0.465805 0.720115
v 0.392655 0.471673 0.735393
v 0.392806 0.466809 0.735501
v 0.394122 0.471742 0.736445
v 0.394273 0.466877 0.736553
v 0.395589 0.471810 0.737498
v 0.395739 0.466946 0.737605
v 0.397863 0.471917 0.739129
v 0.398014 0.467052 0.739237
v 0.400138 0.472023 0.740761
v 0.400288 0.467159 0.740869
v 0.403977 0.472203 0.743516
v 0.404128 0.467338 0.743623
v 0.407753 0.472379 0.746224
v 0.407904 0.467515 0.746332
v 0.411031 0.472533 0.748576
v 0.411181 0.467668 0.748683
v 0.359163 0.470730 0.739555
v 0.358670 0.470678 0.737910
v 0.359159 0.470657 0.736263
v 0.359309 0.465792 0.736370
v 0.358821 0.465814 0.738018
v 0.359314 0.465865 0.739663
vn -0.0309 0.9993 -0.0221
vn 0.0309 -0.9993 0.0221
vn 0.3392 0.0313 0.9402
vn 0.6348 0.0367 0.7718
vn 0.7483 0.0378 0.6623
vn 0.0688 0.0242 0.9973
vn 0.3824 0.0323 0.9234
vn -0.5410 0.0019 0.8411
vn -0.0873 0.0193 0.9960
vn -0.5410 0.0019 0.8410
vn -0.8131 -0.0123 0.5820
vn -0.6221 -0.0019 0.7830
vn -0.4161 0.0073 0.9093
vn -0.7461 -0.0083 0.6658
vn -0.7933 -0.0380 -0.6077
vn -0.8916 -0.0375 -0.4513
vn -0.8879 -0.0173 0.4598
vn -0.9995 -0.0309 0.0018
vn -0.8976 -0.0180 0.4405
vn -0.7462 -0.0083 0.6657
vn 0.5829 -0.0000 -0.8125
vt 0.781107 0.301443
vt 0.781106 0.243110
vt 0.639021 0.259371
vt 0.515035 0.314418
vt 0.478635 0.081427
vt 0.457478 0.045913
vt 0.452908 0.047878
vt 0.475075 0.084901
vt 0.385794 0.649661
vt 0.385794 0.677427
vt 0.390767 0.677428
vt 0.390768 0.649661
vt 0.119719 0.922469
vt 0.243706 0.977517
vt 0.385792 0.993778
vt 0.385792 0.935445
vt 0.016255 0.677426
vt 0.059040 0.705192
vt 0.385793 0.705194
vt 0.781107 0.488645
vt 0.781107 0.531693
vt 0.786081 0.531692
vt 0.786081 0.488644
vt 0.781107 0.559459
vt 0.454355 0.531694
vt 0.411569 0.559460
vt 0.032121 0.786437
vt 0.052236 0.855023
vt 0.385793 0.863972
vt 0.385793 0.791291
vt 0.935251 0.270195
vt 0.998047 0.227876
vt 0.995748 0.223566
vt 0.931883 0.266656
vt 0.781107 0.445597
vt 0.781107 0.372916
vt 0.447552 0.381863
vt 0.427436 0.450449
vt 0.435088 0.491071
vt 0.916672 0.203332
vt 0.941252 0.102889
vt 0.936568 0.101216
vt 0.911772 0.202478
vt 0.039773 0.745815
vt 0.385793 0.748242
vt 0.390766 0.863972
vt 0.390767 0.791291
vt 0.781107 0.792634
vt 0.781107 0.587225
vt 0.401048 0.587227
vt 0.397270 0.792630
vt 0.913367 0.470524
vt 0.877854 0.449368
vt 0.874380 0.452927
vt 0.911402 0.475093
vt 0.001957 0.444256
vt 0.005733 0.649659
vt 0.385794 0.444256
vt 0.014006 0.341556
vt 0.385794 0.341557
vt 0.902205 0.436499
vt 0.895176 0.407652
vt 0.890214 0.407988
vt 0.897987 0.439134
vt 0.781107 0.895333
vt 0.409318 0.895331
vt 0.390767 0.748243
vt 0.390767 0.705195
vt 0.821070 0.004022
vt 0.720631 0.028603
vt 0.721485 0.033503
vt 0.822743 0.008706
vt 0.539117 0.119517
vt 0.537591 0.124251
vt 0.516318 0.050101
vt 0.487468 0.043071
vt 0.484834 0.047290
vt 0.515982 0.055063
vt 0.445026 0.002710
vt 0.442334 0.006892
vt 0.919685 0.290943
vt 0.915103 0.289251
vt 0.839763 0.388888
vt 0.835030 0.390415
vt 0.792580 0.713237
vt 0.792580 0.850562
vt 0.867396 0.850562
vt 0.867396 0.713237
vt 0.792580 0.998047
vt 0.867396 0.998047
vt 0.873896 0.948776
vt 0.873896 0.998047
vt 0.948712 0.998047
vt 0.948712 0.948776
vt 0.792580 0.541822
vt 0.792580 0.615689
vt 0.867396 0.615689
vt 0.867396 0.541822
vt 0.792580 0.498673
vt 0.867396 0.498673
vt 0.873896 0.710046
vt 0.873896 0.916673
vt 0.948712 0.916673
vt 0.948712 0.710046
vt 0.873896 0.605793
vt 0.948712 0.605793
vt 0.448518 0.055548
vt 0.137784 0.055548
vt 0.137784 0.130364
vt 0.448518 0.130364
vt 0.792580 0.456346
vt 0.867396 0.456346
vt 0.109058 0.055548
vt 0.109058 0.130364
vt 0.080400 0.055548
vt 0.080400 0.130364
vt 0.001953 0.055548
vt 0.001953 0.130364
vt 0.635559 0.232342
vt 0.738260 0.232342
vt 0.738260 0.157526
vt 0.635559 0.157526
vt 0.786081 0.445596
vt 0.786081 0.372915
vt 0.390767 0.444256
vt 0.390768 0.341557
vt 0.013467 0.319855
vt 0.006945 0.243026
vt 0.001988 0.242614
vt 0.008580 0.320783
vt 0.786081 0.587225
vt 0.786081 0.559459
vt 0.786081 0.895333
vt 0.786081 0.792633
vt 0.006753 0.969033
vt 0.014702 0.697013
vt 0.010048 0.692249
vt 0.001968 0.969680
vt 0.998047 0.579321
vt 0.918028 0.316828
vt 0.913176 0.317397
vt 0.994360 0.583705
vt 0.874702 0.164284
vt 0.956568 0.047027
vt 0.955984 0.042088
vt 0.870243 0.162081
vt 0.833884 0.293658
vt 0.828947 0.293054
vt 0.634347 0.125395
vt 0.634952 0.130332
vt 0.880969 0.002710
vt 0.763717 0.084576
vt 0.765920 0.089035
vt 0.885908 0.003294
vt 0.454653 0.004022
vt 0.453899 0.008939
vt 0.390766 0.935445
vt 0.014702 0.993409
vt 0.010731 0.996155
vt 0.389107 0.997486
vt 0.941252 0.469312
vt 0.936335 0.470065
vt 0.786080 0.301443
vt 0.784422 0.239402
vt 0.385794 0.247189
vt 0.389360 0.243722
vt 0.781106 0.989701
vt 0.784672 0.993168
vt 0.013467 0.217433
vt 0.009199 0.214878
vt 0.956568 0.482974
vt 0.952387 0.485667
vt 0.836107 0.232342
vt 0.836107 0.157526
vt 0.430157 0.232342
vt 0.430157 0.157526
vt 0.402391 0.232342
vt 0.402391 0.157526
vt 0.374624 0.232342
vt 0.374624 0.157526
vt 0.331576 0.232342
vt 0.331576 0.157526
vt 0.288528 0.232342
vt 0.288528 0.157526
vt 0.215847 0.232342
vt 0.215847 0.157526
vt 0.144374 0.232342
vt 0.144374 0.157526
vt 0.082311 0.232342
vt 0.082311 0.157526
vt 0.474855 0.998032
vt 0.449905 0.989369
vt 0.433775 0.968455
vt 0.079543 0.238855
vt 0.054593 0.247518
vt 0.038463 0.268432
s 0
f 1/1/1 3/3/1 2/2/1
f 1/1/1 4/4/1 3/3/1
f 5/5/2 7/7/2 6/6/2
f 5/5/2 8/8/2 7/7/2
f 9/9/2 11/11/2 10/10/2
f 9/9/2 12/12/2 11/11/2
f 13/13/2 15/15/2 14/14/2
f 13/13/2 16/16/2 15/15/2
f 17/17/2 19/19/2 18/18/2
f 17/17/2 10/10/2 19/19/2
f 20/20/1 22/22/1 21/21/1
f 20/20/1 23/23/1 22/22/1
f 24/24/1 25/25/1 21/21/1
f 24/24/1 26/26/1 25/25/1
f 27/27/2 29/29/2 28/28/2
f 27/27/2 30/30/2 29/29/2
f 31/31/1 33/33/1 32/32/1
f 31/31/1 34/34/1 33/33/1
f 35/35/1 37/37/1 36/36/1
f 35/35/1 38/38/1 37/37/1
f 20/20/1 38/38/1 35/35/1
f 20/20/1 39/39/1 38/38/1
f 40/40/2 42/42/2 41/41/2
f 40/40/2 43/43/2 42/42/2
f 44/44/2 30/30/2 27/27/2
f 44/44/2 45/45/2 30/30/2
f 28/28/2 16/16/2 13/13/2
f 28/28/2 29/29/2 16/16/2
f 30/30/2 46/46/2 29/29/2
f 30/30/2 47/47/2 46/46/2
f 36/36/1 4/4/1 1/1/1
f 36/36/1 37/37/1 4/4/1
f 48/48/1 50/50/1 49/49/1
f 48/48/1 51/51/1 50/50/1
f 52/52/1 54/54/1 53/53/1
f 52/52/1 55/55/1 54/54/1
f 56/56/2 9/9/2 57/57/2
f 56/56/2 58/58/2 9/9/2
f 59/59/2 58/58/2 56/56/2
f 59/59/2 60/60/2 58/58/2
f 61/61/2 63/63/2 62/62/2
f 61/61/2 64/64/2 63/63/2
f 65/65/1 51/51/1 48/48/1
f 65/65/1 66/66/1 51/51/1
f 19/19/2 67/67/2 45/45/2
f 19/19/2 68/68/2 67/67/2
f 49/49/1 26/26/1 24/24/1
f 49/49/1 50/50/1 26/26/1
f 69/69/1 71/71/1 70/70/1
f 69/69/1 72/72/1 71/71/1
f 57/57/2 10/10/2 17/17/2
f 57/57/2 9/9/2 10/10/2
f 18/18/2 45/45/2 44/44/2
f 18/18/2 19/19/2 45/45/2
f 73/73/2 8/8/2 5/5/2
f 73/73/2 74/74/2 8/8/2
f 21/21/1 39/39/1 20/20/1
f 21/21/1 25/25/1 39/39/1
f 75/75/1 77/77/1 76/76/1
f 75/75/1 78/78/1 77/77/1
f 6/6/2 80/80/2 79/79/2
f 6/6/2 7/7/2 80/80/2
f 81/81/1 34/34/1 31/31/1
f 81/81/1 82/82/1 34/34/1
f 53/53/1 84/84/1 83/83/1
f 53/53/1 54/54/1 84/84/1
s 1
f 85/85/3 87/87/4 86/86/4
f 85/85/3 88/88/3 87/87/4
f 86/86/4 90/90/5 89/89/5
f 86/86/4 87/87/4 90/90/5
f 91/91/6 93/93/7 92/92/7
f 91/91/6 94/94/6 93/93/7
f 95/95/8 97/97/9 96/96/9
f 95/95/8 98/98/10 97/97/9
f 99/99/11 98/98/10 95/95/8
f 99/99/11 100/100/11 98/98/10
f 96/96/9 88/88/3 85/85/3
f 96/96/9 97/97/9 88/88/3
f 101/101/12 103/103/13 102/102/13
f 101/101/12 104/104/12 103/103/13
f 105/105/14 104/104/12 101/101/12
f 105/105/14 106/106/14 104/104/12
f 107/107/15 109/109/16 108/108/16
f 107/107/15 110/110/15 109/109/16
f 102/102/13 94/94/6 91/91/6
f 102/102/13 103/103/13 94/94/6
f 111/111/17 100/100/11 99/99/11
f 111/111/17 112/112/17 100/100/11
f 109/109/16 113/113/18 108/108/16
f 109/109/16 114/114/18 113/113/18
f 114/114/18 115/115/19 113/113/18
f 114/114/18 116/116/19 115/115/19
f 115/115/19 118/118/20 117/117/20
f 115/115/19 116/116/19 118/118/20
s 0
f 119/119/21 121/121/21 120/120/21
f 119/119/21 122/122/21 121/121/21
f 36/36/1 123/123/1 35/35/1
f 36/36/1 124/124/1 123/123/1
f 60/60/2 125/125/2 58/58/2
f 60/60/2 126/126/2 125/125/2
f 127/127/2 129/129/2 128/128/2
f 127/127/2 130/130/2 129/129/2
f 24/24/1 131/131/1 49/49/1
f 24/24/1 132/132/1 131/131/1
f 45/45/2 47/47/2 30/30/2
f 45/45/2 67/67/2 47/47/2
f 48/48/1 133/133/1 65/65/1
f 48/48/1 134/134/1 133/133/1
f 135/135/2 137/137/2 136/136/2
f 135/135/2 138/138/2 137/137/2
f 35/35/1 23/23/1 20/20/1
f 35/35/1 123/123/1 23/23/1
f 139/139/1 141/141/1 140/140/1
f 139/139/1 142/142/1 141/141/1
f 143/143/1 145/145/1 144/144/1
f 143/143/1 146/146/1 145/145/1
f 83/83/1 148/148/1 147/147/1
f 83/83/1 84/84/1 148/148/1
f 147/147/1 146/146/1 143/143/1
f 147/147/1 148/148/1 146/146/1
f 149/149/2 74/74/2 73/73/2
f 149/149/2 150/150/2 74/74/2
f 70/70/1 78/78/1 75/75/1
f 70/70/1 71/71/1 78/78/1
f 151/151/2 153/153/2 152/152/2
f 151/151/2 154/154/2 153/153/2
f 152/152/2 150/150/2 149/149/2
f 152/152/2 153/153/2 150/150/2
f 76/76/1 156/156/1 155/155/1
f 76/76/1 77/77/1 156/156/1
f 29/29/2 157/157/2 16/16/2
f 29/29/2 46/46/2 157/157/2
f 62/62/2 43/43/2 40/40/2
f 62/62/2 63/63/2 43/43/2
f 158/158/2 138/138/2 135/135/2
f 158/158/2 159/159/2 138/138/2
f 16/16/2 160/160/2 15/15/2
f 16/16/2 157/157/2 160/160/2
f 161/161/2 64/64/2 61/61/2
f 161/161/2 162/162/2 64/64/2
f 1/1/1 124/124/1 36/36/1
f 1/1/1 163/163/1 124/124/1
f 58/58/2 12/12/2 9/9/2
f 58/58/2 125/125/2 12/12/2
f 2/2/1 163/163/1 1/1/1
f 2/2/1 164/164/1 163/163/1
f 10/10/2 68/68/2 19/19/2
f 10/10/2 11/11/2 68/68/2
f 49/49/1 134/134/1 48/48/1
f 49/49/1 131/131/1 134/134/1
f 140/140/1 82/82/1 81/81/1
f 140/140/1 141/141/1 82/82/1
f 165/165/2 126/126/2 60/60/2
f 165/165/2 166/166/2 126/126/2
f 21/21/1 132/132/1 24/24/1
f 21/21/1 22/22/1 132/132/1
f 65/65/1 168/168/1 167/167/1
f 65/65/1 133/133/1 168/168/1
f 128/128/2 170/170/2 169/169/2
f 128/128/2 129/129/2 170/170/2
f 171/171/1 55/55/1 52/52/1
f 171/171/1 172/172/1 55/55/1
f 121/121/21 173/173/21 120/120/21
f 121/121/21 174/174/21 173/173/21
f 175/175/21 122/122/21 119/119/21
f 175/175/21 176/176/21 122/122/21
f 177/177/21 176/176/21 175/175/21
f 177/177/21 178/178/21 176/176/21
f 179/179/21 178/178/21 177/177/21
f 179/179/21 180/180/21 178/178/21
f 181/181/21 180/180/21 179/179/21
f 181/181/21 182/182/21 180/180/21
f 183/183/21 182/182/21 181/181/21
f 183/183/21 184/184/21 182/182/21
f 185/185/21 184/184/21 183/183/21
f 185/185/21 186/186/21 184/184/21
f 187/187/21 186/186/21 185/185/21
f 187/187/21 188/188/21 186/186/21
f 189/189/21 188/188/21 187/187/21
f 189/189/21 190/190/21 188/188/21
f 66/66/1 65/65/1 167/167/1
f 167/167/1 193/191/1 66/66/1
f 193/191/1 192/192/1 66/66/1
f 192/192/1 191/193/1 66/66/1
f 194/194/2 165/165/2 60/60/2
f 60/60/2 59/59/2 194/194/2
f 59/59/2 195/195/2 194/194/2
f 59/59/2 196/196/2 195/195/2
