# Blender 5.1.1
# www.blender.org
mtllib card_right.mtl
o Object_2.006
v -0.648842 0.633343 0.674706
v -0.648055 0.633371 0.674687
v -0.648400 0.633361 0.674642
v -0.648389 0.633015 0.674628
v -0.648830 0.632998 0.674692
v -0.649370 0.633313 0.675016
v -0.649359 0.632968 0.675002
v -0.675095 0.631293 0.704257
v -0.647562 0.633379 0.674927
v -0.647550 0.633033 0.674914
v -0.648044 0.633025 0.674673
v -0.675083 0.630948 0.704244
v -0.647514 0.633033 0.674946
v -0.627418 0.633033 0.692624
v -0.647526 0.633379 0.674959
v -0.627430 0.633379 0.692638
v -0.627088 0.633368 0.693197
v -0.627076 0.633023 0.693183
v -0.627035 0.632998 0.693865
v -0.627047 0.633343 0.693879
v -0.627275 0.632968 0.694430
v -0.627287 0.633313 0.694443
v -0.653011 0.631293 0.723685
v -0.653000 0.630948 0.723671
v -0.653529 0.630917 0.723981
v -0.653540 0.631263 0.723994
v -0.654431 0.631233 0.723986
v -0.654820 0.631228 0.723773
v -0.654808 0.630882 0.723760
v -0.654419 0.630887 0.723973
v -0.653982 0.631245 0.724059
v -0.653970 0.630900 0.724045
v -0.674940 0.630882 0.706049
v -0.675282 0.630892 0.705490
v -0.675323 0.630917 0.704808
v -0.675335 0.631263 0.704821
v -0.675294 0.631238 0.705503
v -0.674952 0.631228 0.706062
v -0.653970 0.630900 0.724045
v -0.653982 0.631245 0.724059
v -0.654431 0.631233 0.723986
v -0.648044 0.633025 0.674673
v -0.675294 0.631238 0.705503
v -0.627088 0.633368 0.693197
v -0.674940 0.630882 0.706049
v -0.647550 0.633033 0.674914
v -0.674952 0.631228 0.706062
v -0.647562 0.633379 0.674927
v -0.653000 0.630948 0.723671
v -0.627275 0.632968 0.694430
v -0.648055 0.633371 0.674687
v -0.675335 0.631263 0.704821
v -0.648842 0.633343 0.674706
v -0.648389 0.633015 0.674628
v -0.649359 0.632968 0.675002
v -0.675083 0.630948 0.704244
v -0.675323 0.630917 0.704808
v -0.675095 0.631293 0.704257
v -0.649370 0.633313 0.675016
v -0.648830 0.632998 0.674692
v -0.647514 0.633033 0.674946
v -0.654808 0.630882 0.723760
v -0.648400 0.633361 0.674642
v -0.627418 0.633033 0.692624
v -0.654419 0.630887 0.723973
v -0.647526 0.633379 0.674959
v -0.654820 0.631228 0.723773
v -0.627430 0.633379 0.692638
v -0.675282 0.630892 0.705490
v -0.627076 0.633023 0.693183
v -0.653529 0.630917 0.723981
v -0.627035 0.632998 0.693865
v -0.653540 0.631263 0.723994
v -0.627047 0.633343 0.693879
v -0.627287 0.633313 0.694443
v -0.653011 0.631293 0.723685
vn -0.0342 0.9987 0.0389
vn 0.0217 0.0396 -0.9990
vn -0.0689 0.0365 -0.9970
vn -0.2975 0.0270 -0.9543
vn -0.4157 0.0212 -0.9092
vn -0.7444 0.0005 -0.6677
vn -0.7492 0.0001 -0.6624
vn -0.7524 -0.0001 -0.6587
vn 0.4722 0.0504 -0.8801
vn 0.4468 0.0501 -0.8932
vn 0.3660 0.0487 -0.9293
vn 0.2678 0.0466 -0.9623
vn 0.0342 -0.9987 -0.0389
vn 0.6624 0.0518 -0.7474
vn 0.6596 0.0518 -0.7498
vn 0.6700 0.0518 -0.7405
vn 0.9760 0.0418 -0.2138
vn 0.9271 0.0462 -0.3720
vn 0.9961 0.0309 0.0828
vn 0.9713 0.0241 0.2364
vn 0.7571 0.0005 0.6533
vn 0.7524 0.0001 0.6587
vn 0.7444 -0.0005 0.6677
vn 0.7492 -0.0001 0.6624
vn 0.4157 -0.0212 0.9092
vn 0.2975 -0.0270 0.9543
vn -0.6582 -0.0518 0.7510
vn -0.6543 -0.0518 0.7544
vn -0.3752 -0.0489 0.9257
vn -0.2665 -0.0466 0.9627
vn -0.0586 -0.0408 0.9974
vn 0.0433 -0.0374 0.9984
vn -0.7571 -0.0005 -0.6533
vn -0.9961 -0.0309 -0.0828
vn -0.9713 -0.0241 -0.2364
vn -0.9760 -0.0418 0.2138
vn -0.9271 -0.0462 0.3720
vn -0.6700 -0.0518 0.7406
vn -0.6623 -0.0518 0.7474
s 0
usemtl Regular_0
f 1//1 2//1 3//1
s 1
f 63//2 4//3 53//4
f 4//3 5//5 53//4
f 53//4 5//5 6//6
f 5//5 7//7 6//6
f 6//6 7//7 8//8
s 0
f 58//1 9//1 59//1
f 59//1 9//1 2//1
s 1
f 48//9 10//10 51//11
f 10//10 11//12 51//11
s 0
f 42//13 46//13 55//13
f 55//13 46//13 12//13
f 13//13 12//13 46//13
f 14//13 12//13 13//13
s 1
f 64//14 61//15 15//15
f 16//16 64//14 15//15
s 0
f 66//1 58//1 68//1
f 68//1 58//1 17//1
s 1
f 44//17 18//18 16//16
f 19//19 18//18 44//17
f 20//20 19//19 44//17
f 21//21 19//19 20//20
f 22//22 21//21 20//20
f 74//1 58//1 75//1
s 0
f 58//1 23//1 75//1
s 1
f 76//23 24//24 22//22
f 25//25 24//24 76//23
f 26//26 25//25 76//23
s 0
f 27//1 73//1 23//1
f 27//1 23//1 28//1
s 1
f 67//27 29//28 41//29
f 29//28 30//30 41//29
f 41//29 30//30 31//31
f 30//30 32//32 31//31
f 31//31 32//32 26//26
s 0
f 65//13 71//13 39//13
f 62//13 49//13 65//13
f 62//13 33//13 49//13
f 33//13 34//13 49//13
f 34//13 35//13 49//13
f 35//13 12//13 49//13
f 50//13 49//13 12//13
s 1
f 56//33 57//34 36//35
f 8//8 56//33 36//35
f 36//35 57//34 37//36
s 0
f 23//1 52//1 43//1
f 23//1 43//1 38//1
s 1
f 37//36 69//37 47//38
f 57//34 69//37 37//36
f 69//37 45//39 47//38
f 47//38 45//39 67//27
f 45//39 29//28 67//27
s 0
f 23//1 38//1 28//1
f 40//1 73//1 27//1
s 1
f 32//32 25//25 26//26
s 0
f 49//13 71//13 65//13
f 23//1 58//1 52//1
s 1
f 24//24 21//21 22//22
f 50//13 12//13 72//13
s 0
f 72//13 12//13 70//13
f 17//1 58//1 74//1
s 1
f 18//18 64//14 16//16
f 15//15 61//15 48//9
s 0
f 70//13 12//13 14//13
s 1
f 61//15 10//10 48//9
s 0
f 9//1 58//1 66//1
s 1
f 7//7 56//33 8//8
s 0
f 60//13 42//13 55//13
f 54//13 42//13 60//13
s 1
f 11//12 4//3 63//2
f 51//11 11//12 63//2
s 0
f 59//1 2//1 1//1
