# Blender 5.1.1
# www.blender.org
mtllib cat.mtl
o christmas_present_Present_0.001
v -0.724902 0.694838 0.573906
v -0.722698 0.716742 0.564315
v -0.729174 0.737654 0.559451
v -0.735356 0.748314 0.558723
v -0.745749 0.737031 0.568900
v -0.771809 0.738646 0.576357
v -0.780155 0.753017 0.571743
v -0.794881 0.729229 0.582804
v -0.790262 0.693029 0.589678
v -0.726123 0.696419 0.573739
v -0.725910 0.693168 0.569910
v -0.724625 0.716049 0.559590
v -0.730235 0.736787 0.556098
v -0.736390 0.747459 0.555394
v -0.748839 0.734055 0.558541
v -0.775203 0.735736 0.565844
v -0.781165 0.752101 0.568329
v -0.796693 0.728223 0.577236
v -0.791958 0.690705 0.583742
v -0.727139 0.694860 0.569688
vn 0.2321 0.2249 0.9463
vn -0.2891 -0.4065 -0.8667
vn -0.0114 0.9647 -0.2633
vn 0.9205 0.1916 -0.3407
vn 0.1308 -0.9358 0.3274
vn 0.8534 0.3816 -0.3550
vn 0.8150 0.4475 -0.3682
vn -0.7650 -0.5023 0.4031
vn -0.8005 0.5787 0.1558
vn -0.7300 0.6831 0.0215
vn 0.9162 -0.2064 -0.3435
vn -0.9519 -0.0683 0.2987
vn 0.4228 0.3275 0.8450
vn 0.4595 0.3230 0.8274
vn 0.1111 0.3617 0.9257
vn 0.4591 0.3250 0.8268
vn 0.2743 -0.0137 0.9616
vn 0.2254 0.2094 0.9515
vn 0.0451 0.1396 0.9892
vn -0.6260 -0.2911 -0.7234
vn -0.1962 -0.1915 -0.9617
vn -0.2695 -0.3149 -0.9101
vn -0.1105 -0.1288 -0.9855
vn -0.4592 -0.0325 -0.8877
vn -0.0784 -0.3126 -0.9466
vn -0.2603 -0.5042 -0.8235
vn -0.0179 0.9624 -0.2711
vn 0.8997 0.1869 -0.3945
vn 0.1312 -0.9353 0.3287
vn 0.8507 0.3671 -0.3762
vn 0.8143 0.4451 -0.3726
vn -0.7472 -0.5357 0.3934
vn -0.8260 0.5556 0.0951
vn -0.7152 0.6976 0.0431
vn 0.9697 -0.1731 -0.1724
vn -0.9460 -0.0602 0.3187
vt 0.180300 0.411776
vt 0.205183 -0.000000
vt 0.476413 0.538097
vt 0.494638 0.538097
vt 0.765867 0.000000
vt 0.790750 0.411776
vt 0.057924 0.564790
vt 0.028947 0.842994
vt 0.028947 0.565394
vt 0.086869 0.564790
vt 0.057924 0.763266
vt 0.057924 0.566285
vt 1.000000 0.517250
vt 0.971051 0.001411
vt 1.000000 -0.000000
vt 0.173365 0.724888
vt 0.144419 0.566272
vt 0.173365 0.564790
vt 0.231258 0.654312
vt 0.202321 0.566431
vt 0.231258 0.564790
vt 0.231258 0.564790
vt 0.240968 0.597596
vt 0.231258 0.593773
vt 0.086869 0.758487
vt 0.115827 0.566011
vt 0.115827 0.759709
vt 0.173365 0.712673
vt 0.202321 0.566051
vt 0.202321 0.713934
vt 0.144419 0.569538
vt 0.115827 0.744753
vt 0.115827 0.564790
vt -0.000000 0.846263
vt 0.028947 0.566246
vt 0.028947 0.847719
vt 0.485525 0.544786
vt 0.306151 0.564790
vt 0.111400 0.529874
vt 0.025234 0.481000
vt 0.158676 0.135080
vt -0.000000 0.112192
vt 0.485525 0.021541
vt 0.859650 0.529874
vt 0.664900 0.564790
vt 0.485525 0.544786
vt 0.485525 0.021541
vt 0.945817 0.481000
vt 0.971051 0.112192
vt 0.812375 0.135080
vt 0.057924 0.842390
vt 0.086869 0.761770
vt 0.971051 0.518661
vt 0.144419 0.726370
vt 0.202321 0.655953
vt 0.240968 0.568612
vt 0.086869 0.564790
vt 0.173365 0.564790
vt 0.144419 0.749501
vt -0.000000 0.564790
s 0
usemtl Present.001
f 5/1/1 8/2/1 10/3/1
f 20/4/2 18/5/2 15/6/2
f 6/7/3 15/8/3 16/9/3
f 3/10/4 12/11/4 13/12/4
f 9/13/5 20/14/5 10/15/5
f 6/16/6 17/17/6 7/18/6
f 3/19/7 14/20/7 4/21/7
f 1/22/8 20/23/8 11/24/8
f 8/25/9 17/26/9 18/27/9
f 5/28/10 14/29/10 15/30/10
f 2/31/11 11/32/11 12/33/11
f 9/34/12 18/35/12 19/36/12
f 1/37/13 2/38/13 3/39/13
f 3/39/14 4/40/14 5/1/14
f 6/41/15 7/42/15 8/2/15
f 1/37/16 3/39/16 5/1/16
f 5/1/17 6/41/17 8/2/17
f 8/2/18 9/43/18 10/3/18
f 10/3/19 1/37/19 5/1/19
f 13/44/20 12/45/20 11/46/20
f 20/4/21 19/47/21 18/5/21
f 13/44/22 11/46/22 20/4/22
f 15/6/23 14/48/23 13/44/23
f 18/5/24 17/49/24 16/50/24
f 15/6/25 13/44/25 20/4/25
f 18/5/26 16/50/26 15/6/26
f 6/7/27 5/51/27 15/8/27
f 3/10/28 2/52/28 12/11/28
f 9/13/29 19/53/29 20/14/29
f 6/16/30 16/54/30 17/17/30
f 3/19/31 13/55/31 14/20/31
f 1/22/32 10/56/32 20/23/32
f 8/25/33 7/57/33 17/26/33
f 5/28/34 4/58/34 14/29/34
f 2/31/35 1/59/35 11/32/35
f 9/34/36 8/60/36 18/35/36
