# Blender 5.1.1
# www.blender.org
o christmas_present_Present_0.001
v 0.632569 0.550601 0.714880
v 0.643831 0.576044 0.712920
v 0.646122 0.600333 0.703796
v 0.644118 0.612716 0.696849
v 0.628541 0.599610 0.690304
v 0.608821 0.601486 0.665761
v 0.610003 0.618179 0.654747
v 0.591528 0.590548 0.643961
v 0.586248 0.548501 0.652003
v 0.632198 0.552438 0.713496
v 0.636393 0.548661 0.712000
v 0.648022 0.575239 0.708728
v 0.649234 0.599327 0.701150
v 0.647216 0.611722 0.694242
v 0.638241 0.596154 0.682331
v 0.618549 0.598106 0.657393
v 0.613203 0.617114 0.652129
v 0.596673 0.589379 0.639514
v 0.591840 0.545801 0.647514
v 0.636078 0.550627 0.710585
vn -0.7823 0.2249 0.5808
vn 0.6868 -0.4065 -0.6025
vn 0.2382 0.9647 -0.1126
vn 0.6709 0.1916 0.7164
vn -0.2511 -0.9358 0.2475
vn 0.6581 0.3816 0.6491
vn 0.6554 0.4475 0.6085
vn -0.6682 -0.5023 -0.5489
vn -0.4540 0.5787 -0.6775
vn -0.3029 0.6831 -0.6646
vn 0.6719 -0.2064 0.7113
vn -0.6444 -0.0683 -0.7616
vn -0.6150 0.3275 0.7173
vn -0.5845 0.3230 0.7444
vn -0.8102 0.3617 0.4613
vn -0.5841 0.3250 0.7438
vn -0.7800 -0.0137 0.6256
vn -0.7897 0.2094 0.5767
vn -0.8943 0.1396 0.4251
vn 0.4241 -0.2911 -0.8575
vn 0.8104 -0.1915 -0.5537
vn 0.7344 -0.3149 -0.6013
vn 0.8656 -0.1288 -0.4839
vn 0.6402 -0.0325 -0.7675
vn 0.8422 -0.3126 -0.4393
vn 0.6581 -0.5042 -0.5592
vn 0.2429 0.9624 -0.1217
vn 0.7125 0.1869 0.6764
vn -0.2521 -0.9353 0.2484
vn 0.6766 0.3671 0.6383
vn 0.6592 0.4451 0.6061
vn -0.6524 -0.5357 -0.5362
vn -0.4079 0.5556 -0.7245
vn -0.3170 0.6976 -0.6425
vn 0.5349 -0.1731 0.8270
vn -0.6605 -0.0602 -0.7484
vt 0.180300 0.411776
vt 0.205183 -0.000000
vt 0.476413 0.538097
vt 0.494638 0.538097
vt 0.765867 0.000000
vt 0.790750 0.411776
vt 0.057924 0.564790
vt 0.028947 0.842994
vt 0.028947 0.565394
vt 0.086869 0.564790
vt 0.057924 0.763266
vt 0.057924 0.566285
vt 1.000000 0.517250
vt 0.971051 0.001411
vt 1.000000 -0.000000
vt 0.173365 0.724888
vt 0.144419 0.566272
vt 0.173365 0.564790
vt 0.231258 0.654312
vt 0.202321 0.566431
vt 0.231258 0.564790
vt 0.231258 0.564790
vt 0.240968 0.597596
vt 0.231258 0.593773
vt 0.086869 0.758487
vt 0.115827 0.566011
vt 0.115827 0.759709
vt 0.173365 0.712673
vt 0.202321 0.566051
vt 0.202321 0.713934
vt 0.144419 0.569538
vt 0.115827 0.744753
vt 0.115827 0.564790
vt -0.000000 0.846263
vt 0.028947 0.566246
vt 0.028947 0.847719
vt 0.485525 0.544786
vt 0.306151 0.564790
vt 0.111400 0.529874
vt 0.025234 0.481000
vt 0.158676 0.135080
vt -0.000000 0.112192
vt 0.485525 0.021541
vt 0.859650 0.529874
vt 0.664900 0.564790
vt 0.485525 0.544786
vt 0.485525 0.021541
vt 0.945817 0.481000
vt 0.971051 0.112192
vt 0.812375 0.135080
vt 0.057924 0.842390
vt 0.086869 0.761770
vt 0.971051 0.518661
vt 0.144419 0.726370
vt 0.202321 0.655953
vt 0.240968 0.568612
vt 0.086869 0.564790
vt 0.173365 0.564790
vt 0.144419 0.749501
vt -0.000000 0.564790
s 0
f 5/1/1 8/2/1 10/3/1
f 20/4/2 18/5/2 15/6/2
f 6/7/3 15/8/3 16/9/3
f 3/10/4 12/11/4 13/12/4
f 9/13/5 20/14/5 10/15/5
f 6/16/6 17/17/6 7/18/6
f 3/19/7 14/20/7 4/21/7
f 1/22/8 20/23/8 11/24/8
f 8/25/9 17/26/9 18/27/9
f 5/28/10 14/29/10 15/30/10
f 2/31/11 11/32/11 12/33/11
f 9/34/12 18/35/12 19/36/12
f 1/37/13 2/38/13 3/39/13
f 3/39/14 4/40/14 5/1/14
f 6/41/15 7/42/15 8/2/15
f 1/37/16 3/39/16 5/1/16
f 5/1/17 6/41/17 8/2/17
f 8/2/18 9/43/18 10/3/18
f 10/3/19 1/37/19 5/1/19
f 13/44/20 12/45/20 11/46/20
f 20/4/21 19/47/21 18/5/21
f 13/44/22 11/46/22 20/4/22
f 15/6/23 14/48/23 13/44/23
f 18/5/24 17/49/24 16/50/24
f 15/6/25 13/44/25 20/4/25
f 18/5/26 16/50/26 15/6/26
f 6/7/27 5/51/27 15/8/27
f 3/10/28 2/52/28 12/11/28
f 9/13/29 19/53/29 20/14/29
f 6/16/30 16/54/30 17/17/30
f 3/19/31 13/55/31 14/20/31
f 1/22/32 10/56/32 20/23/32
f 8/25/33 7/57/33 17/26/33
f 5/28/34 4/58/34 14/29/34
f 2/31/35 1/59/35 11/32/35
f 9/34/36 8/60/36 18/35/36
