# Blender 5.1.1
# www.blender.org
mtllib dice1.mtl
o defaultMaterial.001
v -0.762204 0.663809 0.598445
v -0.756482 0.663809 0.598445
v -0.756482 0.663809 0.604167
v -0.762204 0.663809 0.604167
v -0.756482 0.671421 0.604167
v -0.756482 0.671421 0.598445
v -0.762204 0.671421 0.598445
v -0.762204 0.671421 0.604167
v -0.756482 0.664754 0.605112
v -0.756482 0.670476 0.605112
v -0.762204 0.670476 0.605112
v -0.762204 0.664754 0.605112
v -0.755537 0.664754 0.598445
v -0.755537 0.670476 0.598445
v -0.755537 0.670476 0.604167
v -0.755537 0.664754 0.604167
v -0.762204 0.664754 0.597500
v -0.762204 0.670476 0.597500
v -0.756482 0.670476 0.597500
v -0.756482 0.664754 0.597500
v -0.763149 0.664754 0.604167
v -0.763149 0.670476 0.604167
v -0.763149 0.670476 0.598445
v -0.763149 0.664754 0.598445
v -0.762204 0.664059 0.604861
v -0.762778 0.664180 0.604741
v -0.762899 0.664059 0.604167
v -0.762899 0.664059 0.598445
v -0.762778 0.664180 0.597871
v -0.762204 0.664059 0.597750
v -0.756482 0.664059 0.597750
v -0.755908 0.664180 0.597871
v -0.755788 0.664059 0.598445
v -0.755788 0.664059 0.604167
v -0.755908 0.664180 0.604741
v -0.756482 0.664059 0.604861
v -0.762899 0.671171 0.604167
v -0.762778 0.671050 0.604741
v -0.762204 0.671171 0.604861
v -0.756482 0.671171 0.604861
v -0.755908 0.671050 0.604741
v -0.755788 0.671171 0.604167
v -0.755788 0.671171 0.598445
v -0.755908 0.671050 0.597871
v -0.756482 0.671171 0.597750
v -0.762204 0.671171 0.597750
v -0.762778 0.671050 0.597871
v -0.762899 0.671171 0.598445
v -0.762899 0.664754 0.604861
v -0.762778 0.664180 0.604741
v -0.762204 0.664059 0.604861
v -0.756482 0.664059 0.604861
v -0.755908 0.664180 0.604741
v -0.755788 0.664754 0.604861
v -0.755788 0.670476 0.604861
v -0.755908 0.671050 0.604741
v -0.756482 0.671171 0.604861
v -0.762204 0.671171 0.604861
v -0.762778 0.671050 0.604741
v -0.762899 0.670476 0.604861
v -0.755788 0.664754 0.604861
v -0.755908 0.664180 0.604741
v -0.755788 0.664059 0.604167
v -0.755788 0.664059 0.598445
v -0.755908 0.664180 0.597871
v -0.755788 0.664754 0.597750
v -0.755788 0.670476 0.597750
v -0.755908 0.671050 0.597871
v -0.755788 0.671171 0.598445
v -0.755788 0.671171 0.604167
v -0.755908 0.671050 0.604741
v -0.755788 0.670476 0.604861
v -0.755788 0.664754 0.597750
v -0.755908 0.664180 0.597871
v -0.756482 0.664059 0.597750
v -0.762204 0.664059 0.597750
v -0.762778 0.664180 0.597871
v -0.762899 0.664754 0.597750
v -0.762899 0.670476 0.597750
v -0.762778 0.671050 0.597871
v -0.762204 0.671171 0.597750
v -0.756482 0.671171 0.597750
v -0.755908 0.671050 0.597871
v -0.755788 0.670476 0.597750
v -0.762899 0.664754 0.597750
v -0.762778 0.664180 0.597871
v -0.762899 0.664059 0.598445
v -0.762899 0.664059 0.604167
v -0.762778 0.664180 0.604741
v -0.762899 0.664754 0.604861
v -0.762899 0.670476 0.604861
v -0.762778 0.671050 0.604741
v -0.762899 0.671171 0.604167
v -0.762899 0.671171 0.598445
v -0.762778 0.671050 0.597871
v -0.762899 0.670476 0.597750
vn -0.1599 -0.9741 0.1599
vn -0.1599 -0.9741 -0.1599
vn 0.1599 -0.9741 -0.1599
vn 0.1599 -0.9741 0.1599
vn -0.1599 0.9741 0.1599
vn 0.1599 0.9741 0.1599
vn 0.1599 0.9741 -0.1599
vn -0.1599 0.9741 -0.1599
vn -0.1599 -0.1599 0.9741
vn 0.1599 -0.1599 0.9741
vn 0.1599 0.1599 0.9741
vn -0.1599 0.1599 0.9741
vn 0.9741 -0.1599 0.1599
vn 0.9741 -0.1599 -0.1599
vn 0.9741 0.1599 -0.1599
vn 0.9741 0.1599 0.1599
vn 0.1599 -0.1599 -0.9741
vn -0.1599 -0.1599 -0.9741
vn -0.1599 0.1599 -0.9741
vn 0.1599 0.1599 -0.9741
vn -0.9741 -0.1600 -0.1600
vn -0.9741 -0.1599 0.1599
vn -0.9741 0.1599 0.1599
vn -0.9741 0.1599 -0.1599
vn -0.6982 -0.6982 0.1584
vn -0.1584 -0.6982 0.6982
vn -0.5773 -0.5774 0.5774
vn -0.1584 -0.6982 -0.6982
vn -0.6982 -0.6982 -0.1584
vn -0.5774 -0.5774 -0.5773
vn 0.6982 -0.6982 -0.1584
vn 0.1584 -0.6982 -0.6982
vn 0.5773 -0.5773 -0.5774
vn 0.1584 -0.6982 0.6982
vn 0.6982 -0.6982 0.1584
vn 0.5774 -0.5773 0.5773
vn -0.1584 0.6982 0.6982
vn -0.6982 0.6982 0.1584
vn -0.5774 0.5774 0.5773
vn 0.6982 0.6982 0.1584
vn 0.1584 0.6982 0.6982
vn 0.5773 0.5773 0.5774
vn 0.1584 0.6982 -0.6982
vn 0.6982 0.6982 -0.1584
vn 0.5774 0.5773 -0.5773
vn -0.6982 0.6982 -0.1584
vn -0.1584 0.6982 -0.6982
vn -0.5773 0.5774 -0.5774
vn -0.6982 -0.1584 0.6982
vn -0.5774 -0.5773 0.5774
vn 0.6982 -0.1584 0.6982
vn 0.5773 -0.5774 0.5773
vn 0.6982 0.1584 0.6982
vn 0.5774 0.5773 0.5773
vn -0.6982 0.1584 0.6982
vn -0.5773 0.5774 0.5773
vn 0.5774 -0.5773 0.5774
vn 0.6982 -0.1584 -0.6982
vn 0.5774 -0.5774 -0.5773
vn 0.6982 0.1584 -0.6982
vn 0.5773 0.5773 -0.5774
vn 0.5773 0.5774 0.5773
vn 0.5774 -0.5773 -0.5773
vn -0.6982 -0.1584 -0.6982
vn -0.5773 -0.5774 -0.5774
vn -0.6982 0.1584 -0.6982
vn -0.5774 0.5773 -0.5773
vn 0.5773 0.5774 -0.5773
vn -0.5774 -0.5773 -0.5774
vn -0.5774 -0.5774 0.5773
vn -0.5773 0.5773 0.5774
vn -0.5773 0.5774 -0.5773
vt 0.299865 0.032914
vt 0.032914 0.032914
vt 0.032914 0.299865
vt 0.299865 0.299865
vt 0.032914 0.366525
vt 0.032914 0.633475
vt 0.299865 0.633475
vt 0.299865 0.366525
vt 0.967086 0.967086
vt 0.967086 0.700135
vt 0.700135 0.700135
vt 0.700135 0.967086
vt 0.366525 0.625339
vt 0.633475 0.625339
vt 0.633475 0.358388
vt 0.366525 0.358388
vt 0.633475 0.967086
vt 0.633475 0.700135
vt 0.366525 0.700135
vt 0.366525 0.967086
vt 0.299865 0.967086
vt 0.299865 0.700135
vt 0.032914 0.700135
vt 0.032914 0.967086
vt 0.299865 0.000500
vt 0.332279 0.032914
vt 0.326656 0.006123
vt 0.000500 0.032914
vt 0.032914 0.000500
vt 0.006123 0.006123
vt 0.032914 0.332279
vt 0.000500 0.299865
vt 0.006123 0.326656
vt 0.332279 0.299865
vt 0.299865 0.332279
vt 0.326656 0.326656
vt 0.000500 0.366525
vt 0.032914 0.334110
vt 0.006123 0.339733
vt 0.032914 0.665889
vt 0.000500 0.633475
vt 0.006123 0.660267
vt 0.332279 0.633475
vt 0.299865 0.665889
vt 0.326656 0.660267
vt 0.299865 0.334110
vt 0.332279 0.366525
vt 0.326656 0.339733
vt 0.999500 0.967086
vt 0.967086 0.999500
vt 0.993877 0.993877
vt 0.967086 0.667721
vt 0.999500 0.700135
vt 0.993877 0.673344
vt 0.667721 0.700135
vt 0.700135 0.667721
vt 0.673344 0.673344
vt 0.700135 0.999500
vt 0.667721 0.967086
vt 0.673344 0.993877
vt 0.366525 0.657753
vt 0.334110 0.625339
vt 0.339733 0.652130
vt 0.665889 0.625339
vt 0.633475 0.657753
vt 0.660267 0.652130
vt 0.633475 0.325974
vt 0.665889 0.358388
vt 0.660267 0.331597
vt 0.334110 0.358388
vt 0.366525 0.325974
vt 0.339733 0.331597
vt 0.665889 0.967086
vt 0.633475 0.999500
vt 0.660267 0.993877
vt 0.633475 0.667721
vt 0.665889 0.700135
vt 0.660267 0.673344
vt 0.334110 0.700135
vt 0.366525 0.667721
vt 0.339733 0.673344
vt 0.366525 0.999500
vt 0.334110 0.967086
vt 0.339733 0.993877
vt 0.332279 0.967086
vt 0.299865 0.999500
vt 0.326656 0.993877
vt 0.299865 0.667721
vt 0.332279 0.700135
vt 0.326656 0.673344
vt 0.000500 0.700135
vt 0.032914 0.667721
vt 0.006123 0.673344
vt 0.032914 0.999500
vt 0.000500 0.967086
vt 0.006123 0.993877
s 1
usemtl Dice_1
f 4/1/1 1/2/2 2/3/3
f 2/3/3 3/4/4 4/1/1
f 8/5/5 5/6/6 6/7/7
f 6/7/7 7/8/8 8/5/5
f 12/9/9 9/10/10 10/11/11
f 10/11/11 11/12/12 12/9/9
f 16/13/13 13/14/14 14/15/15
f 14/15/15 15/16/16 16/13/13
f 20/17/17 17/18/18 18/19/19
f 18/19/19 19/20/20 20/17/17
f 24/21/21 21/22/22 22/23/23
f 22/23/23 23/24/24 24/21/21
f 27/25/25 4/1/1 25/26/26
f 25/26/26 26/27/27 27/25/25
f 30/28/28 1/2/2 28/29/29
f 28/29/29 29/30/30 30/28/28
f 33/31/31 2/3/3 31/32/32
f 31/32/32 32/33/33 33/31/31
f 36/34/34 3/4/4 34/35/35
f 34/35/35 35/36/36 36/34/34
f 39/37/37 8/5/5 37/38/38
f 37/38/38 38/39/39 39/37/37
f 42/40/40 5/6/6 40/41/41
f 40/41/41 41/42/42 42/40/40
f 45/43/43 6/7/7 43/44/44
f 43/44/44 44/45/45 45/43/43
f 48/46/46 7/8/8 46/47/47
f 46/47/47 47/48/48 48/46/46
f 51/49/26 12/9/9 49/50/49
f 49/50/49 50/51/50 51/49/26
f 54/52/51 9/10/10 52/53/34
f 52/53/34 53/54/52 54/52/51
f 57/55/41 10/11/11 55/56/53
f 55/56/53 56/57/54 57/55/41
f 60/58/55 11/12/12 58/59/37
f 58/59/37 59/60/56 60/58/55
f 63/61/35 16/13/13 61/62/51
f 61/62/51 62/63/57 63/61/35
f 66/64/58 13/14/14 64/65/31
f 64/65/31 65/66/59 66/64/58
f 69/67/44 14/15/15 67/68/60
f 67/68/60 68/69/61 69/67/44
f 72/70/53 15/16/16 70/71/40
f 70/71/40 71/72/62 72/70/53
f 75/73/32 20/17/17 73/74/58
f 73/74/58 74/75/63 75/73/32
f 78/76/64 17/18/18 76/77/28
f 76/77/28 77/78/65 78/76/64
f 81/79/47 18/19/19 79/80/66
f 79/80/66 80/81/67 81/79/47
f 84/82/60 19/20/20 82/83/43
f 82/83/43 83/84/68 84/82/60
f 87/85/29 24/21/21 85/86/64
f 85/86/64 86/87/69 87/85/29
f 90/88/49 21/22/22 88/89/25
f 88/89/25 89/90/70 90/88/49
f 93/91/38 22/23/23 91/92/55
f 91/92/55 92/93/71 93/91/38
f 96/94/66 23/24/24 94/95/46
f 94/95/46 95/96/72 96/94/66
f 28/29/29 1/2/2 4/1/1
f 4/1/1 27/25/25 28/29/29
f 31/32/32 2/3/3 1/2/2
f 1/2/2 30/28/28 31/32/32
f 34/35/35 3/4/4 2/3/3
f 2/3/3 33/31/31 34/35/35
f 25/26/26 4/1/1 3/4/4
f 3/4/4 36/34/34 25/26/26
f 40/41/41 5/6/6 8/5/5
f 8/5/5 39/37/37 40/41/41
f 43/44/44 6/7/7 5/6/6
f 5/6/6 42/40/40 43/44/44
f 46/47/47 7/8/8 6/7/7
f 6/7/7 45/43/43 46/47/47
f 37/38/38 8/5/5 7/8/8
f 7/8/8 48/46/46 37/38/38
f 52/53/34 9/10/10 12/9/9
f 12/9/9 51/49/26 52/53/34
f 55/56/53 10/11/11 9/10/10
f 9/10/10 54/52/51 55/56/53
f 58/59/37 11/12/12 10/11/11
f 10/11/11 57/55/41 58/59/37
f 49/50/49 12/9/9 11/12/12
f 11/12/12 60/58/55 49/50/49
f 64/65/31 13/14/14 16/13/13
f 16/13/13 63/61/35 64/65/31
f 67/68/60 14/15/15 13/14/14
f 13/14/14 66/64/58 67/68/60
f 70/71/40 15/16/16 14/15/15
f 14/15/15 69/67/44 70/71/40
f 61/62/51 16/13/13 15/16/16
f 15/16/16 72/70/53 61/62/51
f 76/77/28 17/18/18 20/17/17
f 20/17/17 75/73/32 76/77/28
f 79/80/66 18/19/19 17/18/18
f 17/18/18 78/76/64 79/80/66
f 82/83/43 19/20/20 18/19/19
f 18/19/19 81/79/47 82/83/43
f 73/74/58 20/17/17 19/20/20
f 19/20/20 84/82/60 73/74/58
f 88/89/25 21/22/22 24/21/21
f 24/21/21 87/85/29 88/89/25
f 91/92/55 22/23/23 21/22/22
f 21/22/22 90/88/49 91/92/55
f 94/95/46 23/24/24 22/23/23
f 22/23/23 93/91/38 94/95/46
f 85/86/64 24/21/21 23/24/24
f 23/24/24 96/94/66 85/86/64
