# Blender 5.1.1
# www.blender.org
o margarita_flower_yellow_0.004
v 0.535716 0.438026 0.502109
v 0.534778 0.439323 0.506113
v 0.531618 0.439323 0.502454
v 0.534778 0.439323 0.506113
v 0.535716 0.438026 0.502109
v 0.539233 0.439323 0.504238
v 0.535716 0.438026 0.502109
v 0.531618 0.439323 0.502454
v 0.534121 0.439323 0.498319
v 0.535716 0.438026 0.502109
v 0.534121 0.439323 0.498319
v 0.538828 0.439323 0.499422
v 0.535716 0.438026 0.502109
v 0.538828 0.439323 0.499422
v 0.539233 0.439323 0.504238
v 0.534778 0.439323 0.506113
v 0.539233 0.439323 0.504238
v 0.537310 0.441422 0.505899
v 0.531618 0.439323 0.502454
v 0.534778 0.439323 0.506113
v 0.532604 0.441422 0.504797
v 0.534121 0.439323 0.498319
v 0.531618 0.439323 0.502454
v 0.532198 0.441422 0.499980
v 0.538828 0.439323 0.499422
v 0.534121 0.439323 0.498319
v 0.536654 0.441422 0.498106
v 0.539233 0.439323 0.504238
v 0.538828 0.439323 0.499422
v 0.539813 0.441422 0.501764
v 0.534778 0.439323 0.506113
v 0.537310 0.441422 0.505899
v 0.532604 0.441422 0.504797
v 0.531618 0.439323 0.502454
v 0.532604 0.441422 0.504797
v 0.532198 0.441422 0.499980
v 0.534121 0.439323 0.498319
v 0.532198 0.441422 0.499980
v 0.536654 0.441422 0.498106
v 0.538828 0.439323 0.499422
v 0.536654 0.441422 0.498106
v 0.539813 0.441422 0.501764
v 0.539233 0.439323 0.504238
v 0.539813 0.441422 0.501764
v 0.537310 0.441422 0.505899
v 0.532604 0.441422 0.504797
v 0.537310 0.441422 0.505899
v 0.535716 0.440013 0.502109
v 0.532198 0.441422 0.499980
v 0.532604 0.441422 0.504797
v 0.535716 0.440013 0.502109
v 0.536654 0.441422 0.498106
v 0.532198 0.441422 0.499980
v 0.535716 0.440013 0.502109
v 0.539813 0.441422 0.501764
v 0.536654 0.441422 0.498106
v 0.535716 0.440013 0.502109
v 0.537310 0.441422 0.505899
v 0.539813 0.441422 0.501764
v 0.535716 0.440013 0.502109
v 0.765860 0.452557 0.771428
v 0.764922 0.453854 0.775432
v 0.761762 0.453854 0.771773
v 0.764922 0.453854 0.775432
v 0.765860 0.452557 0.771428
v 0.769377 0.453854 0.773558
v 0.765860 0.452557 0.771428
v 0.761762 0.453854 0.771773
v 0.764266 0.453854 0.767638
v 0.765860 0.452557 0.771428
v 0.764266 0.453854 0.767638
v 0.768972 0.453854 0.768741
v 0.765860 0.452557 0.771428
v 0.768972 0.453854 0.768741
v 0.769377 0.453854 0.773558
v 0.764922 0.453854 0.775432
v 0.769377 0.453854 0.773558
v 0.767454 0.455952 0.775219
v 0.761762 0.453854 0.771773
v 0.764922 0.453854 0.775432
v 0.762748 0.455952 0.774116
v 0.764266 0.453854 0.767638
v 0.761762 0.453854 0.771773
v 0.762342 0.455952 0.769299
v 0.768972 0.453854 0.768741
v 0.764266 0.453854 0.767638
v 0.766798 0.455952 0.767425
v 0.769377 0.453854 0.773558
v 0.768972 0.453854 0.768741
v 0.769957 0.455952 0.771083
v 0.764922 0.453854 0.775432
v 0.767454 0.455952 0.775219
v 0.762748 0.455952 0.774116
v 0.761762 0.453854 0.771773
v 0.762748 0.455952 0.774116
v 0.762342 0.455952 0.769299
v 0.764266 0.453854 0.767638
v 0.762342 0.455952 0.769299
v 0.766798 0.455952 0.767425
v 0.768972 0.453854 0.768741
v 0.766798 0.455952 0.767425
v 0.769957 0.455952 0.771083
v 0.769377 0.453854 0.773558
v 0.769957 0.455952 0.771083
v 0.767454 0.455952 0.775219
v 0.762748 0.455952 0.774116
v 0.767454 0.455952 0.775219
v 0.765860 0.454543 0.771428
v 0.762342 0.455952 0.769299
v 0.762748 0.455952 0.774116
v 0.765860 0.454543 0.771428
v 0.766798 0.455952 0.767425
v 0.762342 0.455952 0.769299
v 0.765860 0.454543 0.771428
v 0.769957 0.455952 0.771083
v 0.766798 0.455952 0.767425
v 0.765860 0.454543 0.771428
v 0.767454 0.455952 0.775219
v 0.769957 0.455952 0.771083
v 0.765860 0.454543 0.771428
v 0.753798 0.470084 0.714125
v 0.752860 0.471381 0.718129
v 0.749701 0.471381 0.714470
v 0.752860 0.471381 0.718129
v 0.753798 0.470084 0.714125
v 0.757316 0.471381 0.716255
v 0.753798 0.470084 0.714125
v 0.749701 0.471381 0.714470
v 0.752204 0.471381 0.710335
v 0.753798 0.470084 0.714125
v 0.752204 0.471381 0.710335
v 0.756910 0.471381 0.711438
v 0.753798 0.470084 0.714125
v 0.756910 0.471381 0.711438
v 0.757316 0.471381 0.716255
v 0.752860 0.471381 0.718129
v 0.757316 0.471381 0.716255
v 0.755392 0.473480 0.717916
v 0.749701 0.471381 0.714470
v 0.752860 0.471381 0.718129
v 0.750686 0.473480 0.716813
v 0.752204 0.471381 0.710335
v 0.749701 0.471381 0.714470
v 0.750280 0.473480 0.711996
v 0.756910 0.471381 0.711438
v 0.752204 0.471381 0.710335
v 0.754736 0.473480 0.710122
v 0.757316 0.471381 0.716255
v 0.756910 0.471381 0.711438
v 0.757896 0.473480 0.713780
v 0.752860 0.471381 0.718129
v 0.755392 0.473480 0.717916
v 0.750686 0.473480 0.716813
v 0.749701 0.471381 0.714470
v 0.750686 0.473480 0.716813
v 0.750280 0.473480 0.711996
v 0.752204 0.471381 0.710335
v 0.750280 0.473480 0.711996
v 0.754736 0.473480 0.710122
v 0.756910 0.471381 0.711438
v 0.754736 0.473480 0.710122
v 0.757896 0.473480 0.713780
v 0.757316 0.471381 0.716255
v 0.757896 0.473480 0.713780
v 0.755392 0.473480 0.717916
v 0.750686 0.473480 0.716813
v 0.755392 0.473480 0.717916
v 0.753798 0.472070 0.714125
v 0.750280 0.473480 0.711996
v 0.750686 0.473480 0.716813
v 0.753798 0.472070 0.714125
v 0.754736 0.473480 0.710122
v 0.750280 0.473480 0.711996
v 0.753798 0.472070 0.714125
v 0.757896 0.473480 0.713780
v 0.754736 0.473480 0.710122
v 0.753798 0.472070 0.714125
v 0.755392 0.473480 0.717916
v 0.757896 0.473480 0.713780
v 0.753798 0.472070 0.714125
v 0.830942 0.457815 0.854526
v 0.830004 0.459112 0.858529
v 0.826845 0.459112 0.854870
v 0.830004 0.459112 0.858529
v 0.830942 0.457815 0.854526
v 0.834460 0.459112 0.856655
v 0.830942 0.457815 0.854526
v 0.826845 0.459112 0.854870
v 0.829348 0.459112 0.850735
v 0.830942 0.457815 0.854526
v 0.829348 0.459112 0.850735
v 0.834054 0.459112 0.851838
v 0.830942 0.457815 0.854526
v 0.834054 0.459112 0.851838
v 0.834460 0.459112 0.856655
v 0.830004 0.459112 0.858529
v 0.834460 0.459112 0.856655
v 0.832536 0.461211 0.858316
v 0.826845 0.459112 0.854870
v 0.830004 0.459112 0.858529
v 0.827830 0.461211 0.857213
v 0.829348 0.459112 0.850735
v 0.826845 0.459112 0.854870
v 0.827424 0.461211 0.852396
v 0.834054 0.459112 0.851838
v 0.829348 0.459112 0.850735
v 0.831880 0.461211 0.850522
v 0.834460 0.459112 0.856655
v 0.834054 0.459112 0.851838
v 0.835039 0.461211 0.854180
v 0.830004 0.459112 0.858529
v 0.832536 0.461211 0.858316
v 0.827830 0.461211 0.857213
v 0.826845 0.459112 0.854870
v 0.827830 0.461211 0.857213
v 0.827424 0.461211 0.852396
v 0.829348 0.459112 0.850735
v 0.827424 0.461211 0.852396
v 0.831880 0.461211 0.850522
v 0.834054 0.459112 0.851838
v 0.831880 0.461211 0.850522
v 0.835039 0.461211 0.854180
v 0.834460 0.459112 0.856655
v 0.835039 0.461211 0.854180
v 0.832536 0.461211 0.858316
v 0.827830 0.461211 0.857213
v 0.832536 0.461211 0.858316
v 0.830942 0.459801 0.854526
v 0.827424 0.461211 0.852396
v 0.827830 0.461211 0.857213
v 0.830942 0.459801 0.854526
v 0.831880 0.461211 0.850522
v 0.827424 0.461211 0.852396
v 0.830942 0.459801 0.854526
v 0.835039 0.461211 0.854180
v 0.831880 0.461211 0.850522
v 0.830942 0.459801 0.854526
v 0.832536 0.461211 0.858316
v 0.835039 0.461211 0.854180
v 0.830942 0.459801 0.854526
v 0.664430 0.492870 0.532062
v 0.663492 0.494167 0.536066
v 0.660332 0.494167 0.532407
v 0.663492 0.494167 0.536066
v 0.664430 0.492870 0.532062
v 0.667947 0.494167 0.534192
v 0.664430 0.492870 0.532062
v 0.660332 0.494167 0.532407
v 0.662835 0.494167 0.528272
v 0.664430 0.492870 0.532062
v 0.662835 0.494167 0.528272
v 0.667542 0.494167 0.529375
v 0.664430 0.492870 0.532062
v 0.667542 0.494167 0.529375
v 0.667947 0.494167 0.534192
v 0.663492 0.494167 0.536066
v 0.667947 0.494167 0.534192
v 0.666024 0.496265 0.535853
v 0.660332 0.494167 0.532407
v 0.663492 0.494167 0.536066
v 0.661317 0.496265 0.534750
v 0.662835 0.494167 0.528272
v 0.660332 0.494167 0.532407
v 0.660912 0.496265 0.529933
v 0.667542 0.494167 0.529375
v 0.662835 0.494167 0.528272
v 0.665368 0.496265 0.528059
v 0.667947 0.494167 0.534192
v 0.667542 0.494167 0.529375
v 0.668527 0.496265 0.531717
v 0.663492 0.494167 0.536066
v 0.666024 0.496265 0.535853
v 0.661317 0.496265 0.534750
v 0.660332 0.494167 0.532407
v 0.661317 0.496265 0.534750
v 0.660912 0.496265 0.529933
v 0.662835 0.494167 0.528272
v 0.660912 0.496265 0.529933
v 0.665368 0.496265 0.528059
v 0.667542 0.494167 0.529375
v 0.665368 0.496265 0.528059
v 0.668527 0.496265 0.531717
v 0.667947 0.494167 0.534192
v 0.668527 0.496265 0.531717
v 0.666024 0.496265 0.535853
v 0.661317 0.496265 0.534750
v 0.666024 0.496265 0.535853
v 0.664430 0.494856 0.532062
v 0.660912 0.496265 0.529933
v 0.661317 0.496265 0.534750
v 0.664430 0.494856 0.532062
v 0.665368 0.496265 0.528059
v 0.660912 0.496265 0.529933
v 0.664430 0.494856 0.532062
v 0.668527 0.496265 0.531717
v 0.665368 0.496265 0.528059
v 0.664430 0.494856 0.532062
v 0.666024 0.496265 0.535853
v 0.668527 0.496265 0.531717
v 0.664430 0.494856 0.532062
v 0.739072 0.444761 0.918513
v 0.738133 0.446058 0.922516
v 0.734974 0.446058 0.918858
v 0.738133 0.446058 0.922516
v 0.739072 0.444761 0.918513
v 0.742589 0.446058 0.920642
v 0.739072 0.444761 0.918513
v 0.734974 0.446058 0.918858
v 0.737477 0.446058 0.914722
v 0.739072 0.444761 0.918513
v 0.737477 0.446058 0.914722
v 0.742184 0.446058 0.915825
v 0.739072 0.444761 0.918513
v 0.742184 0.446058 0.915825
v 0.742589 0.446058 0.920642
v 0.738133 0.446058 0.922516
v 0.742589 0.446058 0.920642
v 0.740666 0.448157 0.922303
v 0.734974 0.446058 0.918858
v 0.738133 0.446058 0.922516
v 0.735959 0.448157 0.921200
v 0.737477 0.446058 0.914722
v 0.734974 0.446058 0.918858
v 0.735554 0.448157 0.916383
v 0.742184 0.446058 0.915825
v 0.737477 0.446058 0.914722
v 0.740010 0.448157 0.914509
v 0.742589 0.446058 0.920642
v 0.742184 0.446058 0.915825
v 0.743169 0.448157 0.918168
v 0.738133 0.446058 0.922516
v 0.740666 0.448157 0.922303
v 0.735959 0.448157 0.921200
v 0.734974 0.446058 0.918858
v 0.735959 0.448157 0.921200
v 0.735554 0.448157 0.916383
v 0.737477 0.446058 0.914722
v 0.735554 0.448157 0.916383
v 0.740010 0.448157 0.914509
v 0.742184 0.446058 0.915825
v 0.740010 0.448157 0.914509
v 0.743169 0.448157 0.918168
v 0.742589 0.446058 0.920642
v 0.743169 0.448157 0.918168
v 0.740666 0.448157 0.922303
v 0.735959 0.448157 0.921200
v 0.740666 0.448157 0.922303
v 0.739072 0.446748 0.918513
v 0.735554 0.448157 0.916383
v 0.735959 0.448157 0.921200
v 0.739072 0.446748 0.918513
v 0.740010 0.448157 0.914509
v 0.735554 0.448157 0.916383
v 0.739072 0.446748 0.918513
v 0.743169 0.448157 0.918168
v 0.740010 0.448157 0.914509
v 0.739072 0.446748 0.918513
v 0.740666 0.448157 0.922303
v 0.743169 0.448157 0.918168
v 0.739072 0.446748 0.918513
vn -0.2749 -0.9317 0.2374
vn 0.1408 -0.9317 0.3348
vn -0.3108 -0.9317 -0.1881
vn 0.0829 -0.9317 -0.3537
vn 0.3620 -0.9317 -0.0305
vn 0.3631 -0.3505 0.8633
vn -0.7088 -0.3505 0.6121
vn -0.8012 -0.3505 -0.4850
vn 0.2137 -0.3505 -0.9119
vn 0.9333 -0.3505 -0.0786
vn -0.2137 0.3505 0.9119
vn -0.9333 0.3505 0.0786
vn -0.3631 0.3505 -0.8633
vn 0.7088 0.3505 -0.6121
vn 0.8012 0.3505 0.4850
vn 0.0890 0.9208 -0.3798
vn 0.3887 0.9208 -0.0327
vn 0.1512 0.9208 0.3596
vn -0.2952 0.9208 0.2549
vn -0.3337 0.9208 -0.2020
vn 0.2137 -0.3504 -0.9119
vn -0.3107 -0.9317 -0.1881
vn -0.8012 -0.3504 -0.4850
s 0
f 1//1 2//1 3//1
f 4//2 5//2 6//2
f 7//3 8//3 9//3
f 10//4 11//4 12//4
f 13//5 14//5 15//5
f 16//6 17//6 18//6
f 19//7 20//7 21//7
f 22//8 23//8 24//8
f 25//9 26//9 27//9
f 28//10 29//10 30//10
f 31//11 32//11 33//11
f 34//12 35//12 36//12
f 37//13 38//13 39//13
f 40//14 41//14 42//14
f 43//15 44//15 45//15
f 46//16 47//16 48//16
f 49//17 50//17 51//17
f 52//18 53//18 54//18
f 55//19 56//19 57//19
f 58//20 59//20 60//20
f 61//1 62//1 63//1
f 64//2 65//2 66//2
f 67//3 68//3 69//3
f 70//4 71//4 72//4
f 73//5 74//5 75//5
f 76//6 77//6 78//6
f 79//7 80//7 81//7
f 82//8 83//8 84//8
f 85//21 86//21 87//21
f 88//10 89//10 90//10
f 91//11 92//11 93//11
f 94//12 95//12 96//12
f 97//13 98//13 99//13
f 100//14 101//14 102//14
f 103//15 104//15 105//15
f 106//16 107//16 108//16
f 109//17 110//17 111//17
f 112//18 113//18 114//18
f 115//19 116//19 117//19
f 118//20 119//20 120//20
f 121//1 122//1 123//1
f 124//2 125//2 126//2
f 127//3 128//3 129//3
f 130//4 131//4 132//4
f 133//5 134//5 135//5
f 136//6 137//6 138//6
f 139//7 140//7 141//7
f 142//8 143//8 144//8
f 145//9 146//9 147//9
f 148//10 149//10 150//10
f 151//11 152//11 153//11
f 154//12 155//12 156//12
f 157//13 158//13 159//13
f 160//14 161//14 162//14
f 163//15 164//15 165//15
f 166//16 167//16 168//16
f 169//17 170//17 171//17
f 172//18 173//18 174//18
f 175//19 176//19 177//19
f 178//20 179//20 180//20
f 181//1 182//1 183//1
f 184//2 185//2 186//2
f 187//22 188//22 189//22
f 190//4 191//4 192//4
f 193//5 194//5 195//5
f 196//6 197//6 198//6
f 199//7 200//7 201//7
f 202//23 203//23 204//23
f 205//21 206//21 207//21
f 208//10 209//10 210//10
f 211//11 212//11 213//11
f 214//12 215//12 216//12
f 217//13 218//13 219//13
f 220//14 221//14 222//14
f 223//15 224//15 225//15
f 226//16 227//16 228//16
f 229//17 230//17 231//17
f 232//18 233//18 234//18
f 235//19 236//19 237//19
f 238//20 239//20 240//20
f 241//1 242//1 243//1
f 244//2 245//2 246//2
f 247//3 248//3 249//3
f 250//4 251//4 252//4
f 253//5 254//5 255//5
f 256//6 257//6 258//6
f 259//7 260//7 261//7
f 262//8 263//8 264//8
f 265//9 266//9 267//9
f 268//10 269//10 270//10
f 271//11 272//11 273//11
f 274//12 275//12 276//12
f 277//13 278//13 279//13
f 280//14 281//14 282//14
f 283//15 284//15 285//15
f 286//16 287//16 288//16
f 289//17 290//17 291//17
f 292//18 293//18 294//18
f 295//19 296//19 297//19
f 298//20 299//20 300//20
f 301//1 302//1 303//1
f 304//2 305//2 306//2
f 307//22 308//22 309//22
f 310//4 311//4 312//4
f 313//5 314//5 315//5
f 316//6 317//6 318//6
f 319//7 320//7 321//7
f 322//23 323//23 324//23
f 325//21 326//21 327//21
f 328//10 329//10 330//10
f 331//11 332//11 333//11
f 334//12 335//12 336//12
f 337//13 338//13 339//13
f 340//14 341//14 342//14
f 343//15 344//15 345//15
f 346//16 347//16 348//16
f 349//17 350//17 351//17
f 352//18 353//18 354//18
f 355//19 356//19 357//19
f 358//20 359//20 360//20
