# Blender 5.1.1
# www.blender.org
mtllib flower_yellow_center.mtl
o margarita_flower_yellow_0.004
v -0.954842 0.602947 0.555927
v -0.951978 0.604063 0.558008
v -0.955936 0.604063 0.559294
v -0.951978 0.604063 0.558008
v -0.954842 0.602947 0.555927
v -0.951978 0.604063 0.553846
v -0.954842 0.602947 0.555927
v -0.955936 0.604063 0.559294
v -0.958383 0.604063 0.555927
v -0.954842 0.602947 0.555927
v -0.958383 0.604063 0.555927
v -0.955936 0.604063 0.552560
v -0.954842 0.602947 0.555927
v -0.955936 0.604063 0.552560
v -0.951978 0.604063 0.553846
v -0.951978 0.604063 0.558008
v -0.951978 0.604063 0.553846
v -0.951302 0.605870 0.555927
v -0.955936 0.604063 0.559294
v -0.951978 0.604063 0.558008
v -0.953748 0.605870 0.559294
v -0.958383 0.604063 0.555927
v -0.955936 0.604063 0.559294
v -0.957706 0.605870 0.558008
v -0.955936 0.604063 0.552560
v -0.958383 0.604063 0.555927
v -0.957706 0.605870 0.553846
v -0.951978 0.604063 0.553846
v -0.955936 0.604063 0.552560
v -0.953748 0.605870 0.552560
v -0.951978 0.604063 0.558008
v -0.951302 0.605870 0.555927
v -0.953748 0.605870 0.559294
v -0.955936 0.604063 0.559294
v -0.953748 0.605870 0.559294
v -0.957706 0.605870 0.558008
v -0.958383 0.604063 0.555927
v -0.957706 0.605870 0.558008
v -0.957706 0.605870 0.553846
v -0.955936 0.604063 0.552560
v -0.957706 0.605870 0.553846
v -0.953748 0.605870 0.552560
v -0.951978 0.604063 0.553846
v -0.953748 0.605870 0.552560
v -0.951302 0.605870 0.555927
v -0.953748 0.605870 0.559294
v -0.951302 0.605870 0.555927
v -0.954842 0.604657 0.555927
v -0.957706 0.605870 0.558008
v -0.953748 0.605870 0.559294
v -0.954842 0.604657 0.555927
v -0.957706 0.605870 0.553846
v -0.957706 0.605870 0.558008
v -0.954842 0.604657 0.555927
v -0.953748 0.605870 0.552560
v -0.957706 0.605870 0.553846
v -0.954842 0.604657 0.555927
v -0.951302 0.605870 0.555927
v -0.953748 0.605870 0.552560
v -0.954842 0.604657 0.555927
v -0.664292 0.615456 0.463185
v -0.661428 0.616573 0.465266
v -0.665386 0.616573 0.466552
v -0.661428 0.616573 0.465266
v -0.664292 0.615456 0.463185
v -0.661428 0.616573 0.461104
v -0.664292 0.615456 0.463185
v -0.665386 0.616573 0.466552
v -0.667832 0.616573 0.463185
v -0.664292 0.615456 0.463185
v -0.667832 0.616573 0.463185
v -0.665386 0.616573 0.459818
v -0.664292 0.615456 0.463185
v -0.665386 0.616573 0.459818
v -0.661428 0.616573 0.461104
v -0.661428 0.616573 0.465266
v -0.661428 0.616573 0.461104
v -0.660752 0.618380 0.463185
v -0.665386 0.616573 0.466552
v -0.661428 0.616573 0.465266
v -0.663198 0.618380 0.466552
v -0.667832 0.616573 0.463185
v -0.665386 0.616573 0.466552
v -0.667156 0.618380 0.465266
v -0.665386 0.616573 0.459818
v -0.667832 0.616573 0.463185
v -0.667156 0.618380 0.461104
v -0.661428 0.616573 0.461104
v -0.665386 0.616573 0.459818
v -0.663198 0.618380 0.459818
v -0.661428 0.616573 0.465266
v -0.660752 0.618380 0.463185
v -0.663198 0.618380 0.466552
v -0.665386 0.616573 0.466552
v -0.663198 0.618380 0.466552
v -0.667156 0.618380 0.465266
v -0.667832 0.616573 0.463185
v -0.667156 0.618380 0.465266
v -0.667156 0.618380 0.461104
v -0.665386 0.616573 0.459818
v -0.667156 0.618380 0.461104
v -0.663198 0.618380 0.459818
v -0.661428 0.616573 0.461104
v -0.663198 0.618380 0.459818
v -0.660752 0.618380 0.463185
v -0.663198 0.618380 0.466552
v -0.660752 0.618380 0.463185
v -0.664292 0.617167 0.463185
v -0.667156 0.618380 0.465266
v -0.663198 0.618380 0.466552
v -0.664292 0.617167 0.463185
v -0.667156 0.618380 0.461104
v -0.667156 0.618380 0.465266
v -0.664292 0.617167 0.463185
v -0.663198 0.618380 0.459818
v -0.667156 0.618380 0.461104
v -0.664292 0.617167 0.463185
v -0.660752 0.618380 0.463185
v -0.663198 0.618380 0.459818
v -0.664292 0.617167 0.463185
v -0.713793 0.630546 0.453630
v -0.710929 0.631663 0.455710
v -0.714887 0.631663 0.456996
v -0.710929 0.631663 0.455710
v -0.713793 0.630546 0.453630
v -0.710929 0.631663 0.451549
v -0.713793 0.630546 0.453630
v -0.714887 0.631663 0.456996
v -0.717333 0.631663 0.453630
v -0.713793 0.630546 0.453630
v -0.717333 0.631663 0.453630
v -0.714887 0.631663 0.450263
v -0.713793 0.630546 0.453630
v -0.714887 0.631663 0.450263
v -0.710929 0.631663 0.451549
v -0.710929 0.631663 0.455710
v -0.710929 0.631663 0.451549
v -0.710253 0.633470 0.453630
v -0.714887 0.631663 0.456996
v -0.710929 0.631663 0.455710
v -0.712699 0.633470 0.456996
v -0.717333 0.631663 0.453630
v -0.714887 0.631663 0.456996
v -0.716657 0.633470 0.455710
v -0.714887 0.631663 0.450263
v -0.717333 0.631663 0.453630
v -0.716657 0.633470 0.451549
v -0.710929 0.631663 0.451549
v -0.714887 0.631663 0.450263
v -0.712699 0.633470 0.450263
v -0.710929 0.631663 0.455710
v -0.710253 0.633470 0.453630
v -0.712699 0.633470 0.456996
v -0.714887 0.631663 0.456996
v -0.712699 0.633470 0.456996
v -0.716657 0.633470 0.455710
v -0.717333 0.631663 0.453630
v -0.716657 0.633470 0.455710
v -0.716657 0.633470 0.451549
v -0.714887 0.631663 0.450263
v -0.716657 0.633470 0.451549
v -0.712699 0.633470 0.450263
v -0.710929 0.631663 0.451549
v -0.712699 0.633470 0.450263
v -0.710253 0.633470 0.453630
v -0.712699 0.633470 0.456996
v -0.710253 0.633470 0.453630
v -0.713793 0.632256 0.453630
v -0.716657 0.633470 0.455710
v -0.712699 0.633470 0.456996
v -0.713793 0.632256 0.453630
v -0.716657 0.633470 0.451549
v -0.716657 0.633470 0.455710
v -0.713793 0.632256 0.453630
v -0.712699 0.633470 0.450263
v -0.716657 0.633470 0.451549
v -0.713793 0.632256 0.453630
v -0.710253 0.633470 0.453630
v -0.712699 0.633470 0.450263
v -0.713793 0.632256 0.453630
v -0.576622 0.619983 0.439274
v -0.573758 0.621100 0.441355
v -0.577716 0.621100 0.442641
v -0.573758 0.621100 0.441355
v -0.576622 0.619983 0.439274
v -0.573758 0.621100 0.437193
v -0.576622 0.619983 0.439274
v -0.577716 0.621100 0.442641
v -0.580163 0.621100 0.439274
v -0.576622 0.619983 0.439274
v -0.580163 0.621100 0.439274
v -0.577716 0.621100 0.435907
v -0.576622 0.619983 0.439274
v -0.577716 0.621100 0.435907
v -0.573758 0.621100 0.437193
v -0.573758 0.621100 0.441355
v -0.573758 0.621100 0.437193
v -0.573082 0.622907 0.439274
v -0.577716 0.621100 0.442641
v -0.573758 0.621100 0.441355
v -0.575528 0.622907 0.442641
v -0.580163 0.621100 0.439274
v -0.577716 0.621100 0.442641
v -0.579486 0.622907 0.441355
v -0.577716 0.621100 0.435907
v -0.580163 0.621100 0.439274
v -0.579486 0.622907 0.437193
v -0.573758 0.621100 0.437193
v -0.577716 0.621100 0.435907
v -0.575528 0.622907 0.435907
v -0.573758 0.621100 0.441355
v -0.573082 0.622907 0.439274
v -0.575528 0.622907 0.442641
v -0.577716 0.621100 0.442641
v -0.575528 0.622907 0.442641
v -0.579486 0.622907 0.441355
v -0.580163 0.621100 0.439274
v -0.579486 0.622907 0.441355
v -0.579486 0.622907 0.437193
v -0.577716 0.621100 0.435907
v -0.579486 0.622907 0.437193
v -0.575528 0.622907 0.435907
v -0.573758 0.621100 0.437193
v -0.575528 0.622907 0.435907
v -0.573082 0.622907 0.439274
v -0.575528 0.622907 0.442641
v -0.573082 0.622907 0.439274
v -0.576622 0.621694 0.439274
v -0.579486 0.622907 0.441355
v -0.575528 0.622907 0.442641
v -0.576622 0.621694 0.439274
v -0.579486 0.622907 0.437193
v -0.579486 0.622907 0.441355
v -0.576622 0.621694 0.439274
v -0.575528 0.622907 0.435907
v -0.579486 0.622907 0.437193
v -0.576622 0.621694 0.439274
v -0.573082 0.622907 0.439274
v -0.575528 0.622907 0.435907
v -0.576622 0.621694 0.439274
v -0.888107 0.650163 0.463779
v -0.885243 0.651280 0.465860
v -0.889201 0.651280 0.467146
v -0.885243 0.651280 0.465860
v -0.888107 0.650163 0.463779
v -0.885243 0.651280 0.461699
v -0.888107 0.650163 0.463779
v -0.889201 0.651280 0.467146
v -0.891648 0.651280 0.463779
v -0.888107 0.650163 0.463779
v -0.891648 0.651280 0.463779
v -0.889201 0.651280 0.460413
v -0.888107 0.650163 0.463779
v -0.889201 0.651280 0.460413
v -0.885243 0.651280 0.461699
v -0.885243 0.651280 0.465860
v -0.885243 0.651280 0.461699
v -0.884567 0.653087 0.463779
v -0.889201 0.651280 0.467146
v -0.885243 0.651280 0.465860
v -0.887013 0.653087 0.467146
v -0.891648 0.651280 0.463779
v -0.889201 0.651280 0.467146
v -0.890971 0.653087 0.465860
v -0.889201 0.651280 0.460413
v -0.891648 0.651280 0.463779
v -0.890971 0.653087 0.461699
v -0.885243 0.651280 0.461699
v -0.889201 0.651280 0.460413
v -0.887013 0.653087 0.460413
v -0.885243 0.651280 0.465860
v -0.884567 0.653087 0.463779
v -0.887013 0.653087 0.467146
v -0.889201 0.651280 0.467146
v -0.887013 0.653087 0.467146
v -0.890971 0.653087 0.465860
v -0.891648 0.651280 0.463779
v -0.890971 0.653087 0.465860
v -0.890971 0.653087 0.461699
v -0.889201 0.651280 0.460413
v -0.890971 0.653087 0.461699
v -0.887013 0.653087 0.460413
v -0.885243 0.651280 0.461699
v -0.887013 0.653087 0.460413
v -0.884567 0.653087 0.463779
v -0.887013 0.653087 0.467146
v -0.884567 0.653087 0.463779
v -0.888107 0.651873 0.463779
v -0.890971 0.653087 0.465860
v -0.887013 0.653087 0.467146
v -0.888107 0.651873 0.463779
v -0.890971 0.653087 0.461699
v -0.890971 0.653087 0.465860
v -0.888107 0.651873 0.463779
v -0.887013 0.653087 0.460413
v -0.890971 0.653087 0.461699
v -0.888107 0.651873 0.463779
v -0.884567 0.653087 0.463779
v -0.887013 0.653087 0.460413
v -0.888107 0.651873 0.463779
v -0.556509 0.608745 0.533540
v -0.553645 0.609862 0.535621
v -0.557603 0.609862 0.536907
v -0.553645 0.609862 0.535621
v -0.556509 0.608745 0.533540
v -0.553645 0.609862 0.531460
v -0.556509 0.608745 0.533540
v -0.557603 0.609862 0.536907
v -0.560049 0.609862 0.533540
v -0.556509 0.608745 0.533540
v -0.560049 0.609862 0.533540
v -0.557603 0.609862 0.530174
v -0.556509 0.608745 0.533540
v -0.557603 0.609862 0.530174
v -0.553645 0.609862 0.531460
v -0.553645 0.609862 0.535621
v -0.553645 0.609862 0.531460
v -0.552969 0.611669 0.533540
v -0.557603 0.609862 0.536907
v -0.553645 0.609862 0.535621
v -0.555415 0.611669 0.536907
v -0.560049 0.609862 0.533540
v -0.557603 0.609862 0.536907
v -0.559373 0.611669 0.535621
v -0.557603 0.609862 0.530174
v -0.560049 0.609862 0.533540
v -0.559373 0.611669 0.531460
v -0.553645 0.609862 0.531460
v -0.557603 0.609862 0.530174
v -0.555415 0.611669 0.530174
v -0.553645 0.609862 0.535621
v -0.552969 0.611669 0.533540
v -0.555415 0.611669 0.536907
v -0.557603 0.609862 0.536907
v -0.555415 0.611669 0.536907
v -0.559373 0.611669 0.535621
v -0.560049 0.609862 0.533540
v -0.559373 0.611669 0.535621
v -0.559373 0.611669 0.531460
v -0.557603 0.609862 0.530174
v -0.559373 0.611669 0.531460
v -0.555415 0.611669 0.530174
v -0.553645 0.609862 0.531460
v -0.555415 0.611669 0.530174
v -0.552969 0.611669 0.533540
v -0.555415 0.611669 0.536907
v -0.552969 0.611669 0.533540
v -0.556509 0.610455 0.533540
v -0.559373 0.611669 0.535621
v -0.555415 0.611669 0.536907
v -0.556509 0.610455 0.533540
v -0.559373 0.611669 0.531460
v -0.559373 0.611669 0.535621
v -0.556509 0.610455 0.533540
v -0.555415 0.611669 0.530174
v -0.559373 0.611669 0.531460
v -0.556509 0.610455 0.533540
v -0.552969 0.611669 0.533540
v -0.555415 0.611669 0.530174
v -0.556509 0.610455 0.533540
vn 0.1123 -0.9317 0.3455
vn 0.3632 -0.9317 -0.0000
vn -0.2939 -0.9317 0.2135
vn -0.2939 -0.9317 -0.2135
vn 0.1123 -0.9317 -0.3455
vn 0.9366 -0.3505 -0.0000
vn 0.2894 -0.3505 0.8907
vn -0.7577 -0.3505 0.5505
vn -0.7577 -0.3505 -0.5505
vn 0.2894 -0.3505 -0.8907
vn 0.7577 0.3505 0.5505
vn -0.2894 0.3505 0.8907
vn -0.9366 0.3505 -0.0000
vn -0.2894 0.3505 -0.8907
vn 0.7577 0.3505 -0.5505
vn -0.3156 0.9208 -0.2293
vn 0.1205 0.9208 -0.3710
vn 0.3901 0.9208 -0.0000
vn 0.1205 0.9208 0.3710
vn -0.3156 0.9208 0.2293
vn 0.3633 -0.9317 -0.0000
vn -0.7577 -0.3504 -0.5505
vn -0.7577 -0.3504 0.5505
s 0
usemtl yellow.004
f 1//1 2//1 3//1
f 4//2 5//2 6//2
f 7//3 8//3 9//3
f 10//4 11//4 12//4
f 13//5 14//5 15//5
f 16//6 17//6 18//6
f 19//7 20//7 21//7
f 22//8 23//8 24//8
f 25//9 26//9 27//9
f 28//10 29//10 30//10
f 31//11 32//11 33//11
f 34//12 35//12 36//12
f 37//13 38//13 39//13
f 40//14 41//14 42//14
f 43//15 44//15 45//15
f 46//16 47//16 48//16
f 49//17 50//17 51//17
f 52//18 53//18 54//18
f 55//19 56//19 57//19
f 58//20 59//20 60//20
usemtl yellow
f 61//1 62//1 63//1
f 64//21 65//21 66//21
f 67//3 68//3 69//3
f 70//4 71//4 72//4
f 73//5 74//5 75//5
f 76//6 77//6 78//6
f 79//7 80//7 81//7
f 82//8 83//8 84//8
f 85//22 86//22 87//22
f 88//10 89//10 90//10
f 91//11 92//11 93//11
f 94//12 95//12 96//12
f 97//13 98//13 99//13
f 100//14 101//14 102//14
f 103//15 104//15 105//15
f 106//16 107//16 108//16
f 109//17 110//17 111//17
f 112//18 113//18 114//18
f 115//19 116//19 117//19
f 118//20 119//20 120//20
usemtl yellow.001
f 121//1 122//1 123//1
f 124//2 125//2 126//2
f 127//3 128//3 129//3
f 130//4 131//4 132//4
f 133//5 134//5 135//5
f 136//6 137//6 138//6
f 139//7 140//7 141//7
f 142//8 143//8 144//8
f 145//9 146//9 147//9
f 148//10 149//10 150//10
f 151//11 152//11 153//11
f 154//12 155//12 156//12
f 157//13 158//13 159//13
f 160//14 161//14 162//14
f 163//15 164//15 165//15
f 166//16 167//16 168//16
f 169//17 170//17 171//17
f 172//18 173//18 174//18
f 175//19 176//19 177//19
f 178//20 179//20 180//20
usemtl yellow.002
f 181//1 182//1 183//1
f 184//2 185//2 186//2
f 187//3 188//3 189//3
f 190//4 191//4 192//4
f 193//5 194//5 195//5
f 196//6 197//6 198//6
f 199//7 200//7 201//7
f 202//23 203//23 204//23
f 205//22 206//22 207//22
f 208//10 209//10 210//10
f 211//11 212//11 213//11
f 214//12 215//12 216//12
f 217//13 218//13 219//13
f 220//14 221//14 222//14
f 223//15 224//15 225//15
f 226//16 227//16 228//16
f 229//17 230//17 231//17
f 232//18 233//18 234//18
f 235//19 236//19 237//19
f 238//20 239//20 240//20
usemtl yellow.003
f 241//1 242//1 243//1
f 244//2 245//2 246//2
f 247//3 248//3 249//3
f 250//4 251//4 252//4
f 253//5 254//5 255//5
f 256//6 257//6 258//6
f 259//7 260//7 261//7
f 262//8 263//8 264//8
f 265//9 266//9 267//9
f 268//10 269//10 270//10
f 271//11 272//11 273//11
f 274//12 275//12 276//12
f 277//13 278//13 279//13
f 280//14 281//14 282//14
f 283//15 284//15 285//15
f 286//16 287//16 288//16
f 289//17 290//17 291//17
f 292//18 293//18 294//18
f 295//19 296//19 297//19
f 298//20 299//20 300//20
usemtl yellow.005
f 301//1 302//1 303//1
f 304//21 305//21 306//21
f 307//3 308//3 309//3
f 310//4 311//4 312//4
f 313//5 314//5 315//5
f 316//6 317//6 318//6
f 319//7 320//7 321//7
f 322//23 323//23 324//23
f 325//22 326//22 327//22
f 328//10 329//10 330//10
f 331//11 332//11 333//11
f 334//12 335//12 336//12
f 337//13 338//13 339//13
f 340//14 341//14 342//14
f 343//15 344//15 345//15
f 346//16 347//16 348//16
f 349//17 350//17 351//17
f 352//18 353//18 354//18
f 355//19 356//19 357//19
f 358//20 359//20 360//20
