# Blender 5.1.1
# www.blender.org
o Object_2.007
v 0.562120 0.491860 0.821225
v 0.558056 0.491757 0.820122
v 0.566504 0.490805 0.805179
v 0.562567 0.490783 0.805517
v 0.569544 0.490096 0.794051
v 0.565082 0.489978 0.792607
v 0.570258 0.490003 0.791432
v 0.566241 0.489917 0.790298
v 0.575291 0.494252 0.772620
v 0.571371 0.493855 0.772922
v 0.578257 0.496779 0.761533
v 0.573809 0.496675 0.760319
v 0.578807 0.497097 0.759488
v 0.582861 0.498704 0.744466
v 0.578931 0.498456 0.744794
v 0.574954 0.496999 0.758421
v 0.586171 0.500041 0.732196
v 0.580454 0.499910 0.730639
v 0.555832 0.491147 0.812230
v 0.552019 0.491566 0.818484
v 0.557787 0.490630 0.804506
v 0.557076 0.490001 0.795019
v 0.559694 0.489826 0.791212
v 0.564127 0.491689 0.780433
v 0.562311 0.489808 0.789223
v 0.566600 0.493628 0.771885
v 0.567238 0.495206 0.764563
v 0.568464 0.496511 0.758870
v 0.571717 0.497342 0.752342
v 0.574156 0.498258 0.743770
v 0.575752 0.499148 0.735568
v 0.559830 0.490544 0.784321
v 0.572453 0.499665 0.728454
v 0.539164 0.491091 0.815003
v 0.543359 0.490488 0.806988
v 0.544437 0.490241 0.803368
v 0.548316 0.490002 0.798434
v 0.556648 0.489625 0.787674
v 0.553296 0.492584 0.770624
v 0.557108 0.493943 0.765821
v 0.559763 0.497091 0.746192
v 0.560827 0.497473 0.742580
v 0.564680 0.498194 0.737672
v 0.567474 0.499054 0.731193
v 0.541447 0.490771 0.810861
v 0.549238 0.489464 0.788349
v 0.552123 0.491628 0.774910
v 0.556056 0.495397 0.758634
v 0.558162 0.496392 0.753796
v 0.563331 0.499363 0.725960
v 0.541400 0.489859 0.798294
v 0.542528 0.489649 0.794314
v 0.546452 0.490544 0.778047
v 0.550219 0.493338 0.765617
v 0.551300 0.494273 0.761728
v 0.557777 0.497773 0.737509
v 0.561237 0.498488 0.732690
v 0.534434 0.490583 0.809217
v 0.535556 0.490277 0.805282
v 0.536688 0.490001 0.801295
v 0.543456 0.489289 0.786692
v 0.544465 0.491465 0.772438
v 0.545554 0.492337 0.768526
v 0.548840 0.495186 0.756676
v 0.553575 0.496722 0.746497
v 0.555096 0.497284 0.741036
v 0.557458 0.498368 0.731723
v 0.529288 0.490861 0.812320
v 0.534209 0.489688 0.796314
v 0.537344 0.489454 0.791589
v 0.541381 0.490347 0.777069
v 0.543029 0.493176 0.763629
v 0.544105 0.494103 0.759778
v 0.548341 0.496555 0.745649
v 0.549472 0.497158 0.739499
v 0.550586 0.497607 0.735523
v 0.552057 0.498217 0.730539
v 0.554232 0.499148 0.723481
v 0.527237 0.490471 0.807271
v 0.528365 0.490164 0.803297
v 0.531063 0.489907 0.799759
v 0.532268 0.489397 0.790620
v 0.536183 0.490519 0.774369
v 0.535422 0.489056 0.781847
v 0.537271 0.491358 0.770461
v 0.539928 0.492244 0.766994
v 0.541568 0.495068 0.754691
v 0.544773 0.496705 0.742491
v 0.520460 0.490784 0.809913
v 0.525328 0.489872 0.798217
v 0.526548 0.489605 0.793847
v 0.529491 0.488997 0.780252
v 0.534187 0.492201 0.765472
v 0.535225 0.493024 0.761926
v 0.537089 0.493980 0.758139
v 0.538959 0.496259 0.745660
v 0.541718 0.497096 0.737429
v 0.542781 0.497501 0.733818
v 0.544799 0.497993 0.729948
v 0.546452 0.499050 0.721371
v 0.521449 0.490264 0.803142
v 0.530364 0.490992 0.770306
v 0.534002 0.495051 0.752539
v 0.538191 0.496697 0.740631
v 0.519888 0.489038 0.780553
v 0.521648 0.489856 0.773643
v 0.525596 0.494875 0.751011
v 0.535231 0.498409 0.723609
v 0.538447 0.499006 0.719207
v 0.510882 0.490482 0.803166
v 0.511977 0.490063 0.797041
v 0.514545 0.489509 0.788321
v 0.520841 0.491725 0.764328
v 0.522710 0.493445 0.756759
v 0.528364 0.496889 0.736293
v 0.530896 0.497848 0.727598
v 0.504461 0.490723 0.805546
v 0.516335 0.488996 0.779326
v 0.518911 0.488942 0.777418
v 0.527105 0.495993 0.745398
v 0.533074 0.498964 0.717752
v 0.507197 0.490066 0.796020
v 0.511090 0.489215 0.782530
v 0.516058 0.491651 0.763323
v 0.512583 0.488874 0.775716
v 0.521524 0.495652 0.746106
v 0.520922 0.496593 0.736996
v 0.524842 0.497284 0.731298
v 0.529148 0.498916 0.716688
v 0.504289 0.489790 0.791271
v 0.511716 0.490990 0.765136
v 0.517515 0.495590 0.745024
v 0.519373 0.495931 0.743307
v 0.523526 0.498216 0.721404
v 0.497185 0.490593 0.803566
v 0.504655 0.488815 0.776227
v 0.505332 0.488737 0.773742
v 0.513320 0.495508 0.743883
v 0.513875 0.495829 0.741818
v 0.521237 0.498771 0.714537
v 0.570002 0.489971 0.792377
v 0.566035 0.489883 0.791318
v 0.578530 0.497191 0.760500
v 0.573463 0.497065 0.759125
v 0.569061 0.496808 0.756823
v 0.548569 0.489352 0.785447
v 0.554724 0.496020 0.755076
v 0.553411 0.496243 0.752525
v 0.541174 0.489153 0.783426
v 0.537360 0.489159 0.785063
v 0.545909 0.495814 0.752674
v 0.546090 0.496080 0.750534
v 0.530009 0.489072 0.783029
v 0.538758 0.495736 0.750743
v 0.538991 0.496012 0.748609
v 0.526368 0.495691 0.747420
v 0.510971 0.488929 0.777864
v 0.561347 0.489774 0.789941
v 0.560352 0.489724 0.789775
v 0.564360 0.496756 0.756636
v 0.546949 0.489304 0.785987
v 0.546154 0.489261 0.785879
v 0.557462 0.496494 0.754745
v 0.551631 0.496320 0.753153
v 0.538034 0.489096 0.783553
v 0.537717 0.489070 0.783576
v 0.546264 0.496203 0.751693
v 0.530335 0.489000 0.781474
v 0.529919 0.488975 0.781475
v 0.538568 0.496123 0.749609
v 0.515013 0.488898 0.777348
v 0.514784 0.488874 0.777395
v 0.526367 0.496095 0.746310
v 0.519938 0.496039 0.744570
v 0.505062 0.488700 0.774737
v 0.513594 0.495923 0.742845
vn 0.0069 -0.9977 0.0682
vn 0.0107 -0.9978 0.0657
vn 0.0140 -0.9976 0.0673
vn 0.0104 -0.9974 0.0706
vn 0.0203 -0.9948 0.1000
vn 0.0028 -0.9990 0.0451
vn 0.0365 -0.9924 -0.1177
vn 0.0829 -0.9761 -0.2010
vn 0.0862 -0.9761 -0.1994
vn 0.0334 -0.9907 -0.1321
vn 0.1135 -0.9632 -0.2436
vn 0.0990 -0.9519 -0.2899
vn 0.0417 -0.9991 -0.0013
vn 0.0541 -0.9940 -0.0946
vn 0.0576 -0.9940 -0.0929
vn 0.0252 -0.9992 -0.0302
vn 0.0487 -0.9942 -0.0961
vn 0.0545 -0.9938 -0.0968
vn 0.0183 -0.9971 0.0738
vn 0.0156 -0.9969 0.0774
vn 0.0201 -0.9975 0.0682
vn 0.0219 -0.9979 0.0607
vn -0.0135 -0.9988 0.0467
vn 0.0903 -0.9771 -0.1927
vn 0.0820 -0.9895 -0.1190
vn 0.0924 -0.9757 -0.1985
vn 0.0933 -0.9745 -0.2039
vn 0.0734 -0.9592 -0.2731
vn 0.0615 -0.9944 -0.0861
vn 0.0637 -0.9937 -0.0919
vn 0.0626 -0.9933 -0.0976
vn 0.0877 -0.9782 -0.1880
vn 0.0636 -0.9926 -0.1034
vn 0.0154 -0.9970 0.0759
vn 0.0181 -0.9974 0.0694
vn 0.0220 -0.9979 0.0612
vn 0.0873 -0.9779 -0.1900
vn 0.0902 -0.9762 -0.1973
vn 0.0942 -0.9741 -0.2056
vn 0.0593 -0.9947 -0.0839
vn 0.0091 -0.9998 -0.0148
vn 0.0621 -0.9939 -0.0909
vn 0.0654 -0.9930 -0.0985
vn 0.0644 -0.9923 -0.1056
vn 0.0093 -0.9965 0.0836
vn 0.0120 -0.9966 0.0811
vn -0.0001 -0.9971 0.0762
vn 0.0478 -0.9912 -0.1231
vn 0.0915 -0.9737 -0.2088
vn 0.0433 -0.9990 -0.0075
vn 0.0602 -0.9920 -0.1114
vn 0.0135 -0.9981 0.0607
vn 0.0151 -0.9984 0.0537
vn 0.0791 -0.9797 -0.1844
vn 0.0856 -0.9747 -0.2062
vn 0.0868 -0.9732 -0.2129
vn 0.0569 -0.9933 -0.1001
vn 0.0619 -0.9924 -0.1063
vn 0.0005 -0.9967 0.0811
vn 0.0030 -0.9972 0.0742
vn 0.0057 -0.9978 0.0664
vn -0.0119 -0.9976 0.0685
vn 0.0752 -0.9783 -0.1931
vn 0.0779 -0.9766 -0.2006
vn 0.0806 -0.9735 -0.2140
vn 0.0497 -0.9953 -0.0830
vn 0.0521 -0.9943 -0.0927
vn 0.0549 -0.9925 -0.1094
vn -0.0069 -0.9966 0.0825
vn 0.0005 -0.9984 0.0564
vn 0.0067 -0.9988 0.0493
vn 0.0694 -0.9801 -0.1862
vn 0.0726 -0.9749 -0.2105
vn 0.0748 -0.9734 -0.2167
vn 0.0416 -0.9945 -0.0959
vn 0.0400 -0.9956 -0.0842
vn 0.0441 -0.9936 -0.1040
vn 0.0465 -0.9927 -0.1116
vn 0.0492 -0.9920 -0.1161
vn -0.0114 -0.9970 0.0771
vn -0.0100 -0.9975 0.0703
vn -0.0058 -0.9980 0.0633
vn -0.0032 -0.9989 0.0478
vn 0.0607 -0.9798 -0.1904
vn 0.0214 -0.9936 -0.1112
vn 0.0623 -0.9785 -0.1969
vn 0.0665 -0.9768 -0.2037
vn 0.0686 -0.9740 -0.2161
vn 0.0324 -0.9954 -0.0901
vn -0.0178 -0.9970 0.0748
vn -0.0151 -0.9980 0.0610
vn -0.0118 -0.9985 0.0533
vn 0.0348 -0.9918 -0.1229
vn 0.0570 -0.9769 -0.2058
vn 0.0599 -0.9754 -0.2123
vn 0.0638 -0.9739 -0.2178
vn 0.0268 -0.9959 -0.0867
vn 0.0290 -0.9946 -0.0992
vn 0.0314 -0.9939 -0.1056
vn 0.0356 -0.9931 -0.1115
vn 0.0386 -0.9926 -0.1155
vn -0.0187 -0.9974 0.0692
vn -0.0342 -0.9976 0.0607
vn 0.0537 -0.9788 -0.1977
vn 0.0608 -0.9746 -0.2157
vn 0.0237 -0.9954 -0.0930
vn 0.0540 -0.9789 -0.1973
vn 0.0614 -0.9755 -0.2113
vn 0.0314 -0.9936 -0.1087
vn 0.0338 -0.9933 -0.1109
vn -0.0159 -0.9977 0.0655
vn -0.0168 -0.9979 0.0619
vn -0.0141 -0.9983 0.0560
vn 0.0554 -0.9773 -0.2046
vn 0.0570 -0.9760 -0.2102
vn 0.0275 -0.9948 -0.0979
vn 0.0294 -0.9941 -0.1041
vn -0.0072 -0.9979 0.0651
vn -0.0293 -0.9979 0.0575
vn -0.0030 -0.9994 -0.0359
vn 0.0371 -0.9938 -0.1050
vn -0.0120 -0.9979 0.0634
vn -0.0070 -0.9982 0.0595
vn 0.0008 -0.9937 -0.1122
vn 0.0613 -0.9771 -0.2040
vn 0.0297 -0.9908 -0.1321
vn 0.0732 -0.9526 -0.2953
vn 0.0369 -0.9947 -0.0963
vn 0.0321 -0.9945 -0.0996
vn 0.0401 -0.9942 -0.1000
vn -0.0032 -0.9980 0.0637
vn -0.0254 -0.9987 0.0441
vn 0.0685 -0.9769 -0.2024
vn 0.0952 -0.9513 -0.2933
vn 0.0424 -0.9944 -0.0967
vn -0.0001 -0.9979 0.0652
vn 0.0081 -0.9963 0.0856
vn 0.0634 -0.9914 -0.1147
vn 0.0868 -0.9643 -0.2503
vn -0.0234 -0.9997 0.0041
vn 0.0201 -0.9998 0.0096
vn 0.0442 -0.9945 -0.0952
vn -0.0616 -0.9971 0.0443
vn -0.0428 -0.9985 -0.0348
vn 0.1160 -0.9907 -0.0704
vn -0.0152 -0.9867 -0.1621
vn 0.1043 -0.9679 -0.2289
vn 0.0706 -0.9877 -0.1397
vn 0.0593 -0.9891 -0.1351
vn 0.0362 -0.9989 -0.0302
vn -0.0389 -0.9956 0.0854
vn 0.0785 -0.9696 -0.2317
vn 0.0241 -0.9991 -0.0345
vn -0.0369 -0.9946 0.0967
vn 0.0685 -0.9700 -0.2333
vn 0.0164 -0.9991 -0.0394
vn 0.0831 -0.9695 -0.2304
vn 0.0684 -0.9805 -0.1840
vn 0.0672 -0.9891 -0.1310
vn -0.0168 -0.9937 -0.1108
vn 0.0324 -0.9995 -0.0019
vn 0.0717 -0.9833 -0.1673
vn -0.0187 -0.9910 -0.1328
vn -0.0312 -0.9907 -0.1323
vn 0.0238 -0.9996 -0.0122
vn 0.0596 -0.9846 -0.1646
vn -0.0356 -0.9915 -0.1251
vn 0.0147 -0.9998 -0.0131
vn 0.0488 -0.9867 -0.1548
vn -0.0472 -0.9903 -0.1309
vn 0.0196 -0.9993 -0.0308
vn 0.0523 -0.9885 -0.1422
vn -0.0407 -0.9883 -0.1472
vn -0.0349 -0.9868 -0.1582
vn 0.0788 -0.9947 0.0668
vn 0.1354 -0.9849 -0.1077
vt 0.001586 0.002124
vt 0.001798 0.181451
vt 0.044343 0.166777
vt 0.044192 0.002105
vt 0.001880 0.305620
vt 0.044433 0.308027
vt 0.001865 0.329255
vt 0.001899 0.543513
vt 0.044452 0.528891
vt 0.044433 0.329684
vt 0.001889 0.669821
vt 0.044437 0.669815
vt 0.001907 0.692292
vt 0.001720 0.860313
vt 0.044317 0.845754
vt 0.044442 0.692451
vt 0.001449 0.997837
vt 0.065237 0.997947
vt 0.094196 0.077050
vt 0.109285 0.008083
vt 0.094930 0.164361
vt 0.130570 0.254228
vt 0.106959 0.308281
vt 0.096507 0.436748
vt 0.086995 0.329673
vt 0.095020 0.526510
vt 0.111014 0.600119
vt 0.105795 0.669762
vt 0.096510 0.754129
vt 0.094910 0.843419
vt 0.102530 0.929753
vt 0.134750 0.369873
vt 0.154628 0.997961
vt 0.236672 0.092534
vt 0.235958 0.137773
vt 0.206561 0.201183
vt 0.233455 0.448816
vt 0.236008 0.500011
vt 0.206593 0.563379
vt 0.236708 0.771750
vt 0.110468 0.692514
vt 0.235966 0.816979
vt 0.206520 0.880380
vt 0.198730 0.952706
vt 0.257609 0.002022
vt 0.245689 0.047283
vt 0.240501 0.307521
vt 0.163296 0.333260
vt 0.240604 0.635649
vt 0.218793 0.706082
vt 0.256431 0.997989
vt 0.281868 0.182992
vt 0.281445 0.228223
vt 0.283870 0.398489
vt 0.281888 0.545219
vt 0.281454 0.590431
vt 0.281854 0.862224
vt 0.257212 0.921633
vt 0.323157 0.047264
vt 0.322686 0.092514
vt 0.322257 0.137753
vt 0.299832 0.308502
vt 0.322708 0.454808
vt 0.322272 0.500014
vt 0.321033 0.635652
vt 0.299828 0.755749
vt 0.299823 0.816992
vt 0.299801 0.920962
vt 0.367751 0.001993
vt 0.362094 0.182984
vt 0.342398 0.240398
vt 0.342400 0.397420
vt 0.362093 0.545220
vt 0.361616 0.590431
vt 0.362529 0.816996
vt 0.355257 0.746618
vt 0.362094 0.862231
vt 0.361170 0.920220
vt 0.357935 0.998008
vt 0.403373 0.047260
vt 0.402936 0.092512
vt 0.384968 0.137751
vt 0.400938 0.239330
vt 0.403342 0.409596
vt 0.384965 0.329810
vt 0.402911 0.454806
vt 0.384958 0.500013
vt 0.402083 0.635653
vt 0.402922 0.771764
vt 0.466216 0.002008
vt 0.448832 0.137761
vt 0.451373 0.188989
vt 0.447039 0.328902
vt 0.448795 0.500011
vt 0.448066 0.545220
vt 0.439037 0.590432
vt 0.454709 0.726526
vt 0.448822 0.816988
vt 0.448102 0.862224
vt 0.437905 0.908420
vt 0.444805 0.997952
vt 0.478277 0.074347
vt 0.530994 0.296202
vt 0.478204 0.436640
vt 0.486659 0.635650
vt 0.476467 0.771751
vt 0.554211 0.383637
vt 0.579434 0.628284
vt 0.550259 0.947270
vt 0.539304 0.994547
vt 0.584732 0.047315
vt 0.589913 0.111300
vt 0.588360 0.201115
vt 0.589792 0.473502
vt 0.590457 0.560754
vt 0.589850 0.790423
vt 0.588418 0.880234
vt 0.648519 0.002083
vt 0.597821 0.308291
vt 0.581614 0.692559
vt 0.598002 0.997955
vt 0.640522 0.108954
vt 0.640398 0.260174
vt 0.579788 0.329690
vt 0.640366 0.471121
vt 0.654372 0.329631
vt 0.640384 0.669811
vt 0.662876 0.765961
vt 0.640465 0.833147
vt 0.644363 0.997569
vt 0.683062 0.150128
vt 0.657046 0.307904
vt 0.682929 0.439423
vt 0.682932 0.669719
vt 0.683184 0.932673
vt 0.725899 0.002174
vt 0.725489 0.307473
vt 0.725506 0.329600
vt 0.725480 0.669716
vt 0.667459 0.692439
vt 0.725466 0.692409
vt 0.725918 0.997837
vt 0.001868 0.318708
vt 0.044425 0.318494
vt 0.001888 0.680966
vt 0.059571 0.680874
vt 0.264332 0.669694
vt 0.243857 0.329601
vt 0.326314 0.329605
vt 0.285109 0.692477
vt 0.361256 0.308236
vt 0.362597 0.669698
vt 0.366703 0.692479
vt 0.443262 0.308245
vt 0.442249 0.669695
vt 0.445791 0.692474
vt 0.580170 0.669681
vt 0.098523 0.319470
vt 0.109325 0.318308
vt 0.159771 0.680843
vt 0.259131 0.319458
vt 0.267692 0.318296
vt 0.234918 0.680891
vt 0.299816 0.680893
vt 0.358540 0.319455
vt 0.361763 0.318293
vt 0.359818 0.680894
vt 0.444298 0.319456
vt 0.448625 0.318296
vt 0.446029 0.681056
vt 0.614906 0.319473
vt 0.617152 0.318312
vt 0.583308 0.681283
vt 0.657113 0.680907
vt 0.725499 0.318500
vt 0.725473 0.680921
s 1
f 1/1/1 4/3/3 3/2/2
f 1/1/1 2/4/4 4/3/3
f 3/2/2 6/6/6 5/5/5
f 3/2/2 4/3/3 6/6/6
f 7/7/7 10/9/9 9/8/8
f 7/7/7 8/10/10 10/9/9
f 9/8/8 12/12/12 11/11/11
f 9/8/8 10/9/9 12/12/12
f 13/13/13 15/15/15 14/14/14
f 13/13/13 16/16/16 15/15/15
f 14/14/14 18/18/18 17/17/17
f 14/14/14 15/15/15 18/18/18
f 2/4/4 20/20/20 19/19/19
f 2/4/4 19/19/19 4/3/3
f 4/3/3 19/19/19 21/21/21
f 4/3/3 21/21/21 22/22/22
f 4/3/3 23/23/23 6/6/6
f 4/3/3 22/22/22 23/23/23
f 8/10/10 25/25/25 24/24/24
f 8/10/10 24/24/24 10/9/9
f 10/9/9 24/24/24 26/26/26
f 10/9/9 26/26/26 27/27/27
f 10/9/9 28/28/28 12/12/12
f 10/9/9 27/27/27 28/28/28
f 16/16/16 29/29/29 15/15/15
f 15/15/15 29/29/29 30/30/30
f 15/15/15 30/30/30 31/31/31
f 15/15/15 31/31/31 18/18/18
f 25/25/25 32/32/32 24/24/24
f 31/31/31 33/33/33 18/18/18
f 20/20/20 35/34/34 19/19/19
f 19/19/19 36/35/35 21/21/21
f 19/19/19 35/34/34 36/35/35
f 21/21/21 36/35/35 37/36/36
f 21/21/21 37/36/36 22/22/22
f 24/24/24 32/32/32 47/37/37
f 24/24/24 39/38/38 26/26/26
f 24/24/24 47/37/37 39/38/38
f 26/26/26 39/38/38 40/39/39
f 26/26/26 40/39/39 27/27/27
f 29/29/29 145/41/41 41/40/40
f 29/29/29 42/42/42 30/30/30
f 29/29/29 41/40/40 42/42/42
f 30/30/30 42/42/42 43/43/43
f 30/30/30 43/43/43 31/31/31
f 31/31/31 43/43/43 44/44/44
f 31/31/31 44/44/44 33/33/33
f 34/45/45 45/46/46 20/20/20
f 20/20/20 45/46/46 35/34/34
f 37/36/36 46/47/47 22/22/22
f 38/48/48 47/37/37 32/32/32
f 40/39/39 48/49/49 27/27/27
f 145/41/41 49/50/50 41/40/40
f 44/44/44 50/51/51 33/33/33
f 36/35/35 51/52/52 37/36/36
f 37/36/36 51/52/52 52/53/53
f 37/36/36 52/53/53 46/47/47
f 38/48/48 53/54/54 47/37/37
f 39/38/38 54/55/55 40/39/39
f 40/39/39 54/55/55 55/56/56
f 40/39/39 55/56/56 48/49/49
f 42/42/42 56/57/57 43/43/43
f 43/43/43 56/57/57 57/58/58
f 43/43/43 57/58/58 44/44/44
f 44/44/44 57/58/58 50/51/51
f 34/45/45 58/59/59 45/46/46
f 45/46/46 59/60/60 35/34/34
f 45/46/46 58/59/59 59/60/60
f 35/34/34 60/61/61 36/35/35
f 35/34/34 59/60/60 60/61/61
f 36/35/35 60/61/61 51/52/52
f 52/53/53 61/62/62 46/47/47
f 53/54/54 62/63/63 47/37/37
f 47/37/37 63/64/64 39/38/38
f 47/37/37 62/63/63 63/64/64
f 39/38/38 63/64/64 54/55/55
f 55/56/56 64/65/65 48/49/49
f 49/50/50 65/66/66 41/40/40
f 41/40/40 66/67/67 42/42/42
f 41/40/40 65/66/66 66/67/67
f 42/42/42 66/67/67 56/57/57
f 56/57/57 67/68/68 57/58/58
f 57/58/58 67/68/68 50/51/51
f 34/45/45 68/69/69 58/59/59
f 60/61/61 69/70/70 51/52/52
f 51/52/52 70/71/71 52/53/53
f 51/52/52 69/70/70 70/71/71
f 52/53/53 70/71/71 61/62/62
f 53/54/54 71/72/72 62/63/63
f 63/64/64 72/73/73 54/55/55
f 54/55/55 73/74/74 55/56/56
f 54/55/55 72/73/73 73/74/74
f 55/56/56 73/74/74 64/65/65
f 65/66/66 75/75/75 66/67/67
f 65/66/66 74/76/76 75/75/75
f 66/67/67 76/77/77 56/57/57
f 66/67/67 75/75/75 76/77/77
f 56/57/57 77/78/78 67/68/68
f 56/57/57 76/77/77 77/78/78
f 67/68/68 78/79/79 50/51/51
f 67/68/68 77/78/78 78/79/79
f 68/69/69 79/80/80 58/59/59
f 58/59/59 80/81/81 59/60/60
f 58/59/59 79/80/80 80/81/81
f 59/60/60 81/82/82 60/61/61
f 59/60/60 80/81/81 81/82/82
f 60/61/61 81/82/82 69/70/70
f 69/70/70 82/83/83 70/71/71
f 71/72/72 84/85/85 83/84/84
f 71/72/72 85/86/86 62/63/63
f 71/72/72 83/84/84 85/86/86
f 62/63/63 86/87/87 63/64/64
f 62/63/63 85/86/86 86/87/87
f 63/64/64 86/87/87 72/73/73
f 73/74/74 87/88/88 64/65/65
f 74/76/76 88/89/89 75/75/75
f 68/69/69 89/90/90 79/80/80
f 80/81/81 90/91/91 81/82/82
f 81/82/82 91/92/92 69/70/70
f 81/82/82 90/91/91 91/92/92
f 69/70/70 91/92/92 82/83/83
f 84/85/85 92/93/93 83/84/84
f 85/86/86 93/94/94 86/87/87
f 86/87/87 94/95/95 72/73/73
f 86/87/87 93/94/94 94/95/95
f 72/73/73 95/96/96 73/74/74
f 72/73/73 94/95/95 95/96/96
f 73/74/74 95/96/96 87/88/88
f 74/76/76 96/97/97 88/89/89
f 88/89/89 97/98/98 75/75/75
f 75/75/75 98/99/99 76/77/77
f 75/75/75 97/98/98 98/99/99
f 76/77/77 99/100/100 77/78/78
f 76/77/77 98/99/99 99/100/100
f 77/78/78 99/100/100 100/101/101
f 77/78/78 100/101/101 78/79/79
f 89/90/90 101/102/102 79/80/80
f 79/80/80 101/102/102 80/81/81
f 80/81/81 101/102/102 90/91/91
f 82/83/83 91/92/92 105/103/103
f 92/93/93 102/104/104 83/84/84
f 83/84/84 102/104/104 85/86/86
f 85/86/86 102/104/104 93/94/94
f 95/96/96 103/105/105 87/88/88
f 96/97/97 104/106/106 88/89/89
f 88/89/89 104/106/106 97/98/98
f 92/93/93 106/107/107 102/104/104
f 94/95/95 107/108/108 95/96/96
f 95/96/96 107/108/108 103/105/105
f 98/99/99 108/109/109 99/100/100
f 99/100/100 108/109/109 109/110/110
f 99/100/100 109/110/110 100/101/101
f 89/90/90 110/111/111 101/102/102
f 101/102/102 110/111/111 111/112/112
f 101/102/102 111/112/112 90/91/91
f 90/91/91 112/113/113 91/92/92
f 90/91/91 111/112/112 112/113/113
f 91/92/92 112/113/113 105/103/103
f 102/104/104 106/107/107 113/114/114
f 102/104/104 113/114/114 93/94/94
f 93/94/94 114/115/115 94/95/95
f 93/94/94 113/114/114 114/115/115
f 94/95/95 114/115/115 107/108/108
f 96/97/97 115/116/116 104/106/106
f 104/106/106 115/116/116 97/98/98
f 97/98/98 116/117/117 98/99/99
f 97/98/98 115/116/116 116/117/117
f 98/99/99 116/117/117 108/109/109
f 89/90/90 117/118/118 110/111/111
f 112/113/113 118/119/119 105/103/103
f 96/97/97 120/120/120 115/116/116
f 116/117/117 121/121/121 108/109/109
f 108/109/109 121/121/121 109/110/110
f 117/118/118 122/122/122 110/111/111
f 110/111/111 122/122/122 111/112/112
f 111/112/112 122/122/122 112/113/113
f 112/113/113 122/122/122 123/123/123
f 112/113/113 123/123/123 118/119/119
f 119/124/124 124/125/125 106/107/107
f 119/124/124 125/126/126 124/125/125
f 106/107/107 124/125/125 113/114/114
f 113/114/114 124/125/125 114/115/115
f 114/115/115 124/125/125 126/127/127
f 114/115/115 126/127/127 107/108/108
f 120/120/120 127/128/128 115/116/116
f 115/116/116 127/128/128 128/129/129
f 115/116/116 128/129/129 116/117/117
f 116/117/117 128/129/129 129/130/130
f 116/117/117 129/130/130 121/121/121
f 122/122/122 117/118/118 130/131/131
f 122/122/122 130/131/131 123/123/123
f 123/123/123 130/131/131 157/132/132
f 125/126/126 131/133/133 124/125/125
f 124/125/125 131/133/133 132/134/134
f 124/125/125 132/134/134 126/127/127
f 128/129/129 127/128/128 134/135/135
f 128/129/129 134/135/135 129/130/130
f 117/118/118 135/136/136 130/131/131
f 130/131/131 135/136/136 136/137/137
f 130/131/131 136/137/137 157/132/132
f 125/126/126 137/138/138 131/133/133
f 131/133/133 137/138/138 132/134/134
f 132/134/134 137/138/138 138/139/139
f 133/140/140 139/141/141 127/128/128
f 127/128/128 139/141/141 134/135/135
f 134/135/135 139/141/141 140/142/142
f 134/135/135 140/142/142 129/130/130
f 141/143/143 8/10/10 7/7/7
f 141/143/143 142/144/144 8/10/10
f 143/145/145 16/16/16 13/13/13
f 143/145/145 144/146/146 16/16/16
f 16/16/16 145/41/41 29/29/29
f 25/25/25 38/48/48 32/32/32
f 22/22/22 46/47/47 23/23/23
f 27/27/27 147/147/147 28/28/28
f 27/27/27 48/49/49 147/147/147
f 146/148/148 53/54/54 38/48/48
f 146/148/148 149/149/149 53/54/54
f 48/49/49 64/65/65 147/147/147
f 148/150/150 65/66/66 49/50/50
f 61/62/62 70/71/71 150/151/151
f 149/149/149 71/72/72 53/54/54
f 64/65/65 151/152/152 147/147/147
f 148/150/150 74/76/76 65/66/66
f 148/150/150 152/153/153 74/76/76
f 70/71/71 82/83/83 150/151/151
f 149/149/149 84/85/85 71/72/72
f 64/65/65 87/88/88 151/152/152
f 82/83/83 153/154/154 150/151/151
f 87/88/88 154/155/155 151/152/152
f 152/153/153 96/97/97 74/76/76
f 152/153/153 155/156/156 96/97/97
f 82/83/83 105/103/103 153/154/154
f 87/88/88 103/105/105 154/155/155
f 92/93/93 119/124/124 106/107/107
f 103/105/105 156/157/157 154/155/155
f 155/156/156 120/120/120 96/97/97
f 103/105/105 107/108/108 156/157/157
f 118/119/119 123/123/123 157/132/132
f 107/108/108 126/127/127 156/157/157
f 120/120/120 133/140/140 127/128/128
f 142/144/144 159/159/159 158/158/158
f 8/10/10 158/158/158 25/25/25
f 8/10/10 142/144/144 158/158/158
f 16/16/16 144/146/146 145/41/41
f 25/25/25 158/158/158 38/48/48
f 145/41/41 144/146/146 160/160/160
f 159/159/159 161/161/161 158/158/158
f 38/48/48 158/158/158 161/161/161
f 145/41/41 160/160/160 49/50/50
f 159/159/159 162/162/162 161/161/161
f 38/48/48 161/161/161 146/148/148
f 49/50/50 160/160/160 163/163/163
f 49/50/50 163/163/163 148/150/150
f 146/148/148 161/161/161 149/149/149
f 148/150/150 163/163/163 164/164/164
f 162/162/162 165/165/165 161/161/161
f 162/162/162 166/166/166 165/165/165
f 149/149/149 161/161/161 165/165/165
f 148/150/150 167/167/167 152/153/153
f 148/150/150 164/164/164 167/167/167
f 149/149/149 165/165/165 84/85/85
f 166/166/166 168/168/168 165/165/165
f 166/166/166 169/169/169 168/168/168
f 84/85/85 168/168/168 92/93/93
f 84/85/85 165/165/165 168/168/168
f 152/153/153 170/170/170 155/156/156
f 152/153/153 167/167/167 170/170/170
f 92/93/93 168/168/168 119/124/124
f 155/156/156 170/170/170 120/120/120
f 169/169/169 171/171/171 168/168/168
f 169/169/169 172/172/172 171/171/171
f 119/124/124 168/168/168 171/171/171
f 120/120/120 170/170/170 173/173/173
f 119/124/124 171/171/171 125/126/126
f 120/120/120 174/174/174 133/140/140
f 120/120/120 173/173/173 174/174/174
f 172/172/172 175/175/175 171/171/171
f 125/126/126 175/175/175 137/138/138
f 125/126/126 171/171/171 175/175/175
f 133/140/140 176/176/176 139/141/141
f 133/140/140 174/174/174 176/176/176
f 132/134/134 176/176/176 174/174/174
f 132/134/134 138/139/139 176/176/176
f 126/127/127 132/134/134 174/174/174
f 156/157/157 174/174/174 173/173/173
f 156/157/157 126/127/127 174/174/174
f 156/157/157 173/173/173 170/170/170
f 154/155/155 156/157/157 170/170/170
f 151/152/152 170/170/170 167/167/167
f 151/152/152 154/155/155 170/170/170
f 147/147/147 167/167/167 164/164/164
f 147/147/147 151/152/152 167/167/167
f 147/147/147 164/164/164 163/163/163
f 28/28/28 163/163/163 160/160/160
f 28/28/28 147/147/147 163/163/163
f 28/28/28 160/160/160 144/146/146
f 12/12/12 28/28/28 144/146/146
f 11/11/11 144/146/146 143/145/145
f 11/11/11 12/12/12 144/146/146
f 157/132/132 175/175/175 172/172/172
f 157/132/132 136/137/137 175/175/175
f 118/119/119 157/132/132 172/172/172
f 105/103/103 118/119/119 172/172/172
f 105/103/103 172/172/172 169/169/169
f 153/154/154 105/103/103 169/169/169
f 150/151/151 169/169/169 166/166/166
f 150/151/151 153/154/154 169/169/169
f 61/62/62 166/166/166 162/162/162
f 61/62/62 150/151/151 166/166/166
f 46/47/47 61/62/62 162/162/162
f 23/23/23 162/162/162 159/159/159
f 23/23/23 46/47/47 162/162/162
f 6/6/6 159/159/159 142/144/144
f 6/6/6 23/23/23 159/159/159
f 5/5/5 142/144/144 141/143/143
f 5/5/5 6/6/6 142/144/144
