# Blender 5.1.1
# www.blender.org
mtllib paper.mtl
o Object_2.007
v -0.664023 0.641326 0.665312
v -0.666255 0.641237 0.668169
v -0.675293 0.640418 0.656477
v -0.676339 0.640399 0.659714
v -0.683110 0.639807 0.650350
v -0.685745 0.639706 0.653409
v -0.684950 0.639728 0.648909
v -0.687190 0.639653 0.651718
v -0.698199 0.643386 0.638635
v -0.699267 0.643043 0.641847
v -0.706007 0.645561 0.632581
v -0.708455 0.645471 0.635706
v -0.707447 0.645835 0.631462
v -0.718015 0.647218 0.623230
v -0.719066 0.647004 0.626459
v -0.709579 0.645750 0.634164
v -0.726647 0.648370 0.616508
v -0.729791 0.648256 0.620525
v -0.673260 0.640712 0.667299
v -0.669569 0.641072 0.672413
v -0.678737 0.640267 0.663170
v -0.686503 0.639726 0.660568
v -0.688651 0.639575 0.657219
v -0.695725 0.641178 0.650103
v -0.689356 0.639560 0.654478
v -0.701683 0.642848 0.645287
v -0.707281 0.644206 0.642336
v -0.711389 0.645330 0.639463
v -0.715485 0.646045 0.634703
v -0.721473 0.646834 0.629907
v -0.727449 0.647601 0.625901
v -0.694074 0.640193 0.654811
v -0.734196 0.648046 0.626145
v -0.676623 0.640664 0.681453
v -0.681583 0.640145 0.675449
v -0.684096 0.639933 0.673384
v -0.686717 0.639726 0.668659
v -0.692475 0.639402 0.658455
v -0.707125 0.641949 0.655424
v -0.709664 0.643119 0.650795
v -0.724355 0.645829 0.642137
v -0.726866 0.646158 0.640086
v -0.729475 0.646779 0.635390
v -0.733684 0.647519 0.631010
v -0.679148 0.640388 0.678258
v -0.694413 0.639263 0.664561
v -0.704115 0.641126 0.657786
v -0.715718 0.644371 0.649232
v -0.718855 0.645228 0.645946
v -0.739220 0.647786 0.632552
v -0.689136 0.639603 0.674101
v -0.691919 0.639422 0.671877
v -0.703518 0.640193 0.663333
v -0.712126 0.642599 0.656194
v -0.714851 0.643404 0.654039
v -0.731909 0.646416 0.640815
v -0.734578 0.647032 0.636460
v -0.682794 0.640227 0.683275
v -0.685542 0.639963 0.681071
v -0.688328 0.639725 0.678842
v -0.697658 0.639113 0.668597
v -0.708633 0.640986 0.663038
v -0.711374 0.641737 0.660868
v -0.719681 0.644189 0.654305
v -0.726179 0.645512 0.647149
v -0.730005 0.645995 0.644119
v -0.736607 0.646929 0.639136
v -0.682049 0.640466 0.688395
v -0.693109 0.639456 0.679147
v -0.695812 0.639254 0.675081
v -0.705987 0.640023 0.667031
v -0.716103 0.642459 0.661237
v -0.718800 0.643257 0.659098
v -0.728598 0.645368 0.651020
v -0.733102 0.645887 0.648070
v -0.735885 0.646273 0.645858
v -0.739350 0.646798 0.643027
v -0.744224 0.647600 0.638945
v -0.686741 0.640130 0.688337
v -0.689518 0.639866 0.686116
v -0.691425 0.639644 0.682793
v -0.698275 0.639206 0.678787
v -0.709865 0.640171 0.670255
v -0.704185 0.638912 0.673355
v -0.712603 0.640894 0.668087
v -0.714468 0.641657 0.664822
v -0.723683 0.644088 0.659413
v -0.732296 0.645497 0.652797
v -0.686906 0.640400 0.694597
v -0.694563 0.639614 0.686830
v -0.697624 0.639384 0.684403
v -0.707430 0.638861 0.677529
v -0.717592 0.641620 0.668869
v -0.720060 0.642328 0.666862
v -0.722443 0.643151 0.664119
v -0.731721 0.645113 0.658469
v -0.737333 0.645833 0.653532
v -0.739843 0.646182 0.651483
v -0.742241 0.646606 0.648590
v -0.748496 0.647516 0.644415
v -0.691950 0.639952 0.691552
v -0.715032 0.640579 0.673517
v -0.727917 0.644073 0.664699
v -0.735969 0.645490 0.657400
v -0.710397 0.638896 0.685251
v -0.715293 0.639601 0.681548
v -0.731935 0.643921 0.670860
v -0.750466 0.646964 0.654067
v -0.752886 0.647478 0.650045
v -0.695457 0.640140 0.699946
v -0.699952 0.639779 0.697033
v -0.706015 0.639302 0.692084
v -0.722955 0.641210 0.679079
v -0.728337 0.642690 0.675069
v -0.742691 0.645655 0.663751
v -0.748747 0.646481 0.658839
v -0.695712 0.640347 0.705836
v -0.712556 0.638860 0.687661
v -0.713210 0.638814 0.684980
v -0.735887 0.644884 0.667789
v -0.755834 0.647442 0.653824
v -0.702359 0.639782 0.700485
v -0.711765 0.639049 0.692893
v -0.725349 0.641146 0.682539
v -0.716673 0.638755 0.689433
v -0.737187 0.644591 0.672454
v -0.744618 0.645401 0.669891
v -0.747831 0.645996 0.664878
v -0.757989 0.647400 0.656584
v -0.707098 0.639543 0.701208
v -0.725360 0.640577 0.686590
v -0.739384 0.644537 0.675274
v -0.740127 0.644831 0.673227
v -0.756122 0.646798 0.662620
v -0.699712 0.640235 0.710949
v -0.718915 0.638704 0.695896
v -0.720661 0.638637 0.694529
v -0.741690 0.644467 0.678223
v -0.743143 0.644743 0.677093
v -0.762336 0.647276 0.662144
v -0.684286 0.639699 0.649428
v -0.686450 0.639624 0.652222
v -0.706736 0.645915 0.632020
v -0.709518 0.645807 0.635581
v -0.712815 0.645586 0.638307
v -0.696939 0.639167 0.664123
v -0.718987 0.644907 0.649101
v -0.721449 0.645099 0.649292
v -0.701012 0.638996 0.669317
v -0.700986 0.639001 0.672891
v -0.723835 0.644730 0.655295
v -0.725474 0.644959 0.654437
v -0.705053 0.638925 0.678045
v -0.727755 0.644663 0.660325
v -0.729370 0.644901 0.659428
v -0.734528 0.644624 0.669049
v -0.715507 0.638803 0.691430
v -0.689107 0.639530 0.655483
v -0.689572 0.639487 0.656217
v -0.714532 0.645541 0.641975
v -0.697051 0.639125 0.665590
v -0.697403 0.639088 0.666184
v -0.718336 0.645315 0.646817
v -0.721545 0.645165 0.650914
v -0.701959 0.638947 0.671852
v -0.702046 0.638924 0.672110
v -0.724496 0.645065 0.654685
v -0.706178 0.638864 0.677267
v -0.706317 0.638842 0.677598
v -0.728718 0.644996 0.660097
v -0.714567 0.638776 0.688050
v -0.714606 0.638755 0.688247
v -0.735409 0.644972 0.668679
v -0.738935 0.644924 0.673200
v -0.719961 0.638605 0.695075
v -0.742422 0.644824 0.677659
vn 0.0655 -0.9977 0.0201
vn 0.0647 -0.9978 0.0156
vn 0.0675 -0.9976 0.0132
vn 0.0691 -0.9974 0.0178
vn 0.1001 -0.9948 0.0200
vn 0.0427 -0.9990 0.0149
vn -0.0943 -0.9924 -0.0793
vn -0.1531 -0.9761 -0.1543
vn -0.1504 -0.9761 -0.1568
vn -0.1089 -0.9907 -0.0820
vn -0.1805 -0.9632 -0.1991
vn -0.2288 -0.9519 -0.2036
vn 0.0149 -0.9991 -0.0389
vn -0.0663 -0.9940 -0.0865
vn -0.0633 -0.9940 -0.0891
vn -0.0181 -0.9992 -0.0349
vn -0.0697 -0.9942 -0.0822
vn -0.0681 -0.9938 -0.0878
vn 0.0751 -0.9971 0.0117
vn 0.0774 -0.9969 0.0156
vn 0.0706 -0.9975 0.0079
vn 0.0644 -0.9979 0.0034
vn 0.0378 -0.9988 0.0305
vn -0.1426 -0.9771 -0.1579
vn -0.0779 -0.9895 -0.1217
vn -0.1472 -0.9757 -0.1621
vn -0.1518 -0.9745 -0.1651
vn -0.2233 -0.9592 -0.1736
vn -0.0555 -0.9944 -0.0901
vn -0.0600 -0.9937 -0.0944
vn -0.0657 -0.9933 -0.0955
vn -0.1393 -0.9782 -0.1538
vn -0.0707 -0.9926 -0.0987
vn 0.0759 -0.9970 0.0152
vn 0.0710 -0.9974 0.0103
vn 0.0649 -0.9979 0.0034
vn -0.1412 -0.9779 -0.1542
vn -0.1469 -0.9762 -0.1596
vn -0.1530 -0.9741 -0.1666
vn -0.0543 -0.9947 -0.0872
vn -0.0102 -0.9998 -0.0141
vn -0.0597 -0.9939 -0.0925
vn -0.0655 -0.9930 -0.0985
vn -0.0724 -0.9923 -0.1003
vn 0.0807 -0.9965 0.0239
vn 0.0794 -0.9966 0.0203
vn 0.0701 -0.9971 0.0296
vn -0.0949 -0.9912 -0.0918
vn -0.1570 -0.9737 -0.1653
vn 0.0099 -0.9990 -0.0428
vn -0.0793 -0.9920 -0.0987
vn 0.0612 -0.9981 0.0110
vn 0.0554 -0.9984 0.0070
vn -0.1394 -0.9797 -0.1444
vn -0.1569 -0.9747 -0.1589
vn -0.1626 -0.9732 -0.1625
vn -0.0703 -0.9933 -0.0913
vn -0.0740 -0.9924 -0.0982
vn 0.0750 -0.9967 0.0310
vn 0.0695 -0.9972 0.0261
vn 0.0634 -0.9978 0.0205
vn 0.0585 -0.9976 0.0375
vn -0.1488 -0.9783 -0.1442
vn -0.1547 -0.9766 -0.1496
vn -0.1660 -0.9735 -0.1573
vn -0.0573 -0.9953 -0.0780
vn -0.0653 -0.9943 -0.0840
vn -0.0795 -0.9925 -0.0930
vn 0.0734 -0.9966 0.0383
vn 0.0522 -0.9984 0.0214
vn 0.0480 -0.9988 0.0130
vn -0.1447 -0.9801 -0.1362
vn -0.1659 -0.9749 -0.1485
vn -0.1707 -0.9734 -0.1530
vn -0.0722 -0.9945 -0.0756
vn -0.0621 -0.9956 -0.0695
vn -0.0788 -0.9936 -0.0810
vn -0.0848 -0.9927 -0.0862
vn -0.0880 -0.9920 -0.0903
vn 0.0666 -0.9970 0.0404
vn 0.0610 -0.9975 0.0365
vn 0.0561 -0.9980 0.0298
vn 0.0428 -0.9989 0.0215
vn -0.1519 -0.9798 -0.1298
vn -0.0942 -0.9936 -0.0628
vn -0.1573 -0.9785 -0.1337
vn -0.1620 -0.9768 -0.1402
vn -0.1726 -0.9740 -0.1470
vn -0.0705 -0.9954 -0.0649
vn 0.0621 -0.9970 0.0455
vn 0.0504 -0.9980 0.0376
vn 0.0446 -0.9985 0.0315
vn -0.0998 -0.9918 -0.0798
vn -0.1675 -0.9769 -0.1324
vn -0.1725 -0.9754 -0.1376
vn -0.1760 -0.9739 -0.1433
vn -0.0696 -0.9959 -0.0583
vn -0.0802 -0.9946 -0.0652
vn -0.0852 -0.9939 -0.0699
vn -0.0889 -0.9931 -0.0761
vn -0.0915 -0.9926 -0.0803
vn 0.0565 -0.9974 0.0440
vn 0.0427 -0.9976 0.0550
vn -0.1614 -0.9788 -0.1261
vn -0.1752 -0.9746 -0.1397
vn -0.0766 -0.9954 -0.0579
vn -0.1610 -0.9789 -0.1262
vn -0.1710 -0.9755 -0.1385
vn -0.0880 -0.9936 -0.0711
vn -0.0892 -0.9933 -0.0741
vn 0.0542 -0.9977 0.0401
vn 0.0506 -0.9979 0.0395
vn 0.0461 -0.9983 0.0347
vn -0.1671 -0.9773 -0.1304
vn -0.1717 -0.9760 -0.1340
vn -0.0796 -0.9948 -0.0633
vn -0.0845 -0.9941 -0.0674
vn 0.0572 -0.9979 0.0319
vn 0.0416 -0.9979 0.0493
vn -0.0343 -0.9994 -0.0111
vn -0.0824 -0.9938 -0.0749
vn 0.0538 -0.9979 0.0356
vn 0.0521 -0.9982 0.0295
vn -0.1031 -0.9937 -0.0443
vn -0.1643 -0.9771 -0.1356
vn -0.1102 -0.9908 -0.0786
vn -0.2439 -0.9526 -0.1819
vn -0.0744 -0.9947 -0.0714
vn -0.0793 -0.9945 -0.0682
vn -0.0766 -0.9942 -0.0757
vn 0.0575 -0.9980 0.0276
vn 0.0308 -0.9987 0.0405
vn -0.1600 -0.9769 -0.1416
vn -0.2334 -0.9513 -0.2015
vn -0.0727 -0.9944 -0.0766
vn 0.0600 -0.9979 0.0253
vn 0.0820 -0.9963 0.0257
vn -0.0812 -0.9914 -0.1030
vn -0.1971 -0.9643 -0.1771
vn -0.0053 -0.9997 0.0232
vn 0.0166 -0.9998 -0.0148
vn -0.0706 -0.9945 -0.0776
vn 0.0170 -0.9971 0.0739
vn -0.0486 -0.9985 0.0259
vn -0.0199 -0.9907 -0.1343
vn -0.1553 -0.9867 -0.0488
vn -0.1705 -0.9679 -0.1848
vn -0.1014 -0.9877 -0.1192
vn -0.1016 -0.9891 -0.1071
vn -0.0138 -0.9989 -0.0451
vn 0.0637 -0.9956 0.0689
vn -0.1831 -0.9696 -0.1622
vn -0.0224 -0.9991 -0.0356
vn 0.0748 -0.9946 0.0715
vn -0.1885 -0.9700 -0.1536
vn -0.0300 -0.9991 -0.0304
vn -0.1802 -0.9695 -0.1660
vn -0.1431 -0.9805 -0.1344
vn -0.0947 -0.9891 -0.1128
vn -0.1087 -0.9937 -0.0274
vn 0.0108 -0.9995 -0.0306
vn -0.1264 -0.9833 -0.1309
vn -0.1297 -0.9910 -0.0343
vn -0.1340 -0.9907 -0.0225
vn -0.0020 -0.9996 -0.0267
vn -0.1286 -0.9846 -0.1188
vn -0.1291 -0.9915 -0.0157
vn -0.0064 -0.9998 -0.0187
vn -0.1237 -0.9867 -0.1050
vn -0.1389 -0.9903 -0.0072
vn -0.0208 -0.9993 -0.0300
vn -0.1108 -0.9885 -0.1033
vn -0.1515 -0.9883 -0.0196
vn -0.1593 -0.9868 -0.0292
vn 0.0921 -0.9947 -0.0467
vn -0.0468 -0.9849 -0.1666
vt 0.001586 0.002124
vt 0.001798 0.181451
vt 0.044343 0.166777
vt 0.044192 0.002105
vt 0.001880 0.305620
vt 0.044433 0.308027
vt 0.001865 0.329255
vt 0.001899 0.543513
vt 0.044452 0.528891
vt 0.044433 0.329684
vt 0.001889 0.669821
vt 0.044437 0.669815
vt 0.001907 0.692292
vt 0.001720 0.860313
vt 0.044317 0.845754
vt 0.044442 0.692451
vt 0.001449 0.997837
vt 0.065237 0.997947
vt 0.094196 0.077050
vt 0.109285 0.008083
vt 0.094930 0.164361
vt 0.130570 0.254228
vt 0.106959 0.308281
vt 0.096507 0.436748
vt 0.086995 0.329673
vt 0.095020 0.526510
vt 0.111014 0.600119
vt 0.105795 0.669762
vt 0.096510 0.754129
vt 0.094910 0.843419
vt 0.102530 0.929753
vt 0.134750 0.369873
vt 0.154628 0.997961
vt 0.236672 0.092534
vt 0.235958 0.137773
vt 0.206561 0.201183
vt 0.233455 0.448816
vt 0.236008 0.500011
vt 0.206593 0.563379
vt 0.236708 0.771750
vt 0.110468 0.692514
vt 0.235966 0.816979
vt 0.206520 0.880380
vt 0.198730 0.952706
vt 0.257609 0.002022
vt 0.245689 0.047283
vt 0.240501 0.307521
vt 0.163296 0.333260
vt 0.240604 0.635649
vt 0.218793 0.706082
vt 0.256431 0.997989
vt 0.281868 0.182992
vt 0.281445 0.228223
vt 0.283870 0.398489
vt 0.281888 0.545219
vt 0.281454 0.590431
vt 0.281854 0.862224
vt 0.257212 0.921633
vt 0.323157 0.047264
vt 0.322686 0.092514
vt 0.322257 0.137753
vt 0.299832 0.308502
vt 0.322708 0.454808
vt 0.322272 0.500014
vt 0.321033 0.635652
vt 0.299828 0.755749
vt 0.299823 0.816992
vt 0.299801 0.920962
vt 0.367751 0.001993
vt 0.362094 0.182984
vt 0.342398 0.240398
vt 0.342400 0.397420
vt 0.362093 0.545220
vt 0.361616 0.590431
vt 0.362529 0.816996
vt 0.355257 0.746618
vt 0.362094 0.862231
vt 0.361170 0.920220
vt 0.357935 0.998008
vt 0.403373 0.047260
vt 0.402936 0.092512
vt 0.384968 0.137751
vt 0.400938 0.239330
vt 0.403342 0.409596
vt 0.384965 0.329810
vt 0.402911 0.454806
vt 0.384958 0.500013
vt 0.402083 0.635653
vt 0.402922 0.771764
vt 0.466216 0.002008
vt 0.448832 0.137761
vt 0.451373 0.188989
vt 0.447039 0.328902
vt 0.448795 0.500011
vt 0.448066 0.545220
vt 0.439037 0.590432
vt 0.454709 0.726526
vt 0.448822 0.816988
vt 0.448102 0.862224
vt 0.437905 0.908420
vt 0.444805 0.997952
vt 0.478277 0.074347
vt 0.530994 0.296202
vt 0.478204 0.436640
vt 0.486659 0.635650
vt 0.476467 0.771751
vt 0.554211 0.383637
vt 0.579434 0.628284
vt 0.550259 0.947270
vt 0.539304 0.994547
vt 0.584732 0.047315
vt 0.589913 0.111300
vt 0.588360 0.201115
vt 0.589792 0.473502
vt 0.590457 0.560754
vt 0.589850 0.790423
vt 0.588418 0.880234
vt 0.648519 0.002083
vt 0.597821 0.308291
vt 0.581614 0.692559
vt 0.598002 0.997955
vt 0.640522 0.108954
vt 0.640398 0.260174
vt 0.579788 0.329690
vt 0.640366 0.471121
vt 0.654372 0.329631
vt 0.640384 0.669811
vt 0.662876 0.765961
vt 0.640465 0.833147
vt 0.644363 0.997569
vt 0.683062 0.150128
vt 0.657046 0.307904
vt 0.682929 0.439423
vt 0.682932 0.669719
vt 0.683184 0.932673
vt 0.725899 0.002174
vt 0.725489 0.307473
vt 0.725506 0.329600
vt 0.725480 0.669716
vt 0.667459 0.692439
vt 0.725466 0.692409
vt 0.725918 0.997837
vt 0.001868 0.318708
vt 0.044425 0.318494
vt 0.001888 0.680966
vt 0.059571 0.680874
vt 0.264332 0.669694
vt 0.243857 0.329601
vt 0.326314 0.329605
vt 0.285109 0.692477
vt 0.361256 0.308236
vt 0.362597 0.669698
vt 0.366703 0.692479
vt 0.443262 0.308245
vt 0.442249 0.669695
vt 0.445791 0.692474
vt 0.580170 0.669681
vt 0.098523 0.319470
vt 0.109325 0.318308
vt 0.159771 0.680843
vt 0.259131 0.319458
vt 0.267692 0.318296
vt 0.234918 0.680891
vt 0.299816 0.680893
vt 0.358540 0.319455
vt 0.361763 0.318293
vt 0.359818 0.680894
vt 0.444298 0.319456
vt 0.448625 0.318296
vt 0.446029 0.681056
vt 0.614906 0.319473
vt 0.617152 0.318312
vt 0.583308 0.681283
vt 0.657113 0.680907
vt 0.725499 0.318500
vt 0.725473 0.680921
s 1
usemtl blinn1SG
f 1/1/1 4/3/3 3/2/2
f 1/1/1 2/4/4 4/3/3
f 3/2/2 6/6/6 5/5/5
f 3/2/2 4/3/3 6/6/6
f 7/7/7 10/9/9 9/8/8
f 7/7/7 8/10/10 10/9/9
f 9/8/8 12/12/12 11/11/11
f 9/8/8 10/9/9 12/12/12
f 13/13/13 15/15/15 14/14/14
f 13/13/13 16/16/16 15/15/15
f 14/14/14 18/18/18 17/17/17
f 14/14/14 15/15/15 18/18/18
f 2/4/4 20/20/20 19/19/19
f 2/4/4 19/19/19 4/3/3
f 4/3/3 19/19/19 21/21/21
f 4/3/3 21/21/21 22/22/22
f 4/3/3 23/23/23 6/6/6
f 4/3/3 22/22/22 23/23/23
f 8/10/10 25/25/25 24/24/24
f 8/10/10 24/24/24 10/9/9
f 10/9/9 24/24/24 26/26/26
f 10/9/9 26/26/26 27/27/27
f 10/9/9 28/28/28 12/12/12
f 10/9/9 27/27/27 28/28/28
f 16/16/16 29/29/29 15/15/15
f 15/15/15 29/29/29 30/30/30
f 15/15/15 30/30/30 31/31/31
f 15/15/15 31/31/31 18/18/18
f 25/25/25 32/32/32 24/24/24
f 31/31/31 33/33/33 18/18/18
f 20/20/20 35/34/34 19/19/19
f 19/19/19 36/35/35 21/21/21
f 19/19/19 35/34/34 36/35/35
f 21/21/21 36/35/35 37/36/36
f 21/21/21 37/36/36 22/22/22
f 24/24/24 32/32/32 47/37/37
f 24/24/24 39/38/38 26/26/26
f 24/24/24 47/37/37 39/38/38
f 26/26/26 39/38/38 40/39/39
f 26/26/26 40/39/39 27/27/27
f 29/29/29 145/41/41 41/40/40
f 29/29/29 42/42/42 30/30/30
f 29/29/29 41/40/40 42/42/42
f 30/30/30 42/42/42 43/43/43
f 30/30/30 43/43/43 31/31/31
f 31/31/31 43/43/43 44/44/44
f 31/31/31 44/44/44 33/33/33
f 34/45/45 45/46/46 20/20/20
f 20/20/20 45/46/46 35/34/34
f 37/36/36 46/47/47 22/22/22
f 38/48/48 47/37/37 32/32/32
f 40/39/39 48/49/49 27/27/27
f 145/41/41 49/50/50 41/40/40
f 44/44/44 50/51/51 33/33/33
f 36/35/35 51/52/52 37/36/36
f 37/36/36 51/52/52 52/53/53
f 37/36/36 52/53/53 46/47/47
f 38/48/48 53/54/54 47/37/37
f 39/38/38 54/55/55 40/39/39
f 40/39/39 54/55/55 55/56/56
f 40/39/39 55/56/56 48/49/49
f 42/42/42 56/57/57 43/43/43
f 43/43/43 56/57/57 57/58/58
f 43/43/43 57/58/58 44/44/44
f 44/44/44 57/58/58 50/51/51
f 34/45/45 58/59/59 45/46/46
f 45/46/46 59/60/60 35/34/34
f 45/46/46 58/59/59 59/60/60
f 35/34/34 60/61/61 36/35/35
f 35/34/34 59/60/60 60/61/61
f 36/35/35 60/61/61 51/52/52
f 52/53/53 61/62/62 46/47/47
f 53/54/54 62/63/63 47/37/37
f 47/37/37 63/64/64 39/38/38
f 47/37/37 62/63/63 63/64/64
f 39/38/38 63/64/64 54/55/55
f 55/56/56 64/65/65 48/49/49
f 49/50/50 65/66/66 41/40/40
f 41/40/40 66/67/67 42/42/42
f 41/40/40 65/66/66 66/67/67
f 42/42/42 66/67/67 56/57/57
f 56/57/57 67/68/68 57/58/58
f 57/58/58 67/68/68 50/51/51
f 34/45/45 68/69/69 58/59/59
f 60/61/61 69/70/70 51/52/52
f 51/52/52 70/71/71 52/53/53
f 51/52/52 69/70/70 70/71/71
f 52/53/53 70/71/71 61/62/62
f 53/54/54 71/72/72 62/63/63
f 63/64/64 72/73/73 54/55/55
f 54/55/55 73/74/74 55/56/56
f 54/55/55 72/73/73 73/74/74
f 55/56/56 73/74/74 64/65/65
f 65/66/66 75/75/75 66/67/67
f 65/66/66 74/76/76 75/75/75
f 66/67/67 76/77/77 56/57/57
f 66/67/67 75/75/75 76/77/77
f 56/57/57 77/78/78 67/68/68
f 56/57/57 76/77/77 77/78/78
f 67/68/68 78/79/79 50/51/51
f 67/68/68 77/78/78 78/79/79
f 68/69/69 79/80/80 58/59/59
f 58/59/59 80/81/81 59/60/60
f 58/59/59 79/80/80 80/81/81
f 59/60/60 81/82/82 60/61/61
f 59/60/60 80/81/81 81/82/82
f 60/61/61 81/82/82 69/70/70
f 69/70/70 82/83/83 70/71/71
f 71/72/72 84/85/85 83/84/84
f 71/72/72 85/86/86 62/63/63
f 71/72/72 83/84/84 85/86/86
f 62/63/63 86/87/87 63/64/64
f 62/63/63 85/86/86 86/87/87
f 63/64/64 86/87/87 72/73/73
f 73/74/74 87/88/88 64/65/65
f 74/76/76 88/89/89 75/75/75
f 68/69/69 89/90/90 79/80/80
f 80/81/81 90/91/91 81/82/82
f 81/82/82 91/92/92 69/70/70
f 81/82/82 90/91/91 91/92/92
f 69/70/70 91/92/92 82/83/83
f 84/85/85 92/93/93 83/84/84
f 85/86/86 93/94/94 86/87/87
f 86/87/87 94/95/95 72/73/73
f 86/87/87 93/94/94 94/95/95
f 72/73/73 95/96/96 73/74/74
f 72/73/73 94/95/95 95/96/96
f 73/74/74 95/96/96 87/88/88
f 74/76/76 96/97/97 88/89/89
f 88/89/89 97/98/98 75/75/75
f 75/75/75 98/99/99 76/77/77
f 75/75/75 97/98/98 98/99/99
f 76/77/77 99/100/100 77/78/78
f 76/77/77 98/99/99 99/100/100
f 77/78/78 99/100/100 100/101/101
f 77/78/78 100/101/101 78/79/79
f 89/90/90 101/102/102 79/80/80
f 79/80/80 101/102/102 80/81/81
f 80/81/81 101/102/102 90/91/91
f 82/83/83 91/92/92 105/103/103
f 92/93/93 102/104/104 83/84/84
f 83/84/84 102/104/104 85/86/86
f 85/86/86 102/104/104 93/94/94
f 95/96/96 103/105/105 87/88/88
f 96/97/97 104/106/106 88/89/89
f 88/89/89 104/106/106 97/98/98
f 92/93/93 106/107/107 102/104/104
f 94/95/95 107/108/108 95/96/96
f 95/96/96 107/108/108 103/105/105
f 98/99/99 108/109/109 99/100/100
f 99/100/100 108/109/109 109/110/110
f 99/100/100 109/110/110 100/101/101
f 89/90/90 110/111/111 101/102/102
f 101/102/102 110/111/111 111/112/112
f 101/102/102 111/112/112 90/91/91
f 90/91/91 112/113/113 91/92/92
f 90/91/91 111/112/112 112/113/113
f 91/92/92 112/113/113 105/103/103
f 102/104/104 106/107/107 113/114/114
f 102/104/104 113/114/114 93/94/94
f 93/94/94 114/115/115 94/95/95
f 93/94/94 113/114/114 114/115/115
f 94/95/95 114/115/115 107/108/108
f 96/97/97 115/116/116 104/106/106
f 104/106/106 115/116/116 97/98/98
f 97/98/98 116/117/117 98/99/99
f 97/98/98 115/116/116 116/117/117
f 98/99/99 116/117/117 108/109/109
f 89/90/90 117/118/118 110/111/111
f 112/113/113 118/119/119 105/103/103
f 96/97/97 120/120/120 115/116/116
f 116/117/117 121/121/121 108/109/109
f 108/109/109 121/121/121 109/110/110
f 117/118/118 122/122/122 110/111/111
f 110/111/111 122/122/122 111/112/112
f 111/112/112 122/122/122 112/113/113
f 112/113/113 122/122/122 123/123/123
f 112/113/113 123/123/123 118/119/119
f 119/124/124 124/125/125 106/107/107
f 119/124/124 125/126/126 124/125/125
f 106/107/107 124/125/125 113/114/114
f 113/114/114 124/125/125 114/115/115
f 114/115/115 124/125/125 126/127/127
f 114/115/115 126/127/127 107/108/108
f 120/120/120 127/128/128 115/116/116
f 115/116/116 127/128/128 128/129/129
f 115/116/116 128/129/129 116/117/117
f 116/117/117 128/129/129 129/130/130
f 116/117/117 129/130/130 121/121/121
f 122/122/122 117/118/118 130/131/131
f 122/122/122 130/131/131 123/123/123
f 123/123/123 130/131/131 157/132/132
f 125/126/126 131/133/133 124/125/125
f 124/125/125 131/133/133 132/134/134
f 124/125/125 132/134/134 126/127/127
f 128/129/129 127/128/128 134/135/135
f 128/129/129 134/135/135 129/130/130
f 117/118/118 135/136/136 130/131/131
f 130/131/131 135/136/136 136/137/137
f 130/131/131 136/137/137 157/132/132
f 125/126/126 137/138/138 131/133/133
f 131/133/133 137/138/138 132/134/134
f 132/134/134 137/138/138 138/139/139
f 133/140/140 139/141/141 127/128/128
f 127/128/128 139/141/141 134/135/135
f 134/135/135 139/141/141 140/142/142
f 134/135/135 140/142/142 129/130/130
f 141/143/143 8/10/10 7/7/7
f 141/143/143 142/144/144 8/10/10
f 143/145/145 16/16/16 13/13/13
f 143/145/145 144/146/146 16/16/16
f 16/16/16 145/41/41 29/29/29
f 25/25/25 38/48/48 32/32/32
f 22/22/22 46/47/47 23/23/23
f 27/27/27 147/147/147 28/28/28
f 27/27/27 48/49/49 147/147/147
f 146/148/148 53/54/54 38/48/48
f 146/148/148 149/149/149 53/54/54
f 48/49/49 64/65/65 147/147/147
f 148/150/150 65/66/66 49/50/50
f 61/62/62 70/71/71 150/151/151
f 149/149/149 71/72/72 53/54/54
f 64/65/65 151/152/152 147/147/147
f 148/150/150 74/76/76 65/66/66
f 148/150/150 152/153/153 74/76/76
f 70/71/71 82/83/83 150/151/151
f 149/149/149 84/85/85 71/72/72
f 64/65/65 87/88/88 151/152/152
f 82/83/83 153/154/154 150/151/151
f 87/88/88 154/155/155 151/152/152
f 152/153/153 96/97/97 74/76/76
f 152/153/153 155/156/156 96/97/97
f 82/83/83 105/103/103 153/154/154
f 87/88/88 103/105/105 154/155/155
f 92/93/93 119/124/124 106/107/107
f 103/105/105 156/157/157 154/155/155
f 155/156/156 120/120/120 96/97/97
f 103/105/105 107/108/108 156/157/157
f 118/119/119 123/123/123 157/132/132
f 107/108/108 126/127/127 156/157/157
f 120/120/120 133/140/140 127/128/128
f 142/144/144 159/159/159 158/158/158
f 8/10/10 158/158/158 25/25/25
f 8/10/10 142/144/144 158/158/158
f 16/16/16 144/146/146 145/41/41
f 25/25/25 158/158/158 38/48/48
f 145/41/41 144/146/146 160/160/160
f 159/159/159 161/161/161 158/158/158
f 38/48/48 158/158/158 161/161/161
f 145/41/41 160/160/160 49/50/50
f 159/159/159 162/162/162 161/161/161
f 38/48/48 161/161/161 146/148/148
f 49/50/50 160/160/160 163/163/163
f 49/50/50 163/163/163 148/150/150
f 146/148/148 161/161/161 149/149/149
f 148/150/150 163/163/163 164/164/164
f 162/162/162 165/165/165 161/161/161
f 162/162/162 166/166/166 165/165/165
f 149/149/149 161/161/161 165/165/165
f 148/150/150 167/167/167 152/153/153
f 148/150/150 164/164/164 167/167/167
f 149/149/149 165/165/165 84/85/85
f 166/166/166 168/168/168 165/165/165
f 166/166/166 169/169/169 168/168/168
f 84/85/85 168/168/168 92/93/93
f 84/85/85 165/165/165 168/168/168
f 152/153/153 170/170/170 155/156/156
f 152/153/153 167/167/167 170/170/170
f 92/93/93 168/168/168 119/124/124
f 155/156/156 170/170/170 120/120/120
f 169/169/169 171/171/171 168/168/168
f 169/169/169 172/172/172 171/171/171
f 119/124/124 168/168/168 171/171/171
f 120/120/120 170/170/170 173/173/173
f 119/124/124 171/171/171 125/126/126
f 120/120/120 174/174/174 133/140/140
f 120/120/120 173/173/173 174/174/174
f 172/172/172 175/175/175 171/171/171
f 125/126/126 175/175/175 137/138/138
f 125/126/126 171/171/171 175/175/175
f 133/140/140 176/176/176 139/141/141
f 133/140/140 174/174/174 176/176/176
f 132/134/134 176/176/176 174/174/174
f 132/134/134 138/139/139 176/176/176
f 126/127/127 132/134/134 174/174/174
f 156/157/157 174/174/174 173/173/173
f 156/157/157 126/127/127 174/174/174
f 156/157/157 173/173/173 170/170/170
f 154/155/155 156/157/157 170/170/170
f 151/152/152 170/170/170 167/167/167
f 151/152/152 154/155/155 170/170/170
f 147/147/147 167/167/167 164/164/164
f 147/147/147 151/152/152 167/167/167
f 147/147/147 164/164/164 163/163/163
f 28/28/28 163/163/163 160/160/160
f 28/28/28 147/147/147 163/163/163
f 28/28/28 160/160/160 144/146/146
f 12/12/12 28/28/28 144/146/146
f 11/11/11 144/146/146 143/145/145
f 11/11/11 12/12/12 144/146/146
f 157/132/132 175/175/175 172/172/172
f 157/132/132 136/137/137 175/175/175
f 118/119/119 157/132/132 172/172/172
f 105/103/103 118/119/119 172/172/172
f 105/103/103 172/172/172 169/169/169
f 153/154/154 105/103/103 169/169/169
f 150/151/151 169/169/169 166/166/166
f 150/151/151 153/154/154 169/169/169
f 61/62/62 166/166/166 162/162/162
f 61/62/62 150/151/151 166/166/166
f 46/47/47 61/62/62 162/162/162
f 23/23/23 162/162/162 159/159/159
f 23/23/23 46/47/47 162/162/162
f 6/6/6 159/159/159 142/144/144
f 6/6/6 23/23/23 159/159/159
f 5/5/5 142/144/144 141/143/143
f 5/5/5 6/6/6 142/144/144
