# Blender 5.1.1
# www.blender.org
mtllib pink_things_front.mtl
o Sphere.034
v -0.827985 0.700057 0.689285
v -0.815389 0.654278 0.645722
v -0.827557 0.656312 0.649863
v -0.828823 0.681463 0.673687
v -0.828155 0.699906 0.689033
v -0.824773 0.689067 0.673110
v -0.821060 0.669074 0.652061
v -0.815262 0.654809 0.645801
v -0.787138 0.708048 0.659839
v -0.815360 0.654976 0.645633
v -0.814717 0.667974 0.639715
v -0.799439 0.693712 0.651871
v -0.787248 0.707888 0.659546
v -0.794219 0.688411 0.651731
v -0.805962 0.663207 0.642037
v -0.815004 0.654861 0.645615
v -0.803956 0.719268 0.670548
v -0.815946 0.654960 0.646046
v -0.821590 0.669001 0.644439
v -0.812566 0.699971 0.660473
v -0.804087 0.719130 0.670268
v -0.806008 0.698746 0.658997
v -0.811268 0.669989 0.645099
v -0.815587 0.655105 0.646000
v -0.818469 0.714689 0.681180
v -0.814965 0.654049 0.645446
v -0.825396 0.663585 0.647638
v -0.822672 0.693984 0.668149
v -0.818623 0.714554 0.680915
v -0.816673 0.697725 0.666581
v -0.816088 0.671303 0.648354
v -0.814699 0.654439 0.645442
v -0.828653 0.672045 0.692484
v -0.814988 0.653952 0.645472
v -0.819709 0.654845 0.660874
v -0.827504 0.659694 0.674883
v -0.828829 0.671858 0.692240
v -0.826992 0.669690 0.676557
v -0.823530 0.660775 0.654603
v -0.815051 0.654494 0.645683
v -0.818585 0.647720 0.687790
v -0.814291 0.654014 0.644977
v -0.817383 0.637153 0.651063
v -0.818469 0.642370 0.670231
v -0.818753 0.647496 0.687543
v -0.821013 0.651349 0.674149
v -0.821720 0.651610 0.654226
v -0.814475 0.654403 0.645288
v -0.805343 0.636104 0.679524
v -0.813828 0.655469 0.644617
v -0.808230 0.646415 0.653466
v -0.807978 0.635596 0.663328
v -0.805496 0.635859 0.679270
v -0.811969 0.641823 0.668849
v -0.817840 0.646578 0.652254
v -0.814036 0.655660 0.644981
v -0.790422 0.633638 0.669293
v -0.814355 0.655535 0.644981
v -0.803457 0.648570 0.649906
v -0.797067 0.635928 0.655638
v -0.790553 0.633381 0.669024
v -0.801299 0.637680 0.661764
v -0.813147 0.642584 0.649349
v -0.814512 0.655482 0.645332
v -0.779457 0.641472 0.660834
v -0.813935 0.655663 0.644674
v -0.805668 0.644073 0.635521
v -0.789409 0.643489 0.649527
v -0.779572 0.641220 0.660553
v -0.792605 0.641479 0.655293
v -0.808311 0.642730 0.645941
v -0.813994 0.655444 0.644973
v -0.774537 0.651719 0.656383
v -0.813801 0.656426 0.644505
v -0.804747 0.649407 0.634355
v -0.786350 0.652227 0.646529
v -0.774643 0.651476 0.656094
v -0.788315 0.648060 0.651640
v -0.805633 0.645272 0.643814
v -0.813776 0.656133 0.644752
v -0.773481 0.672638 0.653602
v -0.815231 0.658016 0.645354
v -0.806970 0.658874 0.634992
v -0.787130 0.669030 0.645438
v -0.773579 0.672419 0.653306
v -0.786623 0.662661 0.649029
v -0.804440 0.652045 0.642317
v -0.815066 0.657687 0.645506
vn -0.9710 -0.2368 -0.0319
vn -0.1912 0.5788 -0.7927
vn -0.0060 -0.1757 0.9844
vn 0.6911 -0.3091 -0.6533
vn 0.2482 -0.3261 0.9122
vn 0.5280 0.1339 -0.8387
vn 0.5295 -0.3526 0.7715
vn 0.1939 0.4376 -0.8780
vn 0.9446 0.1613 0.2860
vn -0.3875 -0.9057 -0.1720
vn 0.1498 -0.9796 -0.1343
vn 0.6058 0.7100 0.3591
vn 0.2115 -0.7004 -0.6817
vn -0.7844 -0.2090 0.5840
vn 0.3862 -0.1053 -0.9164
vn 0.4550 0.1113 -0.8835
vn 0.2993 0.1026 -0.9486
vn -0.3565 -0.8947 0.2692
vn -0.1741 0.3414 0.9237
vn 0.1699 -0.9853 0.0196
vn -0.1327 0.6781 -0.7229
vn 0.8706 0.4455 -0.2089
vn 0.9747 0.2153 0.0604
vn 0.9661 -0.0793 0.2457
vn -0.2585 0.6276 -0.7343
vn -0.7066 0.4675 -0.5311
vn 0.0766 0.8317 -0.5499
vn -0.8311 -0.4690 0.2988
vn -0.2839 0.2078 -0.9361
vn -0.8216 0.3747 -0.4296
vn 0.8321 -0.2634 -0.4881
vn 0.6471 -0.1386 -0.7497
vn 0.6819 -0.5168 0.5177
vn 0.5493 -0.4730 0.6888
vn 0.0004 0.1588 -0.9873
vn 0.2401 0.2944 -0.9250
vn 0.9435 -0.2509 -0.2164
vn -0.1758 -0.4007 -0.8992
vn 0.2673 0.2749 -0.9236
vn 0.6624 0.1831 -0.7265
vn 0.4517 0.2462 -0.8575
vn 0.9465 -0.2633 0.1867
vn 0.8419 -0.3197 0.4347
vn -0.2435 0.3126 -0.9181
vn -0.0379 0.4681 -0.8828
vn 0.8501 0.1912 -0.4907
vn -0.0698 -0.1411 -0.9875
vn -0.1275 0.4891 -0.8628
vn 0.3017 0.5145 -0.8026
vn 0.1159 0.5121 -0.8511
vn 0.9882 0.1012 -0.1150
vn 0.9771 -0.0605 0.2039
vn -0.5183 0.3449 -0.7826
vn -0.3790 0.5407 -0.7510
vn 0.5371 0.5822 -0.6104
vn -0.1345 0.0799 -0.9877
vn -0.5371 0.5100 -0.6719
vn 0.8072 0.5901 0.0130
vn -0.5015 0.6925 -0.5187
vn -0.9452 -0.1679 -0.2800
vn 0.3347 0.8903 -0.3087
vn -0.9549 0.0436 -0.2939
vn -0.5076 0.6869 -0.5201
vn -0.5888 0.7885 -0.1780
vn -0.9560 0.0037 -0.2933
vn -0.9175 -0.3942 -0.0530
vn -0.9846 0.1461 -0.0955
vn -0.3335 0.9424 0.0242
vn 0.4340 0.8826 0.1806
vn -0.9769 0.2026 -0.0682
vn 0.3624 0.9147 0.1789
vn -0.4950 0.8309 -0.2542
vn -0.8874 0.3810 0.2594
vn -0.7887 0.1107 -0.6047
vn -0.8993 -0.4366 0.0262
vn -0.9852 0.1518 -0.0800
vn 0.0147 0.8717 0.4898
vn -0.9806 0.1191 0.1558
vn -0.5951 -0.7189 -0.3592
vn -0.6729 0.6132 0.4137
vn -0.7604 -0.6283 -0.1643
vn -0.9819 0.1147 0.1509
vn -0.8521 -0.0105 0.5233
vn -0.7832 -0.6086 -0.1273
vn -0.2844 -0.8975 -0.3370
vn -0.6852 0.1495 0.7129
vn -0.3363 -0.8347 -0.4361
vn -0.8824 -0.2720 0.3838
vn -0.3870 0.4538 0.8027
vn -0.1780 0.7084 0.6830
vn -0.2763 -0.9544 -0.1133
vn -0.8764 -0.2253 -0.4255
vn 0.2217 -0.3075 -0.9254
vn -0.7905 -0.5442 0.2811
vn 0.5987 -0.2053 -0.7742
vn -0.4618 -0.7288 0.5057
vn -0.5142 -0.1657 0.8415
vn -0.3686 0.1343 0.9198
vn -0.4702 -0.8423 0.2636
vn -0.3869 0.0858 0.9181
vn 0.4388 -0.7187 -0.5394
vn -0.2963 -0.6474 0.7022
vn -0.8034 -0.3932 -0.4472
vn 0.1007 -0.9498 -0.2962
vn -0.5154 -0.7266 0.4544
vn -0.1673 -0.8744 0.4554
vn -0.3020 -0.3045 0.9034
vn -0.2918 -0.0755 0.9535
vn -0.3952 0.6592 0.6397
vn -0.1599 -0.9770 0.1413
vn 0.5315 -0.4924 -0.6892
vn -0.0209 -0.7612 0.6482
vn 0.3432 0.3332 -0.8782
vn -0.8015 -0.4239 -0.4217
vn 0.3410 -0.8550 -0.3908
vn 0.3563 -0.9108 0.2087
vn 0.3671 -0.9053 -0.2135
vn -0.0161 -0.5149 0.8571
vn -0.0691 -0.3215 0.9444
vn 0.1427 -0.3569 -0.9232
vn 0.5264 -0.1719 -0.8327
vn 0.4449 -0.7842 0.4325
vn -0.6226 -0.5635 -0.5430
vn 0.5627 -0.4477 -0.6949
vt 0.000000 0.000000
s 0
usemtl Material.036
f 1/1/1 6/1/1 2/1/1
f 6/1/2 8/1/2 3/1/2
f 2/1/21 3/1/21 4/1/21
f 1/1/22 8/1/22 7/1/22
f 6/1/23 5/1/23 2/1/23
f 1/1/24 7/1/24 6/1/24
f 2/1/25 4/1/25 1/1/25
f 3/1/26 4/1/26 5/1/26
f 5/1/27 1/1/27 6/1/27
f 6/1/28 7/1/28 8/1/28
f 8/1/29 2/1/29 3/1/29
f 3/1/30 5/1/30 6/1/30
usemtl Material.033
f 16/1/3 14/1/3 10/1/3
f 14/1/4 16/1/4 11/1/4
f 10/1/31 11/1/31 12/1/31
f 12/1/32 9/1/32 16/1/32
f 16/1/33 15/1/33 14/1/33
f 14/1/34 13/1/34 10/1/34
f 10/1/35 12/1/35 16/1/35
f 11/1/36 12/1/36 13/1/36
f 13/1/37 9/1/37 14/1/37
f 16/1/38 10/1/38 11/1/38
f 11/1/39 13/1/39 14/1/39
usemtl Material.034
f 24/1/5 22/1/5 18/1/5
f 22/1/6 24/1/6 19/1/6
f 18/1/40 19/1/40 20/1/40
f 20/1/41 17/1/41 24/1/41
f 24/1/42 23/1/42 22/1/42
f 22/1/43 21/1/43 18/1/43
f 18/1/44 20/1/44 24/1/44
f 19/1/45 20/1/45 21/1/45
f 21/1/46 17/1/46 22/1/46
f 24/1/47 18/1/47 19/1/47
f 19/1/48 21/1/48 22/1/48
usemtl Material.035
f 32/1/7 30/1/7 26/1/7
f 30/1/8 32/1/8 27/1/8
f 26/1/49 27/1/49 28/1/49
f 28/1/50 25/1/50 32/1/50
f 32/1/51 31/1/51 30/1/51
f 30/1/52 29/1/52 26/1/52
f 26/1/53 28/1/53 32/1/53
f 27/1/54 28/1/54 29/1/54
f 29/1/55 25/1/55 30/1/55
f 32/1/56 26/1/56 27/1/56
f 27/1/57 29/1/57 30/1/57
usemtl Material.037
f 35/1/9 40/1/9 38/1/9
f 38/1/58 37/1/58 34/1/58
f 35/1/59 36/1/59 33/1/59
f 38/1/60 34/1/60 35/1/60
f 40/1/61 39/1/61 38/1/61
f 35/1/62 33/1/62 40/1/62
f 35/1/63 36/1/63 37/1/63
f 37/1/64 33/1/64 38/1/64
f 40/1/65 34/1/65 35/1/65
f 35/1/66 37/1/66 38/1/66
usemtl Material.038
f 41/1/10 46/1/10 42/1/10
f 45/1/11 47/1/11 42/1/11
f 42/1/67 43/1/67 44/1/67
f 48/1/68 47/1/68 46/1/68
f 46/1/69 45/1/69 42/1/69
f 42/1/70 44/1/70 41/1/70
f 41/1/71 48/1/71 46/1/71
f 43/1/72 44/1/72 45/1/72
f 45/1/73 41/1/73 46/1/73
f 47/1/74 48/1/74 42/1/74
f 45/1/75 46/1/75 47/1/75
f 42/1/76 43/1/76 45/1/76
usemtl Material.039
f 51/1/12 56/1/12 54/1/12
f 54/1/77 53/1/77 50/1/77
f 51/1/78 52/1/78 49/1/78
f 54/1/79 50/1/79 51/1/79
f 56/1/80 55/1/80 54/1/80
f 51/1/81 49/1/81 56/1/81
f 51/1/82 52/1/82 53/1/82
f 53/1/83 49/1/83 54/1/83
f 56/1/84 50/1/84 51/1/84
f 51/1/85 53/1/85 54/1/85
usemtl Material.040
f 59/1/13 57/1/13 62/1/13
f 61/1/14 57/1/14 58/1/14
f 64/1/86 63/1/86 62/1/86
f 61/1/87 58/1/87 59/1/87
f 59/1/88 60/1/88 57/1/88
f 57/1/89 64/1/89 62/1/89
f 62/1/90 61/1/90 59/1/90
f 57/1/91 62/1/91 63/1/91
f 63/1/92 64/1/92 58/1/92
f 58/1/93 59/1/93 60/1/93
f 58/1/94 60/1/94 61/1/94
f 57/1/95 63/1/95 58/1/95
usemtl Material.041
f 65/1/15 70/1/15 66/1/15
f 69/1/16 71/1/16 66/1/16
f 66/1/96 67/1/96 68/1/96
f 72/1/97 71/1/97 70/1/97
f 70/1/98 69/1/98 66/1/98
f 66/1/99 68/1/99 65/1/99
f 65/1/100 72/1/100 70/1/100
f 67/1/101 68/1/101 69/1/101
f 69/1/102 65/1/102 70/1/102
f 71/1/103 72/1/103 66/1/103
f 69/1/104 70/1/104 71/1/104
f 66/1/105 67/1/105 69/1/105
usemtl Material.042
f 73/1/17 78/1/17 74/1/17
f 78/1/18 80/1/18 75/1/18
f 74/1/106 75/1/106 76/1/106
f 73/1/107 80/1/107 79/1/107
f 78/1/108 77/1/108 74/1/108
f 73/1/109 79/1/109 78/1/109
f 74/1/110 76/1/110 73/1/110
f 75/1/111 76/1/111 77/1/111
f 77/1/112 73/1/112 78/1/112
f 78/1/113 79/1/113 80/1/113
f 80/1/114 74/1/114 75/1/114
f 75/1/115 77/1/115 78/1/115
usemtl Material.043
f 88/1/19 86/1/19 82/1/19
f 86/1/20 88/1/20 83/1/20
f 82/1/116 83/1/116 84/1/116
f 84/1/117 81/1/117 88/1/117
f 88/1/118 87/1/118 86/1/118
f 86/1/119 85/1/119 82/1/119
f 82/1/120 84/1/120 88/1/120
f 83/1/121 84/1/121 85/1/121
f 85/1/122 81/1/122 86/1/122
f 88/1/123 82/1/123 83/1/123
f 83/1/124 85/1/124 86/1/124
