# Blender 5.1.1
# www.blender.org
o Sphere.028
v 0.712569 0.605537 0.798836
v 0.709304 0.538969 0.813238
v 0.712428 0.563493 0.818994
v 0.714574 0.589229 0.809553
v 0.712405 0.605626 0.798989
v 0.701256 0.580653 0.800736
v 0.702088 0.559669 0.804372
v 0.708858 0.539054 0.812702
v 0.548415 0.527914 0.585904
v 0.541295 0.608782 0.582086
v 0.531329 0.580365 0.579167
v 0.538763 0.548468 0.580329
v 0.548193 0.527846 0.586075
v 0.548046 0.558633 0.596984
v 0.547186 0.583816 0.593763
v 0.541830 0.608649 0.582717
v 0.568341 0.527914 0.611970
v 0.561221 0.608782 0.608153
v 0.551255 0.580365 0.605234
v 0.558689 0.548468 0.606396
v 0.568119 0.527846 0.612142
v 0.567972 0.558633 0.623050
v 0.567112 0.583817 0.619830
v 0.561756 0.608649 0.608784
v 0.585482 0.607831 0.626084
v 0.581590 0.528489 0.643250
v 0.585314 0.557720 0.650111
v 0.587871 0.588394 0.638858
v 0.585286 0.607938 0.626266
v 0.571998 0.578173 0.628349
v 0.572990 0.553162 0.632683
v 0.581058 0.528592 0.642610
v 0.503032 0.580914 0.524102
v 0.509199 0.535157 0.544396
v 0.508335 0.553906 0.544883
v 0.506591 0.571129 0.534208
v 0.502901 0.580980 0.524204
v 0.497983 0.562024 0.529433
v 0.501283 0.547699 0.535126
v 0.508863 0.535082 0.544007
v 0.525523 0.581615 0.551801
v 0.508329 0.534698 0.544959
v 0.515342 0.548834 0.555134
v 0.522851 0.567734 0.555075
v 0.525416 0.581673 0.551933
v 0.512180 0.567143 0.546978
v 0.508130 0.552169 0.544165
v 0.508065 0.534985 0.544615
v 0.523339 0.591705 0.535352
v 0.514110 0.542197 0.538083
v 0.518713 0.558967 0.545162
v 0.523000 0.578465 0.541280
v 0.523224 0.591768 0.535474
v 0.512558 0.574613 0.533801
v 0.511030 0.558924 0.534007
v 0.513802 0.542365 0.537700
v 0.556503 0.597983 0.562221
v 0.527290 0.518270 0.550596
v 0.539206 0.542287 0.567883
v 0.551964 0.574400 0.567784
v 0.556322 0.598081 0.562444
v 0.533833 0.573395 0.554026
v 0.526953 0.547954 0.549247
v 0.526842 0.518758 0.550011
v 0.573476 0.600019 0.584463
v 0.563279 0.515967 0.597654
v 0.569133 0.545988 0.606715
v 0.574291 0.578678 0.596777
v 0.573273 0.600135 0.584657
v 0.557112 0.569723 0.584790
v 0.556257 0.543129 0.587857
v 0.562743 0.516151 0.596977
v 0.588844 0.600019 0.617381
v 0.578647 0.515967 0.630572
v 0.584501 0.545988 0.639634
v 0.589659 0.578678 0.629696
v 0.588641 0.600135 0.617576
v 0.572480 0.569723 0.617709
v 0.571624 0.543129 0.620776
v 0.578111 0.516151 0.629895
v 0.715390 0.598983 0.791534
v 0.706834 0.528462 0.802602
v 0.711746 0.553650 0.810204
v 0.716074 0.581077 0.801866
v 0.715220 0.599079 0.791697
v 0.701660 0.573564 0.791809
v 0.700943 0.551252 0.794382
v 0.706385 0.528617 0.802033
v 0.702496 0.598982 0.763915
v 0.693941 0.528462 0.774983
v 0.698853 0.553650 0.782585
v 0.703180 0.581077 0.774247
v 0.702326 0.599079 0.764078
v 0.688767 0.573564 0.764190
v 0.688049 0.551252 0.766763
v 0.693491 0.528617 0.774414
v 0.688256 0.597275 0.745254
v 0.663746 0.530395 0.735501
v 0.673743 0.550545 0.750005
v 0.684447 0.577487 0.749922
v 0.688104 0.597357 0.745441
v 0.669235 0.576644 0.738379
v 0.663463 0.555300 0.734369
v 0.663370 0.530803 0.735010
v 0.660431 0.592006 0.722711
v 0.652688 0.550469 0.725003
v 0.656549 0.564539 0.730942
v 0.660146 0.580898 0.727684
v 0.660335 0.592060 0.722813
v 0.651386 0.577666 0.721410
v 0.650104 0.564503 0.721582
v 0.652429 0.550611 0.724681
v 0.662263 0.583541 0.736512
v 0.647837 0.544178 0.730771
v 0.653721 0.556037 0.739308
v 0.660021 0.571895 0.739259
v 0.662174 0.583590 0.736622
v 0.651068 0.571399 0.732465
v 0.647671 0.558836 0.730105
v 0.647616 0.544418 0.730483
v 0.643393 0.582954 0.713272
v 0.648568 0.544563 0.730299
v 0.647842 0.560294 0.730707
v 0.646379 0.574744 0.721751
v 0.643283 0.583009 0.713358
v 0.639157 0.567104 0.717745
v 0.641925 0.555085 0.722521
v 0.648286 0.544500 0.729972
v 0.698188 0.538486 0.786994
v 0.692214 0.606335 0.783792
v 0.683852 0.582493 0.781342
v 0.690090 0.555731 0.782318
v 0.698002 0.538429 0.787138
v 0.697878 0.564260 0.796291
v 0.697157 0.585388 0.793588
v 0.692663 0.606223 0.784321
v 0.681469 0.538486 0.765124
v 0.675496 0.606335 0.761922
v 0.667134 0.582493 0.759472
v 0.673372 0.555731 0.760447
v 0.681284 0.538429 0.765268
v 0.681160 0.564260 0.774420
v 0.680438 0.585388 0.771718
v 0.675945 0.606223 0.762450
vn 0.7650 -0.0450 -0.6425
vn -0.9774 0.0940 0.1893
vn 0.7489 -0.0941 -0.6560
vn -0.3423 0.0092 0.9395
vn 0.7606 -0.0433 -0.6478
vn -0.9787 -0.0369 0.2018
vn 0.7711 -0.0520 -0.6346
vn -0.9225 0.3099 0.2302
vn 0.7680 -0.0476 -0.6387
vn -0.9606 0.1951 0.1981
vn 0.7743 -0.0619 -0.6298
vn -0.9727 0.1508 0.1763
vn -0.9914 0.1093 0.0726
vn -0.9213 0.1280 0.3671
vn 0.6206 -0.1099 -0.7764
vn 0.3307 -0.2120 -0.9196
vn -0.7531 0.1263 0.6457
vn -0.7581 0.2794 0.5893
vn -0.1899 0.1603 0.9686
vn -0.7315 -0.2928 -0.6157
vn -0.7722 -0.0503 0.6333
vn -0.4437 0.2066 0.8720
vn -0.2319 -0.0186 0.9726
vn -0.5127 -0.0079 0.8585
vn 0.8672 -0.0339 -0.4968
vn 0.9780 0.0738 -0.1949
vn -0.7608 0.0130 0.6489
vn -0.7261 -0.1447 0.6722
vn -0.9986 -0.0283 0.0452
vn 0.5335 0.2764 0.7994
vn -0.7286 0.1879 0.6587
vn -0.9474 -0.0649 0.3135
vn -0.7316 -0.2927 -0.6157
vn -0.9952 -0.0481 0.0850
vn -0.9292 0.0413 0.3672
vn 0.6295 -0.1574 -0.7609
vn 0.3615 -0.3339 -0.8705
vn -0.7630 0.1244 0.6344
vn -0.7944 0.2598 0.5489
vn -0.2139 0.3178 0.9237
vn -0.6703 -0.5307 -0.5187
vn -0.7512 -0.0517 0.6580
vn -0.4720 0.3000 0.8290
vn -0.9218 0.3666 0.1261
vn -0.8740 0.2644 0.4077
vn 0.6259 -0.0228 -0.7796
vn 0.3318 0.0193 -0.9431
vn -0.7369 0.1202 0.6652
vn -0.6934 0.2775 0.6649
vn -0.2161 -0.1235 0.9685
vn -0.7309 0.1595 -0.6636
vn -0.8044 -0.0280 0.5934
vn -0.4374 0.0252 0.8989
vn -0.9694 0.2301 0.0852
vn -0.9050 0.1930 0.3792
vn 0.6197 -0.0706 -0.7817
vn 0.3225 -0.1088 -0.9403
vn -0.7455 0.1250 0.6547
vn -0.7286 0.2843 0.6232
vn -0.1911 0.0315 0.9811
vn -0.7485 -0.0911 -0.6568
vn -0.7877 -0.0432 0.6145
vn -0.4340 0.1263 0.8920
vn -0.7310 0.1595 -0.6635
vn -0.9830 0.1735 0.0604
vn -0.9185 0.1708 0.3568
vn 0.6289 -0.1090 -0.7698
vn 0.3360 -0.1826 -0.9240
vn -0.7570 0.1419 0.6378
vn -0.7503 0.2978 0.5903
vn -0.2001 0.1186 0.9726
vn -0.7359 -0.2065 -0.6449
vn -0.7878 -0.0320 0.6150
vn -0.4480 0.1878 0.8741
vn -0.7570 0.1418 0.6378
vn -0.7359 -0.2064 -0.6449
vn -0.7309 0.1595 -0.6635
vn -0.7484 -0.0911 -0.6570
vn -0.7630 0.1243 0.6344
vn -0.7945 0.2598 0.5489
vt 0.000000 0.000000
s 0
f 8/1/1 6/1/1 2/1/1
f 1/1/2 8/1/2 3/1/2
f 16/1/3 14/1/3 10/1/3
f 9/1/4 16/1/4 11/1/4
f 24/1/3 22/1/3 18/1/3
f 17/1/4 24/1/4 19/1/4
f 32/1/1 30/1/1 26/1/1
f 25/1/2 32/1/2 27/1/2
f 40/1/5 38/1/5 34/1/5
f 33/1/6 40/1/6 35/1/6
f 48/1/7 46/1/7 42/1/7
f 41/1/8 48/1/8 43/1/8
f 56/1/9 54/1/9 50/1/9
f 49/1/10 56/1/10 51/1/10
f 64/1/7 62/1/7 58/1/7
f 57/1/8 64/1/8 59/1/8
f 72/1/11 70/1/11 66/1/11
f 65/1/12 72/1/12 67/1/12
f 80/1/11 78/1/11 74/1/11
f 73/1/12 80/1/12 75/1/12
f 88/1/11 86/1/11 82/1/11
f 81/1/12 88/1/12 83/1/12
f 96/1/11 94/1/11 90/1/11
f 89/1/12 96/1/12 91/1/12
f 104/1/7 102/1/7 98/1/7
f 97/1/8 104/1/8 99/1/8
f 112/1/9 110/1/9 106/1/9
f 105/1/10 112/1/10 107/1/10
f 120/1/7 118/1/7 114/1/7
f 113/1/8 120/1/8 115/1/8
f 128/1/5 126/1/5 122/1/5
f 121/1/6 128/1/6 123/1/6
f 136/1/3 134/1/3 130/1/3
f 129/1/4 136/1/4 131/1/4
f 144/1/3 142/1/3 138/1/3
f 137/1/4 144/1/4 139/1/4
f 2/1/13 3/1/13 4/1/13
f 4/1/14 1/1/14 8/1/14
f 8/1/15 7/1/15 6/1/15
f 6/1/16 5/1/16 2/1/16
f 2/1/17 4/1/17 8/1/17
f 3/1/18 4/1/18 5/1/18
f 1/1/19 6/1/19 7/1/19
f 3/1/20 5/1/20 1/1/20
f 8/1/21 2/1/21 3/1/21
f 1/1/22 7/1/22 8/1/22
f 10/1/23 11/1/23 12/1/23
f 12/1/24 9/1/24 16/1/24
f 16/1/25 15/1/25 14/1/25
f 14/1/26 13/1/26 10/1/26
f 10/1/27 12/1/27 16/1/27
f 11/1/28 12/1/28 13/1/28
f 9/1/29 14/1/29 15/1/29
f 11/1/30 13/1/30 9/1/30
f 16/1/31 10/1/31 11/1/31
f 9/1/32 15/1/32 16/1/32
f 18/1/23 19/1/23 20/1/23
f 20/1/24 17/1/24 24/1/24
f 24/1/25 23/1/25 22/1/25
f 22/1/26 21/1/26 18/1/26
f 18/1/27 20/1/27 24/1/27
f 19/1/28 20/1/28 21/1/28
f 17/1/29 22/1/29 23/1/29
f 19/1/30 21/1/30 17/1/30
f 24/1/31 18/1/31 19/1/31
f 17/1/32 23/1/32 24/1/32
f 26/1/13 27/1/13 28/1/13
f 28/1/14 25/1/14 32/1/14
f 32/1/15 31/1/15 30/1/15
f 30/1/16 29/1/16 26/1/16
f 26/1/17 28/1/17 32/1/17
f 27/1/18 28/1/18 29/1/18
f 25/1/19 30/1/19 31/1/19
f 27/1/33 29/1/33 25/1/33
f 32/1/21 26/1/21 27/1/21
f 25/1/22 31/1/22 32/1/22
f 34/1/34 35/1/34 36/1/34
f 36/1/35 33/1/35 40/1/35
f 40/1/36 39/1/36 38/1/36
f 38/1/37 37/1/37 34/1/37
f 34/1/38 36/1/38 40/1/38
f 35/1/39 36/1/39 37/1/39
f 33/1/40 38/1/40 39/1/40
f 35/1/41 37/1/41 33/1/41
f 40/1/42 34/1/42 35/1/42
f 33/1/43 39/1/43 40/1/43
f 42/1/44 43/1/44 44/1/44
f 44/1/45 41/1/45 48/1/45
f 48/1/46 47/1/46 46/1/46
f 46/1/47 45/1/47 42/1/47
f 42/1/48 44/1/48 48/1/48
f 43/1/49 44/1/49 45/1/49
f 41/1/50 46/1/50 47/1/50
f 43/1/51 45/1/51 41/1/51
f 48/1/52 42/1/52 43/1/52
f 41/1/53 47/1/53 48/1/53
f 50/1/54 51/1/54 52/1/54
f 52/1/55 49/1/55 56/1/55
f 56/1/56 55/1/56 54/1/56
f 54/1/57 53/1/57 50/1/57
f 50/1/58 52/1/58 56/1/58
f 51/1/59 52/1/59 53/1/59
f 49/1/60 54/1/60 55/1/60
f 51/1/61 53/1/61 49/1/61
f 56/1/62 50/1/62 51/1/62
f 49/1/63 55/1/63 56/1/63
f 58/1/44 59/1/44 60/1/44
f 60/1/45 57/1/45 64/1/45
f 64/1/46 63/1/46 62/1/46
f 62/1/47 61/1/47 58/1/47
f 58/1/48 60/1/48 64/1/48
f 59/1/49 60/1/49 61/1/49
f 57/1/50 62/1/50 63/1/50
f 59/1/64 61/1/64 57/1/64
f 64/1/52 58/1/52 59/1/52
f 57/1/53 63/1/53 64/1/53
f 66/1/65 67/1/65 68/1/65
f 68/1/66 65/1/66 72/1/66
f 72/1/67 71/1/67 70/1/67
f 70/1/68 69/1/68 66/1/68
f 66/1/69 68/1/69 72/1/69
f 67/1/70 68/1/70 69/1/70
f 65/1/71 70/1/71 71/1/71
f 67/1/72 69/1/72 65/1/72
f 72/1/73 66/1/73 67/1/73
f 65/1/74 71/1/74 72/1/74
f 74/1/65 75/1/65 76/1/65
f 76/1/66 73/1/66 80/1/66
f 80/1/67 79/1/67 78/1/67
f 78/1/68 77/1/68 74/1/68
f 74/1/69 76/1/69 80/1/69
f 75/1/70 76/1/70 77/1/70
f 73/1/71 78/1/71 79/1/71
f 75/1/72 77/1/72 73/1/72
f 80/1/73 74/1/73 75/1/73
f 73/1/74 79/1/74 80/1/74
f 82/1/65 83/1/65 84/1/65
f 84/1/66 81/1/66 88/1/66
f 88/1/67 87/1/67 86/1/67
f 86/1/68 85/1/68 82/1/68
f 82/1/75 84/1/75 88/1/75
f 83/1/70 84/1/70 85/1/70
f 81/1/71 86/1/71 87/1/71
f 83/1/76 85/1/76 81/1/76
f 88/1/73 82/1/73 83/1/73
f 81/1/74 87/1/74 88/1/74
f 90/1/65 91/1/65 92/1/65
f 92/1/66 89/1/66 96/1/66
f 96/1/67 95/1/67 94/1/67
f 94/1/68 93/1/68 90/1/68
f 90/1/75 92/1/75 96/1/75
f 91/1/70 92/1/70 93/1/70
f 89/1/71 94/1/71 95/1/71
f 91/1/76 93/1/76 89/1/76
f 96/1/73 90/1/73 91/1/73
f 89/1/74 95/1/74 96/1/74
f 98/1/44 99/1/44 100/1/44
f 100/1/45 97/1/45 104/1/45
f 104/1/46 103/1/46 102/1/46
f 102/1/47 101/1/47 98/1/47
f 98/1/48 100/1/48 104/1/48
f 99/1/49 100/1/49 101/1/49
f 97/1/50 102/1/50 103/1/50
f 99/1/77 101/1/77 97/1/77
f 104/1/52 98/1/52 99/1/52
f 97/1/53 103/1/53 104/1/53
f 106/1/54 107/1/54 108/1/54
f 108/1/55 105/1/55 112/1/55
f 112/1/56 111/1/56 110/1/56
f 110/1/57 109/1/57 106/1/57
f 106/1/58 108/1/58 112/1/58
f 107/1/59 108/1/59 109/1/59
f 105/1/60 110/1/60 111/1/60
f 107/1/78 109/1/78 105/1/78
f 112/1/62 106/1/62 107/1/62
f 105/1/63 111/1/63 112/1/63
f 114/1/44 115/1/44 116/1/44
f 116/1/45 113/1/45 120/1/45
f 120/1/46 119/1/46 118/1/46
f 118/1/47 117/1/47 114/1/47
f 114/1/48 116/1/48 120/1/48
f 115/1/49 116/1/49 117/1/49
f 113/1/50 118/1/50 119/1/50
f 115/1/77 117/1/77 113/1/77
f 120/1/52 114/1/52 115/1/52
f 113/1/53 119/1/53 120/1/53
f 122/1/34 123/1/34 124/1/34
f 124/1/35 121/1/35 128/1/35
f 128/1/36 127/1/36 126/1/36
f 126/1/37 125/1/37 122/1/37
f 122/1/79 124/1/79 128/1/79
f 123/1/80 124/1/80 125/1/80
f 121/1/40 126/1/40 127/1/40
f 123/1/41 125/1/41 121/1/41
f 128/1/42 122/1/42 123/1/42
f 121/1/43 127/1/43 128/1/43
f 130/1/23 131/1/23 132/1/23
f 132/1/24 129/1/24 136/1/24
f 136/1/25 135/1/25 134/1/25
f 134/1/26 133/1/26 130/1/26
f 130/1/27 132/1/27 136/1/27
f 131/1/28 132/1/28 133/1/28
f 129/1/29 134/1/29 135/1/29
f 131/1/30 133/1/30 129/1/30
f 136/1/31 130/1/31 131/1/31
f 129/1/32 135/1/32 136/1/32
f 138/1/23 139/1/23 140/1/23
f 140/1/24 137/1/24 144/1/24
f 144/1/25 143/1/25 142/1/25
f 142/1/26 141/1/26 138/1/26
f 138/1/27 140/1/27 144/1/27
f 139/1/28 140/1/28 141/1/28
f 137/1/29 142/1/29 143/1/29
f 139/1/30 141/1/30 137/1/30
f 144/1/31 138/1/31 139/1/31
f 137/1/32 143/1/32 144/1/32
