# Blender v3.0.0 OBJ File: 'square14.blend'
# www.blender.org
o Plane14
v 0.000000 0.000000 1.000000
v 1.000000 0.000000 1.000000
v 0.000000 0.000000 0.000000
v 1.000000 0.000000 0.000000
v 0.500000 0.000000 0.500000
v 0.500000 0.000000 1.000000
v 0.750000 0.000000 0.750000
v 0.250000 0.000000 0.750000
v 0.250000 0.000000 1.000000
v 0.125000 0.000000 0.875000
v 0.375000 0.000000 0.875000
vt 0.500000 0.500000
vt 0.250000 0.250000
vt 0.750000 0.250000
vt 1.000000 1.000000
vt 0.000000 1.000000
vt 0.125000 0.125000
vt 0.500000 0.000000
vt 1.000000 0.000000
vt 0.375000 0.125000
vt 0.250000 0.000000
vt 0.000000 0.000000
vn 0.0000 1.0000 0.0000
s off
f 5/1/1 8/2/1 7/3/1
f 4/4/1 5/1/1 7/3/1
f 3/5/1 10/6/1 8/2/1
f 7/3/1 6/7/1 2/8/1
f 7/3/1 11/9/1 6/7/1
f 8/2/1 10/6/1 11/9/1
f 11/9/1 9/10/1 6/7/1
f 11/9/1 10/6/1 9/10/1
f 10/6/1 1/11/1 9/10/1
f 7/3/1 2/8/1 4/4/1
f 4/4/1 3/5/1 5/1/1
f 8/2/1 5/1/1 3/5/1
f 3/5/1 1/11/1 10/6/1
f 7/3/1 8/2/1 11/9/1
