# Blender 5.1.1
# www.blender.org
o Rainbow_Purple_0
v 0.614647 0.547778 0.743325
v 0.618965 0.546310 0.749532
v 0.620641 0.545856 0.748307
v 0.616278 0.547339 0.742036
v 0.612978 0.547128 0.744468
v 0.617175 0.545700 0.750501
v 0.618965 0.546310 0.749532
v 0.614647 0.547778 0.743325
v 0.611718 0.545563 0.745159
v 0.615750 0.544191 0.750954
v 0.611206 0.543501 0.745213
v 0.615072 0.542186 0.750770
v 0.611578 0.541496 0.744616
v 0.615323 0.540222 0.749998
v 0.612735 0.540085 0.743527
v 0.616435 0.538826 0.748846
v 0.614366 0.539646 0.742238
v 0.618111 0.538372 0.747621
v 0.616035 0.540296 0.741095
v 0.619901 0.538981 0.746652
v 0.617294 0.541862 0.740404
v 0.621326 0.540490 0.746199
v 0.617807 0.543923 0.740350
v 0.622004 0.542496 0.746383
v 0.617435 0.545928 0.740947
v 0.621753 0.544460 0.747154
v 0.622678 0.543933 0.755736
v 0.624391 0.543455 0.754573
v 0.620786 0.543388 0.756535
v 0.622678 0.543933 0.755736
v 0.619222 0.541967 0.756755
v 0.618404 0.540051 0.756339
v 0.618553 0.538152 0.755397
v 0.619628 0.536780 0.754182
v 0.621341 0.536302 0.753020
v 0.623233 0.536846 0.752221
v 0.624798 0.538267 0.752000
v 0.625615 0.540184 0.752416
v 0.625466 0.542082 0.753358
v 0.625772 0.540737 0.761849
v 0.627515 0.540229 0.760746
v 0.623798 0.540277 0.762487
v 0.625772 0.540737 0.761849
v 0.622122 0.538971 0.762488
v 0.621193 0.537169 0.761851
v 0.621260 0.535354 0.760748
v 0.622305 0.534013 0.759474
v 0.624048 0.533504 0.758370
v 0.626022 0.533964 0.757733
v 0.627698 0.535270 0.757732
v 0.628627 0.537072 0.758369
v 0.628560 0.538887 0.759472
v 0.628236 0.536812 0.767794
v 0.630001 0.536266 0.766745
v 0.626199 0.536451 0.768281
v 0.628236 0.536812 0.767794
v 0.624437 0.535280 0.768075
v 0.623423 0.533614 0.767233
v 0.623427 0.531898 0.765979
v 0.624449 0.530593 0.764650
v 0.626215 0.530048 0.763601
v 0.628252 0.530409 0.763115
v 0.630013 0.531580 0.763320
v 0.631028 0.533246 0.764162
v 0.631024 0.534961 0.765416
v 0.630062 0.532240 0.773493
v 0.631844 0.531654 0.772496
v 0.627980 0.531991 0.773840
v 0.630062 0.532240 0.773493
v 0.626157 0.530974 0.773443
v 0.625081 0.529461 0.772409
v 0.625041 0.527858 0.771015
v 0.626047 0.526594 0.769635
v 0.627829 0.526008 0.768638
v 0.629910 0.526256 0.768291
v 0.631733 0.527273 0.768688
v 0.632809 0.528786 0.769722
v 0.632850 0.530389 0.771115
v 0.631241 0.527104 0.778873
v 0.633034 0.526472 0.777923
v 0.629131 0.526979 0.779090
v 0.631241 0.527104 0.778873
v 0.627269 0.526131 0.778516
v 0.626155 0.524788 0.777304
v 0.626085 0.523309 0.775781
v 0.627081 0.522090 0.774353
v 0.628873 0.521458 0.773403
v 0.630983 0.521583 0.773186
v 0.632845 0.522431 0.773760
v 0.633960 0.523774 0.774971
v 0.634029 0.525253 0.776495
v 0.631763 0.521483 0.783859
v 0.633560 0.520801 0.782953
v 0.629640 0.521493 0.783956
v 0.631763 0.521483 0.783859
v 0.627761 0.520831 0.783217
v 0.626629 0.519673 0.781842
v 0.626548 0.518329 0.780198
v 0.627538 0.517160 0.778726
v 0.629336 0.516479 0.777820
v 0.631458 0.516468 0.777724
v 0.633337 0.517130 0.778462
v 0.634469 0.518289 0.779837
v 0.634551 0.519632 0.781481
v 0.631614 0.515454 0.788376
v 0.633410 0.514719 0.787511
v 0.629495 0.515612 0.788362
v 0.631614 0.515454 0.788376
v 0.627621 0.515152 0.787473
v 0.626495 0.514195 0.785946
v 0.626417 0.512999 0.784192
v 0.627409 0.511884 0.782679
v 0.629205 0.511149 0.781814
v 0.631324 0.510990 0.781828
v 0.633197 0.511451 0.782717
v 0.634324 0.512408 0.784244
v 0.634402 0.513604 0.785998
v 0.630780 0.509095 0.792346
v 0.632568 0.508301 0.791518
v 0.628682 0.509414 0.792232
v 0.630780 0.509095 0.792346
v 0.626838 0.509172 0.791206
v 0.625740 0.508435 0.789544
v 0.625683 0.507399 0.787689
v 0.626683 0.506343 0.786140
v 0.628471 0.505549 0.785312
v 0.630569 0.505230 0.785425
v 0.632414 0.505472 0.786451
v 0.633511 0.506209 0.788114
v 0.633568 0.507245 0.789968
v 0.629245 0.502485 0.795690
v 0.631018 0.501628 0.794893
v 0.627187 0.502977 0.795488
v 0.629245 0.502485 0.795690
v 0.625398 0.502972 0.794343
v 0.624355 0.502471 0.792561
v 0.624339 0.501608 0.790619
v 0.625353 0.500615 0.789038
v 0.627127 0.499758 0.788242
v 0.629184 0.499266 0.788443
v 0.630974 0.499271 0.789588
v 0.632016 0.499772 0.791370
v 0.632033 0.500635 0.793312
v 0.626991 0.495706 0.798323
v 0.628742 0.494781 0.797552
v 0.624996 0.496382 0.798050
v 0.626991 0.495706 0.798323
v 0.623290 0.496629 0.796808
v 0.622331 0.496380 0.794928
v 0.622376 0.495702 0.792915
v 0.623413 0.494776 0.791307
v 0.625164 0.493851 0.790537
v 0.627160 0.493175 0.790810
v 0.628866 0.492928 0.792052
v 0.629825 0.493177 0.793932
v 0.629779 0.493856 0.795945
v 0.624006 0.488847 0.800160
v 0.625727 0.487852 0.799408
v 0.622094 0.489715 0.799836
v 0.624006 0.488847 0.800160
v 0.620502 0.490223 0.798524
v 0.619657 0.490235 0.796574
v 0.619786 0.489748 0.794510
v 0.620853 0.488892 0.792884
v 0.622574 0.487898 0.792132
v 0.624486 0.487030 0.792456
v 0.626078 0.486522 0.793769
v 0.626923 0.486510 0.795718
v 0.626794 0.486997 0.797783
vn 0.0764 0.9809 0.1789
vn 0.1090 0.9672 0.2296
vn 0.5123 0.8563 -0.0657
vn 0.4736 0.8721 -0.1232
vn -0.3428 0.8324 0.4355
vn -0.3242 0.8237 0.4653
vn 0.1089 0.9672 0.2297
vn 0.0763 0.9809 0.1789
vn -0.6735 0.4612 0.5777
vn -0.6732 0.4608 0.5784
vn -0.8244 -0.0365 0.5649
vn -0.8433 -0.0279 0.5368
vn -0.7516 -0.5257 0.3984
vn -0.7853 -0.5113 0.3491
vn -0.4737 -0.8720 0.1231
vn -0.5124 -0.8563 0.0655
vn -0.0666 -0.9803 -0.1858
vn -0.0991 -0.9667 -0.2360
vn 0.3584 -0.8214 -0.4438
vn 0.3400 -0.8132 -0.4724
vn 0.6849 -0.4402 -0.5807
vn 0.6852 -0.4407 -0.5800
vn 0.8258 0.0569 -0.5611
vn 0.8454 0.0475 -0.5321
vn 0.7473 0.5356 -0.3932
vn 0.7813 0.5209 -0.3438
vn 0.1677 0.9296 0.3281
vn 0.5802 0.8131 0.0475
vn -0.2900 0.8015 0.5230
vn -0.6727 0.4598 0.5797
vn -0.8767 -0.0071 0.4810
vn -0.8438 -0.4742 0.2513
vn -0.5803 -0.8130 -0.0477
vn -0.1579 -0.9294 -0.3336
vn 0.3063 -0.7922 -0.5279
vn 0.6856 -0.4416 -0.5787
vn 0.8798 0.0251 -0.4746
vn 0.8404 0.4832 -0.2455
vn 0.2148 0.8810 0.4214
vn 0.6346 0.7572 0.1548
vn -0.2627 0.7729 0.5776
vn 0.2147 0.8811 0.4215
vn -0.6724 0.4588 0.5808
vn -0.9035 0.0200 0.4281
vn -0.8907 -0.4261 0.1585
vn -0.6346 -0.7571 -0.1550
vn -0.2051 -0.8811 -0.4261
vn 0.2792 -0.7649 -0.5805
vn 0.6859 -0.4426 -0.5775
vn 0.9074 -0.0037 -0.4203
vn 0.8877 0.4344 -0.1525
vn 0.2508 0.8236 0.5087
vn 0.6763 0.6911 0.2552
vn -0.2419 0.7392 0.6286
vn 0.2507 0.8236 0.5087
vn -0.6722 0.4578 0.5818
vn -0.9241 0.0522 0.3786
vn -0.9266 -0.3692 0.0718
vn -0.6763 -0.6910 -0.2553
vn -0.2413 -0.8240 -0.5126
vn 0.2584 -0.7325 -0.6299
vn 0.6861 -0.4436 -0.5766
vn 0.9285 -0.0376 -0.3695
vn 0.9240 0.3768 -0.0654
vn 0.2767 0.7587 0.5897
vn 0.7062 0.6163 0.3485
vn -0.2269 0.7012 0.6759
vn 0.2766 0.7587 0.5898
vn -0.6721 0.4569 0.5827
vn -0.9389 0.0888 0.3325
vn -0.9524 -0.3048 -0.0088
vn -0.7062 -0.6163 -0.3485
vn -0.2672 -0.7595 -0.5931
vn 0.2434 -0.6958 -0.6757
vn 0.6862 -0.4446 -0.5757
vn 0.9436 -0.0757 -0.3223
vn 0.9500 0.3118 0.0155
vn 0.2931 0.6871 0.6649
vn 0.7252 0.5338 0.4349
vn -0.2174 0.6593 0.7198
vn -0.6720 0.4560 0.5835
vn -0.9483 0.1294 0.2899
vn -0.9687 -0.2336 -0.0834
vn -0.7252 -0.5338 -0.4349
vn -0.2836 -0.6883 -0.6677
vn 0.2340 -0.6552 -0.7183
vn 0.6864 -0.4454 -0.5749
vn 0.9532 -0.1176 -0.2785
vn 0.9665 0.2401 0.0906
vn 0.3004 0.6087 0.7344
vn 0.7335 0.4436 0.5150
vn -0.2130 0.6135 0.7604
vn 0.3003 0.6087 0.7344
vn -0.6718 0.4552 0.5844
vn -0.9524 0.1739 0.2506
vn -0.9760 -0.1557 -0.1525
vn -0.7335 -0.4436 -0.5149
vn -0.2908 -0.6104 -0.7368
vn 0.2299 -0.6108 -0.7577
vn 0.6865 -0.4463 -0.5741
vn 0.9575 -0.1633 -0.2378
vn 0.9738 0.1618 0.1601
vn 0.2984 0.5233 0.7982
vn 0.7310 0.3453 0.5885
vn -0.2141 0.5636 0.7978
vn 0.2983 0.5233 0.7982
vn -0.6717 0.4543 0.5852
vn -0.9511 0.2224 0.2145
vn -0.9738 -0.0708 -0.2159
vn -0.7310 -0.3454 -0.5885
vn -0.2886 -0.5256 -0.8003
vn 0.2314 -0.5624 -0.7939
vn 0.6866 -0.4472 -0.5732
vn 0.9563 -0.2131 -0.2003
vn 0.9716 0.0765 0.2241
vn 0.2863 0.4305 0.8560
vn 0.7169 0.2385 0.6551
vn -0.2210 0.5095 0.8316
vn 0.2862 0.4305 0.8560
vn -0.6715 0.4533 0.5862
vn -0.9440 0.2750 0.1821
vn -0.9617 0.0214 -0.2731
vn -0.7170 -0.2387 -0.6550
vn -0.2762 -0.4335 -0.8578
vn 0.2386 -0.5098 -0.8265
vn 0.6868 -0.4482 -0.5722
vn 0.9492 -0.2671 -0.1663
vn 0.9593 -0.0161 0.2820
vn 0.2632 0.3304 0.9064
vn 0.6900 0.1233 0.7132
vn -0.2342 0.4509 0.8613
vn 0.2631 0.3304 0.9064
vn -0.6715 0.4521 0.5871
vn -0.9307 0.3318 0.1539
vn -0.9386 0.1210 -0.3231
vn -0.6901 -0.1235 -0.7131
vn -0.2528 -0.3342 -0.9080
vn 0.2522 -0.4532 -0.8550
vn 0.6868 -0.4494 -0.5713
vn 0.9357 -0.3255 -0.1364
vn 0.9359 -0.1161 0.3327
vn 0.2278 0.2235 0.9477
vn 0.6491 0.0005 0.7607
vn -0.2546 0.3884 0.8856
vn 0.2277 0.2236 0.9477
vn -0.6716 0.4507 0.5880
vn -0.9105 0.3923 0.1309
vn -0.9033 0.2271 -0.3639
vn -0.6491 -0.0007 -0.7607
vn -0.2172 -0.2282 -0.9491
vn 0.2728 -0.3929 -0.8782
vn 0.6867 -0.4507 -0.5703
vn 0.9149 -0.3878 -0.1118
vn 0.9002 -0.2227 0.3742
vn 0.2065 0.1683 0.9639
vn 0.6233 -0.0625 0.7795
vn -0.2665 0.3559 0.8957
vn 0.2064 0.1683 0.9639
vn -0.6717 0.4500 0.5885
vn -0.8980 0.4231 0.1209
vn -0.8808 0.2811 -0.3810
vn -0.6234 0.0623 -0.7795
vn -0.1958 -0.1734 -0.9652
vn 0.2847 -0.3618 -0.8877
vn 0.6866 -0.4515 -0.5699
vn 0.9021 -0.4196 -0.1009
vn 0.8774 -0.2770 0.3917
vt 0.000000 0.000000
vt 0.083333 0.000000
vt 0.083333 0.083333
vt 0.000000 0.083333
vt 0.000000 0.916667
vt 0.083333 0.916667
vt 0.083333 1.000000
vt 0.000000 1.000000
vt 0.000000 0.833333
vt 0.083333 0.833333
vt 0.000000 0.750000
vt 0.083333 0.750000
vt 0.000000 0.666667
vt 0.083333 0.666667
vt 0.000000 0.583333
vt 0.083333 0.583333
vt 0.000000 0.500000
vt 0.083333 0.500000
vt 0.000000 0.416667
vt 0.083333 0.416667
vt 0.000000 0.333333
vt 0.083333 0.333333
vt 0.000000 0.250000
vt 0.083333 0.250000
vt 0.000000 0.166667
vt 0.083333 0.166667
vt 0.166667 0.000000
vt 0.166667 0.083333
vt 0.166667 0.916667
vt 0.166667 1.000000
vt 0.166667 0.833333
vt 0.166667 0.750000
vt 0.166667 0.666667
vt 0.166667 0.583333
vt 0.166667 0.500000
vt 0.166667 0.416667
vt 0.166667 0.333333
vt 0.166667 0.250000
vt 0.166667 0.166667
vt 0.250000 0.000000
vt 0.250000 0.083333
vt 0.250000 0.916667
vt 0.250000 1.000000
vt 0.250000 0.833333
vt 0.250000 0.750000
vt 0.250000 0.666667
vt 0.250000 0.583333
vt 0.250000 0.500000
vt 0.250000 0.416667
vt 0.250000 0.333333
vt 0.250000 0.250000
vt 0.250000 0.166667
vt 0.333333 0.000000
vt 0.333333 0.083333
vt 0.333333 0.916667
vt 0.333333 1.000000
vt 0.333333 0.833333
vt 0.333333 0.750000
vt 0.333333 0.666667
vt 0.333333 0.583333
vt 0.333333 0.500000
vt 0.333333 0.416667
vt 0.333333 0.333333
vt 0.333333 0.250000
vt 0.333333 0.166667
vt 0.416667 0.000000
vt 0.416667 0.083333
vt 0.416667 0.916667
vt 0.416667 1.000000
vt 0.416667 0.833333
vt 0.416667 0.750000
vt 0.416667 0.666667
vt 0.416667 0.583333
vt 0.416667 0.500000
vt 0.416667 0.416667
vt 0.416667 0.333333
vt 0.416667 0.250000
vt 0.416667 0.166667
vt 0.500000 0.000000
vt 0.500000 0.083333
vt 0.500000 0.916667
vt 0.500000 1.000000
vt 0.500000 0.833333
vt 0.500000 0.750000
vt 0.500000 0.666667
vt 0.500000 0.583333
vt 0.500000 0.500000
vt 0.500000 0.416667
vt 0.500000 0.333333
vt 0.500000 0.250000
vt 0.500000 0.166667
vt 0.583333 0.000000
vt 0.583333 0.083333
vt 0.583333 0.916667
vt 0.583333 1.000000
vt 0.583333 0.833333
vt 0.583333 0.750000
vt 0.583333 0.666667
vt 0.583333 0.583333
vt 0.583333 0.500000
vt 0.583333 0.416667
vt 0.583333 0.333333
vt 0.583333 0.250000
vt 0.583333 0.166667
vt 0.666667 0.000000
vt 0.666667 0.083333
vt 0.666667 0.916667
vt 0.666667 1.000000
vt 0.666667 0.833333
vt 0.666667 0.750000
vt 0.666667 0.666667
vt 0.666667 0.583333
vt 0.666667 0.500000
vt 0.666667 0.416667
vt 0.666667 0.333333
vt 0.666667 0.250000
vt 0.666667 0.166667
vt 0.750000 0.000000
vt 0.750000 0.083333
vt 0.750000 0.916667
vt 0.750000 1.000000
vt 0.750000 0.833333
vt 0.750000 0.750000
vt 0.750000 0.666667
vt 0.750000 0.583333
vt 0.750000 0.500000
vt 0.750000 0.416667
vt 0.750000 0.333333
vt 0.750000 0.250000
vt 0.750000 0.166667
vt 0.833333 0.000000
vt 0.833333 0.083333
vt 0.833333 0.916667
vt 0.833333 1.000000
vt 0.833333 0.833333
vt 0.833333 0.750000
vt 0.833333 0.666667
vt 0.833333 0.583333
vt 0.833333 0.500000
vt 0.833333 0.416667
vt 0.833333 0.333333
vt 0.833333 0.250000
vt 0.833333 0.166667
vt 0.916667 0.000000
vt 0.916667 0.083333
vt 0.916667 0.916667
vt 0.916667 1.000000
vt 0.916667 0.833333
vt 0.916667 0.750000
vt 0.916667 0.666667
vt 0.916667 0.583333
vt 0.916667 0.500000
vt 0.916667 0.416667
vt 0.916667 0.333333
vt 0.916667 0.250000
vt 0.916667 0.166667
vt 1.000000 0.000000
vt 1.000000 0.083333
vt 1.000000 0.916667
vt 1.000000 1.000000
vt 1.000000 0.833333
vt 1.000000 0.750000
vt 1.000000 0.666667
vt 1.000000 0.583333
vt 1.000000 0.500000
vt 1.000000 0.416667
vt 1.000000 0.333333
vt 1.000000 0.250000
vt 1.000000 0.166667
s 1
f 1/1/1 2/2/2 3/3/3
f 1/1/1 3/3/3 4/4/4
f 5/5/5 6/6/6 7/7/7
f 5/5/5 7/7/7 8/8/8
f 9/9/9 10/10/10 6/6/6
f 9/9/9 6/6/6 5/5/5
f 11/11/11 12/12/12 10/10/10
f 11/11/11 10/10/10 9/9/9
f 13/13/13 14/14/14 12/12/12
f 13/13/13 12/12/12 11/11/11
f 15/15/15 16/16/16 14/14/14
f 15/15/15 14/14/14 13/13/13
f 17/17/17 18/18/18 16/16/16
f 17/17/17 16/16/16 15/15/15
f 19/19/19 20/20/20 18/18/18
f 19/19/19 18/18/18 17/17/17
f 21/21/21 22/22/22 20/20/20
f 21/21/21 20/20/20 19/19/19
f 23/23/23 24/24/24 22/22/22
f 23/23/23 22/22/22 21/21/21
f 25/25/25 26/26/26 24/24/24
f 25/25/25 24/24/24 23/23/23
f 4/4/4 3/3/3 26/26/26
f 4/4/4 26/26/26 25/25/25
f 2/2/2 27/27/27 28/28/28
f 2/2/2 28/28/28 3/3/3
f 6/6/6 29/29/29 30/30/27
f 6/6/6 30/30/27 7/7/7
f 10/10/10 31/31/30 29/29/29
f 10/10/10 29/29/29 6/6/6
f 12/12/12 32/32/31 31/31/30
f 12/12/12 31/31/30 10/10/10
f 14/14/14 33/33/32 32/32/31
f 14/14/14 32/32/31 12/12/12
f 16/16/16 34/34/33 33/33/32
f 16/16/16 33/33/32 14/14/14
f 18/18/18 35/35/34 34/34/33
f 18/18/18 34/34/33 16/16/16
f 20/20/20 36/36/35 35/35/34
f 20/20/20 35/35/34 18/18/18
f 22/22/22 37/37/36 36/36/35
f 22/22/22 36/36/35 20/20/20
f 24/24/24 38/38/37 37/37/36
f 24/24/24 37/37/36 22/22/22
f 26/26/26 39/39/38 38/38/37
f 26/26/26 38/38/37 24/24/24
f 3/3/3 28/28/28 39/39/38
f 3/3/3 39/39/38 26/26/26
f 27/27/27 40/40/39 41/41/40
f 27/27/27 41/41/40 28/28/28
f 29/29/29 42/42/41 43/43/42
f 29/29/29 43/43/42 30/30/27
f 31/31/30 44/44/43 42/42/41
f 31/31/30 42/42/41 29/29/29
f 32/32/31 45/45/44 44/44/43
f 32/32/31 44/44/43 31/31/30
f 33/33/32 46/46/45 45/45/44
f 33/33/32 45/45/44 32/32/31
f 34/34/33 47/47/46 46/46/45
f 34/34/33 46/46/45 33/33/32
f 35/35/34 48/48/47 47/47/46
f 35/35/34 47/47/46 34/34/33
f 36/36/35 49/49/48 48/48/47
f 36/36/35 48/48/47 35/35/34
f 37/37/36 50/50/49 49/49/48
f 37/37/36 49/49/48 36/36/35
f 38/38/37 51/51/50 50/50/49
f 38/38/37 50/50/49 37/37/36
f 39/39/38 52/52/51 51/51/50
f 39/39/38 51/51/50 38/38/37
f 28/28/28 41/41/40 52/52/51
f 28/28/28 52/52/51 39/39/38
f 40/40/39 53/53/52 54/54/53
f 40/40/39 54/54/53 41/41/40
f 42/42/41 55/55/54 56/56/55
f 42/42/41 56/56/55 43/43/42
f 44/44/43 57/57/56 55/55/54
f 44/44/43 55/55/54 42/42/41
f 45/45/44 58/58/57 57/57/56
f 45/45/44 57/57/56 44/44/43
f 46/46/45 59/59/58 58/58/57
f 46/46/45 58/58/57 45/45/44
f 47/47/46 60/60/59 59/59/58
f 47/47/46 59/59/58 46/46/45
f 48/48/47 61/61/60 60/60/59
f 48/48/47 60/60/59 47/47/46
f 49/49/48 62/62/61 61/61/60
f 49/49/48 61/61/60 48/48/47
f 50/50/49 63/63/62 62/62/61
f 50/50/49 62/62/61 49/49/48
f 51/51/50 64/64/63 63/63/62
f 51/51/50 63/63/62 50/50/49
f 52/52/51 65/65/64 64/64/63
f 52/52/51 64/64/63 51/51/50
f 41/41/40 54/54/53 65/65/64
f 41/41/40 65/65/64 52/52/51
f 53/53/52 66/66/65 67/67/66
f 53/53/52 67/67/66 54/54/53
f 55/55/54 68/68/67 69/69/68
f 55/55/54 69/69/68 56/56/55
f 57/57/56 70/70/69 68/68/67
f 57/57/56 68/68/67 55/55/54
f 58/58/57 71/71/70 70/70/69
f 58/58/57 70/70/69 57/57/56
f 59/59/58 72/72/71 71/71/70
f 59/59/58 71/71/70 58/58/57
f 60/60/59 73/73/72 72/72/71
f 60/60/59 72/72/71 59/59/58
f 61/61/60 74/74/73 73/73/72
f 61/61/60 73/73/72 60/60/59
f 62/62/61 75/75/74 74/74/73
f 62/62/61 74/74/73 61/61/60
f 63/63/62 76/76/75 75/75/74
f 63/63/62 75/75/74 62/62/61
f 64/64/63 77/77/76 76/76/75
f 64/64/63 76/76/75 63/63/62
f 65/65/64 78/78/77 77/77/76
f 65/65/64 77/77/76 64/64/63
f 54/54/53 67/67/66 78/78/77
f 54/54/53 78/78/77 65/65/64
f 66/66/65 79/79/78 80/80/79
f 66/66/65 80/80/79 67/67/66
f 68/68/67 81/81/80 82/82/78
f 68/68/67 82/82/78 69/69/68
f 70/70/69 83/83/81 81/81/80
f 70/70/69 81/81/80 68/68/67
f 71/71/70 84/84/82 83/83/81
f 71/71/70 83/83/81 70/70/69
f 72/72/71 85/85/83 84/84/82
f 72/72/71 84/84/82 71/71/70
f 73/73/72 86/86/84 85/85/83
f 73/73/72 85/85/83 72/72/71
f 74/74/73 87/87/85 86/86/84
f 74/74/73 86/86/84 73/73/72
f 75/75/74 88/88/86 87/87/85
f 75/75/74 87/87/85 74/74/73
f 76/76/75 89/89/87 88/88/86
f 76/76/75 88/88/86 75/75/74
f 77/77/76 90/90/88 89/89/87
f 77/77/76 89/89/87 76/76/75
f 78/78/77 91/91/89 90/90/88
f 78/78/77 90/90/88 77/77/76
f 67/67/66 80/80/79 91/91/89
f 67/67/66 91/91/89 78/78/77
f 79/79/78 92/92/90 93/93/91
f 79/79/78 93/93/91 80/80/79
f 81/81/80 94/94/92 95/95/93
f 81/81/80 95/95/93 82/82/78
f 83/83/81 96/96/94 94/94/92
f 83/83/81 94/94/92 81/81/80
f 84/84/82 97/97/95 96/96/94
f 84/84/82 96/96/94 83/83/81
f 85/85/83 98/98/96 97/97/95
f 85/85/83 97/97/95 84/84/82
f 86/86/84 99/99/97 98/98/96
f 86/86/84 98/98/96 85/85/83
f 87/87/85 100/100/98 99/99/97
f 87/87/85 99/99/97 86/86/84
f 88/88/86 101/101/99 100/100/98
f 88/88/86 100/100/98 87/87/85
f 89/89/87 102/102/100 101/101/99
f 89/89/87 101/101/99 88/88/86
f 90/90/88 103/103/101 102/102/100
f 90/90/88 102/102/100 89/89/87
f 91/91/89 104/104/102 103/103/101
f 91/91/89 103/103/101 90/90/88
f 80/80/79 93/93/91 104/104/102
f 80/80/79 104/104/102 91/91/89
f 92/92/90 105/105/103 106/106/104
f 92/92/90 106/106/104 93/93/91
f 94/94/92 107/107/105 108/108/106
f 94/94/92 108/108/106 95/95/93
f 96/96/94 109/109/107 107/107/105
f 96/96/94 107/107/105 94/94/92
f 97/97/95 110/110/108 109/109/107
f 97/97/95 109/109/107 96/96/94
f 98/98/96 111/111/109 110/110/108
f 98/98/96 110/110/108 97/97/95
f 99/99/97 112/112/110 111/111/109
f 99/99/97 111/111/109 98/98/96
f 100/100/98 113/113/111 112/112/110
f 100/100/98 112/112/110 99/99/97
f 101/101/99 114/114/112 113/113/111
f 101/101/99 113/113/111 100/100/98
f 102/102/100 115/115/113 114/114/112
f 102/102/100 114/114/112 101/101/99
f 103/103/101 116/116/114 115/115/113
f 103/103/101 115/115/113 102/102/100
f 104/104/102 117/117/115 116/116/114
f 104/104/102 116/116/114 103/103/101
f 93/93/91 106/106/104 117/117/115
f 93/93/91 117/117/115 104/104/102
f 105/105/103 118/118/116 119/119/117
f 105/105/103 119/119/117 106/106/104
f 107/107/105 120/120/118 121/121/119
f 107/107/105 121/121/119 108/108/106
f 109/109/107 122/122/120 120/120/118
f 109/109/107 120/120/118 107/107/105
f 110/110/108 123/123/121 122/122/120
f 110/110/108 122/122/120 109/109/107
f 111/111/109 124/124/122 123/123/121
f 111/111/109 123/123/121 110/110/108
f 112/112/110 125/125/123 124/124/122
f 112/112/110 124/124/122 111/111/109
f 113/113/111 126/126/124 125/125/123
f 113/113/111 125/125/123 112/112/110
f 114/114/112 127/127/125 126/126/124
f 114/114/112 126/126/124 113/113/111
f 115/115/113 128/128/126 127/127/125
f 115/115/113 127/127/125 114/114/112
f 116/116/114 129/129/127 128/128/126
f 116/116/114 128/128/126 115/115/113
f 117/117/115 130/130/128 129/129/127
f 117/117/115 129/129/127 116/116/114
f 106/106/104 119/119/117 130/130/128
f 106/106/104 130/130/128 117/117/115
f 118/118/116 131/131/129 132/132/130
f 118/118/116 132/132/130 119/119/117
f 120/120/118 133/133/131 134/134/132
f 120/120/118 134/134/132 121/121/119
f 122/122/120 135/135/133 133/133/131
f 122/122/120 133/133/131 120/120/118
f 123/123/121 136/136/134 135/135/133
f 123/123/121 135/135/133 122/122/120
f 124/124/122 137/137/135 136/136/134
f 124/124/122 136/136/134 123/123/121
f 125/125/123 138/138/136 137/137/135
f 125/125/123 137/137/135 124/124/122
f 126/126/124 139/139/137 138/138/136
f 126/126/124 138/138/136 125/125/123
f 127/127/125 140/140/138 139/139/137
f 127/127/125 139/139/137 126/126/124
f 128/128/126 141/141/139 140/140/138
f 128/128/126 140/140/138 127/127/125
f 129/129/127 142/142/140 141/141/139
f 129/129/127 141/141/139 128/128/126
f 130/130/128 143/143/141 142/142/140
f 130/130/128 142/142/140 129/129/127
f 119/119/117 132/132/130 143/143/141
f 119/119/117 143/143/141 130/130/128
f 131/131/129 144/144/142 145/145/143
f 131/131/129 145/145/143 132/132/130
f 133/133/131 146/146/144 147/147/145
f 133/133/131 147/147/145 134/134/132
f 135/135/133 148/148/146 146/146/144
f 135/135/133 146/146/144 133/133/131
f 136/136/134 149/149/147 148/148/146
f 136/136/134 148/148/146 135/135/133
f 137/137/135 150/150/148 149/149/147
f 137/137/135 149/149/147 136/136/134
f 138/138/136 151/151/149 150/150/148
f 138/138/136 150/150/148 137/137/135
f 139/139/137 152/152/150 151/151/149
f 139/139/137 151/151/149 138/138/136
f 140/140/138 153/153/151 152/152/150
f 140/140/138 152/152/150 139/139/137
f 141/141/139 154/154/152 153/153/151
f 141/141/139 153/153/151 140/140/138
f 142/142/140 155/155/153 154/154/152
f 142/142/140 154/154/152 141/141/139
f 143/143/141 156/156/154 155/155/153
f 143/143/141 155/155/153 142/142/140
f 132/132/130 145/145/143 156/156/154
f 132/132/130 156/156/154 143/143/141
f 144/144/142 157/157/155 158/158/156
f 144/144/142 158/158/156 145/145/143
f 146/146/144 159/159/157 160/160/158
f 146/146/144 160/160/158 147/147/145
f 148/148/146 161/161/159 159/159/157
f 148/148/146 159/159/157 146/146/144
f 149/149/147 162/162/160 161/161/159
f 149/149/147 161/161/159 148/148/146
f 150/150/148 163/163/161 162/162/160
f 150/150/148 162/162/160 149/149/147
f 151/151/149 164/164/162 163/163/161
f 151/151/149 163/163/161 150/150/148
f 152/152/150 165/165/163 164/164/162
f 152/152/150 164/164/162 151/151/149
f 153/153/151 166/166/164 165/165/163
f 153/153/151 165/165/163 152/152/150
f 154/154/152 167/167/165 166/166/164
f 154/154/152 166/166/164 153/153/151
f 155/155/153 168/168/166 167/167/165
f 155/155/153 167/167/165 154/154/152
f 156/156/154 169/169/167 168/168/166
f 156/156/154 168/168/166 155/155/153
f 145/145/143 158/158/156 169/169/167
f 145/145/143 169/169/167 156/156/154
