# Blender 5.1.1
# www.blender.org
mtllib dark blue.mtl
o Rainbow_Purple_0
v -0.708310 0.692407 0.597625
v -0.701943 0.691143 0.596269
v -0.702355 0.690752 0.594531
v -0.708788 0.692029 0.595900
v -0.707960 0.691848 0.599331
v -0.701771 0.690618 0.598013
v -0.701943 0.691143 0.596269
v -0.708310 0.692407 0.597625
v -0.707832 0.690500 0.600561
v -0.701887 0.689319 0.599295
v -0.707960 0.688725 0.600985
v -0.702260 0.687592 0.599772
v -0.708310 0.686999 0.600491
v -0.702788 0.685902 0.599316
v -0.708788 0.685784 0.599209
v -0.703332 0.684700 0.598048
v -0.709266 0.685406 0.597484
v -0.703745 0.684309 0.596309
v -0.709616 0.685966 0.595778
v -0.703916 0.684833 0.594565
v -0.709745 0.687314 0.594548
v -0.703800 0.686133 0.593283
v -0.709616 0.689088 0.594124
v -0.703428 0.687859 0.592806
v -0.709266 0.690814 0.594618
v -0.702899 0.689550 0.593263
v -0.695780 0.689097 0.595393
v -0.696131 0.688685 0.593646
v -0.695778 0.688628 0.597162
v -0.695780 0.689097 0.595393
v -0.696125 0.687405 0.598477
v -0.696728 0.685754 0.598986
v -0.697426 0.684120 0.598554
v -0.698031 0.682938 0.597295
v -0.698382 0.682527 0.595548
v -0.698384 0.682995 0.593780
v -0.698037 0.684219 0.592464
v -0.697434 0.685869 0.591955
v -0.696736 0.687504 0.592387
v -0.689896 0.686346 0.594979
v -0.690190 0.685908 0.593228
v -0.690049 0.685949 0.596759
v -0.689896 0.686346 0.594979
v -0.690608 0.684825 0.598089
v -0.691423 0.683273 0.598614
v -0.692276 0.681711 0.598192
v -0.692938 0.680556 0.596938
v -0.693232 0.680118 0.595186
v -0.693079 0.680514 0.593407
v -0.692520 0.681639 0.592077
v -0.691705 0.683190 0.591552
v -0.690852 0.684753 0.591973
v -0.684356 0.682966 0.595008
v -0.684599 0.682496 0.593257
v -0.684649 0.682655 0.596787
v -0.684356 0.682966 0.595008
v -0.685400 0.681647 0.598116
v -0.686408 0.680213 0.598640
v -0.687401 0.678736 0.598218
v -0.688115 0.677612 0.596963
v -0.688357 0.677143 0.595212
v -0.688064 0.677454 0.593433
v -0.687313 0.678461 0.592104
v -0.686306 0.679896 0.591580
v -0.685312 0.681373 0.592002
v -0.679224 0.679030 0.595461
v -0.679420 0.678525 0.593714
v -0.679643 0.678816 0.597229
v -0.679224 0.679030 0.595461
v -0.680566 0.677940 0.598543
v -0.681746 0.676637 0.599052
v -0.682866 0.675257 0.598619
v -0.683626 0.674169 0.597360
v -0.683822 0.673664 0.595613
v -0.683402 0.673878 0.593845
v -0.682479 0.674754 0.592531
v -0.681299 0.676056 0.592022
v -0.680180 0.677437 0.592455
v -0.674560 0.674608 0.596321
v -0.674716 0.674064 0.594581
v -0.675093 0.674500 0.598068
v -0.674560 0.674608 0.596321
v -0.676170 0.673771 0.599354
v -0.677503 0.672614 0.599834
v -0.678735 0.671340 0.599380
v -0.679537 0.670291 0.598114
v -0.679692 0.669748 0.596374
v -0.679159 0.669855 0.594627
v -0.678082 0.670585 0.593341
v -0.676749 0.671741 0.592861
v -0.675517 0.673015 0.593315
v -0.670429 0.669768 0.597571
v -0.670548 0.669182 0.595843
v -0.671061 0.669778 0.599288
v -0.670429 0.669768 0.597571
v -0.672274 0.669207 0.600533
v -0.673744 0.668210 0.600972
v -0.675076 0.667053 0.600488
v -0.675913 0.666047 0.599211
v -0.676032 0.665460 0.597482
v -0.675400 0.665451 0.595765
v -0.674187 0.666021 0.594520
v -0.672718 0.667019 0.594081
v -0.671386 0.668176 0.594565
v -0.666894 0.664578 0.599197
v -0.666982 0.663945 0.597483
v -0.667613 0.664715 0.600874
v -0.666894 0.664578 0.599197
v -0.668944 0.664318 0.602064
v -0.670532 0.663494 0.602449
v -0.671950 0.662465 0.601925
v -0.672819 0.661505 0.600633
v -0.672906 0.660872 0.598919
v -0.672188 0.660735 0.597242
v -0.670857 0.661132 0.596052
v -0.669269 0.661956 0.595667
v -0.667851 0.662985 0.596191
v -0.664022 0.659104 0.601184
v -0.664083 0.658420 0.599488
v -0.664813 0.659378 0.602811
v -0.664022 0.659104 0.601184
v -0.666243 0.659170 0.603933
v -0.667929 0.658535 0.604249
v -0.669419 0.657643 0.603675
v -0.670315 0.656734 0.602365
v -0.670376 0.656050 0.600669
v -0.669585 0.655776 0.599042
v -0.668155 0.655984 0.597920
v -0.666469 0.656619 0.597604
v -0.664978 0.657511 0.598178
v -0.661881 0.653413 0.603519
v -0.661922 0.652675 0.601845
v -0.662728 0.653836 0.605084
v -0.661881 0.653413 0.603519
v -0.664234 0.653832 0.606122
v -0.665996 0.653400 0.606355
v -0.667543 0.652658 0.605720
v -0.668459 0.651803 0.604387
v -0.668499 0.651065 0.602714
v -0.667653 0.650641 0.601148
v -0.666146 0.650646 0.600110
v -0.664384 0.651077 0.599877
v -0.662838 0.651820 0.600513
v -0.660544 0.647576 0.606186
v -0.660571 0.646780 0.604539
v -0.661426 0.648159 0.607679
v -0.660544 0.647576 0.606186
v -0.662982 0.648371 0.608618
v -0.664794 0.648157 0.608751
v -0.666376 0.647573 0.608043
v -0.667305 0.646776 0.606684
v -0.667332 0.645980 0.605037
v -0.666450 0.645398 0.603544
v -0.664894 0.645185 0.602605
v -0.663083 0.645400 0.602472
v -0.661500 0.645983 0.603180
v -0.660082 0.641671 0.609168
v -0.660104 0.640815 0.607552
v -0.660977 0.642418 0.610578
v -0.660082 0.641671 0.609168
v -0.662550 0.642856 0.611403
v -0.664380 0.642866 0.611423
v -0.665975 0.642447 0.610632
v -0.666909 0.641710 0.609242
v -0.666931 0.640854 0.607626
v -0.666036 0.640107 0.606216
v -0.664463 0.639670 0.605391
v -0.662634 0.639659 0.605371
v -0.661038 0.640078 0.606162
vn 0.1946 0.9809 -0.0011
vn 0.2539 0.9672 -0.0114
vn 0.1381 0.8563 -0.4977
vn 0.0701 0.8721 -0.4844
vn 0.2685 0.8324 0.4848
vn 0.3032 0.8237 0.4792
vn 0.2539 0.9672 -0.0113
vn 0.1945 0.9809 -0.0010
vn 0.2714 0.4612 0.8448
vn 0.2722 0.4608 0.8448
vn 0.2011 -0.0365 0.9789
vn 0.1678 -0.0279 0.9854
vn 0.0758 -0.5257 0.8473
vn 0.0174 -0.5113 0.8592
vn -0.0702 -0.8720 0.4844
vn -0.1383 -0.8563 0.4977
vn -0.1971 -0.9803 -0.0107
vn -0.2560 -0.9667 -0.0002
vn -0.2701 -0.8214 -0.5024
vn -0.3036 -0.8132 -0.4966
vn -0.2697 -0.4402 -0.8564
vn -0.2690 -0.4407 -0.8564
vn -0.1970 0.0569 -0.9787
vn -0.1627 0.0475 -0.9855
vn -0.0727 0.5356 -0.8413
vn -0.0139 0.5209 -0.8535
vn 0.3675 0.9296 -0.0274
vn 0.2688 0.8131 -0.5164
vn 0.3697 0.8015 0.4701
vn 0.3675 0.9296 -0.0273
vn 0.2736 0.4598 0.8448
vn 0.1035 -0.0071 0.9946
vn -0.0955 -0.4742 0.8752
vn -0.2690 -0.8130 0.5164
vn -0.3688 -0.9294 0.0162
vn -0.3678 -0.7922 -0.4870
vn -0.2676 -0.4416 -0.8564
vn -0.0964 0.0251 -0.9950
vn 0.0995 0.4832 -0.8699
vn 0.4718 0.8810 -0.0346
vn 0.3888 0.7572 -0.5249
vn 0.4306 0.7729 0.4661
vn 0.4718 0.8811 -0.0345
vn 0.2747 0.4588 0.8450
vn 0.0443 0.0200 0.9988
vn -0.1992 -0.4261 0.8825
vn -0.3889 -0.7571 0.5249
vn -0.4723 -0.8811 0.0238
vn -0.4269 -0.7649 -0.4824
vn -0.2664 -0.4426 -0.8562
vn -0.0356 -0.0037 -0.9994
vn 0.2036 0.4344 -0.8774
vn 0.5661 0.8236 -0.0339
vn 0.4974 0.6911 -0.5244
vn 0.4856 0.7392 0.4667
vn 0.5661 0.8236 -0.0338
vn 0.2757 0.4578 0.8452
vn -0.0093 0.0522 0.9986
vn -0.2931 -0.3692 0.8819
vn -0.4975 -0.6910 0.5244
vn -0.5661 -0.8240 0.0236
vn -0.4804 -0.7325 -0.4823
vn -0.2655 -0.4436 -0.8560
vn 0.0194 -0.0376 -0.9991
vn 0.2979 0.3768 -0.8771
vn 0.6509 0.7587 -0.0264
vn 0.5950 0.6163 -0.5159
vn 0.5351 0.7012 0.4712
vn 0.6509 0.7587 -0.0263
vn 0.2765 0.4569 0.8454
vn -0.0575 0.0888 0.9944
vn -0.3773 -0.3048 0.8745
vn -0.5951 -0.6163 0.5158
vn -0.6503 -0.7595 0.0164
vn -0.5285 -0.6958 -0.4864
vn -0.2646 -0.4446 -0.8558
vn 0.0688 -0.0757 -0.9948
vn 0.3826 0.3118 -0.8697
vn 0.7265 0.6871 -0.0124
vn 0.6821 0.5338 -0.4998
vn 0.5792 0.6593 0.4794
vn 0.2773 0.4560 0.8456
vn -0.1004 0.1294 0.9865
vn -0.4525 -0.2336 0.8606
vn -0.6821 -0.5338 0.4998
vn -0.7254 -0.6883 0.0026
vn -0.5714 -0.6552 -0.4942
vn -0.2638 -0.4454 -0.8556
vn 0.1129 -0.1176 -0.9866
vn 0.4582 0.2401 -0.8558
vn 0.7934 0.6087 0.0078
vn 0.7591 0.4436 -0.4765
vn 0.6183 0.6135 0.4912
vn 0.7934 0.6087 0.0079
vn 0.2782 0.4552 0.8458
vn -0.1383 0.1739 0.9750
vn -0.5190 -0.1557 0.8405
vn -0.7590 -0.4436 0.4765
vn -0.7919 -0.6104 -0.0176
vn -0.6093 -0.6108 -0.5057
vn -0.2630 -0.4463 -0.8554
vn 0.1520 -0.1633 -0.9748
vn 0.5251 0.1618 -0.8355
vn 0.8515 0.5233 0.0345
vn 0.8259 0.3453 -0.4457
vn 0.6524 0.5636 0.5067
vn 0.2790 0.4543 0.8460
vn -0.1710 0.2224 0.9598
vn -0.5766 -0.0708 0.8140
vn -0.8259 -0.3454 0.4457
vn -0.8496 -0.5256 -0.0443
vn -0.6421 -0.5624 -0.5211
vn -0.2621 -0.4472 -0.8552
vn 0.1861 -0.2131 -0.9591
vn 0.5832 0.0765 -0.8087
vn 0.9000 0.4305 0.0680
vn 0.8818 0.2385 -0.4069
vn 0.6809 0.5094 0.5261
vn 0.9000 0.4305 0.0681
vn 0.2799 0.4533 0.8463
vn -0.1982 0.2750 0.9408
vn -0.6247 0.0214 0.7806
vn -0.8817 -0.2387 0.4069
vn -0.8978 -0.4335 -0.0780
vn -0.6693 -0.5098 -0.5404
vn -0.2612 -0.4482 -0.8549
vn 0.2147 -0.2671 -0.9394
vn 0.6319 -0.0161 -0.7749
vn 0.9376 0.3304 0.1088
vn 0.9249 0.1233 -0.3596
vn 0.7031 0.4509 0.5498
vn 0.9375 0.3304 0.1089
vn 0.2808 0.4521 0.8466
vn -0.2190 0.3318 0.9176
vn -0.6617 0.1210 0.7399
vn -0.9249 -0.1235 0.3596
vn -0.9350 -0.3342 -0.1190
vn -0.6903 -0.4532 -0.5640
vn -0.2603 -0.4494 -0.8546
vn 0.2371 -0.3255 -0.9153
vn 0.6695 -0.1161 -0.7337
vn 0.9619 0.2235 0.1575
vn 0.9529 0.0005 -0.3034
vn 0.7176 0.3884 0.5781
vn 0.9619 0.2236 0.1576
vn 0.2817 0.4507 0.8471
vn -0.2323 0.3923 0.8900
vn -0.6857 0.2271 0.6916
vn -0.9528 -0.0007 0.3034
vn -0.9590 -0.2282 -0.1678
vn -0.7037 -0.3929 -0.5919
vn -0.2595 -0.4507 -0.8541
vn 0.2517 -0.3878 -0.8867
vn 0.6940 -0.2227 -0.6847
vn 0.9685 0.1683 0.1834
vn 0.9602 -0.0625 -0.2723
vn 0.7223 0.3559 0.5929
vn 0.9685 0.1683 0.1835
vn 0.2821 0.4500 0.8473
vn -0.2367 0.4231 0.8746
vn -0.6927 0.2811 0.6642
vn -0.9602 0.0623 0.2724
vn -0.9656 -0.1734 -0.1937
vn -0.7079 -0.3618 -0.6066
vn -0.2591 -0.4515 -0.8538
vn 0.2567 -0.4196 -0.8706
vn 0.7012 -0.2770 -0.6570
vt 0.000000 0.000000
vt 0.083333 0.000000
vt 0.083333 0.083333
vt 0.000000 0.083333
vt 0.000000 0.916667
vt 0.083333 0.916667
vt 0.083333 1.000000
vt 0.000000 1.000000
vt 0.000000 0.833333
vt 0.083333 0.833333
vt 0.000000 0.750000
vt 0.083333 0.750000
vt 0.000000 0.666667
vt 0.083333 0.666667
vt 0.000000 0.583333
vt 0.083333 0.583333
vt 0.000000 0.500000
vt 0.083333 0.500000
vt 0.000000 0.416667
vt 0.083333 0.416667
vt 0.000000 0.333333
vt 0.083333 0.333333
vt 0.000000 0.250000
vt 0.083333 0.250000
vt 0.000000 0.166667
vt 0.083333 0.166667
vt 0.166667 0.000000
vt 0.166667 0.083333
vt 0.166667 0.916667
vt 0.166667 1.000000
vt 0.166667 0.833333
vt 0.166667 0.750000
vt 0.166667 0.666667
vt 0.166667 0.583333
vt 0.166667 0.500000
vt 0.166667 0.416667
vt 0.166667 0.333333
vt 0.166667 0.250000
vt 0.166667 0.166667
vt 0.250000 0.000000
vt 0.250000 0.083333
vt 0.250000 0.916667
vt 0.250000 1.000000
vt 0.250000 0.833333
vt 0.250000 0.750000
vt 0.250000 0.666667
vt 0.250000 0.583333
vt 0.250000 0.500000
vt 0.250000 0.416667
vt 0.250000 0.333333
vt 0.250000 0.250000
vt 0.250000 0.166667
vt 0.333333 0.000000
vt 0.333333 0.083333
vt 0.333333 0.916667
vt 0.333333 1.000000
vt 0.333333 0.833333
vt 0.333333 0.750000
vt 0.333333 0.666667
vt 0.333333 0.583333
vt 0.333333 0.500000
vt 0.333333 0.416667
vt 0.333333 0.333333
vt 0.333333 0.250000
vt 0.333333 0.166667
vt 0.416667 0.000000
vt 0.416667 0.083333
vt 0.416667 0.916667
vt 0.416667 1.000000
vt 0.416667 0.833333
vt 0.416667 0.750000
vt 0.416667 0.666667
vt 0.416667 0.583333
vt 0.416667 0.500000
vt 0.416667 0.416667
vt 0.416667 0.333333
vt 0.416667 0.250000
vt 0.416667 0.166667
vt 0.500000 0.000000
vt 0.500000 0.083333
vt 0.500000 0.916667
vt 0.500000 1.000000
vt 0.500000 0.833333
vt 0.500000 0.750000
vt 0.500000 0.666667
vt 0.500000 0.583333
vt 0.500000 0.500000
vt 0.500000 0.416667
vt 0.500000 0.333333
vt 0.500000 0.250000
vt 0.500000 0.166667
vt 0.583333 0.000000
vt 0.583333 0.083333
vt 0.583333 0.916667
vt 0.583333 1.000000
vt 0.583333 0.833333
vt 0.583333 0.750000
vt 0.583333 0.666667
vt 0.583333 0.583333
vt 0.583333 0.500000
vt 0.583333 0.416667
vt 0.583333 0.333333
vt 0.583333 0.250000
vt 0.583333 0.166667
vt 0.666667 0.000000
vt 0.666667 0.083333
vt 0.666667 0.916667
vt 0.666667 1.000000
vt 0.666667 0.833333
vt 0.666667 0.750000
vt 0.666667 0.666667
vt 0.666667 0.583333
vt 0.666667 0.500000
vt 0.666667 0.416667
vt 0.666667 0.333333
vt 0.666667 0.250000
vt 0.666667 0.166667
vt 0.750000 0.000000
vt 0.750000 0.083333
vt 0.750000 0.916667
vt 0.750000 1.000000
vt 0.750000 0.833333
vt 0.750000 0.750000
vt 0.750000 0.666667
vt 0.750000 0.583333
vt 0.750000 0.500000
vt 0.750000 0.416667
vt 0.750000 0.333333
vt 0.750000 0.250000
vt 0.750000 0.166667
vt 0.833333 0.000000
vt 0.833333 0.083333
vt 0.833333 0.916667
vt 0.833333 1.000000
vt 0.833333 0.833333
vt 0.833333 0.750000
vt 0.833333 0.666667
vt 0.833333 0.583333
vt 0.833333 0.500000
vt 0.833333 0.416667
vt 0.833333 0.333333
vt 0.833333 0.250000
vt 0.833333 0.166667
vt 0.916667 0.000000
vt 0.916667 0.083333
vt 0.916667 0.916667
vt 0.916667 1.000000
vt 0.916667 0.833333
vt 0.916667 0.750000
vt 0.916667 0.666667
vt 0.916667 0.583333
vt 0.916667 0.500000
vt 0.916667 0.416667
vt 0.916667 0.333333
vt 0.916667 0.250000
vt 0.916667 0.166667
vt 1.000000 0.000000
vt 1.000000 0.083333
vt 1.000000 0.916667
vt 1.000000 1.000000
vt 1.000000 0.833333
vt 1.000000 0.750000
vt 1.000000 0.666667
vt 1.000000 0.583333
vt 1.000000 0.500000
vt 1.000000 0.416667
vt 1.000000 0.333333
vt 1.000000 0.250000
vt 1.000000 0.166667
s 1
usemtl Purple
f 1/1/1 2/2/2 3/3/3
f 1/1/1 3/3/3 4/4/4
f 5/5/5 6/6/6 7/7/7
f 5/5/5 7/7/7 8/8/8
f 9/9/9 10/10/10 6/6/6
f 9/9/9 6/6/6 5/5/5
f 11/11/11 12/12/12 10/10/10
f 11/11/11 10/10/10 9/9/9
f 13/13/13 14/14/14 12/12/12
f 13/13/13 12/12/12 11/11/11
f 15/15/15 16/16/16 14/14/14
f 15/15/15 14/14/14 13/13/13
f 17/17/17 18/18/18 16/16/16
f 17/17/17 16/16/16 15/15/15
f 19/19/19 20/20/20 18/18/18
f 19/19/19 18/18/18 17/17/17
f 21/21/21 22/22/22 20/20/20
f 21/21/21 20/20/20 19/19/19
f 23/23/23 24/24/24 22/22/22
f 23/23/23 22/22/22 21/21/21
f 25/25/25 26/26/26 24/24/24
f 25/25/25 24/24/24 23/23/23
f 4/4/4 3/3/3 26/26/26
f 4/4/4 26/26/26 25/25/25
f 2/2/2 27/27/27 28/28/28
f 2/2/2 28/28/28 3/3/3
f 6/6/6 29/29/29 30/30/30
f 6/6/6 30/30/30 7/7/7
f 10/10/10 31/31/31 29/29/29
f 10/10/10 29/29/29 6/6/6
f 12/12/12 32/32/32 31/31/31
f 12/12/12 31/31/31 10/10/10
f 14/14/14 33/33/33 32/32/32
f 14/14/14 32/32/32 12/12/12
f 16/16/16 34/34/34 33/33/33
f 16/16/16 33/33/33 14/14/14
f 18/18/18 35/35/35 34/34/34
f 18/18/18 34/34/34 16/16/16
f 20/20/20 36/36/36 35/35/35
f 20/20/20 35/35/35 18/18/18
f 22/22/22 37/37/37 36/36/36
f 22/22/22 36/36/36 20/20/20
f 24/24/24 38/38/38 37/37/37
f 24/24/24 37/37/37 22/22/22
f 26/26/26 39/39/39 38/38/38
f 26/26/26 38/38/38 24/24/24
f 3/3/3 28/28/28 39/39/39
f 3/3/3 39/39/39 26/26/26
f 27/27/27 40/40/40 41/41/41
f 27/27/27 41/41/41 28/28/28
f 29/29/29 42/42/42 43/43/43
f 29/29/29 43/43/43 30/30/30
f 31/31/31 44/44/44 42/42/42
f 31/31/31 42/42/42 29/29/29
f 32/32/32 45/45/45 44/44/44
f 32/32/32 44/44/44 31/31/31
f 33/33/33 46/46/46 45/45/45
f 33/33/33 45/45/45 32/32/32
f 34/34/34 47/47/47 46/46/46
f 34/34/34 46/46/46 33/33/33
f 35/35/35 48/48/48 47/47/47
f 35/35/35 47/47/47 34/34/34
f 36/36/36 49/49/49 48/48/48
f 36/36/36 48/48/48 35/35/35
f 37/37/37 50/50/50 49/49/49
f 37/37/37 49/49/49 36/36/36
f 38/38/38 51/51/51 50/50/50
f 38/38/38 50/50/50 37/37/37
f 39/39/39 52/52/52 51/51/51
f 39/39/39 51/51/51 38/38/38
f 28/28/28 41/41/41 52/52/52
f 28/28/28 52/52/52 39/39/39
f 40/40/40 53/53/53 54/54/54
f 40/40/40 54/54/54 41/41/41
f 42/42/42 55/55/55 56/56/56
f 42/42/42 56/56/56 43/43/43
f 44/44/44 57/57/57 55/55/55
f 44/44/44 55/55/55 42/42/42
f 45/45/45 58/58/58 57/57/57
f 45/45/45 57/57/57 44/44/44
f 46/46/46 59/59/59 58/58/58
f 46/46/46 58/58/58 45/45/45
f 47/47/47 60/60/60 59/59/59
f 47/47/47 59/59/59 46/46/46
f 48/48/48 61/61/61 60/60/60
f 48/48/48 60/60/60 47/47/47
f 49/49/49 62/62/62 61/61/61
f 49/49/49 61/61/61 48/48/48
f 50/50/50 63/63/63 62/62/62
f 50/50/50 62/62/62 49/49/49
f 51/51/51 64/64/64 63/63/63
f 51/51/51 63/63/63 50/50/50
f 52/52/52 65/65/65 64/64/64
f 52/52/52 64/64/64 51/51/51
f 41/41/41 54/54/54 65/65/65
f 41/41/41 65/65/65 52/52/52
f 53/53/53 66/66/66 67/67/67
f 53/53/53 67/67/67 54/54/54
f 55/55/55 68/68/68 69/69/69
f 55/55/55 69/69/69 56/56/56
f 57/57/57 70/70/70 68/68/68
f 57/57/57 68/68/68 55/55/55
f 58/58/58 71/71/71 70/70/70
f 58/58/58 70/70/70 57/57/57
f 59/59/59 72/72/72 71/71/71
f 59/59/59 71/71/71 58/58/58
f 60/60/60 73/73/73 72/72/72
f 60/60/60 72/72/72 59/59/59
f 61/61/61 74/74/74 73/73/73
f 61/61/61 73/73/73 60/60/60
f 62/62/62 75/75/75 74/74/74
f 62/62/62 74/74/74 61/61/61
f 63/63/63 76/76/76 75/75/75
f 63/63/63 75/75/75 62/62/62
f 64/64/64 77/77/77 76/76/76
f 64/64/64 76/76/76 63/63/63
f 65/65/65 78/78/78 77/77/77
f 65/65/65 77/77/77 64/64/64
f 54/54/54 67/67/67 78/78/78
f 54/54/54 78/78/78 65/65/65
f 66/66/66 79/79/79 80/80/80
f 66/66/66 80/80/80 67/67/67
f 68/68/68 81/81/81 82/82/79
f 68/68/68 82/82/79 69/69/69
f 70/70/70 83/83/82 81/81/81
f 70/70/70 81/81/81 68/68/68
f 71/71/71 84/84/83 83/83/82
f 71/71/71 83/83/82 70/70/70
f 72/72/72 85/85/84 84/84/83
f 72/72/72 84/84/83 71/71/71
f 73/73/73 86/86/85 85/85/84
f 73/73/73 85/85/84 72/72/72
f 74/74/74 87/87/86 86/86/85
f 74/74/74 86/86/85 73/73/73
f 75/75/75 88/88/87 87/87/86
f 75/75/75 87/87/86 74/74/74
f 76/76/76 89/89/88 88/88/87
f 76/76/76 88/88/87 75/75/75
f 77/77/77 90/90/89 89/89/88
f 77/77/77 89/89/88 76/76/76
f 78/78/78 91/91/90 90/90/89
f 78/78/78 90/90/89 77/77/77
f 67/67/67 80/80/80 91/91/90
f 67/67/67 91/91/90 78/78/78
f 79/79/79 92/92/91 93/93/92
f 79/79/79 93/93/92 80/80/80
f 81/81/81 94/94/93 95/95/94
f 81/81/81 95/95/94 82/82/79
f 83/83/82 96/96/95 94/94/93
f 83/83/82 94/94/93 81/81/81
f 84/84/83 97/97/96 96/96/95
f 84/84/83 96/96/95 83/83/82
f 85/85/84 98/98/97 97/97/96
f 85/85/84 97/97/96 84/84/83
f 86/86/85 99/99/98 98/98/97
f 86/86/85 98/98/97 85/85/84
f 87/87/86 100/100/99 99/99/98
f 87/87/86 99/99/98 86/86/85
f 88/88/87 101/101/100 100/100/99
f 88/88/87 100/100/99 87/87/86
f 89/89/88 102/102/101 101/101/100
f 89/89/88 101/101/100 88/88/87
f 90/90/89 103/103/102 102/102/101
f 90/90/89 102/102/101 89/89/88
f 91/91/90 104/104/103 103/103/102
f 91/91/90 103/103/102 90/90/89
f 80/80/80 93/93/92 104/104/103
f 80/80/80 104/104/103 91/91/90
f 92/92/91 105/105/104 106/106/105
f 92/92/91 106/106/105 93/93/92
f 94/94/93 107/107/106 108/108/104
f 94/94/93 108/108/104 95/95/94
f 96/96/95 109/109/107 107/107/106
f 96/96/95 107/107/106 94/94/93
f 97/97/96 110/110/108 109/109/107
f 97/97/96 109/109/107 96/96/95
f 98/98/97 111/111/109 110/110/108
f 98/98/97 110/110/108 97/97/96
f 99/99/98 112/112/110 111/111/109
f 99/99/98 111/111/109 98/98/97
f 100/100/99 113/113/111 112/112/110
f 100/100/99 112/112/110 99/99/98
f 101/101/100 114/114/112 113/113/111
f 101/101/100 113/113/111 100/100/99
f 102/102/101 115/115/113 114/114/112
f 102/102/101 114/114/112 101/101/100
f 103/103/102 116/116/114 115/115/113
f 103/103/102 115/115/113 102/102/101
f 104/104/103 117/117/115 116/116/114
f 104/104/103 116/116/114 103/103/102
f 93/93/92 106/106/105 117/117/115
f 93/93/92 117/117/115 104/104/103
f 105/105/104 118/118/116 119/119/117
f 105/105/104 119/119/117 106/106/105
f 107/107/106 120/120/118 121/121/119
f 107/107/106 121/121/119 108/108/104
f 109/109/107 122/122/120 120/120/118
f 109/109/107 120/120/118 107/107/106
f 110/110/108 123/123/121 122/122/120
f 110/110/108 122/122/120 109/109/107
f 111/111/109 124/124/122 123/123/121
f 111/111/109 123/123/121 110/110/108
f 112/112/110 125/125/123 124/124/122
f 112/112/110 124/124/122 111/111/109
f 113/113/111 126/126/124 125/125/123
f 113/113/111 125/125/123 112/112/110
f 114/114/112 127/127/125 126/126/124
f 114/114/112 126/126/124 113/113/111
f 115/115/113 128/128/126 127/127/125
f 115/115/113 127/127/125 114/114/112
f 116/116/114 129/129/127 128/128/126
f 116/116/114 128/128/126 115/115/113
f 117/117/115 130/130/128 129/129/127
f 117/117/115 129/129/127 116/116/114
f 106/106/105 119/119/117 130/130/128
f 106/106/105 130/130/128 117/117/115
f 118/118/116 131/131/129 132/132/130
f 118/118/116 132/132/130 119/119/117
f 120/120/118 133/133/131 134/134/132
f 120/120/118 134/134/132 121/121/119
f 122/122/120 135/135/133 133/133/131
f 122/122/120 133/133/131 120/120/118
f 123/123/121 136/136/134 135/135/133
f 123/123/121 135/135/133 122/122/120
f 124/124/122 137/137/135 136/136/134
f 124/124/122 136/136/134 123/123/121
f 125/125/123 138/138/136 137/137/135
f 125/125/123 137/137/135 124/124/122
f 126/126/124 139/139/137 138/138/136
f 126/126/124 138/138/136 125/125/123
f 127/127/125 140/140/138 139/139/137
f 127/127/125 139/139/137 126/126/124
f 128/128/126 141/141/139 140/140/138
f 128/128/126 140/140/138 127/127/125
f 129/129/127 142/142/140 141/141/139
f 129/129/127 141/141/139 128/128/126
f 130/130/128 143/143/141 142/142/140
f 130/130/128 142/142/140 129/129/127
f 119/119/117 132/132/130 143/143/141
f 119/119/117 143/143/141 130/130/128
f 131/131/129 144/144/142 145/145/143
f 131/131/129 145/145/143 132/132/130
f 133/133/131 146/146/144 147/147/145
f 133/133/131 147/147/145 134/134/132
f 135/135/133 148/148/146 146/146/144
f 135/135/133 146/146/144 133/133/131
f 136/136/134 149/149/147 148/148/146
f 136/136/134 148/148/146 135/135/133
f 137/137/135 150/150/148 149/149/147
f 137/137/135 149/149/147 136/136/134
f 138/138/136 151/151/149 150/150/148
f 138/138/136 150/150/148 137/137/135
f 139/139/137 152/152/150 151/151/149
f 139/139/137 151/151/149 138/138/136
f 140/140/138 153/153/151 152/152/150
f 140/140/138 152/152/150 139/139/137
f 141/141/139 154/154/152 153/153/151
f 141/141/139 153/153/151 140/140/138
f 142/142/140 155/155/153 154/154/152
f 142/142/140 154/154/152 141/141/139
f 143/143/141 156/156/154 155/155/153
f 143/143/141 155/155/153 142/142/140
f 132/132/130 145/145/143 156/156/154
f 132/132/130 156/156/154 143/143/141
f 144/144/142 157/157/155 158/158/156
f 144/144/142 158/158/156 145/145/143
f 146/146/144 159/159/157 160/160/158
f 146/146/144 160/160/158 147/147/145
f 148/148/146 161/161/159 159/159/157
f 148/148/146 159/159/157 146/146/144
f 149/149/147 162/162/160 161/161/159
f 149/149/147 161/161/159 148/148/146
f 150/150/148 163/163/161 162/162/160
f 150/150/148 162/162/160 149/149/147
f 151/151/149 164/164/162 163/163/161
f 151/151/149 163/163/161 150/150/148
f 152/152/150 165/165/163 164/164/162
f 152/152/150 164/164/162 151/151/149
f 153/153/151 166/166/164 165/165/163
f 153/153/151 165/165/163 152/152/150
f 154/154/152 167/167/165 166/166/164
f 154/154/152 166/166/164 153/153/151
f 155/155/153 168/168/166 167/167/165
f 155/155/153 167/167/165 154/154/152
f 156/156/154 169/169/167 168/168/166
f 156/156/154 168/168/166 155/155/153
f 145/145/143 158/158/156 169/169/167
f 145/145/143 169/169/167 156/156/154
