# Blender 5.1.1
# www.blender.org
mtllib table.mtl
o Plane.001
v -5.105075 -0.074619 11.855300
v -0.839533 -0.060265 11.865644
v -5.090537 -0.117700 -5.558739
v -0.824995 -0.103345 -5.548396
v -5.090172 -0.226753 -5.558001
v -5.104710 -0.183673 11.856039
v -0.839168 -0.169318 11.866383
v -0.824630 -0.212399 -5.547657
v -5.088383 -0.761036 -5.554384
v -5.102921 -0.717956 11.859655
v -0.837379 -0.703601 11.869999
v -0.822841 -0.746682 -5.544041
vn 0.0034 -1.0000 0.0025
vn -0.0024 0.0068 1.0000
vn 0.0024 -0.0068 -1.0000
vn -1.0000 -0.0034 -0.0008
vn 1.0000 0.0034 0.0008
vn -0.0034 1.0000 -0.0025
vt 0.000000 0.000000
vt 1.000000 1.000000
vt 1.000000 0.000000
vt 0.000000 1.000000
s 0
f 1/1/1 4/2/1 2/3/1
f 5/4/2 12/2/2 8/2/2
f 3/4/2 8/2/2 4/2/2
f 2/3/3 6/1/3 1/1/3
f 2/3/4 8/2/4 7/3/4
f 1/1/5 5/4/5 3/4/5
f 10/1/6 12/2/6 9/4/6
f 7/3/3 10/1/3 6/1/3
f 7/3/4 12/2/4 11/3/4
f 6/1/5 9/4/5 5/4/5
f 1/1/1 3/4/1 4/2/1
f 5/4/2 9/4/2 12/2/2
f 3/4/2 5/4/2 8/2/2
f 2/3/3 7/3/3 6/1/3
f 2/3/4 4/2/4 8/2/4
f 1/1/5 6/1/5 5/4/5
f 10/1/6 11/3/6 12/2/6
f 7/3/3 11/3/3 10/1/3
f 7/3/4 8/2/4 12/2/4
f 6/1/5 10/1/5 9/4/5
