# Blender 5.1.1
# www.blender.org
mtllib tank1.mtl
o tank
v -1.498946 -0.100184 -0.586259
v -4.115864 -0.100184 -0.586259
v -4.115864 2.516735 -0.586260
v -1.498946 2.516735 -0.586260
v -4.115864 -0.100182 4.358851
v -1.498946 -0.100182 4.358851
v -1.498946 2.516736 4.358850
v -4.115864 2.516736 4.358850
v -1.498946 -0.100182 4.358851
v -1.498946 -0.100184 -0.586259
v -1.498946 2.516735 -0.586260
v -1.498946 2.516736 4.358850
v -4.115864 -0.100184 -0.586259
v -4.115864 -0.100182 4.358851
v -4.115864 2.516736 4.358850
v -4.115864 2.516735 -0.586260
v -4.115864 -0.100184 -0.586259
v -1.498946 -0.100184 -0.586259
v -1.498946 -0.100182 4.358851
v -4.115864 -0.100182 4.358851
v -1.529163 -0.069966 -0.529158
v -1.535954 2.516735 -0.516328
v -4.078856 2.516735 -0.516328
v -4.085647 -0.069966 -0.529158
v -4.085647 -0.069965 4.301750
v -4.078856 2.516736 4.288918
v -1.535954 2.516736 4.288918
v -1.529163 -0.069965 4.301750
v -1.529163 -0.069965 4.301750
v -1.535954 2.516736 4.288918
v -1.535954 2.516735 -0.516328
v -1.529163 -0.069966 -0.529158
v -4.085647 -0.069966 -0.529158
v -4.078856 2.516735 -0.516328
v -4.078856 2.516736 4.288918
v -4.085647 -0.069965 4.301750
v -4.085647 -0.069966 -0.529158
v -4.085647 -0.069965 4.301750
v -1.529163 -0.069965 4.301750
v -1.529163 -0.069966 -0.529158
v -4.115864 2.516735 -0.586260
v -4.115864 2.516736 4.358850
v -4.078856 2.516736 4.288918
v -4.078856 2.516735 -0.516328
v -1.498946 2.516736 4.358850
v -1.535954 2.516736 4.288918
v -1.498946 2.516735 -0.586260
v -1.535954 2.516735 -0.516328
vn -0.0000 -0.0000 -1.0000
vn -0.0000 -0.0000 1.0000
vn 1.0000 -0.0000 -0.0000
vn -1.0000 -0.0000 -0.0000
vn -0.0000 -1.0000 -0.0000
vn -0.0000 -0.0050 1.0000
vn -0.0000 -0.0050 -1.0000
vn -1.0000 -0.0026 -0.0000
vn 1.0000 -0.0026 -0.0000
vn -0.0000 1.0000 -0.0000
s 0
usemtl Material.003
f 1//1 2//1 3//1
f 1//1 3//1 4//1
f 5//2 6//2 7//2
f 5//2 7//2 8//2
f 9//3 10//3 11//3
f 9//3 11//3 12//3
f 13//4 14//4 15//4
f 13//4 15//4 16//4
f 17//5 18//5 19//5
f 17//5 19//5 20//5
f 21//6 22//6 23//6
f 21//6 23//6 24//6
f 25//7 26//7 27//7
f 25//7 27//7 28//7
f 29//8 30//8 31//8
f 29//8 31//8 32//8
f 33//9 34//9 35//9
f 33//9 35//9 36//9
f 37//10 38//10 39//10
f 37//10 39//10 40//10
f 41//10 42//10 43//10
f 41//10 43//10 44//10
f 42//10 45//10 46//10
f 42//10 46//10 43//10
f 45//10 47//10 48//10
f 45//10 48//10 46//10
f 47//10 41//10 44//10
f 47//10 44//10 48//10
