# Blender 5.1.1
# www.blender.org
o Plane.007
v -2.071078 0.948627 0.015174
v -1.661102 0.948627 0.963489
v -2.071078 1.981769 0.015174
v -1.661102 1.981769 0.963489
v -2.060822 1.981769 0.010740
v -2.060822 0.948627 0.010740
v -1.650845 0.948627 0.959055
v -1.650845 1.981769 0.959055
v -2.071078 -0.068652 0.015174
v -1.661102 -0.068652 0.963489
v -2.071078 0.964490 0.015174
v -1.661102 0.964490 0.963489
v -2.060822 0.964490 0.010740
v -2.060822 -0.068652 0.010740
v -1.650846 -0.068652 0.959055
v -1.650846 0.964490 0.959055
v -1.661102 0.948627 0.963489
v -1.251125 0.948627 1.911804
v -1.661102 1.981769 0.963489
v -1.251125 1.981769 1.911804
v -1.650845 1.981769 0.959055
v -1.650845 0.948627 0.959055
v -1.240869 0.948627 1.907370
v -1.240869 1.981769 1.907370
v -1.661102 -0.068652 0.963489
v -1.251125 -0.068652 1.911804
v -1.661102 0.964490 0.963489
v -1.251126 0.964490 1.911804
v -1.650846 0.964490 0.959055
v -1.650846 -0.068652 0.959055
v -1.240869 -0.068652 1.907370
v -1.240869 0.964490 1.907370
vn 0.9179 -0.0000 -0.3968
vn -0.9179 -0.0000 0.3968
vn -0.3968 -0.0000 -0.9179
vn 0.3968 -0.0000 0.9179
vn -0.0000 -1.0000 -0.0000
vn -0.0000 1.0000 -0.0000
vt 0.000000 1.000000
vt 1.000000 0.000000
vt 0.000000 0.000000
vt 1.000000 1.000000
s 0
f 3/1/1 2/2/1 1/3/1
f 7/2/2 5/1/2 6/3/2
f 4/4/3 7/2/3 2/2/3
f 1/3/4 5/1/4 3/1/4
f 3/1/5 8/4/5 4/4/5
f 2/2/6 6/3/6 1/3/6
f 11/1/1 10/2/1 9/3/1
f 15/2/2 13/1/2 14/3/2
f 12/4/3 15/2/3 10/2/3
f 9/3/4 13/1/4 11/1/4
f 11/1/5 16/4/5 12/4/5
f 10/2/6 14/3/6 9/3/6
f 19/1/1 18/2/1 17/3/1
f 23/2/2 21/1/2 22/3/2
f 20/4/3 23/2/3 18/2/3
f 17/3/4 21/1/4 19/1/4
f 19/1/5 24/4/5 20/4/5
f 18/2/6 22/3/6 17/3/6
f 27/1/1 26/2/1 25/3/1
f 31/2/2 29/1/2 30/3/2
f 28/4/3 31/2/3 26/2/3
f 25/3/4 29/1/4 27/1/4
f 27/1/5 32/4/5 28/4/5
f 26/2/6 30/3/6 25/3/6
f 3/1/1 4/4/1 2/2/1
f 7/2/2 8/4/2 5/1/2
f 4/4/3 8/4/3 7/2/3
f 1/3/4 6/3/4 5/1/4
f 3/1/5 5/1/5 8/4/5
f 2/2/6 7/2/6 6/3/6
f 11/1/1 12/4/1 10/2/1
f 15/2/2 16/4/2 13/1/2
f 12/4/3 16/4/3 15/2/3
f 9/3/4 14/3/4 13/1/4
f 11/1/5 13/1/5 16/4/5
f 10/2/6 15/2/6 14/3/6
f 19/1/1 20/4/1 18/2/1
f 23/2/2 24/4/2 21/1/2
f 20/4/3 24/4/3 23/2/3
f 17/3/4 22/3/4 21/1/4
f 19/1/5 21/1/5 24/4/5
f 18/2/6 23/2/6 22/3/6
f 27/1/1 28/4/1 26/2/1
f 31/2/2 32/4/2 29/1/2
f 28/4/3 32/4/3 31/2/3
f 25/3/4 30/3/4 29/1/4
f 27/1/5 29/1/5 32/4/5
f 26/2/6 31/2/6 30/3/6
o Plane.019
v -0.821782 0.869857 2.291548
v 0.181060 0.869857 1.857999
v -0.821782 1.962402 2.291548
v 0.181060 1.962402 1.857999
v -0.826471 1.962402 2.280702
v -0.826471 0.869857 2.280702
v 0.176371 0.869857 1.847153
v 0.176371 1.962402 1.847153
v -0.821782 -0.063952 2.291548
v 0.181060 -0.063952 1.857999
v -0.821782 1.028594 2.291548
v 0.181060 1.028594 1.857999
v -0.826471 1.028594 2.280702
v -0.826471 -0.063952 2.280702
v 0.176371 -0.063952 1.847153
v 0.176371 1.028594 1.847153
v 0.161003 0.869857 1.866670
v 1.163844 0.869857 1.433120
v 0.161003 1.962402 1.866670
v 1.163844 1.962402 1.433120
v 0.156314 1.962402 1.855824
v 0.156314 0.869857 1.855824
v 1.159155 0.869857 1.422274
v 1.159155 1.962402 1.422274
v 0.161003 -0.063952 1.866670
v 1.163844 -0.063952 1.433120
v 0.161003 1.028594 1.866670
v 1.163844 1.028594 1.433121
v 0.156314 1.028594 1.855824
v 0.156314 -0.063952 1.855824
v 1.159155 -0.063952 1.422274
v 1.159155 1.028594 1.422274
v 1.143787 0.869857 1.441792
v 2.146629 0.869857 1.008242
v 1.143787 1.962402 1.441792
v 2.146629 1.962402 1.008242
v 1.139098 1.962402 1.430945
v 1.139098 0.869857 1.430945
v 2.141940 0.869857 0.997396
v 2.141940 1.962402 0.997396
v 1.143787 -0.063952 1.441792
v 2.146629 -0.063952 1.008242
v 1.143787 1.028594 1.441792
v 2.146629 1.028594 1.008242
v 1.139098 1.028594 1.430945
v 1.139098 -0.063952 1.430945
v 2.141940 -0.063952 0.997396
v 2.141940 1.028594 0.997396
vn -0.3968 -0.0000 -0.9179
vn 0.3968 -0.0000 0.9179
vn -0.9179 -0.0000 0.3968
vn 0.9179 -0.0000 -0.3968
vn -0.0000 -1.0000 -0.0000
vn -0.0000 1.0000 -0.0000
vt 0.000000 1.000000
vt 1.000000 0.000000
vt 0.000000 0.000000
vt 1.000000 1.000000
s 0
f 35/5/7 34/6/7 33/7/7
f 39/6/8 37/5/8 38/7/8
f 36/8/9 39/6/9 34/6/9
f 33/7/10 37/5/10 35/5/10
f 35/5/11 40/8/11 36/8/11
f 34/6/12 38/7/12 33/7/12
f 43/5/7 42/6/7 41/7/7
f 47/6/8 45/5/8 46/7/8
f 44/8/9 47/6/9 42/6/9
f 41/7/10 45/5/10 43/5/10
f 43/5/11 48/8/11 44/8/11
f 42/6/12 46/7/12 41/7/12
f 51/5/7 50/6/7 49/7/7
f 55/6/8 53/5/8 54/7/8
f 52/8/9 55/6/9 50/6/9
f 49/7/10 53/5/10 51/5/10
f 51/5/11 56/8/11 52/8/11
f 50/6/12 54/7/12 49/7/12
f 59/5/7 58/6/7 57/7/7
f 63/6/8 61/5/8 62/7/8
f 60/8/9 63/6/9 58/6/9
f 57/7/10 61/5/10 59/5/10
f 59/5/11 64/8/11 60/8/11
f 58/6/12 62/7/12 57/7/12
f 67/5/7 66/6/7 65/7/7
f 71/6/8 69/5/8 70/7/8
f 68/8/9 71/6/9 66/6/9
f 65/7/10 69/5/10 67/5/10
f 67/5/11 72/8/11 68/8/11
f 66/6/12 70/7/12 65/7/12
f 75/5/7 74/6/7 73/7/7
f 79/6/8 77/5/8 78/7/8
f 76/8/9 79/6/9 74/6/9
f 73/7/10 77/5/10 75/5/10
f 75/5/11 80/8/11 76/8/11
f 74/6/12 78/7/12 73/7/12
f 35/5/7 36/8/7 34/6/7
f 39/6/8 40/8/8 37/5/8
f 36/8/9 40/8/9 39/6/9
f 33/7/10 38/7/10 37/5/10
f 35/5/11 37/5/11 40/8/11
f 34/6/12 39/6/12 38/7/12
f 43/5/7 44/8/7 42/6/7
f 47/6/8 48/8/8 45/5/8
f 44/8/9 48/8/9 47/6/9
f 41/7/10 46/7/10 45/5/10
f 43/5/11 45/5/11 48/8/11
f 42/6/12 47/6/12 46/7/12
f 51/5/7 52/8/7 50/6/7
f 55/6/8 56/8/8 53/5/8
f 52/8/9 56/8/9 55/6/9
f 49/7/10 54/7/10 53/5/10
f 51/5/11 53/5/11 56/8/11
f 50/6/12 55/6/12 54/7/12
f 59/5/7 60/8/7 58/6/7
f 63/6/8 64/8/8 61/5/8
f 60/8/9 64/8/9 63/6/9
f 57/7/10 62/7/10 61/5/10
f 59/5/11 61/5/11 64/8/11
f 58/6/12 63/6/12 62/7/12
f 67/5/7 68/8/7 66/6/7
f 71/6/8 72/8/8 69/5/8
f 68/8/9 72/8/9 71/6/9
f 65/7/10 70/7/10 69/5/10
f 67/5/11 69/5/11 72/8/11
f 66/6/12 71/6/12 70/7/12
f 75/5/7 76/8/7 74/6/7
f 79/6/8 80/8/8 77/5/8
f 76/8/9 80/8/9 79/6/9
f 73/7/10 78/7/10 77/5/10
f 75/5/11 77/5/11 80/8/11
f 74/6/12 79/6/12 78/7/12
