# Blender 5.1.1
# www.blender.org
o Plane.018
v -2.158418 1.898810 0.000538
v -1.374280 1.898810 1.840409
v 0.874416 1.898810 -1.292031
v 1.658554 1.898810 0.547841
v 0.874416 1.992346 -1.292031
v -2.158418 1.992346 0.000538
v -1.374280 1.992346 1.840409
v 1.658554 1.992346 0.547841
vn -0.0000 -1.0000 -0.0000
vn -0.0000 1.0000 -0.0000
vn -0.3921 -0.0000 -0.9199
vn 0.9199 -0.0000 -0.3921
vn -0.9199 -0.0000 0.3921
vn 0.3921 -0.0000 0.9199
vt 0.000000 1.000000
vt 1.000000 0.000000
vt 0.000000 0.000000
vt 1.000000 1.000000
s 0
f 3/1/1 2/2/1 1/3/1
f 7/2/2 5/1/2 6/3/2
f 1/3/3 5/1/3 3/1/3
f 3/1/4 8/4/4 4/4/4
f 2/2/5 6/3/5 1/3/5
f 4/4/6 7/2/6 2/2/6
f 3/1/1 4/4/1 2/2/1
f 7/2/2 8/4/2 5/1/2
f 1/3/3 6/3/3 5/1/3
f 3/1/4 5/1/4 8/4/4
f 2/2/5 7/2/5 6/3/5
f 4/4/6 8/4/6 7/2/6
