# Blender 5.1.1
# www.blender.org
o SM_CHP1Hub_Dome.mo_WorldGridMaterial_0
v -0.631833 0.924868 0.465655
v -0.605867 0.890282 0.473452
v -0.615342 0.924759 0.481810
v -0.623516 0.890317 0.456086
v -0.655026 0.924925 0.447858
v -0.623516 0.890317 0.456086
v -0.631833 0.924868 0.465655
v -0.648041 0.890376 0.437267
v -0.648041 0.890376 0.437267
v -0.655026 0.924925 0.447858
v -0.674899 0.924904 0.436110
v -0.669383 0.890435 0.424714
v -0.645843 0.962198 0.481721
v -0.615342 0.924759 0.481810
v -0.631313 0.962075 0.495873
v -0.631833 0.924868 0.465655
v -0.666805 0.962249 0.465636
v -0.631833 0.924868 0.465655
v -0.645843 0.962198 0.481721
v -0.655026 0.924925 0.447858
v -0.655026 0.924925 0.447858
v -0.666805 0.962249 0.465636
v -0.684236 0.962203 0.455263
v -0.674899 0.924904 0.436110
v -0.663918 0.995258 0.502412
v -0.631313 0.962075 0.495873
v -0.651912 0.995133 0.513992
v -0.645843 0.962198 0.481721
v -0.682012 0.995302 0.488527
v -0.645843 0.962198 0.481721
v -0.663918 0.995258 0.502412
v -0.666805 0.962249 0.465636
v -0.666805 0.962249 0.465636
v -0.682012 0.995302 0.488527
v -0.696305 0.995241 0.479927
v -0.684236 0.962203 0.455263
v -0.651912 0.995133 0.513992
v -0.670139 1.016342 0.530014
v -0.663918 0.995258 0.502412
v -0.679913 1.016459 0.520703
v -0.695476 1.016496 0.508761
v -0.682012 0.995302 0.488527
v -0.679913 1.016459 0.520703
v -0.663918 0.995258 0.502412
v -0.696305 0.995241 0.479927
v -0.682012 0.995302 0.488527
v -0.706999 1.016431 0.501730
v -0.695476 1.016496 0.508761
v -0.700401 1.041828 0.556605
v -0.697423 1.034691 0.540713
v -0.690091 1.034589 0.547548
v -0.706366 1.041838 0.550928
v -0.710217 1.034722 0.530896
v -0.706366 1.041838 0.550928
v -0.717747 1.041865 0.542194
v -0.697423 1.034691 0.540713
v -0.724775 1.041887 0.537902
v -0.710217 1.034722 0.530896
v -0.717747 1.041865 0.542194
v -0.718716 1.034658 0.525583
v -0.794811 0.890915 0.397939
v -0.770737 0.925256 0.410430
v -0.793822 0.925435 0.410667
v -0.770053 0.890805 0.397739
v -0.825461 0.891059 0.401974
v -0.793822 0.925435 0.410667
v -0.822805 0.925570 0.414483
v -0.794811 0.890915 0.397939
v -0.822805 0.925570 0.414483
v -0.849427 0.891177 0.408189
v -0.825461 0.891059 0.401974
v -0.845165 0.925604 0.420228
v -0.793822 0.925435 0.410667
v -0.771973 0.962525 0.431754
v -0.792254 0.962710 0.432021
v -0.770737 0.925256 0.410430
v -0.822805 0.925570 0.414483
v -0.792254 0.962710 0.432021
v -0.818450 0.962832 0.435470
v -0.793822 0.925435 0.410667
v -0.845165 0.925604 0.420228
v -0.818450 0.962832 0.435470
v -0.838110 0.962835 0.440461
v -0.822805 0.925570 0.414483
v -0.792254 0.962710 0.432021
v -0.773626 0.995525 0.459208
v -0.790304 0.995699 0.459510
v -0.771973 0.962525 0.431754
v -0.818450 0.962832 0.435470
v -0.790304 0.995699 0.459510
v -0.812916 0.995805 0.462487
v -0.792254 0.962710 0.432021
v -0.838110 0.962835 0.440461
v -0.812916 0.995805 0.462487
v -0.829104 0.995784 0.466512
v -0.818450 0.962832 0.435470
v -0.775121 1.016681 0.483476
v -0.788616 1.016838 0.483803
v -0.790304 0.995699 0.459510
v -0.773626 0.995525 0.459208
v -0.812916 0.995805 0.462487
v -0.788616 1.016838 0.483803
v -0.808065 1.016929 0.486364
v -0.790304 0.995699 0.459510
v -0.812916 0.995805 0.462487
v -0.808065 1.016929 0.486364
v -0.821185 1.016897 0.489540
v -0.829104 0.995784 0.466512
v -0.776776 1.034872 0.510025
v -0.788616 1.016838 0.483803
v -0.775121 1.016681 0.483476
v -0.786793 1.035003 0.510377
v -0.786793 1.035003 0.510377
v -0.808065 1.016929 0.486364
v -0.788616 1.016838 0.483803
v -0.802781 1.035078 0.512481
v -0.808065 1.016929 0.486364
v -0.802781 1.035078 0.512481
v -0.812548 1.035039 0.514734
v -0.821185 1.016897 0.489540
v -0.785872 1.042115 0.523940
v -0.786793 1.035003 0.510377
v -0.777640 1.042081 0.523737
v -0.776776 1.034872 0.510025
v -0.800095 1.042182 0.525813
v -0.802781 1.035078 0.512481
v -0.785872 1.042115 0.523940
v -0.786793 1.035003 0.510377
v -0.808100 1.042223 0.527747
v -0.802781 1.035078 0.512481
v -0.800095 1.042182 0.525813
v -0.812548 1.035039 0.514734
v -0.679913 1.016459 0.520703
v -0.690091 1.034589 0.547548
v -0.697423 1.034691 0.540713
v -0.670139 1.016342 0.530014
v -0.695476 1.016496 0.508761
v -0.697423 1.034691 0.540713
v -0.710217 1.034722 0.530896
v -0.679913 1.016459 0.520703
v -0.718716 1.034658 0.525583
v -0.706999 1.016431 0.501730
v -0.695476 1.016496 0.508761
v -0.710217 1.034722 0.530896
vn -0.6610 -0.3394 0.6692
vn -0.5722 -0.3401 0.7463
vn -0.5722 -0.3400 0.7463
vn -0.4785 -0.3395 0.8098
vn -0.6147 -0.4922 0.6163
vn -0.5342 -0.4911 0.6881
vn -0.4461 -0.4920 0.7476
vn -0.4460 -0.4920 0.7476
vn -0.5416 -0.6399 0.5452
vn -0.4715 -0.6411 0.6056
vn -0.4715 -0.6410 0.6056
vn -0.3931 -0.6402 0.6600
vn -0.3931 -0.6401 0.6601
vn -0.4594 -0.7531 0.4710
vn -0.4594 -0.7530 0.4711
vn -0.4594 -0.7531 0.4709
vn -0.4030 -0.7528 0.5205
vn -0.4031 -0.7528 0.5205
vn -0.3393 -0.7517 0.5655
vn -0.3394 -0.7517 0.5655
vn -0.3394 -0.7517 0.5654
vn -0.3228 -0.8878 0.3280
vn -0.2853 -0.8878 0.3611
vn -0.2473 -0.8856 0.3933
vn -0.2473 -0.8855 0.3933
vn 0.0071 -0.3413 0.9399
vn 0.1200 -0.3426 0.9318
vn 0.2355 -0.3427 0.9095
vn 0.0091 -0.4937 0.8696
vn 0.1152 -0.4935 0.8621
vn 0.2208 -0.4953 0.8402
vn 0.0060 -0.6416 0.7670
vn 0.1011 -0.6432 0.7590
vn 0.1920 -0.6426 0.7417
vn 0.1920 -0.6426 0.7418
vn 0.0060 -0.7530 0.6580
vn 0.0061 -0.7530 0.6580
vn 0.0837 -0.7546 0.6509
vn 0.0836 -0.7546 0.6509
vn 0.0835 -0.7546 0.6509
vn 0.1572 -0.7553 0.6362
vn 0.1571 -0.7553 0.6362
vn 0.0073 -0.8243 0.5661
vn 0.0072 -0.8243 0.5660
vn 0.0072 -0.8243 0.5661
vn 0.0073 -0.8244 0.5660
vn 0.0741 -0.8273 0.5568
vn 0.1338 -0.8256 0.5481
vn 0.1336 -0.8256 0.5483
vn 0.1337 -0.8256 0.5483
vn 0.1338 -0.8255 0.5483
vn 0.0114 -0.8865 0.4626
vn 0.0605 -0.8891 0.4538
vn 0.1095 -0.8894 0.4438
vn -0.3956 -0.8235 0.4067
vn -0.3956 -0.8236 0.4064
vn -0.3955 -0.8236 0.4065
vn -0.3482 -0.8258 0.4436
vn -0.2950 -0.8232 0.4850
vn -0.2949 -0.8232 0.4851
vn -0.2950 -0.8233 0.4850
vt 0.058380 0.302490
vt 0.191406 0.507812
vt 0.186890 0.302490
vt 0.053284 0.507324
vt 0.332764 0.791016
vt 0.500488 0.996094
vt 0.495361 0.791016
vt 0.327637 0.996094
vt 0.611816 0.587891
vt 0.616699 0.792480
vt 0.745605 0.792969
vt 0.750000 0.587891
vt 0.491943 0.544922
vt 0.616211 0.784180
vt 0.604980 0.543945
vt 0.487549 0.784180
vt 0.005817 0.755859
vt 0.161011 0.995605
vt 0.153320 0.755859
vt -0.001993 0.995605
vt 0.688477 0.541016
vt 0.684082 0.301758
vt 0.570801 0.300537
vt 0.559570 0.541016
vt 0.744629 0.755371
vt 0.852051 0.994629
vt 0.837891 0.754883
vt 0.738770 0.994141
vt 0.340088 0.549316
vt 0.477539 0.788574
vt 0.467285 0.549316
vt 0.330078 0.788574
vt 0.425781 0.305908
vt 0.420898 0.066772
vt 0.327881 0.065796
vt 0.312744 0.305908
vt 0.944336 0.384033
vt 0.930664 0.204102
vt 0.851074 0.383789
vt 0.855469 0.204590
vt 0.006290 0.122986
vt -0.002527 0.302490
vt 0.115784 0.122986
vt 0.124756 0.302490
vt 0.823242 0.568359
vt 0.916016 0.568359
vt 0.836426 0.388672
vt 0.911621 0.389160
vt 0.936523 0.806152
vt 0.984863 0.720703
vt 0.929199 0.720215
vt 0.982422 0.806152
vt 0.423340 0.046387
vt 0.508789 0.131470
vt 0.508789 0.051300
vt 0.423340 0.136353
vt 0.989258 0.985352
vt 0.941895 0.898926
vt 0.943359 0.984375
vt 0.997559 0.898926
vt 0.828613 0.317871
vt 0.694824 0.522949
vt 0.823730 0.522949
vt 0.690430 0.317871
vt 0.324219 0.548828
vt 0.156372 0.753906
vt 0.319092 0.753906
vt 0.151245 0.548828
vt 0.509277 0.996582
vt 0.642090 0.791504
vt 0.503906 0.791504
vt 0.637695 0.996582
vt 0.320801 0.307861
vt 0.203369 0.548340
vt 0.316406 0.546875
vt 0.192383 0.307861
vt 0.327637 0.756348
vt 0.172363 0.995605
vt 0.319824 0.995605
vt 0.164551 0.756348
vt 0.324463 0.547852
vt 0.448730 0.308838
vt 0.335693 0.307617
vt 0.453125 0.547852
vt 0.857422 0.077148
vt 0.758789 0.316650
vt 0.851562 0.316162
vt 0.744141 0.076721
vt 0.144287 0.511230
vt 0.006897 0.750488
vt 0.134277 0.750488
vt -0.003113 0.511230
vt 0.440186 0.373291
vt 0.548340 0.134277
vt 0.455322 0.133423
vt 0.553223 0.373291
vt 0.725098 0.814941
vt 0.649902 0.815430
vt 0.645508 0.994629
vt 0.738281 0.994629
vt 0.800781 0.751465
vt 0.919434 0.571777
vt 0.810059 0.571777
vt 0.928223 0.750977
vt 0.935547 0.994629
vt 0.931641 0.815430
vt 0.855957 0.814941
vt 0.842773 0.994629
vt 0.562988 0.297852
vt 0.623047 0.118408
vt 0.547852 0.118408
vt 0.619141 0.297852
vt 0.643555 0.298096
vt 0.743164 0.118713
vt 0.633789 0.118713
vt 0.733887 0.298096
vt 0.936523 0.198120
vt 0.932617 0.018646
vt 0.876953 0.018570
vt 0.861328 0.197876
vt 0.987305 0.472168
vt 0.989746 0.386719
vt 0.941406 0.472168
vt 0.934082 0.385986
vt 0.547852 0.458252
vt 0.462402 0.453369
vt 0.547852 0.538574
vt 0.462402 0.543457
vt 0.984375 0.897461
vt 0.937012 0.811035
vt 0.938477 0.896484
vt 0.992676 0.811035
vt 0.990723 0.473633
vt 0.930664 0.653320
vt 0.986328 0.653320
vt 0.915527 0.473633
vt 0.312256 0.126343
vt 0.212524 0.305664
vt 0.302490 0.305664
vt 0.202759 0.126343
vt 0.137085 0.118469
vt 0.121338 0.297607
vt 0.196655 0.298096
vt 0.192993 0.118530
s 1
f 1/1/1 2/2/1 3/3/1
f 2/2/1 1/1/1 4/4/1
f 5/5/2 6/6/2 7/7/3
f 6/6/2 5/5/2 8/8/2
f 9/9/4 10/10/4 11/11/4
f 11/11/4 12/12/4 9/9/4
f 13/13/5 14/14/5 15/15/5
f 14/14/5 13/13/5 16/16/5
f 17/17/6 18/18/6 19/19/6
f 18/18/6 17/17/6 20/20/6
f 21/21/7 22/22/7 23/23/8
f 23/23/8 24/24/7 21/21/7
f 25/25/9 26/26/9 27/27/9
f 26/26/9 25/25/9 28/28/9
f 29/29/10 30/30/11 31/31/10
f 30/30/11 29/29/10 32/32/11
f 33/33/12 34/34/12 35/35/13
f 35/35/13 36/36/13 33/33/12
f 37/37/14 38/38/15 39/39/14
f 39/39/14 38/38/15 40/40/16
f 41/41/17 42/42/17 43/43/17
f 42/42/17 44/44/18 43/43/17
f 45/45/19 46/46/20 47/47/21
f 47/47/21 46/46/20 48/48/21
f 49/49/22 50/50/22 51/51/22
f 50/50/22 49/49/22 52/52/22
f 53/53/23 54/54/23 55/55/23
f 54/54/23 53/53/23 56/56/23
f 57/57/24 58/58/25 59/59/25
f 58/58/25 57/57/24 60/60/25
f 61/61/26 62/62/26 63/63/26
f 62/62/26 61/61/26 64/64/26
f 65/65/27 66/66/27 67/67/27
f 66/66/27 65/65/27 68/68/27
f 69/69/28 70/70/28 71/71/28
f 70/70/28 69/69/28 72/72/28
f 73/73/29 74/74/29 75/75/29
f 74/74/29 73/73/29 76/76/29
f 77/77/30 78/78/30 79/79/30
f 78/78/30 77/77/30 80/80/30
f 81/81/31 82/82/31 83/83/31
f 82/82/31 81/81/31 84/84/31
f 85/85/32 86/86/32 87/87/32
f 86/86/32 85/85/32 88/88/32
f 89/89/33 90/90/33 91/91/33
f 90/90/33 89/89/33 92/92/33
f 93/93/34 94/94/35 95/95/35
f 94/94/35 93/93/34 96/96/35
f 97/97/36 98/98/36 99/99/36
f 97/97/36 99/99/36 100/100/37
f 101/101/38 102/102/39 103/103/40
f 102/102/39 101/101/38 104/104/40
f 105/105/41 106/106/42 107/107/41
f 107/107/41 108/108/41 105/105/41
f 109/109/43 110/110/44 111/111/45
f 110/110/44 109/109/43 112/112/46
f 113/113/47 114/114/47 115/115/47
f 114/114/47 113/113/47 116/116/47
f 117/117/48 118/118/49 119/119/50
f 119/119/50 120/120/51 117/117/48
f 121/121/52 122/122/52 123/123/52
f 123/123/52 122/122/52 124/124/52
f 125/125/53 126/126/53 127/127/53
f 127/127/53 126/126/53 128/128/53
f 129/129/54 130/130/54 131/131/54
f 130/130/54 129/129/54 132/132/54
f 133/133/55 134/134/56 135/135/56
f 134/134/56 133/133/55 136/136/57
f 137/137/58 138/138/58 139/139/58
f 138/138/58 137/137/58 140/140/58
f 141/141/59 142/142/60 143/143/60
f 141/141/59 143/143/60 144/144/61
