# Blender 5.1.1
# www.blender.org
o SM_BuildingBlockTriangle_1x2x3m.mo_MI_BuildingBlocks_Yellow_0
v -0.839065 0.729979 0.841040
v -0.839141 0.729642 0.841711
v -0.838843 0.729840 0.841425
v -0.839537 0.729816 0.841309
v -0.873872 0.703137 0.861787
v -0.852381 0.729980 0.817974
v -0.874511 0.703156 0.861590
v -0.874233 0.702671 0.861893
v -0.874692 0.702583 0.861694
v -0.888128 0.702554 0.838494
v -0.852998 0.729644 0.817705
v -0.852602 0.729841 0.817591
v -0.888041 0.703072 0.838409
v -0.888062 0.702649 0.838014
v -0.887839 0.703086 0.837778
v -0.852849 0.729820 0.818243
v -0.852381 0.729980 0.817974
v -0.852308 0.729640 0.817306
v -0.852602 0.729841 0.817591
v -0.851915 0.729814 0.817704
v -0.839065 0.729979 0.841040
v -0.817805 0.702731 0.797364
v -0.838595 0.729814 0.840774
v -0.838843 0.729840 0.841425
v -0.838447 0.729640 0.841313
v -0.803926 0.702731 0.821404
v -0.803778 0.702746 0.820752
v -0.803658 0.702262 0.821147
v -0.803602 0.702171 0.820651
v -0.817167 0.702746 0.797562
v -0.816967 0.702175 0.797410
v -0.817418 0.702260 0.797228
v -0.873704 0.702481 0.861690
v -0.873872 0.703137 0.861787
v -0.874233 0.702671 0.861893
v -0.872822 0.703106 0.861415
v -0.839141 0.729642 0.841711
v -0.804101 0.702078 0.821505
v -0.838683 0.729294 0.841705
v -0.838843 0.729840 0.841425
v -0.838447 0.729640 0.841313
v -0.804774 0.702711 0.822127
v -0.803926 0.702731 0.821404
v -0.803658 0.702262 0.821147
v -0.817899 0.702069 0.797398
v -0.817805 0.702731 0.797364
v -0.817418 0.702260 0.797228
v -0.818855 0.702711 0.797737
v -0.852308 0.729640 0.817306
v -0.887583 0.702481 0.837651
v -0.852765 0.729294 0.817315
v -0.852602 0.729841 0.817591
v -0.852998 0.729644 0.817705
v -0.886904 0.703106 0.837025
v -0.887839 0.703086 0.837778
v -0.888062 0.702649 0.838014
v -0.874233 0.702671 0.861893
v -0.874269 0.702217 0.861450
v -0.873704 0.702481 0.861690
v -0.874692 0.702583 0.861694
v -0.804101 0.702078 0.821505
v -0.887658 0.702217 0.838260
v -0.888128 0.702554 0.838494
v -0.888062 0.702649 0.838014
v -0.887583 0.702481 0.837651
v -0.817899 0.702069 0.797398
v -0.804028 0.701810 0.820896
v -0.803658 0.702262 0.821147
v -0.803602 0.702171 0.820651
v -0.816967 0.702175 0.797410
v -0.817316 0.701809 0.797576
v -0.817418 0.702260 0.797228
vn 0.0097 1.0000 -0.0011
vn 0.0792 0.5435 0.8356
vn 0.2780 0.8315 0.4810
vn -0.4676 0.8402 0.2746
vn -0.0892 0.6770 0.7305
vn 0.0018 0.9999 -0.0146
vn -0.4756 0.8342 0.2791
vn -0.0391 -0.1519 0.9876
vn -0.8031 -0.3564 0.4774
vn -0.8225 -0.3328 0.4612
vn -0.6842 0.5239 -0.5072
vn -0.2735 0.8278 -0.4899
vn -0.4834 0.8342 0.2654
vn -0.8240 -0.2617 -0.5026
vn -0.6781 0.6739 -0.2934
vn -0.4755 0.8401 0.2608
vn 0.0019 0.9999 -0.0147
vn -0.0709 0.5352 -0.8417
vn -0.2735 0.8277 -0.4899
vn 0.4757 0.8310 -0.2883
vn 0.0098 1.0000 -0.0011
vn 0.0972 0.6671 -0.7386
vn 0.4836 0.8311 -0.2746
vn 0.6937 0.5385 0.4784
vn 0.6875 0.6702 0.2796
vn 0.4914 0.8250 -0.2792
vn 0.8766 -0.1565 0.4550
vn 0.8505 -0.2206 -0.4775
vn 0.4836 0.8249 -0.2928
vn 0.8353 -0.2372 -0.4960
vn 0.0436 -0.0302 -0.9986
vn 0.3184 -0.7712 0.5513
vn -0.0892 0.6771 0.7305
vn -0.0390 -0.1519 0.9876
vn 0.4895 -0.0197 0.8718
vn 0.3183 -0.7712 0.5513
vn 0.5034 0.0119 0.8640
vn 0.2780 0.8314 0.4811
vn 0.6937 0.5384 0.4784
vn 0.5168 -0.0199 0.8559
vn -0.3206 -0.7673 -0.5554
vn 0.0436 -0.0301 -0.9986
vn -0.4829 -0.0197 -0.8754
vn -0.0710 0.5352 -0.8417
vn -0.3289 -0.7529 -0.5701
vn -0.4965 0.0118 -0.8679
vn -0.6843 0.5239 -0.5073
vn -0.5102 -0.0195 -0.8599
vn -0.6781 0.6739 -0.2933
vn -0.0390 -0.1518 0.9876
vn -0.0058 -1.0000 0.0080
vn 0.3184 -0.7711 0.5513
vn -0.8032 -0.3564 0.4774
vn -0.0137 -0.9999 -0.0058
vn -0.8226 -0.3328 0.4611
vn -0.8240 -0.2617 -0.5025
vn -0.3290 -0.7529 -0.5701
vn -0.3206 -0.7673 -0.5555
vn 0.0079 -1.0000 -0.0000
vn 0.8767 -0.1565 0.4549
vn 0.8505 -0.2205 -0.4775
vn 0.8353 -0.2372 -0.4959
vn -0.0000 -0.9999 -0.0137
vt 0.668457 0.496094
vt 0.664551 0.499756
vt 0.667480 0.499023
vt 0.664551 0.496094
vt 0.341553 0.500000
vt 0.668457 0.336426
vt 0.339111 0.496582
vt 0.336914 0.499756
vt 0.334961 0.496582
vt 0.334473 0.335693
vt 0.664551 0.332764
vt 0.667969 0.333496
vt 0.337891 0.335449
vt 0.336426 0.332520
vt 0.340820 0.332520
vt 0.664551 0.336426
vt 0.334717 0.336182
vt 0.338379 0.332764
vt 0.335205 0.333252
vt 0.338379 0.336182
vt 0.334717 0.496094
vt 0.661621 0.332520
vt 0.338379 0.496094
vt 0.335205 0.499023
vt 0.338379 0.499756
vt 0.661621 0.500000
vt 0.664062 0.496582
vt 0.666016 0.499512
vt 0.667969 0.496582
vt 0.664062 0.335693
vt 0.667969 0.335693
vt 0.666016 0.332764
vt 0.157227 0.164917
vt 0.155884 0.160889
vt 0.153687 0.163696
vt 0.162842 0.161011
vt 0.403076 0.005032
vt 0.653809 0.164917
vt 0.405518 0.007313
vt 0.405518 0.003691
vt 0.408203 0.005028
vt 0.648438 0.161011
vt 0.655273 0.160889
vt 0.657715 0.163696
vt 0.019592 0.164917
vt 0.018921 0.160767
vt 0.016418 0.163696
vt 0.025894 0.161011
vt 0.266113 0.005028
vt 0.517090 0.164917
vt 0.268555 0.007313
vt 0.268555 0.003689
vt 0.271240 0.005028
vt 0.511230 0.161011
vt 0.519043 0.161133
vt 0.520996 0.163818
vt 0.665527 0.329346
vt 0.662598 0.326416
vt 0.659668 0.329590
vt 0.667480 0.326416
vt 0.010872 0.329834
vt 0.662598 0.169067
vt 0.667480 0.168823
vt 0.665527 0.166016
vt 0.659668 0.165771
vt 0.010162 0.165649
vt 0.007957 0.326416
vt 0.005440 0.329590
vt 0.003044 0.326660
vt 0.002592 0.168823
vt 0.006870 0.168701
vt 0.005112 0.165894
s 1
f 1/1/1 2/2/2 3/3/3
f 2/2/2 1/1/1 4/4/4
f 4/4/4 5/5/5 2/2/2
f 1/1/1 6/6/6 4/4/4
f 5/5/5 4/4/4 7/7/7
f 7/7/7 8/8/8 5/5/5
f 8/8/8 7/7/7 9/9/9
f 7/7/7 10/10/10 9/9/9
f 11/11/11 6/6/6 12/12/12
f 10/10/10 7/7/7 13/13/13
f 13/13/13 14/14/14 10/10/10
f 14/14/14 13/13/13 15/15/15
f 16/16/16 6/6/6 11/11/11
f 15/15/15 16/16/16 11/11/11
f 13/13/13 16/16/16 15/15/15
f 7/7/7 16/16/16 13/13/13
f 16/16/16 4/4/4 6/6/6
f 16/16/16 7/7/7 4/4/4
f 17/17/17 18/18/18 19/19/19
f 17/17/17 20/20/20 18/18/18
f 17/17/17 21/21/21 20/20/20
f 20/20/20 22/22/22 18/18/18
f 23/23/23 20/20/20 21/21/21
f 24/24/3 23/23/23 21/21/21
f 23/23/23 24/24/3 25/25/24
f 25/25/24 26/26/25 23/23/23
f 27/27/26 23/23/23 26/26/25
f 20/20/20 23/23/23 27/27/26
f 28/28/27 27/27/26 26/26/25
f 27/27/26 28/28/27 29/29/28
f 20/20/20 27/27/26 30/30/29
f 29/29/28 30/30/29 27/27/26
f 22/22/22 20/20/20 30/30/29
f 30/30/29 29/29/28 31/31/30
f 30/30/29 32/32/31 22/22/22
f 32/32/31 30/30/29 31/31/30
f 33/33/32 34/34/33 35/35/34
f 36/36/35 34/34/33 33/33/32
f 36/36/35 37/37/2 34/34/33
f 33/33/32 38/38/36 36/36/35
f 37/37/2 36/36/35 39/39/37
f 39/39/37 40/40/38 37/37/2
f 40/40/38 39/39/37 41/41/39
f 42/42/40 39/39/37 36/36/35
f 42/42/40 41/41/39 39/39/37
f 36/36/35 38/38/36 42/42/40
f 43/43/25 41/41/39 42/42/40
f 42/42/40 38/38/36 43/43/25
f 43/43/25 38/38/36 44/44/27
f 45/45/41 46/46/22 47/47/42
f 48/48/43 46/46/22 45/45/41
f 48/48/43 49/49/44 46/46/22
f 45/45/41 50/50/45 48/48/43
f 49/49/44 48/48/43 51/51/46
f 51/51/46 52/52/19 49/49/44
f 52/52/19 51/51/46 53/53/47
f 51/51/46 48/48/43 54/54/48
f 54/54/48 53/53/47 51/51/46
f 48/48/43 50/50/45 54/54/48
f 55/55/49 53/53/47 54/54/48
f 54/54/48 50/50/45 55/55/49
f 55/55/49 50/50/45 56/56/14
f 57/57/50 58/58/51 59/59/52
f 58/58/51 57/57/50 60/60/53
f 58/58/51 61/61/52 59/59/52
f 60/60/53 62/62/54 58/58/51
f 62/62/54 60/60/53 63/63/55
f 64/64/56 62/62/54 63/63/55
f 62/62/54 64/64/56 65/65/57
f 66/66/58 62/62/54 65/65/57
f 61/61/52 58/58/51 67/67/59
f 62/62/54 67/67/59 58/58/51
f 67/67/59 68/68/60 61/61/52
f 68/68/60 67/67/59 69/69/61
f 67/67/59 70/70/62 69/69/61
f 71/71/63 62/62/54 66/66/58
f 67/67/59 62/62/54 71/71/63
f 70/70/62 67/67/59 71/71/63
f 72/72/42 71/71/63 66/66/58
f 71/71/63 72/72/42 70/70/62
